<svg width="334" height="250" viewBox="0 0 334 250" fill="none" xmlns="http://www.w3.org/2000/svg">
<g filter="url(#filter0_d_15_2182)">
<rect width="308" height="224" rx="8" transform="matrix(-1 0 0 1 321 3)" fill="#1D0D40" shape-rendering="crispEdges"/>
<path d="M215.837 31H214.323L217.725 21.5455H219.374L222.776 31H221.262L218.589 23.2628H218.515L215.837 31ZM216.091 27.2976H221.003V28.4979H216.091V27.2976ZM226.903 31.1431C226.217 31.1431 225.626 30.9877 225.13 30.6768C224.638 30.3629 224.259 29.9305 223.995 29.3796C223.73 28.8287 223.598 28.1978 223.598 27.4869C223.598 26.7667 223.733 26.1312 224.004 25.5803C224.275 25.0263 224.656 24.5939 225.149 24.283C225.641 23.9722 226.221 23.8168 226.889 23.8168C227.428 23.8168 227.908 23.9168 228.33 24.1168C228.751 24.3138 229.091 24.5908 229.35 24.9478C229.611 25.3048 229.767 25.7218 229.816 26.1989H228.473C228.399 25.8665 228.23 25.5803 227.965 25.3402C227.703 25.1001 227.352 24.9801 226.912 24.9801C226.528 24.9801 226.191 25.0817 225.901 25.2848C225.615 25.4848 225.392 25.7711 225.232 26.1435C225.072 26.5128 224.992 26.9498 224.992 27.4545C224.992 27.9716 225.07 28.4179 225.227 28.7933C225.384 29.1688 225.606 29.4596 225.892 29.6658C226.181 29.872 226.521 29.9751 226.912 29.9751C227.174 29.9751 227.411 29.9274 227.623 29.832C227.839 29.7335 228.019 29.5935 228.163 29.4119C228.311 29.2304 228.414 29.0118 228.473 28.7564H229.816C229.767 29.215 229.618 29.6243 229.368 29.9844C229.119 30.3445 228.785 30.6276 228.366 30.8338C227.951 31.04 227.463 31.1431 226.903 31.1431ZM234.602 23.9091V25.017H230.729V23.9091H234.602ZM231.768 22.2102H233.148V28.918C233.148 29.1857 233.188 29.3873 233.268 29.5227C233.348 29.6551 233.451 29.7459 233.577 29.7951C233.707 29.8413 233.847 29.8643 233.997 29.8643C234.108 29.8643 234.205 29.8567 234.288 29.8413C234.371 29.8259 234.436 29.8136 234.482 29.8043L234.731 30.9446C234.651 30.9754 234.538 31.0062 234.39 31.0369C234.242 31.0708 234.057 31.0893 233.836 31.0923C233.473 31.0985 233.134 31.0339 232.82 30.8984C232.506 30.763 232.252 30.5537 232.059 30.2706C231.865 29.9875 231.768 29.632 231.768 29.2042V22.2102ZM236.129 31V23.9091H237.509V31H236.129ZM236.826 22.815C236.586 22.815 236.38 22.735 236.208 22.5749C236.038 22.4118 235.954 22.2179 235.954 21.9933C235.954 21.7655 236.038 21.5716 236.208 21.4116C236.38 21.2485 236.586 21.1669 236.826 21.1669C237.066 21.1669 237.271 21.2485 237.44 21.4116C237.613 21.5716 237.699 21.7655 237.699 21.9933C237.699 22.2179 237.613 22.4118 237.44 22.5749C237.271 22.735 237.066 22.815 236.826 22.815ZM245.432 23.9091L242.861 31H241.384L238.808 23.9091H240.29L242.085 29.3658H242.159L243.951 23.9091H245.432ZM249.545 31.1431C248.846 31.1431 248.244 30.9938 247.74 30.6953C247.238 30.3937 246.85 29.9705 246.576 29.4258C246.305 28.878 246.17 28.2363 246.17 27.5007C246.17 26.7744 246.305 26.1342 246.576 25.5803C246.85 25.0263 247.232 24.5939 247.721 24.283C248.213 23.9722 248.789 23.8168 249.448 23.8168C249.848 23.8168 250.235 23.8829 250.611 24.0153C250.986 24.1476 251.323 24.3554 251.622 24.6385C251.921 24.9216 252.156 25.2894 252.328 25.7418C252.501 26.1912 252.587 26.7375 252.587 27.3807V27.87H246.95V26.8359H251.234C251.234 26.4728 251.16 26.1512 251.013 25.8711C250.865 25.5879 250.657 25.3648 250.389 25.2017C250.125 25.0386 249.814 24.957 249.457 24.957C249.069 24.957 248.731 25.0524 248.441 25.2433C248.155 25.431 247.933 25.6772 247.776 25.9819C247.623 26.2835 247.546 26.6113 247.546 26.9652V27.7731C247.546 28.247 247.629 28.6502 247.795 28.9826C247.964 29.315 248.2 29.5689 248.501 29.7443C248.803 29.9167 249.155 30.0028 249.558 30.0028C249.82 30.0028 250.059 29.9659 250.274 29.892C250.489 29.8151 250.676 29.7012 250.833 29.5504C250.99 29.3996 251.11 29.2134 251.193 28.9918L252.499 29.2273C252.394 29.612 252.207 29.949 251.936 30.2383C251.668 30.5245 251.331 30.7476 250.925 30.9077C250.522 31.0646 250.062 31.1431 249.545 31.1431ZM263.749 21.5455H265.181V27.7638C265.181 28.4255 265.025 29.0118 264.714 29.5227C264.403 30.0305 263.966 30.4306 263.403 30.723C262.84 31.0123 262.18 31.157 261.423 31.157C260.669 31.157 260.01 31.0123 259.447 30.723C258.884 30.4306 258.447 30.0305 258.136 29.5227C257.825 29.0118 257.67 28.4255 257.67 27.7638V21.5455H259.096V27.6484C259.096 28.0762 259.19 28.4563 259.378 28.7887C259.568 29.1211 259.838 29.3827 260.186 29.5735C260.533 29.7612 260.946 29.8551 261.423 29.8551C261.903 29.8551 262.317 29.7612 262.665 29.5735C263.015 29.3827 263.283 29.1211 263.468 28.7887C263.656 28.4563 263.749 28.0762 263.749 27.6484V21.5455ZM272.457 25.6403L271.206 25.8619C271.154 25.7018 271.071 25.5495 270.957 25.4048C270.846 25.2602 270.695 25.1417 270.505 25.0494C270.314 24.957 270.075 24.9109 269.789 24.9109C269.398 24.9109 269.072 24.9986 268.81 25.174C268.549 25.3464 268.418 25.5695 268.418 25.8434C268.418 26.0804 268.506 26.2712 268.681 26.4158C268.856 26.5605 269.14 26.679 269.53 26.7713L270.657 27.0298C271.309 27.1806 271.796 27.413 272.116 27.7269C272.436 28.0408 272.596 28.4486 272.596 28.9503C272.596 29.375 272.473 29.7536 272.226 30.0859C271.983 30.4152 271.643 30.6738 271.206 30.8615C270.772 31.0492 270.269 31.1431 269.697 31.1431C268.903 31.1431 268.255 30.9738 267.753 30.6353C267.251 30.2937 266.944 29.8089 266.83 29.1811L268.164 28.978C268.247 29.3258 268.418 29.5889 268.676 29.7674C268.935 29.9428 269.272 30.0305 269.687 30.0305C270.14 30.0305 270.501 29.9367 270.772 29.7489C271.043 29.5581 271.179 29.3258 271.179 29.0518C271.179 28.8303 271.095 28.6441 270.929 28.4933C270.766 28.3424 270.515 28.2286 270.177 28.1516L268.976 27.8885C268.315 27.7377 267.825 27.4976 267.508 27.1683C267.195 26.839 267.038 26.422 267.038 25.9173C267.038 25.4987 267.155 25.1325 267.388 24.8185C267.622 24.5046 267.945 24.2599 268.358 24.0845C268.77 23.906 269.243 23.8168 269.775 23.8168C270.541 23.8168 271.145 23.983 271.585 24.3153C272.025 24.6446 272.316 25.0863 272.457 25.6403ZM277.17 31.1431C276.471 31.1431 275.869 30.9938 275.365 30.6953C274.863 30.3937 274.475 29.9705 274.201 29.4258C273.93 28.878 273.795 28.2363 273.795 27.5007C273.795 26.7744 273.93 26.1342 274.201 25.5803C274.475 25.0263 274.857 24.5939 275.346 24.283C275.838 23.9722 276.414 23.8168 277.073 23.8168C277.473 23.8168 277.86 23.8829 278.236 24.0153C278.611 24.1476 278.948 24.3554 279.247 24.6385C279.546 24.9216 279.781 25.2894 279.953 25.7418C280.126 26.1912 280.212 26.7375 280.212 27.3807V27.87H274.575V26.8359H278.859C278.859 26.4728 278.785 26.1512 278.638 25.8711C278.49 25.5879 278.282 25.3648 278.014 25.2017C277.75 25.0386 277.439 24.957 277.082 24.957C276.694 24.957 276.356 25.0524 276.066 25.2433C275.78 25.431 275.558 25.6772 275.401 25.9819C275.248 26.2835 275.171 26.6113 275.171 26.9652V27.7731C275.171 28.247 275.254 28.6502 275.42 28.9826C275.589 29.315 275.825 29.5689 276.126 29.7443C276.428 29.9167 276.78 30.0028 277.183 30.0028C277.445 30.0028 277.684 29.9659 277.899 29.892C278.114 29.8151 278.301 29.7012 278.458 29.5504C278.615 29.3996 278.735 29.2134 278.818 28.9918L280.124 29.2273C280.019 29.612 279.832 29.949 279.561 30.2383C279.293 30.5245 278.956 30.7476 278.55 30.9077C278.147 31.0646 277.687 31.1431 277.17 31.1431ZM281.743 31V23.9091H283.078V25.0355H283.151C283.281 24.6539 283.508 24.3538 283.835 24.1353C284.164 23.9137 284.536 23.8029 284.952 23.8029C285.038 23.8029 285.14 23.806 285.256 23.8121C285.377 23.8183 285.47 23.826 285.538 23.8352V25.1555C285.483 25.1402 285.384 25.1232 285.243 25.1048C285.101 25.0832 284.959 25.0724 284.818 25.0724C284.492 25.0724 284.201 25.1417 283.945 25.2802C283.693 25.4156 283.493 25.6049 283.345 25.848C283.198 26.0881 283.124 26.362 283.124 26.6697V31H281.743ZM292.046 25.6403L290.795 25.8619C290.743 25.7018 290.66 25.5495 290.546 25.4048C290.435 25.2602 290.284 25.1417 290.093 25.0494C289.903 24.957 289.664 24.9109 289.378 24.9109C288.987 24.9109 288.661 24.9986 288.399 25.174C288.138 25.3464 288.007 25.5695 288.007 25.8434C288.007 26.0804 288.094 26.2712 288.27 26.4158C288.445 26.5605 288.728 26.679 289.119 26.7713L290.246 27.0298C290.898 27.1806 291.384 27.413 291.705 27.7269C292.025 28.0408 292.185 28.4486 292.185 28.9503C292.185 29.375 292.062 29.7536 291.815 30.0859C291.572 30.4152 291.232 30.6738 290.795 30.8615C290.361 31.0492 289.858 31.1431 289.286 31.1431C288.491 31.1431 287.844 30.9738 287.342 30.6353C286.84 30.2937 286.533 29.8089 286.419 29.1811L287.753 28.978C287.836 29.3258 288.007 29.5889 288.265 29.7674C288.524 29.9428 288.861 30.0305 289.276 30.0305C289.729 30.0305 290.09 29.9367 290.361 29.7489C290.632 29.5581 290.767 29.3258 290.767 29.0518C290.767 28.8303 290.684 28.6441 290.518 28.4933C290.355 28.3424 290.104 28.2286 289.766 28.1516L288.565 27.8885C287.904 27.7377 287.414 27.4976 287.097 27.1683C286.783 26.839 286.626 26.422 286.626 25.9173C286.626 25.4987 286.743 25.1325 286.977 24.8185C287.211 24.5046 287.534 24.2599 287.947 24.0845C288.359 23.906 288.832 23.8168 289.364 23.8168C290.13 23.8168 290.734 23.983 291.174 24.3153C291.614 24.6446 291.905 25.0863 292.046 25.6403Z" fill="white"/>
<ellipse cx="63" cy="62" rx="63" ry="62" transform="matrix(1 0 0 -1 171 194)" stroke="#CECECE" stroke-width="8"/>
<path d="M215.955 69.193C229.576 65.3238 244.063 65.8804 257.28 70.7805C270.497 75.6806 281.744 84.6648 289.361 96.4078C296.978 108.151 300.562 122.031 299.585 136C298.607 149.969 293.12 163.287 283.932 173.991C274.745 184.694 262.343 192.215 248.557 195.445C234.771 198.674 220.331 197.441 207.367 191.927C194.403 186.414 183.601 176.911 176.555 164.821C169.51 152.732 166.593 138.696 168.236 124.783L173.698 125.379C172.192 138.132 174.866 150.998 181.324 162.08C187.782 173.162 197.684 181.872 209.567 186.926C221.451 191.981 234.687 193.111 247.324 190.151C259.961 187.19 271.329 180.296 279.751 170.485C288.173 160.673 293.203 148.465 294.099 135.66C294.995 122.855 291.709 110.133 284.727 99.3684C277.745 88.6042 267.436 80.3688 255.32 75.8771C243.205 71.3855 229.925 70.8753 217.439 74.422L215.955 69.193Z" fill="#4B1161"/>
<ellipse cx="25.9175" cy="26.0723" rx="25.9175" ry="26.0723" transform="matrix(1 0 0 -1 206.271 161.123)" stroke="#CECECE" stroke-width="8"/>
<path d="M218.295 109.258C224.001 106.181 230.57 105.07 236.981 106.098C243.392 107.127 249.287 110.236 253.749 114.944C258.211 119.652 260.992 125.695 261.658 132.133C262.324 138.572 260.839 145.046 257.433 150.549C254.027 156.053 248.891 160.278 242.823 162.569C236.755 164.859 230.095 165.087 223.877 163.215C217.66 161.344 212.232 157.48 208.439 152.222C204.645 146.963 202.697 140.607 202.898 134.138L209.674 134.359C209.519 139.339 211.018 144.234 213.939 148.282C216.86 152.331 221.039 155.306 225.826 156.747C230.614 158.188 235.742 158.013 240.414 156.249C245.086 154.486 249.04 151.232 251.662 146.995C254.285 142.757 255.428 137.772 254.915 132.815C254.402 127.858 252.262 123.205 248.826 119.58C245.39 115.956 240.851 113.561 235.915 112.77C230.979 111.978 225.921 112.833 221.528 115.203L218.295 109.258Z" fill="#341457"/>
<path d="M276.757 134.691C276.757 110.144 256.893 90.255 232.402 90.255C207.912 90.255 188.048 110.144 188.048 134.691C188.048 159.239 207.912 179.128 232.402 179.128C256.893 179.128 276.757 159.239 276.757 134.691Z" stroke="#E9E9E9" stroke-width="8"/>
<path d="M209.175 93.0868C218.093 88.0839 228.38 86.0825 238.518 87.3776C248.656 88.6727 258.11 93.1957 265.486 100.28C272.862 107.364 277.77 116.635 279.486 126.726C281.202 136.816 279.636 147.193 275.018 156.327C270.4 165.46 262.975 172.867 253.837 177.455C244.699 182.044 234.332 183.571 224.263 181.812C214.195 180.053 204.958 175.101 197.914 167.685C190.87 160.27 186.392 150.783 185.139 140.624L191.624 139.821C192.705 148.588 196.57 156.774 202.648 163.174C208.727 169.573 216.699 173.847 225.388 175.365C234.077 176.883 243.024 175.565 250.91 171.606C258.796 167.646 265.203 161.254 269.189 153.372C273.174 145.49 274.526 136.534 273.045 127.826C271.564 119.118 267.329 111.117 260.963 105.004C254.598 98.8899 246.439 94.9865 237.69 93.8689C228.94 92.7513 220.063 94.4785 212.366 98.7959L209.175 93.0868Z" fill="#5F3B8D"/>
<circle cx="6.5" cy="6.5" r="6.5" transform="matrix(-1 0 0 1 132 51.5)" fill="#5C1D80"/>
<path d="M50.8295 44.4545C50.7784 44.0227 50.571 43.6875 50.2074 43.4489C49.8438 43.2102 49.3977 43.0909 48.8693 43.0909C48.483 43.0909 48.1449 43.1534 47.8551 43.2784C47.5682 43.4034 47.3438 43.5753 47.1818 43.794C47.0227 44.0128 46.9432 44.2614 46.9432 44.5398C46.9432 44.7727 46.9986 44.973 47.1094 45.1406C47.223 45.3054 47.3679 45.4432 47.544 45.554C47.7202 45.6619 47.9048 45.7514 48.098 45.8224C48.2912 45.8906 48.4688 45.946 48.6307 45.9886L49.517 46.2273C49.7443 46.2869 49.9972 46.3693 50.2756 46.4744C50.5568 46.5795 50.8253 46.723 51.081 46.9048C51.3395 47.0838 51.5526 47.3139 51.7202 47.5952C51.8878 47.8764 51.9716 48.2216 51.9716 48.6307C51.9716 49.1023 51.848 49.5284 51.6009 49.9091C51.3565 50.2898 50.9986 50.5923 50.527 50.8168C50.0582 51.0412 49.4886 51.1534 48.8182 51.1534C48.1932 51.1534 47.652 51.0526 47.1946 50.8509C46.7401 50.6491 46.3821 50.3679 46.1207 50.0071C45.8622 49.6463 45.7159 49.2273 45.6818 48.75H46.7727C46.8011 49.0795 46.9119 49.3523 47.1051 49.5682C47.3011 49.7812 47.5483 49.9403 47.8466 50.0455C48.1477 50.1477 48.4716 50.1989 48.8182 50.1989C49.2216 50.1989 49.5838 50.1335 49.9048 50.0028C50.2259 49.8693 50.4801 49.6847 50.6676 49.4489C50.8551 49.2102 50.9489 48.9318 50.9489 48.6136C50.9489 48.3239 50.8679 48.0881 50.706 47.9062C50.544 47.7244 50.331 47.5767 50.0668 47.4631C49.8026 47.3494 49.517 47.25 49.2102 47.1648L48.1364 46.858C47.4545 46.6619 46.9148 46.3821 46.517 46.0185C46.1193 45.6548 45.9205 45.179 45.9205 44.5909C45.9205 44.1023 46.0526 43.6761 46.3168 43.3125C46.5838 42.946 46.9418 42.6619 47.3906 42.4602C47.8423 42.2557 48.3466 42.1534 48.9034 42.1534C49.4659 42.1534 49.9659 42.2543 50.4034 42.456C50.8409 42.6548 51.1875 42.9276 51.4432 43.2741C51.7017 43.6207 51.8381 44.0142 51.8523 44.4545H50.8295ZM55.4989 51.1534C55.0842 51.1534 54.7077 51.0753 54.3697 50.919C54.0316 50.7599 53.7631 50.5312 53.5643 50.233C53.3654 49.9318 53.266 49.5682 53.266 49.142C53.266 48.767 53.3398 48.4631 53.4876 48.2301C53.6353 47.9943 53.8327 47.8097 54.0799 47.6761C54.3271 47.5426 54.5998 47.4432 54.8981 47.3778C55.1992 47.3097 55.5018 47.2557 55.8058 47.2159C56.2035 47.1648 56.5259 47.1264 56.7731 47.1009C57.0231 47.0724 57.2049 47.0256 57.3185 46.9602C57.435 46.8949 57.4933 46.7812 57.4933 46.6193V46.5852C57.4933 46.1648 57.3782 45.8381 57.1481 45.6051C56.9208 45.3722 56.5756 45.2557 56.1126 45.2557C55.6325 45.2557 55.256 45.3608 54.9833 45.571C54.7106 45.7812 54.5188 46.0057 54.408 46.2443L53.4535 45.9034C53.6239 45.5057 53.8512 45.196 54.1353 44.9744C54.4222 44.75 54.7347 44.5937 55.0728 44.5057C55.4137 44.4148 55.7489 44.3693 56.0785 44.3693C56.2887 44.3693 56.5302 44.3949 56.8029 44.446C57.0785 44.4943 57.3441 44.5952 57.5998 44.7486C57.8583 44.902 58.0728 45.1335 58.2433 45.4432C58.4137 45.7528 58.4989 46.1676 58.4989 46.6875V51H57.4933V50.1136H57.4421C57.3739 50.2557 57.2603 50.4077 57.1012 50.5696C56.9421 50.7315 56.7305 50.8693 56.4663 50.983C56.2021 51.0966 55.8796 51.1534 55.4989 51.1534ZM55.6523 50.25C56.0501 50.25 56.3853 50.1719 56.658 50.0156C56.9336 49.8594 57.141 49.6577 57.2802 49.4105C57.4222 49.1634 57.4933 48.9034 57.4933 48.6307V47.7102C57.4506 47.7614 57.3569 47.8082 57.212 47.8509C57.07 47.8906 56.9052 47.9261 56.7177 47.9574C56.533 47.9858 56.3526 48.0114 56.1765 48.0341C56.0032 48.054 55.8626 48.071 55.7546 48.0852C55.4933 48.1193 55.2489 48.1747 55.0217 48.2514C54.7972 48.3253 54.6154 48.4375 54.4762 48.5881C54.3398 48.7358 54.2717 48.9375 54.2717 49.1932C54.2717 49.5426 54.4009 49.8068 54.6594 49.9858C54.9208 50.1619 55.2518 50.25 55.6523 50.25ZM61.3402 42.2727V51H60.3345V42.2727H61.3402ZM65.9265 51.1364C65.2958 51.1364 64.7518 50.9972 64.2944 50.7188C63.8398 50.4375 63.489 50.0455 63.2418 49.5426C62.9975 49.0369 62.8754 48.4489 62.8754 47.7784C62.8754 47.108 62.9975 46.517 63.2418 46.0057C63.489 45.4915 63.8327 45.0909 64.2731 44.804C64.7163 44.5142 65.2333 44.3693 65.8242 44.3693C66.1651 44.3693 66.5018 44.4261 66.8342 44.5398C67.1665 44.6534 67.4691 44.8381 67.7418 45.0938C68.0146 45.3466 68.2319 45.6818 68.3938 46.0994C68.5558 46.517 68.6367 47.0312 68.6367 47.642V48.0682H63.5913V47.1989H67.614C67.614 46.8295 67.5401 46.5 67.3924 46.2102C67.2475 45.9205 67.0401 45.6918 66.7702 45.5241C66.5032 45.3565 66.1879 45.2727 65.8242 45.2727C65.4237 45.2727 65.0771 45.3722 64.7844 45.571C64.4947 45.767 64.2717 46.0227 64.1154 46.3381C63.9592 46.6534 63.881 46.9915 63.881 47.3523V47.9318C63.881 48.4261 63.9663 48.8452 64.1367 49.1889C64.31 49.5298 64.5501 49.7898 64.8569 49.9688C65.1637 50.1449 65.5202 50.233 65.9265 50.233C66.1907 50.233 66.4293 50.196 66.6424 50.1222C66.8583 50.0455 67.0444 49.9318 67.2006 49.7812C67.3569 49.6278 67.4776 49.4375 67.5629 49.2102L68.5344 49.483C68.4322 49.8125 68.2603 50.1023 68.0188 50.3523C67.7773 50.5994 67.479 50.7926 67.1239 50.9318C66.7688 51.0682 66.3697 51.1364 65.9265 51.1364ZM74.8029 45.9205L73.8995 46.1761C73.8427 46.0256 73.7589 45.8793 73.6481 45.7372C73.5401 45.5923 73.3924 45.473 73.2049 45.3793C73.0174 45.2855 72.7773 45.2386 72.4847 45.2386C72.0842 45.2386 71.7504 45.331 71.4833 45.5156C71.2191 45.6974 71.087 45.929 71.087 46.2102C71.087 46.4602 71.1779 46.6577 71.3597 46.8026C71.5415 46.9474 71.8256 47.0682 72.212 47.1648L73.1836 47.4034C73.7688 47.5455 74.2049 47.7628 74.4918 48.0554C74.7788 48.3452 74.9222 48.7187 74.9222 49.1761C74.9222 49.5511 74.8143 49.8864 74.5984 50.1818C74.3853 50.4773 74.087 50.7102 73.7035 50.8807C73.32 51.0511 72.8739 51.1364 72.3654 51.1364C71.6978 51.1364 71.1452 50.9915 70.7077 50.7017C70.2702 50.4119 69.9933 49.9886 69.8768 49.4318L70.8313 49.1932C70.9222 49.5455 71.0941 49.8097 71.3469 49.9858C71.6026 50.1619 71.9364 50.25 72.3484 50.25C72.8171 50.25 73.1893 50.1506 73.4648 49.9517C73.7433 49.75 73.8825 49.5085 73.8825 49.2273C73.8825 49 73.8029 48.8097 73.6438 48.6562C73.4847 48.5 73.2404 48.3835 72.9109 48.3068L71.82 48.0511C71.2205 47.9091 70.7802 47.6889 70.4989 47.3906C70.2205 47.0895 70.0813 46.7131 70.0813 46.2614C70.0813 45.892 70.185 45.5653 70.3924 45.2812C70.6026 44.9972 70.8881 44.7741 71.2489 44.6122C71.6126 44.4503 72.0245 44.3693 72.4847 44.3693C73.1325 44.3693 73.641 44.5114 74.0103 44.7955C74.3825 45.0795 74.6467 45.4545 74.8029 45.9205ZM79.3509 44.4545V45.3068H75.8224V44.4545H79.3509ZM76.8793 51V43.5511C76.8793 43.1761 76.9673 42.8636 77.1435 42.6136C77.3196 42.3636 77.5483 42.1761 77.8295 42.0511C78.1108 41.9261 78.4077 41.8636 78.7202 41.8636C78.9673 41.8636 79.169 41.8835 79.3253 41.9233C79.4815 41.9631 79.598 42 79.6747 42.0341L79.3849 42.9034C79.3338 42.8864 79.2628 42.8651 79.1719 42.8395C79.0838 42.8139 78.9673 42.8011 78.8224 42.8011C78.4901 42.8011 78.25 42.8849 78.1023 43.0526C77.9574 43.2202 77.8849 43.4659 77.8849 43.7898V51H76.8793ZM83.1499 51.1364C82.5589 51.1364 82.0405 50.9957 81.5945 50.7145C81.1513 50.4332 80.8047 50.0398 80.5547 49.5341C80.3075 49.0284 80.1839 48.4375 80.1839 47.7614C80.1839 47.0795 80.3075 46.4844 80.5547 45.9759C80.8047 45.4673 81.1513 45.0724 81.5945 44.7912C82.0405 44.5099 82.5589 44.3693 83.1499 44.3693C83.7408 44.3693 84.2578 44.5099 84.701 44.7912C85.147 45.0724 85.4936 45.4673 85.7408 45.9759C85.9908 46.4844 86.1158 47.0795 86.1158 47.7614C86.1158 48.4375 85.9908 49.0284 85.7408 49.5341C85.4936 50.0398 85.147 50.4332 84.701 50.7145C84.2578 50.9957 83.7408 51.1364 83.1499 51.1364ZM83.1499 50.233C83.5987 50.233 83.968 50.1179 84.2578 49.8878C84.5476 49.6577 84.7621 49.3551 84.9013 48.9801C85.0405 48.6051 85.1101 48.1989 85.1101 47.7614C85.1101 47.3239 85.0405 46.9162 84.9013 46.5384C84.7621 46.1605 84.5476 45.8551 84.2578 45.6222C83.968 45.3892 83.5987 45.2727 83.1499 45.2727C82.701 45.2727 82.3317 45.3892 82.0419 45.6222C81.7521 45.8551 81.5376 46.1605 81.3984 46.5384C81.2592 46.9162 81.1896 47.3239 81.1896 47.7614C81.1896 48.1989 81.2592 48.6051 81.3984 48.9801C81.5376 49.3551 81.7521 49.6577 82.0419 49.8878C82.3317 50.1179 82.701 50.233 83.1499 50.233ZM87.6509 51V44.4545H88.6225V45.4432H88.6907C88.81 45.1193 89.0259 44.8565 89.3384 44.6548C89.6509 44.4531 90.0032 44.3523 90.3952 44.3523C90.4691 44.3523 90.5614 44.3537 90.6722 44.3565C90.783 44.3594 90.8668 44.3636 90.9237 44.3693V45.392C90.8896 45.3835 90.8114 45.3707 90.6893 45.3537C90.57 45.3338 90.4435 45.3239 90.31 45.3239C89.9918 45.3239 89.7077 45.3906 89.4577 45.5241C89.2106 45.6548 89.0146 45.8366 88.8697 46.0696C88.7276 46.2997 88.6566 46.5625 88.6566 46.858V51H87.6509ZM94.5756 51.1364C93.962 51.1364 93.4336 50.9915 92.9904 50.7017C92.5472 50.4119 92.2063 50.0128 91.9677 49.5043C91.729 48.9957 91.6097 48.4148 91.6097 47.7614C91.6097 47.0966 91.7319 46.5099 91.9762 46.0014C92.2234 45.4901 92.5671 45.0909 93.0075 44.804C93.4506 44.5142 93.9677 44.3693 94.5586 44.3693C95.0188 44.3693 95.4336 44.4545 95.8029 44.625C96.1722 44.7955 96.4748 45.0341 96.7106 45.3409C96.9464 45.6477 97.0927 46.0057 97.1495 46.4148H96.1438C96.0671 46.1165 95.8967 45.8523 95.6325 45.6222C95.3711 45.3892 95.0188 45.2727 94.5756 45.2727C94.1836 45.2727 93.8398 45.375 93.5444 45.5795C93.2518 45.7812 93.0231 46.0668 92.8583 46.4361C92.6964 46.8026 92.6154 47.233 92.6154 47.7273C92.6154 48.233 92.695 48.6733 92.854 49.0483C93.016 49.4233 93.2433 49.7145 93.5359 49.9219C93.8313 50.1293 94.1779 50.233 94.5756 50.233C94.837 50.233 95.0742 50.1875 95.2873 50.0966C95.5004 50.0057 95.6808 49.875 95.8285 49.7045C95.9762 49.5341 96.0813 49.3295 96.1438 49.0909H97.1495C97.0927 49.4773 96.9521 49.8253 96.7276 50.1349C96.506 50.4418 96.212 50.6861 95.8455 50.8679C95.4819 51.0469 95.0586 51.1364 94.5756 51.1364ZM101.364 51.1364C100.733 51.1364 100.189 50.9972 99.7319 50.7188C99.2773 50.4375 98.9265 50.0455 98.6793 49.5426C98.435 49.0369 98.3129 48.4489 98.3129 47.7784C98.3129 47.108 98.435 46.517 98.6793 46.0057C98.9265 45.4915 99.2702 45.0909 99.7106 44.804C100.154 44.5142 100.671 44.3693 101.262 44.3693C101.603 44.3693 101.939 44.4261 102.272 44.5398C102.604 44.6534 102.907 44.8381 103.179 45.0938C103.452 45.3466 103.669 45.6818 103.831 46.0994C103.993 46.517 104.074 47.0312 104.074 47.642V48.0682H99.0288V47.1989H103.051C103.051 46.8295 102.978 46.5 102.83 46.2102C102.685 45.9205 102.478 45.6918 102.208 45.5241C101.941 45.3565 101.625 45.2727 101.262 45.2727C100.861 45.2727 100.515 45.3722 100.222 45.571C99.9322 45.767 99.7092 46.0227 99.5529 46.3381C99.3967 46.6534 99.3185 46.9915 99.3185 47.3523V47.9318C99.3185 48.4261 99.4038 48.8452 99.5742 49.1889C99.7475 49.5298 99.9876 49.7898 100.294 49.9688C100.601 50.1449 100.958 50.233 101.364 50.233C101.628 50.233 101.867 50.196 102.08 50.1222C102.296 50.0455 102.482 49.9318 102.638 49.7812C102.794 49.6278 102.915 49.4375 103 49.2102L103.972 49.483C103.87 49.8125 103.698 50.1023 103.456 50.3523C103.215 50.5994 102.917 50.7926 102.561 50.9318C102.206 51.0682 101.807 51.1364 101.364 51.1364Z" fill="#ECECEC"/>
<path d="M54.201 73.1293C53.567 73.1293 53.0007 73.02 52.5021 72.8015C52.0066 72.583 51.6142 72.2798 51.3249 71.892C51.0387 71.5012 50.8848 71.0488 50.8633 70.5348H52.3129C52.3313 70.8149 52.4252 71.058 52.5945 71.2642C52.7668 71.4673 52.9915 71.6243 53.2685 71.7351C53.5455 71.8459 53.8532 71.9013 54.1918 71.9013C54.5642 71.9013 54.8935 71.8366 55.1797 71.7074C55.469 71.5781 55.6952 71.3981 55.8583 71.1673C56.0214 70.9334 56.103 70.6641 56.103 70.3594C56.103 70.0424 56.0214 69.7638 55.8583 69.5238C55.6983 69.2807 55.4628 69.0898 55.152 68.9513C54.8442 68.8129 54.4718 68.7436 54.0348 68.7436H53.2362V67.5803H54.0348C54.3857 67.5803 54.6934 67.5172 54.9581 67.391C55.2259 67.2648 55.4351 67.0894 55.5859 66.8647C55.7367 66.637 55.8121 66.3707 55.8121 66.0661C55.8121 65.7737 55.746 65.5198 55.6136 65.3043C55.4844 65.0858 55.2997 64.915 55.0597 64.7919C54.8227 64.6688 54.5426 64.6072 54.2195 64.6072C53.9117 64.6072 53.6239 64.6642 53.3562 64.7781C53.0915 64.8888 52.8761 65.0489 52.7099 65.2582C52.5437 65.4644 52.4544 65.7121 52.4421 66.0014H51.0618C51.0772 65.4905 51.228 65.0412 51.5142 64.6534C51.8035 64.2656 52.1851 63.9625 52.6591 63.744C53.133 63.5254 53.6593 63.4162 54.2379 63.4162C54.8442 63.4162 55.3674 63.5347 55.8075 63.7717C56.2507 64.0056 56.5923 64.3179 56.8324 64.7088C57.0755 65.0997 57.1955 65.5275 57.1925 65.9922C57.1955 66.5215 57.0478 66.9709 56.7493 67.3402C56.4538 67.7095 56.0599 67.9573 55.5675 68.0835V68.1573C56.1953 68.2527 56.6816 68.502 57.0263 68.9052C57.3741 69.3084 57.5464 69.8085 57.5433 70.4055C57.5464 70.9257 57.4018 71.3919 57.1094 71.8043C56.8201 72.2167 56.4246 72.5414 55.9229 72.7784C55.4213 73.0123 54.8473 73.1293 54.201 73.1293ZM62.8754 63.5455V73H61.4442V64.9766H61.3888L59.1268 66.4538V65.0874L61.4858 63.5455H62.8754ZM75.0825 63.5455H76.5136V69.7638C76.5136 70.4255 76.3582 71.0118 76.0473 71.5227C75.7365 72.0305 75.2994 72.4306 74.7362 72.723C74.173 73.0123 73.5129 73.157 72.7558 73.157C72.0017 73.157 71.3431 73.0123 70.7799 72.723C70.2167 72.4306 69.7797 72.0305 69.4688 71.5227C69.158 71.0118 69.0026 70.4255 69.0026 69.7638V63.5455H70.4291V69.6484C70.4291 70.0762 70.5229 70.4563 70.7107 70.7887C70.9015 71.1211 71.1708 71.3827 71.5186 71.5735C71.8663 71.7612 72.2787 71.8551 72.7558 71.8551C73.2359 71.8551 73.6498 71.7612 73.9976 71.5735C74.3485 71.3827 74.6162 71.1211 74.8009 70.7887C74.9886 70.4563 75.0825 70.0762 75.0825 69.6484V63.5455ZM83.7903 67.6403L82.5392 67.8619C82.4869 67.7018 82.4038 67.5495 82.29 67.4048C82.1792 67.2602 82.0284 67.1417 81.8375 67.0494C81.6467 66.957 81.4082 66.9109 81.122 66.9109C80.7311 66.9109 80.4049 66.9986 80.1433 67.174C79.8817 67.3464 79.7509 67.5695 79.7509 67.8434C79.7509 68.0804 79.8386 68.2712 80.014 68.4158C80.1895 68.5605 80.4726 68.679 80.8635 68.7713L81.9899 69.0298C82.6423 69.1806 83.1286 69.413 83.4487 69.7269C83.7688 70.0408 83.9288 70.4486 83.9288 70.9503C83.9288 71.375 83.8057 71.7536 83.5595 72.0859C83.3163 72.4152 82.9763 72.6738 82.5392 72.8615C82.1053 73.0492 81.6021 73.1431 81.0297 73.1431C80.2356 73.1431 79.5878 72.9738 79.0861 72.6353C78.5845 72.2937 78.2767 71.8089 78.1628 71.1811L79.497 70.978C79.5801 71.3258 79.7509 71.5889 80.0094 71.7674C80.2679 71.9428 80.6049 72.0305 81.0204 72.0305C81.4728 72.0305 81.8345 71.9367 82.1053 71.7489C82.3761 71.5581 82.5115 71.3258 82.5115 71.0518C82.5115 70.8303 82.4284 70.6441 82.2623 70.4933C82.0991 70.3424 81.8483 70.2286 81.5098 70.1516L80.3095 69.8885C79.6478 69.7377 79.1584 69.4976 78.8414 69.1683C78.5275 68.839 78.3706 68.422 78.3706 67.9173C78.3706 67.4987 78.4875 67.1325 78.7214 66.8185C78.9553 66.5046 79.2785 66.2599 79.6909 66.0845C80.1033 65.906 80.5757 65.8168 81.1081 65.8168C81.8745 65.8168 82.4777 65.983 82.9178 66.3153C83.3579 66.6446 83.6487 67.0863 83.7903 67.6403ZM88.5026 73.1431C87.8039 73.1431 87.2023 72.9938 86.6975 72.6953C86.1959 72.3937 85.8081 71.9705 85.5342 71.4258C85.2633 70.878 85.1279 70.2363 85.1279 69.5007C85.1279 68.7744 85.2633 68.1342 85.5342 67.5803C85.8081 67.0263 86.1897 66.5939 86.6791 66.283C87.1715 65.9722 87.747 65.8168 88.4056 65.8168C88.8057 65.8168 89.1935 65.8829 89.569 66.0153C89.9445 66.1476 90.2815 66.3554 90.58 66.6385C90.8785 66.9216 91.114 67.2894 91.2863 67.7418C91.4587 68.1912 91.5448 68.7375 91.5448 69.3807V69.87H85.9081V68.8359H90.1922C90.1922 68.4728 90.1183 68.1512 89.9706 67.8711C89.8229 67.5879 89.6151 67.3648 89.3474 67.2017C89.0827 67.0386 88.7719 66.957 88.4149 66.957C88.0271 66.957 87.6885 67.0524 87.3992 67.2433C87.113 67.431 86.8914 67.6772 86.7345 67.9819C86.5806 68.2835 86.5036 68.6113 86.5036 68.9652V69.7731C86.5036 70.247 86.5867 70.6502 86.7529 70.9826C86.9222 71.315 87.1576 71.5689 87.4593 71.7443C87.7609 71.9167 88.1133 72.0028 88.5164 72.0028C88.778 72.0028 89.0165 71.9659 89.232 71.892C89.4474 71.8151 89.6336 71.7012 89.7906 71.5504C89.9475 71.3996 90.0676 71.2134 90.1507 70.9918L91.4571 71.2273C91.3525 71.612 91.1647 71.949 90.8939 72.2383C90.6262 72.5245 90.2892 72.7476 89.8829 72.9077C89.4797 73.0646 89.0196 73.1431 88.5026 73.1431ZM93.0763 73V65.9091H94.4105V67.0355H94.4844C94.6136 66.6539 94.8414 66.3538 95.1676 66.1353C95.4969 65.9137 95.8693 65.8029 96.2848 65.8029C96.371 65.8029 96.4725 65.806 96.5895 65.8121C96.7095 65.8183 96.8034 65.826 96.8711 65.8352V67.1555C96.8157 67.1402 96.7172 67.1232 96.5756 67.1048C96.4341 67.0832 96.2925 67.0724 96.1509 67.0724C95.8247 67.0724 95.5339 67.1417 95.2784 67.2802C95.026 67.4156 94.826 67.6049 94.6783 67.848C94.5305 68.0881 94.4567 68.362 94.4567 68.6697V73H93.0763ZM103.379 67.6403L102.128 67.8619C102.076 67.7018 101.993 67.5495 101.879 67.4048C101.768 67.2602 101.617 67.1417 101.426 67.0494C101.236 66.957 100.997 66.9109 100.711 66.9109C100.32 66.9109 99.9938 66.9986 99.7322 67.174C99.4706 67.3464 99.3398 67.5695 99.3398 67.8434C99.3398 68.0804 99.4275 68.2712 99.6029 68.4158C99.7783 68.5605 100.061 68.679 100.452 68.7713L101.579 69.0298C102.231 69.1806 102.717 69.413 103.038 69.7269C103.358 70.0408 103.518 70.4486 103.518 70.9503C103.518 71.375 103.395 71.7536 103.148 72.0859C102.905 72.4152 102.565 72.6738 102.128 72.8615C101.694 73.0492 101.191 73.1431 100.619 73.1431C99.8245 73.1431 99.1766 72.9738 98.675 72.6353C98.1733 72.2937 97.8656 71.8089 97.7517 71.1811L99.0858 70.978C99.1689 71.3258 99.3398 71.5889 99.5983 71.7674C99.8568 71.9428 100.194 72.0305 100.609 72.0305C101.062 72.0305 101.423 71.9367 101.694 71.7489C101.965 71.5581 102.1 71.3258 102.1 71.0518C102.1 70.8303 102.017 70.6441 101.851 70.4933C101.688 70.3424 101.437 70.2286 101.099 70.1516L99.8983 69.8885C99.2367 69.7377 98.7473 69.4976 98.4303 69.1683C98.1164 68.839 97.9594 68.422 97.9594 67.9173C97.9594 67.4987 98.0764 67.1325 98.3103 66.8185C98.5442 66.5046 98.8673 66.2599 99.2797 66.0845C99.6921 65.906 100.165 65.8168 100.697 65.8168C101.463 65.8168 102.067 65.983 102.507 66.3153C102.947 66.6446 103.238 67.0863 103.379 67.6403Z" fill="#B8B9BE"/>
<circle cx="6.5" cy="6.5" r="6.5" transform="matrix(-1 0 0 1 134 111.5)" fill="#B94CA6"/>
<path d="M67.608 104.5C67.5064 104.189 67.3725 103.911 67.2063 103.664C67.0432 103.415 66.8478 103.203 66.62 103.027C66.3954 102.852 66.1399 102.718 65.8537 102.626C65.5675 102.533 65.2536 102.487 64.9119 102.487C64.3518 102.487 63.8424 102.632 63.3839 102.921C62.9253 103.21 62.5606 103.637 62.2898 104.2C62.0189 104.763 61.8835 105.454 61.8835 106.273C61.8835 107.091 62.0205 107.782 62.2944 108.346C62.5683 108.909 62.9392 109.335 63.407 109.624C63.8748 109.914 64.401 110.058 64.9858 110.058C65.5275 110.058 66.0045 109.943 66.4169 109.712C66.8324 109.478 67.1555 109.149 67.3864 108.724C67.6203 108.296 67.7372 107.793 67.7372 107.214L68.0881 107.288H65.2443V106.273H68.8452V107.288C68.8452 108.067 68.679 108.744 68.3466 109.32C68.0173 109.895 67.5618 110.341 66.9801 110.658C66.4015 110.972 65.7367 111.129 64.9858 111.129C64.1487 111.129 63.4131 110.932 62.7791 110.538C62.1482 110.144 61.6558 109.584 61.3018 108.858C60.951 108.132 60.7756 107.27 60.7756 106.273C60.7756 105.525 60.8756 104.852 61.0756 104.255C61.2788 103.655 61.565 103.144 61.9343 102.723C62.3036 102.301 62.7406 101.978 63.2454 101.753C63.7501 101.529 64.3056 101.416 64.9119 101.416C65.4105 101.416 65.8752 101.492 66.3061 101.642C66.7401 101.79 67.1263 102.001 67.4648 102.275C67.8065 102.546 68.0911 102.87 68.3189 103.249C68.5466 103.624 68.7036 104.041 68.7898 104.5H67.608ZM79.6327 103.909C79.5773 103.441 79.3527 103.078 78.9587 102.82C78.5648 102.561 78.0816 102.432 77.5091 102.432C77.0906 102.432 76.7243 102.5 76.4104 102.635C76.0996 102.77 75.8564 102.957 75.681 103.194C75.5087 103.431 75.4225 103.7 75.4225 104.001C75.4225 104.254 75.4825 104.471 75.6025 104.652C75.7256 104.831 75.8826 104.98 76.0734 105.1C76.2642 105.217 76.4643 105.314 76.6736 105.391C76.8828 105.465 77.0752 105.525 77.2506 105.571L78.2108 105.83C78.4571 105.894 78.731 105.983 79.0326 106.097C79.3373 106.211 79.6281 106.367 79.9051 106.564C80.1852 106.757 80.416 107.007 80.5976 107.311C80.7791 107.616 80.8699 107.99 80.8699 108.433C80.8699 108.944 80.7361 109.406 80.4683 109.818C80.2036 110.231 79.8158 110.558 79.305 110.801C78.7971 111.045 78.1801 111.166 77.4537 111.166C76.7767 111.166 76.1904 111.057 75.6949 110.838C75.2024 110.62 74.8147 110.315 74.5315 109.924C74.2515 109.533 74.093 109.08 74.056 108.562H75.2378C75.2686 108.92 75.3886 109.215 75.5979 109.449C75.8103 109.68 76.078 109.852 76.4012 109.966C76.7274 110.077 77.0783 110.132 77.4537 110.132C77.8908 110.132 78.2832 110.061 78.6309 109.92C78.9787 109.775 79.2542 109.575 79.4573 109.32C79.6604 109.061 79.762 108.759 79.762 108.415C79.762 108.101 79.6743 107.845 79.4988 107.648C79.3234 107.451 79.0926 107.291 78.8064 107.168C78.5202 107.045 78.2108 106.937 77.8785 106.845L76.7151 106.513C75.9765 106.3 75.3917 105.997 74.9608 105.603C74.53 105.209 74.3145 104.694 74.3145 104.057C74.3145 103.527 74.4577 103.066 74.7439 102.672C75.0332 102.275 75.421 101.967 75.9072 101.749C76.3966 101.527 76.9429 101.416 77.5461 101.416C78.1555 101.416 78.6971 101.525 79.1711 101.744C79.645 101.959 80.0205 102.255 80.2975 102.63C80.5776 103.006 80.7253 103.432 80.7407 103.909H79.6327ZM87.0733 108.101V103.909H88.1628V111H87.0733V109.8H86.9995C86.8333 110.16 86.5748 110.466 86.2239 110.718C85.873 110.968 85.4299 111.092 84.8944 111.092C84.4512 111.092 84.0572 110.995 83.7125 110.801C83.3678 110.605 83.097 110.309 82.9 109.915C82.7031 109.518 82.6046 109.018 82.6046 108.415V103.909H83.6941V108.341C83.6941 108.858 83.8387 109.27 84.128 109.578C84.4204 109.886 84.7928 110.04 85.2452 110.04C85.516 110.04 85.7915 109.971 86.0716 109.832C86.3547 109.694 86.5917 109.481 86.7825 109.195C86.9764 108.909 87.0733 108.544 87.0733 108.101ZM90.1583 111V103.909H91.2478V111H90.1583ZM90.7123 102.727C90.4999 102.727 90.3168 102.655 90.1629 102.51C90.0121 102.366 89.9367 102.192 89.9367 101.989C89.9367 101.786 90.0121 101.612 90.1629 101.467C90.3168 101.322 90.4999 101.25 90.7123 101.25C90.9246 101.25 91.1062 101.322 91.257 101.467C91.4109 101.612 91.4878 101.786 91.4878 101.989C91.4878 102.192 91.4109 102.366 91.257 102.51C91.1062 102.655 90.9246 102.727 90.7123 102.727ZM96.3271 103.909V104.832H92.6523V103.909H96.3271ZM93.7234 102.21H94.8129V108.969C94.8129 109.277 94.8575 109.507 94.9467 109.661C95.0391 109.812 95.156 109.914 95.2976 109.966C95.4422 110.015 95.5946 110.04 95.7546 110.04C95.8746 110.04 95.9731 110.034 96.0501 110.021C96.127 110.006 96.1886 109.994 96.2347 109.984L96.4563 110.963C96.3825 110.991 96.2794 111.018 96.147 111.046C96.0147 111.077 95.8469 111.092 95.6438 111.092C95.3361 111.092 95.0344 111.026 94.739 110.894C94.4466 110.761 94.2035 110.56 94.0096 110.289C93.8188 110.018 93.7234 109.677 93.7234 109.264V102.21ZM100.863 111.148C100.18 111.148 99.5901 110.997 99.0946 110.695C98.6022 110.391 98.2221 109.966 97.9544 109.421C97.6897 108.873 97.5574 108.236 97.5574 107.51C97.5574 106.784 97.6897 106.143 97.9544 105.589C98.2221 105.032 98.5945 104.598 99.0716 104.288C99.5517 103.974 100.112 103.817 100.752 103.817C101.121 103.817 101.486 103.878 101.846 104.001C102.206 104.125 102.534 104.325 102.829 104.602C103.125 104.875 103.36 105.239 103.536 105.691C103.711 106.143 103.799 106.701 103.799 107.362V107.824H98.3329V106.882H102.691C102.691 106.482 102.611 106.125 102.451 105.811C102.294 105.497 102.069 105.249 101.777 105.068C101.488 104.886 101.146 104.795 100.752 104.795C100.318 104.795 99.9425 104.903 99.6255 105.119C99.3116 105.331 99.07 105.608 98.9007 105.95C98.7315 106.291 98.6468 106.657 98.6468 107.048V107.676C98.6468 108.212 98.7392 108.666 98.9238 109.038C99.1116 109.407 99.3716 109.689 99.704 109.883C100.036 110.074 100.423 110.169 100.863 110.169C101.149 110.169 101.407 110.129 101.638 110.049C101.872 109.966 102.074 109.843 102.243 109.68C102.412 109.513 102.543 109.307 102.635 109.061L103.688 109.357C103.577 109.714 103.391 110.027 103.129 110.298C102.868 110.566 102.545 110.775 102.16 110.926C101.775 111.074 101.343 111.148 100.863 111.148Z" fill="#ECECEC"/>
<path d="M40.9094 134V132.966L44.1087 129.651C44.4503 129.291 44.7319 128.976 44.9535 128.705C45.1781 128.431 45.3459 128.171 45.4567 127.925C45.5675 127.679 45.6229 127.417 45.6229 127.14C45.6229 126.826 45.549 126.555 45.4013 126.327C45.2536 126.097 45.052 125.92 44.7965 125.797C44.5411 125.67 44.2533 125.607 43.9332 125.607C43.5947 125.607 43.2992 125.676 43.0469 125.815C42.7945 125.953 42.6006 126.149 42.4652 126.401C42.3298 126.654 42.2621 126.949 42.2621 127.288H40.9002C40.9002 126.712 41.0326 126.209 41.2972 125.778C41.5619 125.347 41.9251 125.013 42.3867 124.776C42.8484 124.536 43.3731 124.416 43.9609 124.416C44.5549 124.416 45.0781 124.535 45.5305 124.772C45.986 125.006 46.3415 125.326 46.5969 125.732C46.8524 126.135 46.9801 126.591 46.9801 127.098C46.9801 127.449 46.9139 127.792 46.7816 128.128C46.6523 128.463 46.4261 128.837 46.103 129.25C45.7798 129.659 45.3305 130.156 44.755 130.741L42.8761 132.707V132.777H47.1325V134H40.9094ZM52.1737 134.157C51.4442 134.154 50.821 133.962 50.304 133.58C49.7869 133.198 49.3915 132.643 49.1175 131.913C48.8436 131.184 48.7067 130.305 48.7067 129.277C48.7067 128.252 48.8436 127.377 49.1175 126.651C49.3945 125.924 49.7915 125.37 50.3086 124.989C50.8287 124.607 51.4504 124.416 52.1737 124.416C52.8969 124.416 53.517 124.609 54.0341 124.993C54.5511 125.375 54.9466 125.929 55.2205 126.655C55.4975 127.378 55.636 128.252 55.636 129.277C55.636 130.308 55.4991 131.189 55.2251 131.918C54.9512 132.644 54.5558 133.2 54.0387 133.585C53.5217 133.966 52.9 134.157 52.1737 134.157ZM52.1737 132.924C52.8138 132.924 53.3139 132.612 53.674 131.987C54.0372 131.362 54.2188 130.459 54.2188 129.277C54.2188 128.493 54.1357 127.829 53.9695 127.288C53.8063 126.743 53.5709 126.33 53.2631 126.05C52.9585 125.767 52.5953 125.626 52.1737 125.626C51.5366 125.626 51.0365 125.94 50.6733 126.567C50.3101 127.195 50.127 128.099 50.1239 129.277C50.1239 130.065 50.2055 130.732 50.3686 131.276C50.5348 131.818 50.7702 132.229 51.0749 132.509C51.3796 132.786 51.7459 132.924 52.1737 132.924ZM60.5653 134.157C59.8358 134.154 59.2126 133.962 58.6956 133.58C58.1785 133.198 57.7831 132.643 57.5091 131.913C57.2352 131.184 57.0983 130.305 57.0983 129.277C57.0983 128.252 57.2352 127.377 57.5091 126.651C57.7861 125.924 58.1831 125.37 58.7002 124.989C59.2203 124.607 59.842 124.416 60.5653 124.416C61.2885 124.416 61.9086 124.609 62.4257 124.993C62.9427 125.375 63.3382 125.929 63.6121 126.655C63.8891 127.378 64.0276 128.252 64.0276 129.277C64.0276 130.308 63.8907 131.189 63.6167 131.918C63.3428 132.644 62.9474 133.2 62.4303 133.585C61.9133 133.966 61.2916 134.157 60.5653 134.157ZM60.5653 132.924C61.2054 132.924 61.7055 132.612 62.0656 131.987C62.4288 131.362 62.6104 130.459 62.6104 129.277C62.6104 128.493 62.5273 127.829 62.3611 127.288C62.1979 126.743 61.9625 126.33 61.6547 126.05C61.3501 125.767 60.9869 125.626 60.5653 125.626C59.9282 125.626 59.4281 125.94 59.0649 126.567C58.7017 127.195 58.5186 128.099 58.5155 129.277C58.5155 130.065 58.5971 130.732 58.7602 131.276C58.9264 131.818 59.1618 132.229 59.4665 132.509C59.7712 132.786 60.1375 132.924 60.5653 132.924ZM75.3149 124.545H76.746V130.764C76.746 131.426 76.5906 132.012 76.2797 132.523C75.9689 133.031 75.5319 133.431 74.9687 133.723C74.4055 134.012 73.7453 134.157 72.9882 134.157C72.2342 134.157 71.5756 134.012 71.0123 133.723C70.4491 133.431 70.0121 133.031 69.7013 132.523C69.3904 132.012 69.235 131.426 69.235 130.764V124.545H70.6615V130.648C70.6615 131.076 70.7554 131.456 70.9431 131.789C71.1339 132.121 71.4032 132.383 71.751 132.574C72.0988 132.761 72.5112 132.855 72.9882 132.855C73.4683 132.855 73.8823 132.761 74.23 132.574C74.5809 132.383 74.8486 132.121 75.0333 131.789C75.221 131.456 75.3149 131.076 75.3149 130.648V124.545ZM84.0227 128.64L82.7717 128.862C82.7193 128.702 82.6362 128.549 82.5224 128.405C82.4116 128.26 82.2608 128.142 82.07 128.049C81.8791 127.957 81.6406 127.911 81.3544 127.911C80.9635 127.911 80.6373 127.999 80.3757 128.174C80.1141 128.346 79.9833 128.569 79.9833 128.843C79.9833 129.08 80.071 129.271 80.2464 129.416C80.4219 129.56 80.705 129.679 81.0959 129.771L82.2223 130.03C82.8748 130.181 83.361 130.413 83.6811 130.727C84.0012 131.041 84.1612 131.449 84.1612 131.95C84.1612 132.375 84.0381 132.754 83.7919 133.086C83.5488 133.415 83.2087 133.674 82.7717 133.862C82.3377 134.049 81.8345 134.143 81.2621 134.143C80.468 134.143 79.8202 133.974 79.3185 133.635C78.8169 133.294 78.5091 132.809 78.3952 132.181L79.7294 131.978C79.8125 132.326 79.9833 132.589 80.2418 132.767C80.5004 132.943 80.8374 133.031 81.2528 133.031C81.7053 133.031 82.0669 132.937 82.3377 132.749C82.6085 132.558 82.744 132.326 82.744 132.052C82.744 131.83 82.6609 131.644 82.4947 131.493C82.3316 131.342 82.0807 131.229 81.7422 131.152L80.5419 130.888C79.8802 130.738 79.3909 130.498 79.0739 130.168C78.7599 129.839 78.603 129.422 78.603 128.917C78.603 128.499 78.7199 128.132 78.9538 127.819C79.1877 127.505 79.5109 127.26 79.9233 127.085C80.3357 126.906 80.8081 126.817 81.3406 126.817C82.1069 126.817 82.7101 126.983 83.1502 127.315C83.5903 127.645 83.8812 128.086 84.0227 128.64ZM88.735 134.143C88.0364 134.143 87.4347 133.994 86.93 133.695C86.4283 133.394 86.0405 132.971 85.7666 132.426C85.4958 131.878 85.3604 131.236 85.3604 130.501C85.3604 129.774 85.4958 129.134 85.7666 128.58C86.0405 128.026 86.4221 127.594 86.9115 127.283C87.4039 126.972 87.9794 126.817 88.6381 126.817C89.0381 126.817 89.4259 126.883 89.8014 127.015C90.1769 127.148 90.5139 127.355 90.8124 127.638C91.1109 127.922 91.3464 128.289 91.5187 128.742C91.6911 129.191 91.7773 129.737 91.7773 130.381V130.87H86.1405V129.836H90.4246C90.4246 129.473 90.3508 129.151 90.203 128.871C90.0553 128.588 89.8476 128.365 89.5798 128.202C89.3151 128.039 89.0043 127.957 88.6473 127.957C88.2595 127.957 87.921 128.052 87.6317 128.243C87.3454 128.431 87.1238 128.677 86.9669 128.982C86.813 129.283 86.7361 129.611 86.7361 129.965V130.773C86.7361 131.247 86.8192 131.65 86.9854 131.983C87.1546 132.315 87.3901 132.569 87.6917 132.744C87.9933 132.917 88.3457 133.003 88.7488 133.003C89.0104 133.003 89.249 132.966 89.4644 132.892C89.6798 132.815 89.866 132.701 90.023 132.55C90.18 132.4 90.3 132.213 90.3831 131.992L91.6895 132.227C91.5849 132.612 91.3972 132.949 91.1263 133.238C90.8586 133.525 90.5216 133.748 90.1153 133.908C89.7122 134.065 89.252 134.143 88.735 134.143ZM93.3088 134V126.909H94.6429V128.036H94.7168C94.8461 127.654 95.0738 127.354 95.4 127.135C95.7293 126.914 96.1017 126.803 96.5172 126.803C96.6034 126.803 96.705 126.806 96.8219 126.812C96.9419 126.818 97.0358 126.826 97.1035 126.835V128.156C97.0481 128.14 96.9496 128.123 96.8081 128.105C96.6665 128.083 96.5249 128.072 96.3833 128.072C96.0571 128.072 95.7663 128.142 95.5108 128.28C95.2585 128.416 95.0584 128.605 94.9107 128.848C94.763 129.088 94.6891 129.362 94.6891 129.67V134H93.3088ZM103.612 128.64L102.361 128.862C102.308 128.702 102.225 128.549 102.111 128.405C102 128.26 101.85 128.142 101.659 128.049C101.468 127.957 101.229 127.911 100.943 127.911C100.552 127.911 100.226 127.999 99.9646 128.174C99.703 128.346 99.5722 128.569 99.5722 128.843C99.5722 129.08 99.6599 129.271 99.8353 129.416C100.011 129.56 100.294 129.679 100.685 129.771L101.811 130.03C102.464 130.181 102.95 130.413 103.27 130.727C103.59 131.041 103.75 131.449 103.75 131.95C103.75 132.375 103.627 132.754 103.381 133.086C103.138 133.415 102.798 133.674 102.361 133.862C101.927 134.049 101.423 134.143 100.851 134.143C100.057 134.143 99.4091 133.974 98.9074 133.635C98.4057 133.294 98.098 132.809 97.9841 132.181L99.3183 131.978C99.4014 132.326 99.5722 132.589 99.8307 132.767C100.089 132.943 100.426 133.031 100.842 133.031C101.294 133.031 101.656 132.937 101.927 132.749C102.197 132.558 102.333 132.326 102.333 132.052C102.333 131.83 102.25 131.644 102.084 131.493C101.92 131.342 101.67 131.229 101.331 131.152L100.131 130.888C99.4691 130.738 98.9797 130.498 98.6627 130.168C98.3488 129.839 98.1919 129.422 98.1919 128.917C98.1919 128.499 98.3088 128.132 98.5427 127.819C98.7766 127.505 99.0998 127.26 99.5122 127.085C99.9246 126.906 100.397 126.817 100.929 126.817C101.696 126.817 102.299 126.983 102.739 127.315C103.179 127.645 103.47 128.086 103.612 128.64Z" fill="#B8B9BE"/>
<circle cx="6.5" cy="6.5" r="6.5" transform="matrix(-1 0 0 1 136 177.5)" fill="#7556A5"/>
<path d="M52.1449 177V167.545H53.2898V171.756H58.331V167.545H59.4759V177H58.331V172.771H53.2898V177H52.1449ZM66.089 174.101V169.909H67.1784V177H66.089V175.8H66.0151C65.8489 176.16 65.5904 176.466 65.2395 176.718C64.8887 176.968 64.4455 177.092 63.91 177.092C63.4668 177.092 63.0729 176.995 62.7282 176.801C62.3835 176.605 62.1126 176.309 61.9157 175.915C61.7187 175.518 61.6202 175.018 61.6202 174.415V169.909H62.7097V174.341C62.7097 174.858 62.8543 175.27 63.1436 175.578C63.436 175.886 63.8084 176.04 64.2608 176.04C64.5317 176.04 64.8071 175.971 65.0872 175.832C65.3703 175.694 65.6073 175.481 65.7981 175.195C65.992 174.909 66.089 174.544 66.089 174.101ZM69.3216 177V167.545H70.4111V171.036H70.5035C70.5835 170.912 70.6943 170.755 70.8358 170.565C70.9805 170.371 71.1867 170.198 71.4545 170.048C71.7253 169.894 72.0915 169.817 72.5532 169.817C73.1502 169.817 73.6765 169.966 74.132 170.265C74.5875 170.563 74.943 170.986 75.1984 171.534C75.4539 172.082 75.5816 172.728 75.5816 173.473C75.5816 174.224 75.4539 174.875 75.1984 175.426C74.943 175.974 74.589 176.398 74.1366 176.7C73.6842 176.998 73.1626 177.148 72.5716 177.148C72.1162 177.148 71.7515 177.072 71.4775 176.922C71.2036 176.768 70.9928 176.594 70.8451 176.4C70.6974 176.203 70.5835 176.04 70.5035 175.911H70.3742V177H69.3216ZM70.3927 173.455C70.3927 173.99 70.4711 174.462 70.6281 174.872C70.7851 175.278 71.0144 175.597 71.316 175.827C71.6176 176.055 71.9869 176.169 72.4239 176.169C72.8794 176.169 73.2595 176.049 73.5642 175.809C73.872 175.566 74.1028 175.24 74.2567 174.83C74.4136 174.418 74.4921 173.959 74.4921 173.455C74.4921 172.956 74.4152 172.507 74.2613 172.107C74.1105 171.703 73.8812 171.385 73.5734 171.151C73.2687 170.914 72.8856 170.795 72.4239 170.795C71.9807 170.795 71.6083 170.908 71.3067 171.132C71.0051 171.354 70.7774 171.665 70.6235 172.065C70.4696 172.462 70.3927 172.925 70.3927 173.455ZM82.5663 169.909C82.5109 169.441 82.2863 169.078 81.8923 168.82C81.4984 168.561 81.0152 168.432 80.4427 168.432C80.0242 168.432 79.6579 168.5 79.344 168.635C79.0332 168.77 78.79 168.957 78.6146 169.194C78.4423 169.431 78.3561 169.7 78.3561 170.001C78.3561 170.254 78.4161 170.471 78.5361 170.652C78.6592 170.831 78.8162 170.98 79.007 171.1C79.1978 171.217 79.3979 171.314 79.6072 171.391C79.8164 171.465 80.0088 171.525 80.1842 171.571L81.1444 171.83C81.3907 171.894 81.6646 171.983 81.9662 172.097C82.2709 172.211 82.5617 172.367 82.8387 172.564C83.1188 172.757 83.3496 173.007 83.5312 173.311C83.7127 173.616 83.8035 173.99 83.8035 174.433C83.8035 174.944 83.6697 175.406 83.4019 175.818C83.1372 176.231 82.7494 176.558 82.2385 176.801C81.7307 177.045 81.1137 177.166 80.3873 177.166C79.7103 177.166 79.124 177.057 78.6285 176.838C78.136 176.62 77.7483 176.315 77.4651 175.924C77.185 175.533 77.0265 175.08 76.9896 174.562H78.1714C78.2022 174.92 78.3222 175.215 78.5315 175.449C78.7439 175.68 79.0116 175.852 79.3348 175.966C79.661 176.077 80.0119 176.132 80.3873 176.132C80.8244 176.132 81.2168 176.061 81.5645 175.92C81.9123 175.775 82.1878 175.575 82.3909 175.32C82.594 175.061 82.6956 174.759 82.6956 174.415C82.6956 174.101 82.6079 173.845 82.4324 173.648C82.257 173.451 82.0262 173.291 81.74 173.168C81.4537 173.045 81.1444 172.937 80.8121 172.845L79.6487 172.513C78.9101 172.3 78.3253 171.997 77.8944 171.603C77.4636 171.209 77.2481 170.694 77.2481 170.057C77.2481 169.527 77.3912 169.066 77.6775 168.672C77.9668 168.275 78.3546 167.967 78.8408 167.749C79.3302 167.527 79.8765 167.416 80.4797 167.416C81.089 167.416 81.6307 167.525 82.1047 167.744C82.5786 167.959 82.9541 168.255 83.2311 168.63C83.5112 169.006 83.6589 169.432 83.6743 169.909H82.5663ZM85.5382 179.659V169.909H86.5907V171.036H86.72C86.8 170.912 86.9108 170.755 87.0524 170.565C87.197 170.371 87.4032 170.198 87.671 170.048C87.9418 169.894 88.3081 169.817 88.7697 169.817C89.3668 169.817 89.8931 169.966 90.3485 170.265C90.804 170.563 91.1595 170.986 91.415 171.534C91.6704 172.082 91.7981 172.728 91.7981 173.473C91.7981 174.224 91.6704 174.875 91.415 175.426C91.1595 175.974 90.8056 176.398 90.3532 176.7C89.9007 176.998 89.3791 177.148 88.7882 177.148C88.3327 177.148 87.968 177.072 87.6941 176.922C87.4202 176.768 87.2093 176.594 87.0616 176.4C86.9139 176.203 86.8 176.04 86.72 175.911H86.6277V179.659H85.5382ZM86.6092 173.455C86.6092 173.99 86.6877 174.462 86.8446 174.872C87.0016 175.278 87.2309 175.597 87.5325 175.827C87.8341 176.055 88.2034 176.169 88.6404 176.169C89.0959 176.169 89.476 176.049 89.7807 175.809C90.0885 175.566 90.3193 175.24 90.4732 174.83C90.6301 174.418 90.7086 173.959 90.7086 173.455C90.7086 172.956 90.6317 172.507 90.4778 172.107C90.327 171.703 90.0977 171.385 89.79 171.151C89.4853 170.914 89.1021 170.795 88.6404 170.795C88.1973 170.795 87.8249 170.908 87.5233 171.132C87.2217 171.354 86.9939 171.665 86.84 172.065C86.6861 172.462 86.6092 172.925 86.6092 173.455ZM96.3407 177.148C95.7006 177.148 95.1389 176.995 94.6557 176.691C94.1756 176.386 93.8001 175.96 93.5293 175.412C93.2615 174.864 93.1277 174.224 93.1277 173.491C93.1277 172.753 93.2615 172.108 93.5293 171.557C93.8001 171.006 94.1756 170.578 94.6557 170.274C95.1389 169.969 95.7006 169.817 96.3407 169.817C96.9809 169.817 97.541 169.969 98.0211 170.274C98.5043 170.578 98.8798 171.006 99.1475 171.557C99.4184 172.108 99.5538 172.753 99.5538 173.491C99.5538 174.224 99.4184 174.864 99.1475 175.412C98.8798 175.96 98.5043 176.386 98.0211 176.691C97.541 176.995 96.9809 177.148 96.3407 177.148ZM96.3407 176.169C96.827 176.169 97.2271 176.044 97.541 175.795C97.8549 175.546 98.0873 175.218 98.2381 174.812C98.3889 174.406 98.4643 173.965 98.4643 173.491C98.4643 173.018 98.3889 172.576 98.2381 172.167C98.0873 171.757 97.8549 171.426 97.541 171.174C97.2271 170.922 96.827 170.795 96.3407 170.795C95.8545 170.795 95.4544 170.922 95.1404 171.174C94.8265 171.426 94.5942 171.757 94.4434 172.167C94.2926 172.576 94.2172 173.018 94.2172 173.491C94.2172 173.965 94.2926 174.406 94.4434 174.812C94.5942 175.218 94.8265 175.546 95.1404 175.795C95.4544 176.044 95.8545 176.169 96.3407 176.169ZM104.301 169.909V170.832H100.626V169.909H104.301ZM101.697 168.21H102.786V174.969C102.786 175.277 102.831 175.507 102.92 175.661C103.013 175.812 103.13 175.914 103.271 175.966C103.416 176.015 103.568 176.04 103.728 176.04C103.848 176.04 103.947 176.034 104.024 176.021C104.101 176.006 104.162 175.994 104.208 175.984L104.43 176.963C104.356 176.991 104.253 177.018 104.121 177.046C103.988 177.077 103.821 177.092 103.617 177.092C103.31 177.092 103.008 177.026 102.713 176.894C102.42 176.761 102.177 176.56 101.983 176.289C101.792 176.018 101.697 175.677 101.697 175.264V168.21Z" fill="#ECECEC"/>
<path d="M55.4964 190.545V200H54.0653V191.977H54.0099L51.7479 193.454V192.087L54.1069 190.545H55.4964ZM61.1747 200.129C60.5961 200.129 60.076 200.018 59.6143 199.797C59.1558 199.572 58.7895 199.264 58.5156 198.874C58.2417 198.483 58.0955 198.036 58.0771 197.535H59.462C59.4959 197.941 59.6759 198.275 60.0021 198.537C60.3284 198.798 60.7192 198.929 61.1747 198.929C61.5379 198.929 61.8595 198.846 62.1396 198.68C62.4227 198.51 62.6443 198.278 62.8043 197.983C62.9674 197.687 63.049 197.35 63.049 196.972C63.049 196.587 62.9659 196.244 62.7997 195.942C62.6335 195.641 62.4042 195.404 62.1119 195.231C61.8226 195.059 61.4902 194.971 61.1147 194.968C60.8285 194.968 60.5407 195.017 60.2514 195.116C59.9621 195.214 59.7282 195.344 59.5497 195.504L58.2433 195.31L58.7741 190.545H63.9723V191.769H59.9606L59.6605 194.414H59.7159C59.9006 194.236 60.1452 194.086 60.4499 193.966C60.7577 193.846 61.087 193.786 61.4379 193.786C62.0134 193.786 62.5258 193.923 62.9751 194.197C63.4276 194.471 63.783 194.845 64.0415 195.319C64.3031 195.79 64.4324 196.331 64.4293 196.944C64.4324 197.556 64.2939 198.103 64.0138 198.583C63.7369 199.063 63.3522 199.441 62.8597 199.718C62.3704 199.992 61.8087 200.129 61.1747 200.129ZM75.7651 190.545H77.1962V196.764C77.1962 197.426 77.0408 198.012 76.7299 198.523C76.4191 199.031 75.9821 199.431 75.4189 199.723C74.8556 200.012 74.1955 200.157 73.4384 200.157C72.6844 200.157 72.0257 200.012 71.4625 199.723C70.8993 199.431 70.4623 199.031 70.1515 198.523C69.8406 198.012 69.6852 197.426 69.6852 196.764V190.545H71.1117V196.648C71.1117 197.076 71.2056 197.456 71.3933 197.789C71.5841 198.121 71.8534 198.383 72.2012 198.574C72.5489 198.761 72.9614 198.855 73.4384 198.855C73.9185 198.855 74.3324 198.761 74.6802 198.574C75.0311 198.383 75.2988 198.121 75.4835 197.789C75.6712 197.456 75.7651 197.076 75.7651 196.648V190.545ZM84.4729 194.64L83.2219 194.862C83.1695 194.702 83.0864 194.549 82.9726 194.405C82.8618 194.26 82.711 194.142 82.5202 194.049C82.3293 193.957 82.0908 193.911 81.8046 193.911C81.4137 193.911 81.0875 193.999 80.8259 194.174C80.5643 194.346 80.4335 194.569 80.4335 194.843C80.4335 195.08 80.5212 195.271 80.6966 195.416C80.8721 195.56 81.1552 195.679 81.5461 195.771L82.6725 196.03C83.325 196.181 83.8112 196.413 84.1313 196.727C84.4514 197.041 84.6114 197.449 84.6114 197.95C84.6114 198.375 84.4883 198.754 84.2421 199.086C83.999 199.415 83.6589 199.674 83.2219 199.862C82.7879 200.049 82.2847 200.143 81.7123 200.143C80.9182 200.143 80.2704 199.974 79.7687 199.635C79.2671 199.294 78.9593 198.809 78.8454 198.181L80.1796 197.978C80.2627 198.326 80.4335 198.589 80.692 198.767C80.9506 198.943 81.2876 199.031 81.703 199.031C82.1555 199.031 82.5171 198.937 82.7879 198.749C83.0587 198.558 83.1942 198.326 83.1942 198.052C83.1942 197.83 83.1111 197.644 82.9449 197.493C82.7818 197.342 82.5309 197.229 82.1924 197.152L80.9921 196.888C80.3304 196.738 79.8411 196.498 79.5241 196.168C79.2101 195.839 79.0532 195.422 79.0532 194.917C79.0532 194.499 79.1701 194.132 79.404 193.819C79.6379 193.505 79.9611 193.26 80.3735 193.085C80.7859 192.906 81.2583 192.817 81.7907 192.817C82.5571 192.817 83.1603 192.983 83.6004 193.315C84.0405 193.645 84.3314 194.086 84.4729 194.64ZM89.1852 200.143C88.4866 200.143 87.8849 199.994 87.3801 199.695C86.8785 199.394 86.4907 198.971 86.2168 198.426C85.946 197.878 85.8105 197.236 85.8105 196.501C85.8105 195.774 85.946 195.134 86.2168 194.58C86.4907 194.026 86.8723 193.594 87.3617 193.283C87.8541 192.972 88.4296 192.817 89.0882 192.817C89.4883 192.817 89.8761 192.883 90.2516 193.015C90.6271 193.148 90.9641 193.355 91.2626 193.638C91.5611 193.922 91.7966 194.289 91.9689 194.742C92.1413 195.191 92.2275 195.737 92.2275 196.381V196.87H86.5907V195.836H90.8748C90.8748 195.473 90.801 195.151 90.6532 194.871C90.5055 194.588 90.2978 194.365 90.03 194.202C89.7653 194.039 89.4545 193.957 89.0975 193.957C88.7097 193.957 88.3712 194.052 88.0819 194.243C87.7956 194.431 87.574 194.677 87.4171 194.982C87.2632 195.283 87.1863 195.611 87.1863 195.965V196.773C87.1863 197.247 87.2694 197.65 87.4355 197.983C87.6048 198.315 87.8403 198.569 88.1419 198.744C88.4435 198.917 88.7959 199.003 89.199 199.003C89.4606 199.003 89.6992 198.966 89.9146 198.892C90.13 198.815 90.3162 198.701 90.4732 198.55C90.6301 198.4 90.7502 198.213 90.8333 197.992L92.1397 198.227C92.0351 198.612 91.8474 198.949 91.5765 199.238C91.3088 199.525 90.9718 199.748 90.5655 199.908C90.1623 200.065 89.7022 200.143 89.1852 200.143ZM93.759 200V192.909H95.0931V194.036H95.167C95.2963 193.654 95.524 193.354 95.8502 193.135C96.1795 192.914 96.5519 192.803 96.9674 192.803C97.0536 192.803 97.1552 192.806 97.2721 192.812C97.3921 192.818 97.486 192.826 97.5537 192.835V194.156C97.4983 194.14 97.3998 194.123 97.2583 194.105C97.1167 194.083 96.9751 194.072 96.8335 194.072C96.5073 194.072 96.2165 194.142 95.961 194.28C95.7087 194.416 95.5086 194.605 95.3609 194.848C95.2132 195.088 95.1393 195.362 95.1393 195.67V200H93.759ZM104.062 194.64L102.811 194.862C102.758 194.702 102.675 194.549 102.561 194.405C102.451 194.26 102.3 194.142 102.109 194.049C101.918 193.957 101.68 193.911 101.393 193.911C101.003 193.911 100.676 193.999 100.415 194.174C100.153 194.346 100.022 194.569 100.022 194.843C100.022 195.08 100.11 195.271 100.286 195.416C100.461 195.56 100.744 195.679 101.135 195.771L102.261 196.03C102.914 196.181 103.4 196.413 103.72 196.727C104.04 197.041 104.2 197.449 104.2 197.95C104.2 198.375 104.077 198.754 103.831 199.086C103.588 199.415 103.248 199.674 102.811 199.862C102.377 200.049 101.874 200.143 101.301 200.143C100.507 200.143 99.8593 199.974 99.3576 199.635C98.8559 199.294 98.5482 198.809 98.4343 198.181L99.7685 197.978C99.8516 198.326 100.022 198.589 100.281 198.767C100.539 198.943 100.876 199.031 101.292 199.031C101.744 199.031 102.106 198.937 102.377 198.749C102.648 198.558 102.783 198.326 102.783 198.052C102.783 197.83 102.7 197.644 102.534 197.493C102.371 197.342 102.12 197.229 101.781 197.152L100.581 196.888C99.9193 196.738 99.4299 196.498 99.1129 196.168C98.799 195.839 98.642 195.422 98.642 194.917C98.642 194.499 98.759 194.132 98.9929 193.819C99.2268 193.505 99.55 193.26 99.9624 193.085C100.375 192.906 100.847 192.817 101.38 192.817C102.146 192.817 102.749 192.983 103.189 193.315C103.629 193.645 103.92 194.086 104.062 194.64Z" fill="#C6C6C6"/>
</g>
<defs>
<filter id="filter0_d_15_2182" x="0" y="0" width="334" height="250" filterUnits="userSpaceOnUse" color-interpolation-filters="sRGB">
<feFlood flood-opacity="0" result="BackgroundImageFix"/>
<feColorMatrix in="SourceAlpha" type="matrix" values="0 0 0 0 0 0 0 0 0 0 0 0 0 0 0 0 0 0 127 0" result="hardAlpha"/>
<feOffset dy="10"/>
<feGaussianBlur stdDeviation="6.5"/>
<feComposite in2="hardAlpha" operator="out"/>
<feColorMatrix type="matrix" values="0 0 0 0 0.0666667 0 0 0 0 0.14902 0 0 0 0 0.572549 0 0 0 0.05 0"/>
<feBlend mode="normal" in2="BackgroundImageFix" result="effect1_dropShadow_15_2182"/>
<feBlend mode="normal" in="SourceGraphic" in2="effect1_dropShadow_15_2182" result="shape"/>
</filter>
</defs>
</svg>
