<svg width="334" height="250" viewBox="0 0 334 250" fill="none" xmlns="http://www.w3.org/2000/svg">
<g filter="url(#filter0_d_15_413)">
<rect width="308" height="224" rx="8" transform="matrix(-1 0 0 1 321 3)" fill="#1D0D40" shape-rendering="crispEdges"/>
<path d="M215.838 31H214.324L217.726 21.5455H219.374L222.776 31H221.262L218.589 23.2628H218.515L215.838 31ZM216.092 27.2976H221.004V28.4979H216.092V27.2976ZM226.904 31.1431C226.217 31.1431 225.626 30.9877 225.131 30.6768C224.638 30.3629 224.26 29.9305 223.995 29.3796C223.73 28.8287 223.598 28.1978 223.598 27.4869C223.598 26.7667 223.734 26.1312 224.004 25.5803C224.275 25.0263 224.657 24.5939 225.149 24.283C225.642 23.9722 226.222 23.8168 226.89 23.8168C227.428 23.8168 227.908 23.9168 228.33 24.1168C228.752 24.3138 229.092 24.5908 229.35 24.9478C229.612 25.3048 229.767 25.7218 229.817 26.1989H228.473C228.399 25.8665 228.23 25.5803 227.965 25.3402C227.704 25.1001 227.353 24.9801 226.913 24.9801C226.528 24.9801 226.191 25.0817 225.902 25.2848C225.616 25.4848 225.392 25.7711 225.232 26.1435C225.072 26.5128 224.992 26.9498 224.992 27.4545C224.992 27.9716 225.071 28.4179 225.228 28.7933C225.385 29.1688 225.606 29.4596 225.893 29.6658C226.182 29.872 226.522 29.9751 226.913 29.9751C227.174 29.9751 227.411 29.9274 227.624 29.832C227.839 29.7335 228.019 29.5935 228.164 29.4119C228.312 29.2304 228.415 29.0118 228.473 28.7564H229.817C229.767 29.215 229.618 29.6243 229.369 29.9844C229.119 30.3445 228.786 30.6276 228.367 30.8338C227.951 31.04 227.464 31.1431 226.904 31.1431ZM234.603 23.9091V25.017H230.729V23.9091H234.603ZM231.768 22.2102H233.148V28.918C233.148 29.1857 233.188 29.3873 233.269 29.5227C233.349 29.6551 233.452 29.7459 233.578 29.7951C233.707 29.8413 233.847 29.8643 233.998 29.8643C234.109 29.8643 234.206 29.8567 234.289 29.8413C234.372 29.8259 234.436 29.8136 234.483 29.8043L234.732 30.9446C234.652 30.9754 234.538 31.0062 234.39 31.0369C234.243 31.0708 234.058 31.0893 233.836 31.0923C233.473 31.0985 233.135 31.0339 232.821 30.8984C232.507 30.763 232.253 30.5537 232.059 30.2706C231.865 29.9875 231.768 29.632 231.768 29.2042V22.2102ZM236.13 31V23.9091H237.51V31H236.13ZM236.827 22.815C236.587 22.815 236.38 22.735 236.208 22.5749C236.039 22.4118 235.954 22.2179 235.954 21.9933C235.954 21.7655 236.039 21.5716 236.208 21.4116C236.38 21.2485 236.587 21.1669 236.827 21.1669C237.067 21.1669 237.271 21.2485 237.441 21.4116C237.613 21.5716 237.699 21.7655 237.699 21.9933C237.699 22.2179 237.613 22.4118 237.441 22.5749C237.271 22.735 237.067 22.815 236.827 22.815ZM245.433 23.9091L242.862 31H241.384L238.808 23.9091H240.29L242.086 29.3658H242.16L243.951 23.9091H245.433ZM249.545 31.1431C248.846 31.1431 248.245 30.9938 247.74 30.6953C247.238 30.3937 246.851 29.9705 246.577 29.4258C246.306 28.878 246.17 28.2363 246.17 27.5007C246.17 26.7744 246.306 26.1342 246.577 25.5803C246.851 25.0263 247.232 24.5939 247.722 24.283C248.214 23.9722 248.789 23.8168 249.448 23.8168C249.848 23.8168 250.236 23.8829 250.611 24.0153C250.987 24.1476 251.324 24.3554 251.622 24.6385C251.921 24.9216 252.156 25.2894 252.329 25.7418C252.501 26.1912 252.587 26.7375 252.587 27.3807V27.87H246.951V26.8359H251.235C251.235 26.4728 251.161 26.1512 251.013 25.8711C250.865 25.5879 250.658 25.3648 250.39 25.2017C250.125 25.0386 249.814 24.957 249.457 24.957C249.07 24.957 248.731 25.0524 248.442 25.2433C248.155 25.431 247.934 25.6772 247.777 25.9819C247.623 26.2835 247.546 26.6113 247.546 26.9652V27.7731C247.546 28.247 247.629 28.6502 247.795 28.9826C247.965 29.315 248.2 29.5689 248.502 29.7443C248.803 29.9167 249.156 30.0028 249.559 30.0028C249.821 30.0028 250.059 29.9659 250.274 29.892C250.49 29.8151 250.676 29.7012 250.833 29.5504C250.99 29.3996 251.11 29.2134 251.193 28.9918L252.5 29.2273C252.395 29.612 252.207 29.949 251.936 30.2383C251.669 30.5245 251.332 30.7476 250.925 30.9077C250.522 31.0646 250.062 31.1431 249.545 31.1431ZM263.75 21.5455H265.181V27.7638C265.181 28.4255 265.026 29.0118 264.715 29.5227C264.404 30.0305 263.967 30.4306 263.404 30.723C262.841 31.0123 262.18 31.157 261.423 31.157C260.669 31.157 260.011 31.0123 259.447 30.723C258.884 30.4306 258.447 30.0305 258.136 29.5227C257.825 29.0118 257.67 28.4255 257.67 27.7638V21.5455H259.097V27.6484C259.097 28.0762 259.19 28.4563 259.378 28.7887C259.569 29.1211 259.838 29.3827 260.186 29.5735C260.534 29.7612 260.946 29.8551 261.423 29.8551C261.903 29.8551 262.317 29.7612 262.665 29.5735C263.016 29.3827 263.284 29.1211 263.468 28.7887C263.656 28.4563 263.75 28.0762 263.75 27.6484V21.5455ZM272.458 25.6403L271.207 25.8619C271.154 25.7018 271.071 25.5495 270.957 25.4048C270.847 25.2602 270.696 25.1417 270.505 25.0494C270.314 24.957 270.076 24.9109 269.789 24.9109C269.399 24.9109 269.072 24.9986 268.811 25.174C268.549 25.3464 268.418 25.5695 268.418 25.8434C268.418 26.0804 268.506 26.2712 268.682 26.4158C268.857 26.5605 269.14 26.679 269.531 26.7713L270.657 27.0298C271.31 27.1806 271.796 27.413 272.116 27.7269C272.436 28.0408 272.596 28.4486 272.596 28.9503C272.596 29.375 272.473 29.7536 272.227 30.0859C271.984 30.4152 271.644 30.6738 271.207 30.8615C270.773 31.0492 270.27 31.1431 269.697 31.1431C268.903 31.1431 268.255 30.9738 267.754 30.6353C267.252 30.2937 266.944 29.8089 266.83 29.1811L268.164 28.978C268.248 29.3258 268.418 29.5889 268.677 29.7674C268.935 29.9428 269.272 30.0305 269.688 30.0305C270.14 30.0305 270.502 29.9367 270.773 29.7489C271.044 29.5581 271.179 29.3258 271.179 29.0518C271.179 28.8303 271.096 28.6441 270.93 28.4933C270.767 28.3424 270.516 28.2286 270.177 28.1516L268.977 27.8885C268.315 27.7377 267.826 27.4976 267.509 27.1683C267.195 26.839 267.038 26.422 267.038 25.9173C267.038 25.4987 267.155 25.1325 267.389 24.8185C267.623 24.5046 267.946 24.2599 268.358 24.0845C268.771 23.906 269.243 23.8168 269.776 23.8168C270.542 23.8168 271.145 23.983 271.585 24.3153C272.025 24.6446 272.316 25.0863 272.458 25.6403ZM277.17 31.1431C276.471 31.1431 275.87 30.9938 275.365 30.6953C274.863 30.3937 274.476 29.9705 274.202 29.4258C273.931 28.878 273.795 28.2363 273.795 27.5007C273.795 26.7744 273.931 26.1342 274.202 25.5803C274.476 25.0263 274.857 24.5939 275.347 24.283C275.839 23.9722 276.414 23.8168 277.073 23.8168C277.473 23.8168 277.861 23.8829 278.236 24.0153C278.612 24.1476 278.949 24.3554 279.247 24.6385C279.546 24.9216 279.781 25.2894 279.954 25.7418C280.126 26.1912 280.212 26.7375 280.212 27.3807V27.87H274.576V26.8359H278.86C278.86 26.4728 278.786 26.1512 278.638 25.8711C278.49 25.5879 278.283 25.3648 278.015 25.2017C277.75 25.0386 277.439 24.957 277.082 24.957C276.695 24.957 276.356 25.0524 276.067 25.2433C275.78 25.431 275.559 25.6772 275.402 25.9819C275.248 26.2835 275.171 26.6113 275.171 26.9652V27.7731C275.171 28.247 275.254 28.6502 275.42 28.9826C275.59 29.315 275.825 29.5689 276.127 29.7443C276.428 29.9167 276.781 30.0028 277.184 30.0028C277.446 30.0028 277.684 29.9659 277.899 29.892C278.115 29.8151 278.301 29.7012 278.458 29.5504C278.615 29.3996 278.735 29.2134 278.818 28.9918L280.125 29.2273C280.02 29.612 279.832 29.949 279.561 30.2383C279.294 30.5245 278.957 30.7476 278.55 30.9077C278.147 31.0646 277.687 31.1431 277.17 31.1431ZM281.744 31V23.9091H283.078V25.0355H283.152C283.281 24.6539 283.509 24.3538 283.835 24.1353C284.164 23.9137 284.537 23.8029 284.952 23.8029C285.038 23.8029 285.14 23.806 285.257 23.8121C285.377 23.8183 285.471 23.826 285.539 23.8352V25.1555C285.483 25.1402 285.385 25.1232 285.243 25.1048C285.102 25.0832 284.96 25.0724 284.818 25.0724C284.492 25.0724 284.201 25.1417 283.946 25.2802C283.694 25.4156 283.493 25.6049 283.346 25.848C283.198 26.0881 283.124 26.362 283.124 26.6697V31H281.744ZM292.047 25.6403L290.796 25.8619C290.743 25.7018 290.66 25.5495 290.546 25.4048C290.436 25.2602 290.285 25.1417 290.094 25.0494C289.903 24.957 289.665 24.9109 289.378 24.9109C288.987 24.9109 288.661 24.9986 288.4 25.174C288.138 25.3464 288.007 25.5695 288.007 25.8434C288.007 26.0804 288.095 26.2712 288.27 26.4158C288.446 26.5605 288.729 26.679 289.12 26.7713L290.246 27.0298C290.899 27.1806 291.385 27.413 291.705 27.7269C292.025 28.0408 292.185 28.4486 292.185 28.9503C292.185 29.375 292.062 29.7536 291.816 30.0859C291.573 30.4152 291.233 30.6738 290.796 30.8615C290.362 31.0492 289.858 31.1431 289.286 31.1431C288.492 31.1431 287.844 30.9738 287.342 30.6353C286.841 30.2937 286.533 29.8089 286.419 29.1811L287.753 28.978C287.836 29.3258 288.007 29.5889 288.266 29.7674C288.524 29.9428 288.861 30.0305 289.277 30.0305C289.729 30.0305 290.091 29.9367 290.362 29.7489C290.632 29.5581 290.768 29.3258 290.768 29.0518C290.768 28.8303 290.685 28.6441 290.519 28.4933C290.355 28.3424 290.105 28.2286 289.766 28.1516L288.566 27.8885C287.904 27.7377 287.415 27.4976 287.098 27.1683C286.784 26.839 286.627 26.422 286.627 25.9173C286.627 25.4987 286.744 25.1325 286.978 24.8185C287.212 24.5046 287.535 24.2599 287.947 24.0845C288.36 23.906 288.832 23.8168 289.364 23.8168C290.131 23.8168 290.734 23.983 291.174 24.3153C291.614 24.6446 291.905 25.0863 292.047 25.6403Z" fill="white"/>
<ellipse cx="63" cy="62" rx="63" ry="62" transform="matrix(1 0 0 -1 171.001 193.999)" stroke="#CECECE" stroke-width="8"/>
<path d="M215.955 69.1931C229.576 65.3239 244.064 65.8805 257.281 70.7806C270.498 75.6807 281.744 84.6649 289.361 96.4079C296.978 108.151 300.563 122.031 299.585 136C298.608 149.969 293.12 163.287 283.933 173.991C274.745 184.694 262.343 192.215 248.558 195.445C234.772 198.674 220.332 197.441 207.367 191.927C194.403 186.414 183.602 176.911 176.556 164.821C169.51 152.732 166.594 138.696 168.237 124.783L173.699 125.379C172.193 138.132 174.866 150.998 181.324 162.08C187.783 173.162 197.684 181.872 209.568 186.926C221.451 191.981 234.688 193.111 247.325 190.151C259.962 187.19 271.329 180.296 279.751 170.485C288.173 160.674 293.203 148.465 294.099 135.66C294.995 122.856 291.71 110.133 284.727 99.3685C277.745 88.6043 267.436 80.3689 255.321 75.8772C243.205 71.3855 229.925 70.8754 217.44 74.4221L215.955 69.1931Z" fill="#4B1161"/>
<ellipse cx="25.9175" cy="26.0723" rx="25.9175" ry="26.0723" transform="matrix(1 0 0 -1 206.271 161.123)" stroke="#CECECE" stroke-width="8"/>
<path d="M218.295 109.258C224.001 106.181 230.57 105.07 236.981 106.099C243.392 107.127 249.287 110.236 253.749 114.944C258.212 119.652 260.992 125.695 261.658 132.133C262.324 138.572 260.839 145.046 257.433 150.549C254.027 156.053 248.892 160.278 242.824 162.569C236.756 164.859 230.096 165.087 223.878 163.215C217.66 161.344 212.233 157.48 208.439 152.222C204.646 146.964 202.698 140.607 202.899 134.139L209.674 134.359C209.519 139.339 211.019 144.234 213.94 148.282C216.861 152.331 221.039 155.306 225.827 156.747C230.614 158.188 235.742 158.013 240.414 156.249C245.086 154.486 249.04 151.232 251.663 146.995C254.285 142.757 255.429 137.772 254.916 132.815C254.403 127.858 252.262 123.205 248.826 119.58C245.391 115.956 240.852 113.561 235.916 112.77C230.979 111.978 225.922 112.833 221.528 115.203L218.295 109.258Z" fill="#341457"/>
<path d="M276.758 134.691C276.758 110.143 256.893 90.2548 232.403 90.2548C207.913 90.2548 188.048 110.143 188.048 134.691C188.048 159.239 207.913 179.128 232.403 179.128C256.893 179.128 276.758 159.239 276.758 134.691Z" stroke="#E9E9E9" stroke-width="8"/>
<path d="M209.175 93.0867C218.094 88.0838 228.38 86.0824 238.519 87.3775C248.657 88.6725 258.111 93.1956 265.487 100.28C272.863 107.364 277.77 116.635 279.486 126.726C281.203 136.816 279.636 147.193 275.018 156.327C270.4 165.46 262.975 172.867 253.837 177.455C244.699 182.043 234.332 183.571 224.264 181.812C214.195 180.053 204.958 175.1 197.914 167.685C190.871 160.269 186.392 150.783 185.14 140.624L191.624 139.82C192.705 148.588 196.57 156.774 202.649 163.174C208.728 169.573 216.699 173.847 225.388 175.365C234.077 176.883 243.024 175.565 250.91 171.605C258.796 167.646 265.204 161.254 269.189 153.372C273.174 145.489 274.526 136.534 273.045 127.826C271.564 119.118 267.329 111.117 260.964 105.003C254.598 98.8898 246.44 94.9864 237.69 93.8688C228.941 92.7511 220.063 94.4783 212.367 98.7958L209.175 93.0867Z" fill="#5F3B8D"/>
<circle cx="6.5" cy="6.5" r="6.5" transform="matrix(-1 0 0 1 132 51.5)" fill="#5C1D80"/>
<path d="M50.83 44.4545C50.7789 44.0227 50.5715 43.6875 50.2079 43.4489C49.8442 43.2102 49.3982 43.0909 48.8698 43.0909C48.4834 43.0909 48.1454 43.1534 47.8556 43.2784C47.5687 43.4034 47.3442 43.5753 47.1823 43.794C47.0232 44.0128 46.9437 44.2614 46.9437 44.5398C46.9437 44.7727 46.9991 44.973 47.1099 45.1406C47.2235 45.3054 47.3684 45.4432 47.5445 45.554C47.7207 45.6619 47.9053 45.7514 48.0985 45.8224C48.2917 45.8906 48.4692 45.946 48.6312 45.9886L49.5175 46.2273C49.7448 46.2869 49.9976 46.3693 50.2761 46.4744C50.5573 46.5795 50.8258 46.723 51.0815 46.9048C51.34 47.0838 51.553 47.3139 51.7207 47.5952C51.8883 47.8764 51.9721 48.2216 51.9721 48.6307C51.9721 49.1023 51.8485 49.5284 51.6013 49.9091C51.357 50.2898 50.9991 50.5923 50.5275 50.8168C50.0587 51.0412 49.4891 51.1534 48.8187 51.1534C48.1937 51.1534 47.6525 51.0526 47.1951 50.8509C46.7405 50.6491 46.3826 50.3679 46.1212 50.0071C45.8627 49.6463 45.7164 49.2273 45.6823 48.75H46.7732C46.8016 49.0795 46.9124 49.3523 47.1056 49.5682C47.3016 49.7812 47.5488 49.9403 47.8471 50.0455C48.1482 50.1477 48.4721 50.1989 48.8187 50.1989C49.2221 50.1989 49.5843 50.1335 49.9053 50.0028C50.2263 49.8693 50.4806 49.6847 50.6681 49.4489C50.8556 49.2102 50.9494 48.9318 50.9494 48.6136C50.9494 48.3239 50.8684 48.0881 50.7065 47.9062C50.5445 47.7244 50.3315 47.5767 50.0672 47.4631C49.803 47.3494 49.5175 47.25 49.2107 47.1648L48.1369 46.858C47.455 46.6619 46.9153 46.3821 46.5175 46.0185C46.1198 45.6548 45.9209 45.179 45.9209 44.5909C45.9209 44.1023 46.053 43.6761 46.3172 43.3125C46.5843 42.946 46.9422 42.6619 47.3911 42.4602C47.8428 42.2557 48.3471 42.1534 48.9039 42.1534C49.4664 42.1534 49.9664 42.2543 50.4039 42.456C50.8414 42.6548 51.188 42.9276 51.4437 43.2741C51.7022 43.6207 51.8386 44.0142 51.8528 44.4545H50.83ZM55.4994 51.1534C55.0847 51.1534 54.7082 51.0753 54.3702 50.919C54.0321 50.7599 53.7636 50.5312 53.5648 50.233C53.3659 49.9318 53.2665 49.5682 53.2665 49.142C53.2665 48.767 53.3403 48.4631 53.4881 48.2301C53.6358 47.9943 53.8332 47.8097 54.0804 47.6761C54.3275 47.5426 54.6003 47.4432 54.8986 47.3778C55.1997 47.3097 55.5023 47.2557 55.8062 47.2159C56.204 47.1648 56.5264 47.1264 56.7736 47.1009C57.0236 47.0724 57.2054 47.0256 57.319 46.9602C57.4355 46.8949 57.4937 46.7812 57.4937 46.6193V46.5852C57.4937 46.1648 57.3787 45.8381 57.1486 45.6051C56.9213 45.3722 56.5761 45.2557 56.1131 45.2557C55.6329 45.2557 55.2565 45.3608 54.9838 45.571C54.7111 45.7812 54.5193 46.0057 54.4085 46.2443L53.454 45.9034C53.6244 45.5057 53.8517 45.196 54.1358 44.9744C54.4227 44.75 54.7352 44.5937 55.0733 44.5057C55.4142 44.4148 55.7494 44.3693 56.079 44.3693C56.2892 44.3693 56.5307 44.3949 56.8034 44.446C57.079 44.4943 57.3446 44.5952 57.6003 44.7486C57.8588 44.902 58.0733 45.1335 58.2437 45.4432C58.4142 45.7528 58.4994 46.1676 58.4994 46.6875V51H57.4937V50.1136H57.4426C57.3744 50.2557 57.2608 50.4077 57.1017 50.5696C56.9426 50.7315 56.731 50.8693 56.4668 50.983C56.2025 51.0966 55.8801 51.1534 55.4994 51.1534ZM55.6528 50.25C56.0506 50.25 56.3858 50.1719 56.6585 50.0156C56.9341 49.8594 57.1415 49.6577 57.2807 49.4105C57.4227 49.1634 57.4937 48.9034 57.4937 48.6307V47.7102C57.4511 47.7614 57.3574 47.8082 57.2125 47.8509C57.0704 47.8906 56.9057 47.9261 56.7182 47.9574C56.5335 47.9858 56.3531 48.0114 56.177 48.0341C56.0037 48.054 55.8631 48.071 55.7551 48.0852C55.4937 48.1193 55.2494 48.1747 55.0222 48.2514C54.7977 48.3253 54.6159 48.4375 54.4767 48.5881C54.3403 48.7358 54.2722 48.9375 54.2722 49.1932C54.2722 49.5426 54.4014 49.8068 54.6599 49.9858C54.9213 50.1619 55.2523 50.25 55.6528 50.25ZM61.3407 42.2727V51H60.335V42.2727H61.3407ZM65.927 51.1364C65.2963 51.1364 64.7523 50.9972 64.2949 50.7188C63.8403 50.4375 63.4895 50.0455 63.2423 49.5426C62.998 49.0369 62.8758 48.4489 62.8758 47.7784C62.8758 47.108 62.998 46.517 63.2423 46.0057C63.4895 45.4915 63.8332 45.0909 64.2736 44.804C64.7168 44.5142 65.2338 44.3693 65.8247 44.3693C66.1656 44.3693 66.5023 44.4261 66.8347 44.5398C67.167 44.6534 67.4696 44.8381 67.7423 45.0938C68.015 45.3466 68.2324 45.6818 68.3943 46.0994C68.5562 46.517 68.6372 47.0312 68.6372 47.642V48.0682H63.5918V47.1989H67.6145C67.6145 46.8295 67.5406 46.5 67.3929 46.2102C67.248 45.9205 67.0406 45.6918 66.7707 45.5241C66.5037 45.3565 66.1883 45.2727 65.8247 45.2727C65.4241 45.2727 65.0775 45.3722 64.7849 45.571C64.4952 45.767 64.2722 46.0227 64.1159 46.3381C63.9597 46.6534 63.8815 46.9915 63.8815 47.3523V47.9318C63.8815 48.4261 63.9668 48.8452 64.1372 49.1889C64.3105 49.5298 64.5506 49.7898 64.8574 49.9688C65.1642 50.1449 65.5207 50.233 65.927 50.233C66.1912 50.233 66.4298 50.196 66.6429 50.1222C66.8588 50.0455 67.0449 49.9318 67.2011 49.7812C67.3574 49.6278 67.4781 49.4375 67.5633 49.2102L68.5349 49.483C68.4327 49.8125 68.2608 50.1023 68.0193 50.3523C67.7778 50.5994 67.4795 50.7926 67.1244 50.9318C66.7693 51.0682 66.3702 51.1364 65.927 51.1364ZM74.8034 45.9205L73.9 46.1761C73.8432 46.0256 73.7594 45.8793 73.6486 45.7372C73.5406 45.5923 73.3929 45.473 73.2054 45.3793C73.0179 45.2855 72.7778 45.2386 72.4852 45.2386C72.0847 45.2386 71.7508 45.331 71.4838 45.5156C71.2196 45.6974 71.0875 45.929 71.0875 46.2102C71.0875 46.4602 71.1784 46.6577 71.3602 46.8026C71.542 46.9474 71.8261 47.0682 72.2125 47.1648L73.1841 47.4034C73.7693 47.5455 74.2054 47.7628 74.4923 48.0554C74.7793 48.3452 74.9227 48.7187 74.9227 49.1761C74.9227 49.5511 74.8148 49.8864 74.5989 50.1818C74.3858 50.4773 74.0875 50.7102 73.704 50.8807C73.3204 51.0511 72.8744 51.1364 72.3659 51.1364C71.6983 51.1364 71.1457 50.9915 70.7082 50.7017C70.2707 50.4119 69.9937 49.9886 69.8773 49.4318L70.8318 49.1932C70.9227 49.5455 71.0946 49.8097 71.3474 49.9858C71.6031 50.1619 71.9369 50.25 72.3489 50.25C72.8176 50.25 73.1898 50.1506 73.4653 49.9517C73.7437 49.75 73.8829 49.5085 73.8829 49.2273C73.8829 49 73.8034 48.8097 73.6443 48.6562C73.4852 48.5 73.2409 48.3835 72.9114 48.3068L71.8204 48.0511C71.221 47.9091 70.7807 47.6889 70.4994 47.3906C70.221 47.0895 70.0818 46.7131 70.0818 46.2614C70.0818 45.892 70.1855 45.5653 70.3929 45.2812C70.6031 44.9972 70.8886 44.7741 71.2494 44.6122C71.6131 44.4503 72.025 44.3693 72.4852 44.3693C73.1329 44.3693 73.6415 44.5114 74.0108 44.7955C74.3829 45.0795 74.6472 45.4545 74.8034 45.9205ZM79.3513 44.4545V45.3068H75.8229V44.4545H79.3513ZM76.8797 51V43.5511C76.8797 43.1761 76.9678 42.8636 77.144 42.6136C77.3201 42.3636 77.5488 42.1761 77.83 42.0511C78.1113 41.9261 78.4082 41.8636 78.7207 41.8636C78.9678 41.8636 79.1695 41.8835 79.3258 41.9233C79.482 41.9631 79.5985 42 79.6752 42.0341L79.3854 42.9034C79.3343 42.8864 79.2633 42.8651 79.1724 42.8395C79.0843 42.8139 78.9678 42.8011 78.8229 42.8011C78.4905 42.8011 78.2505 42.8849 78.1028 43.0526C77.9579 43.2202 77.8854 43.4659 77.8854 43.7898V51H76.8797ZM83.1503 51.1364C82.5594 51.1364 82.041 50.9957 81.5949 50.7145C81.1518 50.4332 80.8052 50.0398 80.5552 49.5341C80.308 49.0284 80.1844 48.4375 80.1844 47.7614C80.1844 47.0795 80.308 46.4844 80.5552 45.9759C80.8052 45.4673 81.1518 45.0724 81.5949 44.7912C82.041 44.5099 82.5594 44.3693 83.1503 44.3693C83.7413 44.3693 84.2583 44.5099 84.7015 44.7912C85.1475 45.0724 85.4941 45.4673 85.7413 45.9759C85.9913 46.4844 86.1163 47.0795 86.1163 47.7614C86.1163 48.4375 85.9913 49.0284 85.7413 49.5341C85.4941 50.0398 85.1475 50.4332 84.7015 50.7145C84.2583 50.9957 83.7413 51.1364 83.1503 51.1364ZM83.1503 50.233C83.5992 50.233 83.9685 50.1179 84.2583 49.8878C84.5481 49.6577 84.7626 49.3551 84.9018 48.9801C85.041 48.6051 85.1106 48.1989 85.1106 47.7614C85.1106 47.3239 85.041 46.9162 84.9018 46.5384C84.7626 46.1605 84.5481 45.8551 84.2583 45.6222C83.9685 45.3892 83.5992 45.2727 83.1503 45.2727C82.7015 45.2727 82.3322 45.3892 82.0424 45.6222C81.7526 45.8551 81.5381 46.1605 81.3989 46.5384C81.2597 46.9162 81.1901 47.3239 81.1901 47.7614C81.1901 48.1989 81.2597 48.6051 81.3989 48.9801C81.5381 49.3551 81.7526 49.6577 82.0424 49.8878C82.3322 50.1179 82.7015 50.233 83.1503 50.233ZM87.6514 51V44.4545H88.623V45.4432H88.6912C88.8105 45.1193 89.0264 44.8565 89.3389 44.6548C89.6514 44.4531 90.0037 44.3523 90.3957 44.3523C90.4696 44.3523 90.5619 44.3537 90.6727 44.3565C90.7835 44.3594 90.8673 44.3636 90.9241 44.3693V45.392C90.89 45.3835 90.8119 45.3707 90.6898 45.3537C90.5704 45.3338 90.444 45.3239 90.3105 45.3239C89.9923 45.3239 89.7082 45.3906 89.4582 45.5241C89.2111 45.6548 89.015 45.8366 88.8702 46.0696C88.7281 46.2997 88.6571 46.5625 88.6571 46.858V51H87.6514ZM94.5761 51.1364C93.9625 51.1364 93.4341 50.9915 92.9909 50.7017C92.5477 50.4119 92.2068 50.0128 91.9682 49.5043C91.7295 48.9957 91.6102 48.4148 91.6102 47.7614C91.6102 47.0966 91.7324 46.5099 91.9767 46.0014C92.2239 45.4901 92.5676 45.0909 93.0079 44.804C93.4511 44.5142 93.9682 44.3693 94.5591 44.3693C95.0193 44.3693 95.4341 44.4545 95.8034 44.625C96.1727 44.7955 96.4753 45.0341 96.7111 45.3409C96.9469 45.6477 97.0932 46.0057 97.15 46.4148H96.1443C96.0676 46.1165 95.8972 45.8523 95.6329 45.6222C95.3716 45.3892 95.0193 45.2727 94.5761 45.2727C94.1841 45.2727 93.8403 45.375 93.5449 45.5795C93.2523 45.7812 93.0236 46.0668 92.8588 46.4361C92.6969 46.8026 92.6159 47.233 92.6159 47.7273C92.6159 48.233 92.6954 48.6733 92.8545 49.0483C93.0165 49.4233 93.2437 49.7145 93.5364 49.9219C93.8318 50.1293 94.1784 50.233 94.5761 50.233C94.8375 50.233 95.0747 50.1875 95.2878 50.0966C95.5008 50.0057 95.6812 49.875 95.829 49.7045C95.9767 49.5341 96.0818 49.3295 96.1443 49.0909H97.15C97.0932 49.4773 96.9525 49.8253 96.7281 50.1349C96.5065 50.4418 96.2125 50.6861 95.846 50.8679C95.4824 51.0469 95.0591 51.1364 94.5761 51.1364ZM101.364 51.1364C100.734 51.1364 100.19 50.9972 99.7324 50.7188C99.2778 50.4375 98.927 50.0455 98.6798 49.5426C98.4355 49.0369 98.3133 48.4489 98.3133 47.7784C98.3133 47.108 98.4355 46.517 98.6798 46.0057C98.927 45.4915 99.2707 45.0909 99.7111 44.804C100.154 44.5142 100.671 44.3693 101.262 44.3693C101.603 44.3693 101.94 44.4261 102.272 44.5398C102.605 44.6534 102.907 44.8381 103.18 45.0938C103.453 45.3466 103.67 45.6818 103.832 46.0994C103.994 46.517 104.075 47.0312 104.075 47.642V48.0682H99.0293V47.1989H103.052C103.052 46.8295 102.978 46.5 102.83 46.2102C102.686 45.9205 102.478 45.6918 102.208 45.5241C101.941 45.3565 101.626 45.2727 101.262 45.2727C100.862 45.2727 100.515 45.3722 100.222 45.571C99.9327 45.767 99.7097 46.0227 99.5534 46.3381C99.3972 46.6534 99.319 46.9915 99.319 47.3523V47.9318C99.319 48.4261 99.4043 48.8452 99.5747 49.1889C99.748 49.5298 99.9881 49.7898 100.295 49.9688C100.602 50.1449 100.958 50.233 101.364 50.233C101.629 50.233 101.867 50.196 102.08 50.1222C102.296 50.0455 102.482 49.9318 102.639 49.7812C102.795 49.6278 102.916 49.4375 103.001 49.2102L103.972 49.483C103.87 49.8125 103.698 50.1023 103.457 50.3523C103.215 50.5994 102.917 50.7926 102.562 50.9318C102.207 51.0682 101.808 51.1364 101.364 51.1364Z" fill="#ECECEC"/>
<path d="M54.2015 73.1293C53.5675 73.1293 53.0012 73.02 52.5026 72.8015C52.0071 72.583 51.6147 72.2798 51.3254 71.892C51.0392 71.5012 50.8853 71.0488 50.8638 70.5348H52.3133C52.3318 70.8149 52.4257 71.058 52.5949 71.2642C52.7673 71.4673 52.992 71.6243 53.269 71.7351C53.5459 71.8459 53.8537 71.9013 54.1922 71.9013C54.5646 71.9013 54.894 71.8366 55.1802 71.7074C55.4695 71.5781 55.6957 71.3981 55.8588 71.1673C56.0219 70.9334 56.1035 70.6641 56.1035 70.3594C56.1035 70.0424 56.0219 69.7638 55.8588 69.5238C55.6988 69.2807 55.4633 69.0898 55.1525 68.9513C54.8447 68.8129 54.4723 68.7436 54.0353 68.7436H53.2366V67.5803H54.0353C54.3861 67.5803 54.6939 67.5172 54.9586 67.391C55.2263 67.2648 55.4356 67.0894 55.5864 66.8647C55.7372 66.637 55.8126 66.3707 55.8126 66.0661C55.8126 65.7737 55.7465 65.5198 55.6141 65.3043C55.4849 65.0858 55.3002 64.915 55.0601 64.7919C54.8232 64.6688 54.5431 64.6072 54.2199 64.6072C53.9122 64.6072 53.6244 64.6642 53.3567 64.7781C53.092 64.8888 52.8766 65.0489 52.7104 65.2582C52.5442 65.4644 52.4549 65.7121 52.4426 66.0014H51.0623C51.0777 65.4905 51.2285 65.0412 51.5147 64.6534C51.804 64.2656 52.1856 63.9625 52.6596 63.744C53.1335 63.5254 53.6598 63.4162 54.2384 63.4162C54.8447 63.4162 55.3679 63.5347 55.808 63.7717C56.2512 64.0056 56.5928 64.3179 56.8329 64.7088C57.076 65.0997 57.196 65.5275 57.193 65.9922C57.196 66.5215 57.0483 66.9709 56.7498 67.3402C56.4543 67.7095 56.0604 67.9573 55.568 68.0835V68.1573C56.1958 68.2527 56.6821 68.502 57.0268 68.9052C57.3745 69.3084 57.5469 69.8085 57.5438 70.4055C57.5469 70.9257 57.4022 71.3919 57.1099 71.8043C56.8206 72.2167 56.4251 72.5414 55.9234 72.7784C55.4218 73.0123 54.8478 73.1293 54.2015 73.1293ZM62.8758 63.5455V73H61.4447V64.9766H61.3893L59.1273 66.4538V65.0874L61.4863 63.5455H62.8758ZM75.083 63.5455H76.5141V69.7638C76.5141 70.4255 76.3587 71.0118 76.0478 71.5227C75.737 72.0305 75.2999 72.4306 74.7367 72.723C74.1735 73.0123 73.5134 73.157 72.7563 73.157C72.0022 73.157 71.3436 73.0123 70.7804 72.723C70.2172 72.4306 69.7802 72.0305 69.4693 71.5227C69.1585 71.0118 69.0031 70.4255 69.0031 69.7638V63.5455H70.4296V69.6484C70.4296 70.0762 70.5234 70.4563 70.7112 70.7887C70.902 71.1211 71.1713 71.3827 71.519 71.5735C71.8668 71.7612 72.2792 71.8551 72.7563 71.8551C73.2364 71.8551 73.6503 71.7612 73.9981 71.5735C74.3489 71.3827 74.6167 71.1211 74.8014 70.7887C74.9891 70.4563 75.083 70.0762 75.083 69.6484V63.5455ZM83.7908 67.6403L82.5397 67.8619C82.4874 67.7018 82.4043 67.5495 82.2904 67.4048C82.1796 67.2602 82.0288 67.1417 81.838 67.0494C81.6472 66.957 81.4087 66.9109 81.1225 66.9109C80.7316 66.9109 80.4054 66.9986 80.1438 67.174C79.8822 67.3464 79.7514 67.5695 79.7514 67.8434C79.7514 68.0804 79.8391 68.2712 80.0145 68.4158C80.1899 68.5605 80.4731 68.679 80.8639 68.7713L81.9904 69.0298C82.6428 69.1806 83.1291 69.413 83.4492 69.7269C83.7693 70.0408 83.9293 70.4486 83.9293 70.9503C83.9293 71.375 83.8062 71.7536 83.56 72.0859C83.3168 72.4152 82.9768 72.6738 82.5397 72.8615C82.1058 73.0492 81.6026 73.1431 81.0301 73.1431C80.2361 73.1431 79.5883 72.9738 79.0866 72.6353C78.5849 72.2937 78.2772 71.8089 78.1633 71.1811L79.4975 70.978C79.5806 71.3258 79.7514 71.5889 80.0099 71.7674C80.2684 71.9428 80.6054 72.0305 81.0209 72.0305C81.4733 72.0305 81.8349 71.9367 82.1058 71.7489C82.3766 71.5581 82.512 71.3258 82.512 71.0518C82.512 70.8303 82.4289 70.6441 82.2627 70.4933C82.0996 70.3424 81.8488 70.2286 81.5103 70.1516L80.31 69.8885C79.6483 69.7377 79.1589 69.4976 78.8419 69.1683C78.528 68.839 78.371 68.422 78.371 67.9173C78.371 67.4987 78.488 67.1325 78.7219 66.8185C78.9558 66.5046 79.279 66.2599 79.6914 66.0845C80.1038 65.906 80.5762 65.8168 81.1086 65.8168C81.875 65.8168 82.4782 65.983 82.9183 66.3153C83.3584 66.6446 83.6492 67.0863 83.7908 67.6403ZM88.5031 73.1431C87.8044 73.1431 87.2028 72.9938 86.698 72.6953C86.1964 72.3937 85.8086 71.9705 85.5347 71.4258C85.2638 70.878 85.1284 70.2363 85.1284 69.5007C85.1284 68.7744 85.2638 68.1342 85.5347 67.5803C85.8086 67.0263 86.1902 66.5939 86.6796 66.283C87.172 65.9722 87.7475 65.8168 88.4061 65.8168C88.8062 65.8168 89.194 65.8829 89.5695 66.0153C89.9449 66.1476 90.2819 66.3554 90.5805 66.6385C90.879 66.9216 91.1145 67.2894 91.2868 67.7418C91.4591 68.1912 91.5453 68.7375 91.5453 69.3807V69.87H85.9086V68.8359H90.1927C90.1927 68.4728 90.1188 68.1512 89.9711 67.8711C89.8234 67.5879 89.6156 67.3648 89.3479 67.2017C89.0832 67.0386 88.7724 66.957 88.4153 66.957C88.0276 66.957 87.689 67.0524 87.3997 67.2433C87.1135 67.431 86.8919 67.6772 86.735 67.9819C86.5811 68.2835 86.5041 68.6113 86.5041 68.9652V69.7731C86.5041 70.247 86.5872 70.6502 86.7534 70.9826C86.9227 71.315 87.1581 71.5689 87.4597 71.7443C87.7613 71.9167 88.1137 72.0028 88.5169 72.0028C88.7785 72.0028 89.017 71.9659 89.2325 71.892C89.4479 71.8151 89.6341 71.7012 89.7911 71.5504C89.948 71.3996 90.068 71.2134 90.1511 70.9918L91.4576 71.2273C91.353 71.612 91.1652 71.949 90.8944 72.2383C90.6266 72.5245 90.2896 72.7476 89.8834 72.9077C89.4802 73.0646 89.0201 73.1431 88.5031 73.1431ZM93.0768 73V65.9091H94.411V67.0355H94.4849C94.6141 66.6539 94.8419 66.3538 95.1681 66.1353C95.4974 65.9137 95.8698 65.8029 96.2853 65.8029C96.3715 65.8029 96.473 65.806 96.59 65.8121C96.71 65.8183 96.8039 65.826 96.8716 65.8352V67.1555C96.8162 67.1402 96.7177 67.1232 96.5761 67.1048C96.4346 67.0832 96.293 67.0724 96.1514 67.0724C95.8252 67.0724 95.5343 67.1417 95.2789 67.2802C95.0265 67.4156 94.8265 67.6049 94.6788 67.848C94.531 68.0881 94.4572 68.362 94.4572 68.6697V73H93.0768ZM103.38 67.6403L102.129 67.8619C102.076 67.7018 101.993 67.5495 101.879 67.4048C101.769 67.2602 101.618 67.1417 101.427 67.0494C101.236 66.957 100.998 66.9109 100.711 66.9109C100.32 66.9109 99.9942 66.9986 99.7326 67.174C99.471 67.3464 99.3402 67.5695 99.3402 67.8434C99.3402 68.0804 99.428 68.2712 99.6034 68.4158C99.7788 68.5605 100.062 68.679 100.453 68.7713L101.579 69.0298C102.232 69.1806 102.718 69.413 103.038 69.7269C103.358 70.0408 103.518 70.4486 103.518 70.9503C103.518 71.375 103.395 71.7536 103.149 72.0859C102.906 72.4152 102.566 72.6738 102.129 72.8615C101.695 73.0492 101.191 73.1431 100.619 73.1431C99.825 73.1431 99.1771 72.9738 98.6755 72.6353C98.1738 72.2937 97.866 71.8089 97.7522 71.1811L99.0863 70.978C99.1694 71.3258 99.3402 71.5889 99.5988 71.7674C99.8573 71.9428 100.194 72.0305 100.61 72.0305C101.062 72.0305 101.424 71.9367 101.695 71.7489C101.965 71.5581 102.101 71.3258 102.101 71.0518C102.101 70.8303 102.018 70.6441 101.852 70.4933C101.688 70.3424 101.438 70.2286 101.099 70.1516L99.8988 69.8885C99.2371 69.7377 98.7478 69.4976 98.4308 69.1683C98.1169 68.839 97.9599 68.422 97.9599 67.9173C97.9599 67.4987 98.0769 67.1325 98.3108 66.8185C98.5447 66.5046 98.8678 66.2599 99.2802 66.0845C99.6926 65.906 100.165 65.8168 100.697 65.8168C101.464 65.8168 102.067 65.983 102.507 66.3153C102.947 66.6446 103.238 67.0863 103.38 67.6403Z" fill="#B8B9BE"/>
<circle cx="6.5" cy="6.5" r="6.5" transform="matrix(-1 0 0 1 134 111.5)" fill="#B94CA6"/>
<path d="M67.6084 104.5C67.5069 104.189 67.373 103.911 67.2068 103.664C67.0437 103.415 66.8483 103.203 66.6205 103.027C66.3958 102.852 66.1404 102.718 65.8542 102.626C65.568 102.533 65.254 102.487 64.9124 102.487C64.3523 102.487 63.8429 102.632 63.3844 102.921C62.9258 103.21 62.5611 103.637 62.2903 104.2C62.0194 104.763 61.884 105.454 61.884 106.273C61.884 107.091 62.021 107.782 62.2949 108.346C62.5688 108.909 62.9396 109.335 63.4074 109.624C63.8753 109.914 64.4015 110.058 64.9863 110.058C65.528 110.058 66.005 109.943 66.4174 109.712C66.8329 109.478 67.156 109.149 67.3869 108.724C67.6208 108.296 67.7377 107.793 67.7377 107.214L68.0886 107.288H65.2448V106.273H68.8457V107.288C68.8457 108.067 68.6795 108.744 68.3471 109.32C68.0178 109.895 67.5623 110.341 66.9806 110.658C66.402 110.972 65.7372 111.129 64.9863 111.129C64.1492 111.129 63.4136 110.932 62.7796 110.538C62.1487 110.144 61.6563 109.584 61.3023 108.858C60.9515 108.132 60.7761 107.27 60.7761 106.273C60.7761 105.525 60.8761 104.852 61.0761 104.255C61.2793 103.655 61.5655 103.144 61.9348 102.723C62.3041 102.301 62.7411 101.978 63.2459 101.753C63.7506 101.529 64.3061 101.416 64.9124 101.416C65.411 101.416 65.8757 101.492 66.3066 101.642C66.7405 101.79 67.1268 102.001 67.4653 102.275C67.807 102.546 68.0916 102.87 68.3194 103.249C68.5471 103.624 68.7041 104.041 68.7903 104.5H67.6084ZM79.6332 103.909C79.5778 103.441 79.3531 103.078 78.9592 102.82C78.5653 102.561 78.0821 102.432 77.5096 102.432C77.0911 102.432 76.7248 102.5 76.4109 102.635C76.1001 102.77 75.8569 102.957 75.6815 103.194C75.5092 103.431 75.423 103.7 75.423 104.001C75.423 104.254 75.483 104.471 75.603 104.652C75.7261 104.831 75.8831 104.98 76.0739 105.1C76.2647 105.217 76.4648 105.314 76.6741 105.391C76.8833 105.465 77.0757 105.525 77.2511 105.571L78.2113 105.83C78.4575 105.894 78.7315 105.983 79.0331 106.097C79.3378 106.211 79.6286 106.367 79.9056 106.564C80.1857 106.757 80.4165 107.007 80.5981 107.311C80.7796 107.616 80.8704 107.99 80.8704 108.433C80.8704 108.944 80.7366 109.406 80.4688 109.818C80.2041 110.231 79.8163 110.558 79.3054 110.801C78.7976 111.045 78.1806 111.166 77.4542 111.166C76.7772 111.166 76.1909 111.057 75.6954 110.838C75.2029 110.62 74.8151 110.315 74.532 109.924C74.2519 109.533 74.0934 109.08 74.0565 108.562H75.2383C75.2691 108.92 75.3891 109.215 75.5984 109.449C75.8108 109.68 76.0785 109.852 76.4017 109.966C76.7279 110.077 77.0788 110.132 77.4542 110.132C77.8913 110.132 78.2837 110.061 78.6314 109.92C78.9792 109.775 79.2547 109.575 79.4578 109.32C79.6609 109.061 79.7625 108.759 79.7625 108.415C79.7625 108.101 79.6748 107.845 79.4993 107.648C79.3239 107.451 79.0931 107.291 78.8069 107.168C78.5206 107.045 78.2113 106.937 77.879 106.845L76.7156 106.513C75.977 106.3 75.3922 105.997 74.9613 105.603C74.5305 105.209 74.315 104.694 74.315 104.057C74.315 103.527 74.4581 103.066 74.7444 102.672C75.0337 102.275 75.4214 101.967 75.9077 101.749C76.3971 101.527 76.9433 101.416 77.5466 101.416C78.1559 101.416 78.6976 101.525 79.1716 101.744C79.6455 101.959 80.021 102.255 80.298 102.63C80.5781 103.006 80.7258 103.432 80.7412 103.909H79.6332ZM87.0738 108.101V103.909H88.1633V111H87.0738V109.8H87C86.8338 110.16 86.5752 110.466 86.2244 110.718C85.8735 110.968 85.4304 111.092 84.8948 111.092C84.4517 111.092 84.0577 110.995 83.713 110.801C83.3683 110.605 83.0975 110.309 82.9005 109.915C82.7036 109.518 82.6051 109.018 82.6051 108.415V103.909H83.6946V108.341C83.6946 108.858 83.8392 109.27 84.1285 109.578C84.4209 109.886 84.7933 110.04 85.2457 110.04C85.5165 110.04 85.792 109.971 86.072 109.832C86.3552 109.694 86.5922 109.481 86.783 109.195C86.9769 108.909 87.0738 108.544 87.0738 108.101ZM90.1588 111V103.909H91.2483V111H90.1588ZM90.7128 102.727C90.5004 102.727 90.3173 102.655 90.1634 102.51C90.0126 102.366 89.9372 102.192 89.9372 101.989C89.9372 101.786 90.0126 101.612 90.1634 101.467C90.3173 101.322 90.5004 101.25 90.7128 101.25C90.9251 101.25 91.1067 101.322 91.2575 101.467C91.4114 101.612 91.4883 101.786 91.4883 101.989C91.4883 102.192 91.4114 102.366 91.2575 102.51C91.1067 102.655 90.9251 102.727 90.7128 102.727ZM96.3275 103.909V104.832H92.6528V103.909H96.3275ZM93.7239 102.21H94.8133V108.969C94.8133 109.277 94.858 109.507 94.9472 109.661C95.0396 109.812 95.1565 109.914 95.2981 109.966C95.4427 110.015 95.5951 110.04 95.7551 110.04C95.8751 110.04 95.9736 110.034 96.0506 110.021C96.1275 110.006 96.1891 109.994 96.2352 109.984L96.4568 110.963C96.3829 110.991 96.2798 111.018 96.1475 111.046C96.0152 111.077 95.8474 111.092 95.6443 111.092C95.3365 111.092 95.0349 111.026 94.7395 110.894C94.4471 110.761 94.204 110.56 94.0101 110.289C93.8193 110.018 93.7239 109.677 93.7239 109.264V102.21ZM100.863 111.148C100.18 111.148 99.5906 110.997 99.0951 110.695C98.6027 110.391 98.2226 109.966 97.9549 109.421C97.6902 108.873 97.5578 108.236 97.5578 107.51C97.5578 106.784 97.6902 106.143 97.9549 105.589C98.2226 105.032 98.595 104.598 99.072 104.288C99.5522 103.974 100.112 103.817 100.752 103.817C101.122 103.817 101.486 103.878 101.847 104.001C102.207 104.125 102.534 104.325 102.83 104.602C103.125 104.875 103.361 105.239 103.536 105.691C103.712 106.143 103.799 106.701 103.799 107.362V107.824H98.3334V106.882H102.691C102.691 106.482 102.611 106.125 102.451 105.811C102.294 105.497 102.07 105.249 101.777 105.068C101.488 104.886 101.146 104.795 100.752 104.795C100.318 104.795 99.943 104.903 99.626 105.119C99.3121 105.331 99.0705 105.608 98.9012 105.95C98.732 106.291 98.6473 106.657 98.6473 107.048V107.676C98.6473 108.212 98.7397 108.666 98.9243 109.038C99.1121 109.407 99.3721 109.689 99.7045 109.883C100.037 110.074 100.423 110.169 100.863 110.169C101.149 110.169 101.408 110.129 101.639 110.049C101.873 109.966 102.074 109.843 102.244 109.68C102.413 109.513 102.544 109.307 102.636 109.061L103.689 109.357C103.578 109.714 103.392 110.027 103.13 110.298C102.868 110.566 102.545 110.775 102.16 110.926C101.776 111.074 101.343 111.148 100.863 111.148Z" fill="#ECECEC"/>
<path d="M40.9099 134V132.966L44.1092 129.651C44.4508 129.291 44.7324 128.976 44.954 128.705C45.1786 128.431 45.3464 128.171 45.4572 127.925C45.568 127.679 45.6234 127.417 45.6234 127.14C45.6234 126.826 45.5495 126.555 45.4018 126.327C45.254 126.097 45.0525 125.92 44.797 125.797C44.5416 125.67 44.2538 125.607 43.9337 125.607C43.5952 125.607 43.2997 125.676 43.0474 125.815C42.795 125.953 42.6011 126.149 42.4657 126.401C42.3303 126.654 42.2626 126.949 42.2626 127.288H40.9007C40.9007 126.712 41.033 126.209 41.2977 125.778C41.5624 125.347 41.9256 125.013 42.3872 124.776C42.8489 124.536 43.3736 124.416 43.9614 124.416C44.5554 124.416 45.0786 124.535 45.531 124.772C45.9865 125.006 46.342 125.326 46.5974 125.732C46.8529 126.135 46.9806 126.591 46.9806 127.098C46.9806 127.449 46.9144 127.792 46.7821 128.128C46.6528 128.463 46.4266 128.837 46.1035 129.25C45.7803 129.659 45.331 130.156 44.7555 130.741L42.8766 132.707V132.777H47.1329V134H40.9099ZM52.1741 134.157C51.4447 134.154 50.8215 133.962 50.3045 133.58C49.7874 133.198 49.3919 132.643 49.118 131.913C48.8441 131.184 48.7072 130.305 48.7072 129.277C48.7072 128.252 48.8441 127.377 49.118 126.651C49.395 125.924 49.792 125.37 50.3091 124.989C50.8292 124.607 51.4509 124.416 52.1741 124.416C52.8974 124.416 53.5175 124.609 54.0346 124.993C54.5516 125.375 54.9471 125.929 55.221 126.655C55.498 127.378 55.6365 128.252 55.6365 129.277C55.6365 130.308 55.4995 131.189 55.2256 131.918C54.9517 132.644 54.5562 133.2 54.0392 133.585C53.5222 133.966 52.9005 134.157 52.1741 134.157ZM52.1741 132.924C52.8143 132.924 53.3144 132.612 53.6745 131.987C54.0377 131.362 54.2192 130.459 54.2192 129.277C54.2192 128.493 54.1361 127.829 53.9699 127.288C53.8068 126.743 53.5714 126.33 53.2636 126.05C52.9589 125.767 52.5958 125.626 52.1741 125.626C51.5371 125.626 51.0369 125.94 50.6738 126.567C50.3106 127.195 50.1275 128.099 50.1244 129.277C50.1244 130.065 50.206 130.732 50.3691 131.276C50.5353 131.818 50.7707 132.229 51.0754 132.509C51.3801 132.786 51.7463 132.924 52.1741 132.924ZM60.5657 134.157C59.8363 134.154 59.2131 133.962 58.6961 133.58C58.179 133.198 57.7835 132.643 57.5096 131.913C57.2357 131.184 57.0988 130.305 57.0988 129.277C57.0988 128.252 57.2357 127.377 57.5096 126.651C57.7866 125.924 58.1836 125.37 58.7007 124.989C59.2208 124.607 59.8425 124.416 60.5657 124.416C61.289 124.416 61.9091 124.609 62.4262 124.993C62.9432 125.375 63.3387 125.929 63.6126 126.655C63.8896 127.378 64.0281 128.252 64.0281 129.277C64.0281 130.308 63.8911 131.189 63.6172 131.918C63.3433 132.644 62.9478 133.2 62.4308 133.585C61.9138 133.966 61.2921 134.157 60.5657 134.157ZM60.5657 132.924C61.2059 132.924 61.706 132.612 62.0661 131.987C62.4293 131.362 62.6108 130.459 62.6108 129.277C62.6108 128.493 62.5277 127.829 62.3616 127.288C62.1984 126.743 61.963 126.33 61.6552 126.05C61.3505 125.767 60.9874 125.626 60.5657 125.626C59.9287 125.626 59.4285 125.94 59.0654 126.567C58.7022 127.195 58.5191 128.099 58.516 129.277C58.516 130.065 58.5976 130.732 58.7607 131.276C58.9269 131.818 59.1623 132.229 59.467 132.509C59.7717 132.786 60.1379 132.924 60.5657 132.924ZM75.3154 124.545H76.7465V130.764C76.7465 131.426 76.5911 132.012 76.2802 132.523C75.9694 133.031 75.5324 133.431 74.9692 133.723C74.4059 134.012 73.7458 134.157 72.9887 134.157C72.2347 134.157 71.576 134.012 71.0128 133.723C70.4496 133.431 70.0126 133.031 69.7017 132.523C69.3909 132.012 69.2355 131.426 69.2355 130.764V124.545H70.662V130.648C70.662 131.076 70.7558 131.456 70.9436 131.789C71.1344 132.121 71.4037 132.383 71.7515 132.574C72.0992 132.761 72.5116 132.855 72.9887 132.855C73.4688 132.855 73.8827 132.761 74.2305 132.574C74.5814 132.383 74.8491 132.121 75.0338 131.789C75.2215 131.456 75.3154 131.076 75.3154 130.648V124.545ZM84.0232 128.64L82.7722 128.862C82.7198 128.702 82.6367 128.549 82.5229 128.405C82.4121 128.26 82.2613 128.142 82.0704 128.049C81.8796 127.957 81.6411 127.911 81.3549 127.911C80.964 127.911 80.6378 127.999 80.3762 128.174C80.1146 128.346 79.9838 128.569 79.9838 128.843C79.9838 129.08 80.0715 129.271 80.2469 129.416C80.4224 129.56 80.7055 129.679 81.0964 129.771L82.2228 130.03C82.8753 130.181 83.3615 130.413 83.6816 130.727C84.0017 131.041 84.1617 131.449 84.1617 131.95C84.1617 132.375 84.0386 132.754 83.7924 133.086C83.5493 133.415 83.2092 133.674 82.7722 133.862C82.3382 134.049 81.835 134.143 81.2626 134.143C80.4685 134.143 79.8207 133.974 79.319 133.635C78.8174 133.294 78.5096 132.809 78.3957 132.181L79.7299 131.978C79.813 132.326 79.9838 132.589 80.2423 132.767C80.5008 132.943 80.8378 133.031 81.2533 133.031C81.7057 133.031 82.0674 132.937 82.3382 132.749C82.609 132.558 82.7445 132.326 82.7445 132.052C82.7445 131.83 82.6614 131.644 82.4952 131.493C82.332 131.342 82.0812 131.229 81.7427 131.152L80.5424 130.888C79.8807 130.738 79.3914 130.498 79.0744 130.168C78.7604 129.839 78.6035 129.422 78.6035 128.917C78.6035 128.499 78.7204 128.132 78.9543 127.819C79.1882 127.505 79.5114 127.26 79.9238 127.085C80.3362 126.906 80.8086 126.817 81.341 126.817C82.1074 126.817 82.7106 126.983 83.1507 127.315C83.5908 127.645 83.8816 128.086 84.0232 128.64ZM88.7355 134.143C88.0369 134.143 87.4352 133.994 86.9304 133.695C86.4288 133.394 86.041 132.971 85.7671 132.426C85.4963 131.878 85.3608 131.236 85.3608 130.501C85.3608 129.774 85.4963 129.134 85.7671 128.58C86.041 128.026 86.4226 127.594 86.912 127.283C87.4044 126.972 87.9799 126.817 88.6385 126.817C89.0386 126.817 89.4264 126.883 89.8019 127.015C90.1774 127.148 90.5144 127.355 90.8129 127.638C91.1114 127.922 91.3469 128.289 91.5192 128.742C91.6916 129.191 91.7777 129.737 91.7777 130.381V130.87H86.141V129.836H90.4251C90.4251 129.473 90.3513 129.151 90.2035 128.871C90.0558 128.588 89.8481 128.365 89.5803 128.202C89.3156 128.039 89.0048 127.957 88.6478 127.957C88.26 127.957 87.9214 128.052 87.6321 128.243C87.3459 128.431 87.1243 128.677 86.9674 128.982C86.8135 129.283 86.7366 129.611 86.7366 129.965V130.773C86.7366 131.247 86.8196 131.65 86.9858 131.983C87.1551 132.315 87.3906 132.569 87.6922 132.744C87.9938 132.917 88.3462 133.003 88.7493 133.003C89.0109 133.003 89.2495 132.966 89.4649 132.892C89.6803 132.815 89.8665 132.701 90.0235 132.55C90.1804 132.4 90.3005 132.213 90.3836 131.992L91.69 132.227C91.5854 132.612 91.3977 132.949 91.1268 133.238C90.8591 133.525 90.5221 133.748 90.1158 133.908C89.7126 134.065 89.2525 134.143 88.7355 134.143ZM93.3093 134V126.909H94.6434V128.036H94.7173C94.8465 127.654 95.0743 127.354 95.4005 127.135C95.7298 126.914 96.1022 126.803 96.5177 126.803C96.6039 126.803 96.7054 126.806 96.8224 126.812C96.9424 126.818 97.0363 126.826 97.104 126.835V128.156C97.0486 128.14 96.9501 128.123 96.8085 128.105C96.667 128.083 96.5254 128.072 96.3838 128.072C96.0576 128.072 95.7668 128.142 95.5113 128.28C95.259 128.416 95.0589 128.605 94.9112 128.848C94.7635 129.088 94.6896 129.362 94.6896 129.67V134H93.3093ZM103.612 128.64L102.361 128.862C102.309 128.702 102.226 128.549 102.112 128.405C102.001 128.26 101.85 128.142 101.659 128.049C101.468 127.957 101.23 127.911 100.944 127.911C100.553 127.911 100.227 127.999 99.9651 128.174C99.7035 128.346 99.5727 128.569 99.5727 128.843C99.5727 129.08 99.6604 129.271 99.8358 129.416C100.011 129.56 100.294 129.679 100.685 129.771L101.812 130.03C102.464 130.181 102.95 130.413 103.27 130.727C103.591 131.041 103.751 131.449 103.751 131.95C103.751 132.375 103.627 132.754 103.381 133.086C103.138 133.415 102.798 133.674 102.361 133.862C101.927 134.049 101.424 134.143 100.851 134.143C100.057 134.143 99.4095 133.974 98.9079 133.635C98.4062 133.294 98.0985 132.809 97.9846 132.181L99.3188 131.978C99.4019 132.326 99.5727 132.589 99.8312 132.767C100.09 132.943 100.427 133.031 100.842 133.031C101.295 133.031 101.656 132.937 101.927 132.749C102.198 132.558 102.333 132.326 102.333 132.052C102.333 131.83 102.25 131.644 102.084 131.493C101.921 131.342 101.67 131.229 101.332 131.152L100.131 130.888C99.4696 130.738 98.9802 130.498 98.6632 130.168C98.3493 129.839 98.1923 129.422 98.1923 128.917C98.1923 128.499 98.3093 128.132 98.5432 127.819C98.7771 127.505 99.1002 127.26 99.5127 127.085C99.9251 126.906 100.397 126.817 100.93 126.817C101.696 126.817 102.299 126.983 102.74 127.315C103.18 127.645 103.471 128.086 103.612 128.64Z" fill="#B8B9BE"/>
<circle cx="6.5" cy="6.5" r="6.5" transform="matrix(-1 0 0 1 136 177.5)" fill="#7556A5"/>
<path d="M52.1454 177V167.545H53.2903V171.756H58.3315V167.545H59.4763V177H58.3315V172.771H53.2903V177H52.1454ZM66.0894 174.101V169.909H67.1789V177H66.0894V175.8H66.0156C65.8494 176.16 65.5909 176.466 65.24 176.718C64.8892 176.968 64.446 177.092 63.9105 177.092C63.4673 177.092 63.0733 176.995 62.7286 176.801C62.384 176.605 62.1131 176.309 61.9161 175.915C61.7192 175.518 61.6207 175.018 61.6207 174.415V169.909H62.7102V174.341C62.7102 174.858 62.8548 175.27 63.1441 175.578C63.4365 175.886 63.8089 176.04 64.2613 176.04C64.5322 176.04 64.8076 175.971 65.0877 175.832C65.3708 175.694 65.6078 175.481 65.7986 175.195C65.9925 174.909 66.0894 174.544 66.0894 174.101ZM69.3221 177V167.545H70.4116V171.036H70.504C70.584 170.912 70.6948 170.755 70.8363 170.565C70.981 170.371 71.1872 170.198 71.4549 170.048C71.7258 169.894 72.092 169.817 72.5537 169.817C73.1507 169.817 73.677 169.966 74.1325 170.265C74.588 170.563 74.9435 170.986 75.1989 171.534C75.4544 172.082 75.5821 172.728 75.5821 173.473C75.5821 174.224 75.4544 174.875 75.1989 175.426C74.9435 175.974 74.5895 176.398 74.1371 176.7C73.6847 176.998 73.163 177.148 72.5721 177.148C72.1166 177.148 71.7519 177.072 71.478 176.922C71.2041 176.768 70.9933 176.594 70.8456 176.4C70.6978 176.203 70.584 176.04 70.504 175.911H70.3747V177H69.3221ZM70.3932 173.455C70.3932 173.99 70.4716 174.462 70.6286 174.872C70.7856 175.278 71.0148 175.597 71.3165 175.827C71.6181 176.055 71.9874 176.169 72.4244 176.169C72.8799 176.169 73.26 176.049 73.5647 175.809C73.8724 175.566 74.1033 175.24 74.2571 174.83C74.4141 174.418 74.4926 173.959 74.4926 173.455C74.4926 172.956 74.4156 172.507 74.2618 172.107C74.111 171.703 73.8817 171.385 73.5739 171.151C73.2692 170.914 72.8861 170.795 72.4244 170.795C71.9812 170.795 71.6088 170.908 71.3072 171.132C71.0056 171.354 70.7779 171.665 70.624 172.065C70.4701 172.462 70.3932 172.925 70.3932 173.455ZM82.5668 169.909C82.5114 169.441 82.2867 169.078 81.8928 168.82C81.4989 168.561 81.0157 168.432 80.4432 168.432C80.0247 168.432 79.6584 168.5 79.3445 168.635C79.0337 168.77 78.7905 168.957 78.6151 169.194C78.4428 169.431 78.3566 169.7 78.3566 170.001C78.3566 170.254 78.4166 170.471 78.5366 170.652C78.6597 170.831 78.8167 170.98 79.0075 171.1C79.1983 171.217 79.3984 171.314 79.6076 171.391C79.8169 171.465 80.0093 171.525 80.1847 171.571L81.1449 171.83C81.3911 171.894 81.6651 171.983 81.9667 172.097C82.2714 172.211 82.5622 172.367 82.8392 172.564C83.1192 172.757 83.3501 173.007 83.5317 173.311C83.7132 173.616 83.804 173.99 83.804 174.433C83.804 174.944 83.6701 175.406 83.4024 175.818C83.1377 176.231 82.7499 176.558 82.239 176.801C81.7312 177.045 81.1142 177.166 80.3878 177.166C79.7107 177.166 79.1245 177.057 78.629 176.838C78.1365 176.62 77.7487 176.315 77.4656 175.924C77.1855 175.533 77.027 175.08 76.9901 174.562H78.1719C78.2027 174.92 78.3227 175.215 78.532 175.449C78.7444 175.68 79.0121 175.852 79.3353 175.966C79.6615 176.077 80.0124 176.132 80.3878 176.132C80.8249 176.132 81.2173 176.061 81.565 175.92C81.9128 175.775 82.1883 175.575 82.3914 175.32C82.5945 175.061 82.6961 174.759 82.6961 174.415C82.6961 174.101 82.6084 173.845 82.4329 173.648C82.2575 173.451 82.0267 173.291 81.7405 173.168C81.4542 173.045 81.1449 172.937 80.8125 172.845L79.6492 172.513C78.9106 172.3 78.3258 171.997 77.8949 171.603C77.4641 171.209 77.2486 170.694 77.2486 170.057C77.2486 169.527 77.3917 169.066 77.678 168.672C77.9673 168.275 78.355 167.967 78.8413 167.749C79.3307 167.527 79.8769 167.416 80.4802 167.416C81.0895 167.416 81.6312 167.525 82.1052 167.744C82.5791 167.959 82.9546 168.255 83.2316 168.63C83.5116 169.006 83.6594 169.432 83.6748 169.909H82.5668ZM85.5387 179.659V169.909H86.5912V171.036H86.7205C86.8005 170.912 86.9113 170.755 87.0529 170.565C87.1975 170.371 87.4037 170.198 87.6715 170.048C87.9423 169.894 88.3085 169.817 88.7702 169.817C89.3673 169.817 89.8935 169.966 90.349 170.265C90.8045 170.563 91.16 170.986 91.4154 171.534C91.6709 172.082 91.7986 172.728 91.7986 173.473C91.7986 174.224 91.6709 174.875 91.4154 175.426C91.16 175.974 90.8061 176.398 90.3536 176.7C89.9012 176.998 89.3796 177.148 88.7887 177.148C88.3332 177.148 87.9685 177.072 87.6946 176.922C87.4206 176.768 87.2098 176.594 87.0621 176.4C86.9144 176.203 86.8005 176.04 86.7205 175.911H86.6282V179.659H85.5387ZM86.6097 173.455C86.6097 173.99 86.6882 174.462 86.8451 174.872C87.0021 175.278 87.2314 175.597 87.533 175.827C87.8346 176.055 88.2039 176.169 88.6409 176.169C89.0964 176.169 89.4765 176.049 89.7812 175.809C90.089 175.566 90.3198 175.24 90.4737 174.83C90.6306 174.418 90.7091 173.959 90.7091 173.455C90.7091 172.956 90.6322 172.507 90.4783 172.107C90.3275 171.703 90.0982 171.385 89.7904 171.151C89.4858 170.914 89.1026 170.795 88.6409 170.795C88.1978 170.795 87.8254 170.908 87.5237 171.132C87.2221 171.354 86.9944 171.665 86.8405 172.065C86.6866 172.462 86.6097 172.925 86.6097 173.455ZM96.3412 177.148C95.7011 177.148 95.1394 176.995 94.6562 176.691C94.1761 176.386 93.8006 175.96 93.5298 175.412C93.262 174.864 93.1282 174.224 93.1282 173.491C93.1282 172.753 93.262 172.108 93.5298 171.557C93.8006 171.006 94.1761 170.578 94.6562 170.274C95.1394 169.969 95.7011 169.817 96.3412 169.817C96.9814 169.817 97.5415 169.969 98.0216 170.274C98.5048 170.578 98.8803 171.006 99.148 171.557C99.4189 172.108 99.5543 172.753 99.5543 173.491C99.5543 174.224 99.4189 174.864 99.148 175.412C98.8803 175.96 98.5048 176.386 98.0216 176.691C97.5415 176.995 96.9814 177.148 96.3412 177.148ZM96.3412 176.169C96.8275 176.169 97.2276 176.044 97.5415 175.795C97.8554 175.546 98.0878 175.218 98.2386 174.812C98.3894 174.406 98.4648 173.965 98.4648 173.491C98.4648 173.018 98.3894 172.576 98.2386 172.167C98.0878 171.757 97.8554 171.426 97.5415 171.174C97.2276 170.922 96.8275 170.795 96.3412 170.795C95.855 170.795 95.4549 170.922 95.1409 171.174C94.827 171.426 94.5947 171.757 94.4438 172.167C94.293 172.576 94.2176 173.018 94.2176 173.491C94.2176 173.965 94.293 174.406 94.4438 174.812C94.5947 175.218 94.827 175.546 95.1409 175.795C95.4549 176.044 95.855 176.169 96.3412 176.169ZM104.301 169.909V170.832H100.626V169.909H104.301ZM101.697 168.21H102.787V174.969C102.787 175.277 102.832 175.507 102.921 175.661C103.013 175.812 103.13 175.914 103.272 175.966C103.416 176.015 103.569 176.04 103.729 176.04C103.849 176.04 103.947 176.034 104.024 176.021C104.101 176.006 104.163 175.994 104.209 175.984L104.43 176.963C104.357 176.991 104.253 177.018 104.121 177.046C103.989 177.077 103.821 177.092 103.618 177.092C103.31 177.092 103.009 177.026 102.713 176.894C102.421 176.761 102.178 176.56 101.984 176.289C101.793 176.018 101.697 175.677 101.697 175.264V168.21Z" fill="#ECECEC"/>
<path d="M55.4969 190.545V200H54.0658V191.977H54.0104L51.7484 193.454V192.087L54.1074 190.545H55.4969ZM61.1752 200.129C60.5966 200.129 60.0765 200.018 59.6148 199.797C59.1563 199.572 58.79 199.264 58.5161 198.874C58.2422 198.483 58.096 198.036 58.0775 197.535H59.4625C59.4963 197.941 59.6764 198.275 60.0026 198.537C60.3289 198.798 60.7197 198.929 61.1752 198.929C61.5384 198.929 61.86 198.846 62.14 198.68C62.4232 198.51 62.6448 198.278 62.8048 197.983C62.9679 197.687 63.0495 197.35 63.0495 196.972C63.0495 196.587 62.9664 196.244 62.8002 195.942C62.634 195.641 62.4047 195.404 62.1123 195.231C61.823 195.059 61.4907 194.971 61.1152 194.968C60.829 194.968 60.5412 195.017 60.2519 195.116C59.9626 195.214 59.7287 195.344 59.5502 195.504L58.2437 195.31L58.7746 190.545H63.9728V191.769H59.9611L59.661 194.414H59.7164C59.9011 194.236 60.1457 194.086 60.4504 193.966C60.7582 193.846 61.0875 193.786 61.4383 193.786C62.0139 193.786 62.5263 193.923 62.9756 194.197C63.428 194.471 63.7835 194.845 64.042 195.319C64.3036 195.79 64.4329 196.331 64.4298 196.944C64.4329 197.556 64.2944 198.103 64.0143 198.583C63.7373 199.063 63.3526 199.441 62.8602 199.718C62.3709 199.992 61.8092 200.129 61.1752 200.129ZM75.7656 190.545H77.1967V196.764C77.1967 197.426 77.0413 198.012 76.7304 198.523C76.4196 199.031 75.9826 199.431 75.4193 199.723C74.8561 200.012 74.196 200.157 73.4389 200.157C72.6849 200.157 72.0262 200.012 71.463 199.723C70.8998 199.431 70.4628 199.031 70.1519 198.523C69.8411 198.012 69.6857 197.426 69.6857 196.764V190.545H71.1122V196.648C71.1122 197.076 71.206 197.456 71.3938 197.789C71.5846 198.121 71.8539 198.383 72.2017 198.574C72.5494 198.761 72.9618 198.855 73.4389 198.855C73.919 198.855 74.3329 198.761 74.6807 198.574C75.0316 198.383 75.2993 198.121 75.484 197.789C75.6717 197.456 75.7656 197.076 75.7656 196.648V190.545ZM84.4734 194.64L83.2223 194.862C83.17 194.702 83.0869 194.549 82.9731 194.405C82.8623 194.26 82.7115 194.142 82.5206 194.049C82.3298 193.957 82.0913 193.911 81.8051 193.911C81.4142 193.911 81.088 193.999 80.8264 194.174C80.5648 194.346 80.434 194.569 80.434 194.843C80.434 195.08 80.5217 195.271 80.6971 195.416C80.8726 195.56 81.1557 195.679 81.5466 195.771L82.673 196.03C83.3254 196.181 83.8117 196.413 84.1318 196.727C84.4519 197.041 84.6119 197.449 84.6119 197.95C84.6119 198.375 84.4888 198.754 84.2426 199.086C83.9995 199.415 83.6594 199.674 83.2223 199.862C82.7884 200.049 82.2852 200.143 81.7128 200.143C80.9187 200.143 80.2709 199.974 79.7692 199.635C79.2676 199.294 78.9598 198.809 78.8459 198.181L80.1801 197.978C80.2632 198.326 80.434 198.589 80.6925 198.767C80.951 198.943 81.288 199.031 81.7035 199.031C82.1559 199.031 82.5176 198.937 82.7884 198.749C83.0592 198.558 83.1946 198.326 83.1946 198.052C83.1946 197.83 83.1116 197.644 82.9454 197.493C82.7822 197.342 82.5314 197.229 82.1929 197.152L80.9926 196.888C80.3309 196.738 79.8415 196.498 79.5245 196.168C79.2106 195.839 79.0537 195.422 79.0537 194.917C79.0537 194.499 79.1706 194.132 79.4045 193.819C79.6384 193.505 79.9616 193.26 80.374 193.085C80.7864 192.906 81.2588 192.817 81.7912 192.817C82.5576 192.817 83.1608 192.983 83.6009 193.315C84.041 193.645 84.3318 194.086 84.4734 194.64ZM89.1857 200.143C88.4871 200.143 87.8854 199.994 87.3806 199.695C86.879 199.394 86.4912 198.971 86.2173 198.426C85.9465 197.878 85.811 197.236 85.811 196.501C85.811 195.774 85.9465 195.134 86.2173 194.58C86.4912 194.026 86.8728 193.594 87.3622 193.283C87.8546 192.972 88.4301 192.817 89.0887 192.817C89.4888 192.817 89.8766 192.883 90.2521 193.015C90.6276 193.148 90.9646 193.355 91.2631 193.638C91.5616 193.922 91.7971 194.289 91.9694 194.742C92.1418 195.191 92.2279 195.737 92.2279 196.381V196.87H86.5912V195.836H90.8753C90.8753 195.473 90.8014 195.151 90.6537 194.871C90.506 194.588 90.2983 194.365 90.0305 194.202C89.7658 194.039 89.455 193.957 89.098 193.957C88.7102 193.957 88.3716 194.052 88.0823 194.243C87.7961 194.431 87.5745 194.677 87.4176 194.982C87.2637 195.283 87.1867 195.611 87.1867 195.965V196.773C87.1867 197.247 87.2698 197.65 87.436 197.983C87.6053 198.315 87.8407 198.569 88.1424 198.744C88.444 198.917 88.7964 199.003 89.1995 199.003C89.4611 199.003 89.6996 198.966 89.9151 198.892C90.1305 198.815 90.3167 198.701 90.4737 198.55C90.6306 198.4 90.7507 198.213 90.8338 197.992L92.1402 198.227C92.0356 198.612 91.8478 198.949 91.577 199.238C91.3093 199.525 90.9723 199.748 90.566 199.908C90.1628 200.065 89.7027 200.143 89.1857 200.143ZM93.7595 200V192.909H95.0936V194.036H95.1675C95.2967 193.654 95.5245 193.354 95.8507 193.135C96.18 192.914 96.5524 192.803 96.9679 192.803C97.0541 192.803 97.1556 192.806 97.2726 192.812C97.3926 192.818 97.4865 192.826 97.5542 192.835V194.156C97.4988 194.14 97.4003 194.123 97.2587 194.105C97.1172 194.083 96.9756 194.072 96.834 194.072C96.5078 194.072 96.217 194.142 95.9615 194.28C95.7091 194.416 95.5091 194.605 95.3614 194.848C95.2136 195.088 95.1398 195.362 95.1398 195.67V200H93.7595ZM104.062 194.64L102.811 194.862C102.759 194.702 102.676 194.549 102.562 194.405C102.451 194.26 102.3 194.142 102.11 194.049C101.919 193.957 101.68 193.911 101.394 193.911C101.003 193.911 100.677 193.999 100.415 194.174C100.154 194.346 100.023 194.569 100.023 194.843C100.023 195.08 100.111 195.271 100.286 195.416C100.461 195.56 100.745 195.679 101.135 195.771L102.262 196.03C102.914 196.181 103.401 196.413 103.721 196.727C104.041 197.041 104.201 197.449 104.201 197.95C104.201 198.375 104.078 198.754 103.831 199.086C103.588 199.415 103.248 199.674 102.811 199.862C102.377 200.049 101.874 200.143 101.302 200.143C100.508 200.143 99.8597 199.974 99.3581 199.635C98.8564 199.294 98.5487 198.809 98.4348 198.181L99.769 197.978C99.8521 198.326 100.023 198.589 100.281 198.767C100.54 198.943 100.877 199.031 101.292 199.031C101.745 199.031 102.106 198.937 102.377 198.749C102.648 198.558 102.784 198.326 102.784 198.052C102.784 197.83 102.7 197.644 102.534 197.493C102.371 197.342 102.12 197.229 101.782 197.152L100.581 196.888C99.9198 196.738 99.4304 196.498 99.1134 196.168C98.7995 195.839 98.6425 195.422 98.6425 194.917C98.6425 194.499 98.7595 194.132 98.9934 193.819C99.2273 193.505 99.5504 193.26 99.9628 193.085C100.375 192.906 100.848 192.817 101.38 192.817C102.146 192.817 102.75 192.983 103.19 193.315C103.63 193.645 103.921 194.086 104.062 194.64Z" fill="#C6C6C6"/>
</g>
<defs>
<filter id="filter0_d_15_413" x="0.000488281" y="0" width="334" height="250" filterUnits="userSpaceOnUse" color-interpolation-filters="sRGB">
<feFlood flood-opacity="0" result="BackgroundImageFix"/>
<feColorMatrix in="SourceAlpha" type="matrix" values="0 0 0 0 0 0 0 0 0 0 0 0 0 0 0 0 0 0 127 0" result="hardAlpha"/>
<feOffset dy="10"/>
<feGaussianBlur stdDeviation="6.5"/>
<feComposite in2="hardAlpha" operator="out"/>
<feColorMatrix type="matrix" values="0 0 0 0 0.0666667 0 0 0 0 0.14902 0 0 0 0 0.572549 0 0 0 0.05 0"/>
<feBlend mode="normal" in2="BackgroundImageFix" result="effect1_dropShadow_15_413"/>
<feBlend mode="normal" in="SourceGraphic" in2="effect1_dropShadow_15_413" result="shape"/>
</filter>
</defs>
</svg>
