<svg width="95" height="23" viewBox="0 0 95 23" fill="none" xmlns="http://www.w3.org/2000/svg">
<path d="M5.625 18H0.75L7.375 0.499999H12.375L19 18H14.125L13 14.875H6.75L5.625 18ZM7.875 11.625H11.875L9.875 5.75L7.875 11.625ZM31.749 17.75C28.6324 18.0833 25.8824 18.25 23.499 18.25C22.3657 18.25 21.4574 17.9083 20.774 17.225C20.0907 16.5417 19.749 15.6333 19.749 14.5V8.75C19.749 7.5 20.099 6.525 20.799 5.825C21.5157 5.10833 22.499 4.75 23.749 4.75H31.749V8.125H25.124C24.4574 8.125 24.124 8.45833 24.124 9.125V14C24.124 14.25 24.2074 14.4583 24.374 14.625C24.5407 14.7917 24.749 14.875 24.999 14.875C26.499 14.875 28.749 14.75 31.749 14.5V17.75ZM45.4941 17.75C42.3775 18.0833 39.6275 18.25 37.2441 18.25C36.1108 18.25 35.2025 17.9083 34.5191 17.225C33.8358 16.5417 33.4941 15.6333 33.4941 14.5V8.75C33.4941 7.5 33.8441 6.525 34.5441 5.825C35.2608 5.10833 36.2441 4.75 37.4941 4.75H45.4941V8.125H38.8691C38.2025 8.125 37.8691 8.45833 37.8691 9.125V14C37.8691 14.25 37.9525 14.4583 38.1191 14.625C38.2858 14.7917 38.4941 14.875 38.7441 14.875C40.2441 14.875 42.4941 14.75 45.4941 14.5V17.75Z" fill="url(#paint0_linear_15_624)"/>
<path d="M5.625 18H0.75L7.375 0.499999H12.375L19 18H14.125L13 14.875H6.75L5.625 18ZM7.875 11.625H11.875L9.875 5.75L7.875 11.625ZM31.749 17.75C28.6324 18.0833 25.8824 18.25 23.499 18.25C22.3657 18.25 21.4574 17.9083 20.774 17.225C20.0907 16.5417 19.749 15.6333 19.749 14.5V8.75C19.749 7.5 20.099 6.525 20.799 5.825C21.5157 5.10833 22.499 4.75 23.749 4.75H31.749V8.125H25.124C24.4574 8.125 24.124 8.45833 24.124 9.125V14C24.124 14.25 24.2074 14.4583 24.374 14.625C24.5407 14.7917 24.749 14.875 24.999 14.875C26.499 14.875 28.749 14.75 31.749 14.5V17.75ZM45.4941 17.75C42.3775 18.0833 39.6275 18.25 37.2441 18.25C36.1108 18.25 35.2025 17.9083 34.5191 17.225C33.8358 16.5417 33.4941 15.6333 33.4941 14.5V8.75C33.4941 7.5 33.8441 6.525 34.5441 5.825C35.2608 5.10833 36.2441 4.75 37.4941 4.75H45.4941V8.125H38.8691C38.2025 8.125 37.8691 8.45833 37.8691 9.125V14C37.8691 14.25 37.9525 14.4583 38.1191 14.625C38.2858 14.7917 38.4941 14.875 38.7441 14.875C40.2441 14.875 42.4941 14.75 45.4941 14.5V17.75Z" fill="url(#paint1_linear_15_624)"/>
<path d="M5.625 18H0.75L7.375 0.499999H12.375L19 18H14.125L13 14.875H6.75L5.625 18ZM7.875 11.625H11.875L9.875 5.75L7.875 11.625ZM31.749 17.75C28.6324 18.0833 25.8824 18.25 23.499 18.25C22.3657 18.25 21.4574 17.9083 20.774 17.225C20.0907 16.5417 19.749 15.6333 19.749 14.5V8.75C19.749 7.5 20.099 6.525 20.799 5.825C21.5157 5.10833 22.499 4.75 23.749 4.75H31.749V8.125H25.124C24.4574 8.125 24.124 8.45833 24.124 9.125V14C24.124 14.25 24.2074 14.4583 24.374 14.625C24.5407 14.7917 24.749 14.875 24.999 14.875C26.499 14.875 28.749 14.75 31.749 14.5V17.75ZM45.4941 17.75C42.3775 18.0833 39.6275 18.25 37.2441 18.25C36.1108 18.25 35.2025 17.9083 34.5191 17.225C33.8358 16.5417 33.4941 15.6333 33.4941 14.5V8.75C33.4941 7.5 33.8441 6.525 34.5441 5.825C35.2608 5.10833 36.2441 4.75 37.4941 4.75H45.4941V8.125H38.8691C38.2025 8.125 37.8691 8.45833 37.8691 9.125V14C37.8691 14.25 37.9525 14.4583 38.1191 14.625C38.2858 14.7917 38.4941 14.875 38.7441 14.875C40.2441 14.875 42.4941 14.75 45.4941 14.5V17.75Z" fill="url(#paint2_linear_15_624)"/>
<path d="M5.625 18H0.75L7.375 0.499999H12.375L19 18H14.125L13 14.875H6.75L5.625 18ZM7.875 11.625H11.875L9.875 5.75L7.875 11.625ZM31.749 17.75C28.6324 18.0833 25.8824 18.25 23.499 18.25C22.3657 18.25 21.4574 17.9083 20.774 17.225C20.0907 16.5417 19.749 15.6333 19.749 14.5V8.75C19.749 7.5 20.099 6.525 20.799 5.825C21.5157 5.10833 22.499 4.75 23.749 4.75H31.749V8.125H25.124C24.4574 8.125 24.124 8.45833 24.124 9.125V14C24.124 14.25 24.2074 14.4583 24.374 14.625C24.5407 14.7917 24.749 14.875 24.999 14.875C26.499 14.875 28.749 14.75 31.749 14.5V17.75ZM45.4941 17.75C42.3775 18.0833 39.6275 18.25 37.2441 18.25C36.1108 18.25 35.2025 17.9083 34.5191 17.225C33.8358 16.5417 33.4941 15.6333 33.4941 14.5V8.75C33.4941 7.5 33.8441 6.525 34.5441 5.825C35.2608 5.10833 36.2441 4.75 37.4941 4.75H45.4941V8.125H38.8691C38.2025 8.125 37.8691 8.45833 37.8691 9.125V14C37.8691 14.25 37.9525 14.4583 38.1191 14.625C38.2858 14.7917 38.4941 14.875 38.7441 14.875C40.2441 14.875 42.4941 14.75 45.4941 14.5V17.75Z" fill="#AAC3FF"/>
<path d="M50.8643 18H45.9893L52.6143 0.499999H57.6143L64.2393 18H59.3643L58.2393 14.875H51.9893L50.8643 18ZM53.1143 11.625H57.1143L55.1143 5.75L53.1143 11.625ZM71.9883 18C70.8716 18.1667 69.8049 18.25 68.7883 18.25C67.7883 18.25 66.9466 17.9083 66.2633 17.225C65.5799 16.5417 65.2383 15.6333 65.2383 14.5V0.499999H69.6133V13.875C69.6133 14.125 69.6966 14.3333 69.8633 14.5C70.0299 14.6667 70.2383 14.75 70.4883 14.75H71.9883V18ZM80.4844 18C79.3677 18.1667 78.301 18.25 77.2844 18.25C76.2844 18.25 75.4427 17.9083 74.7594 17.225C74.076 16.5417 73.7344 15.6333 73.7344 14.5V0.499999H78.1094V13.875C78.1094 14.125 78.1927 14.3333 78.3594 14.5C78.526 14.6667 78.7344 14.75 78.9844 14.75H80.4844V18ZM84.7295 22.5C83.8462 22.5 82.7628 22.4167 81.4795 22.25V19H83.7295C84.3628 19 84.7712 18.825 84.9545 18.475C85.1545 18.125 85.1212 17.6333 84.8545 17L79.7295 4.75H84.3545L87.4795 13.25L90.1045 4.75H94.7295L89.7295 18.5C89.2462 19.8167 88.6212 20.8083 87.8545 21.475C87.0878 22.1583 86.0462 22.5 84.7295 22.5Z" fill="#AD9DF2"/>
<path d="M50.8643 18H45.9893L52.6143 0.499999H57.6143L64.2393 18H59.3643L58.2393 14.875H51.9893L50.8643 18ZM53.1143 11.625H57.1143L55.1143 5.75L53.1143 11.625ZM71.9883 18C70.8716 18.1667 69.8049 18.25 68.7883 18.25C67.7883 18.25 66.9466 17.9083 66.2633 17.225C65.5799 16.5417 65.2383 15.6333 65.2383 14.5V0.499999H69.6133V13.875C69.6133 14.125 69.6966 14.3333 69.8633 14.5C70.0299 14.6667 70.2383 14.75 70.4883 14.75H71.9883V18ZM80.4844 18C79.3677 18.1667 78.301 18.25 77.2844 18.25C76.2844 18.25 75.4427 17.9083 74.7594 17.225C74.076 16.5417 73.7344 15.6333 73.7344 14.5V0.499999H78.1094V13.875C78.1094 14.125 78.1927 14.3333 78.3594 14.5C78.526 14.6667 78.7344 14.75 78.9844 14.75H80.4844V18ZM84.7295 22.5C83.8462 22.5 82.7628 22.4167 81.4795 22.25V19H83.7295C84.3628 19 84.7712 18.825 84.9545 18.475C85.1545 18.125 85.1212 17.6333 84.8545 17L79.7295 4.75H84.3545L87.4795 13.25L90.1045 4.75H94.7295L89.7295 18.5C89.2462 19.8167 88.6212 20.8083 87.8545 21.475C87.0878 22.1583 86.0462 22.5 84.7295 22.5Z" fill="#AD9DF2"/>
<path d="M50.8643 18H45.9893L52.6143 0.499999H57.6143L64.2393 18H59.3643L58.2393 14.875H51.9893L50.8643 18ZM53.1143 11.625H57.1143L55.1143 5.75L53.1143 11.625ZM71.9883 18C70.8716 18.1667 69.8049 18.25 68.7883 18.25C67.7883 18.25 66.9466 17.9083 66.2633 17.225C65.5799 16.5417 65.2383 15.6333 65.2383 14.5V0.499999H69.6133V13.875C69.6133 14.125 69.6966 14.3333 69.8633 14.5C70.0299 14.6667 70.2383 14.75 70.4883 14.75H71.9883V18ZM80.4844 18C79.3677 18.1667 78.301 18.25 77.2844 18.25C76.2844 18.25 75.4427 17.9083 74.7594 17.225C74.076 16.5417 73.7344 15.6333 73.7344 14.5V0.499999H78.1094V13.875C78.1094 14.125 78.1927 14.3333 78.3594 14.5C78.526 14.6667 78.7344 14.75 78.9844 14.75H80.4844V18ZM84.7295 22.5C83.8462 22.5 82.7628 22.4167 81.4795 22.25V19H83.7295C84.3628 19 84.7712 18.825 84.9545 18.475C85.1545 18.125 85.1212 17.6333 84.8545 17L79.7295 4.75H84.3545L87.4795 13.25L90.1045 4.75H94.7295L89.7295 18.5C89.2462 19.8167 88.6212 20.8083 87.8545 21.475C87.0878 22.1583 86.0462 22.5 84.7295 22.5Z" fill="#AD9DF2"/>
<path d="M50.8643 18H45.9893L52.6143 0.499999H57.6143L64.2393 18H59.3643L58.2393 14.875H51.9893L50.8643 18ZM53.1143 11.625H57.1143L55.1143 5.75L53.1143 11.625ZM71.9883 18C70.8716 18.1667 69.8049 18.25 68.7883 18.25C67.7883 18.25 66.9466 17.9083 66.2633 17.225C65.5799 16.5417 65.2383 15.6333 65.2383 14.5V0.499999H69.6133V13.875C69.6133 14.125 69.6966 14.3333 69.8633 14.5C70.0299 14.6667 70.2383 14.75 70.4883 14.75H71.9883V18ZM80.4844 18C79.3677 18.1667 78.301 18.25 77.2844 18.25C76.2844 18.25 75.4427 17.9083 74.7594 17.225C74.076 16.5417 73.7344 15.6333 73.7344 14.5V0.499999H78.1094V13.875C78.1094 14.125 78.1927 14.3333 78.3594 14.5C78.526 14.6667 78.7344 14.75 78.9844 14.75H80.4844V18ZM84.7295 22.5C83.8462 22.5 82.7628 22.4167 81.4795 22.25V19H83.7295C84.3628 19 84.7712 18.825 84.9545 18.475C85.1545 18.125 85.1212 17.6333 84.8545 17L79.7295 4.75H84.3545L87.4795 13.25L90.1045 4.75H94.7295L89.7295 18.5C89.2462 19.8167 88.6212 20.8083 87.8545 21.475C87.0878 22.1583 86.0462 22.5 84.7295 22.5Z" fill="#867CE0"/>
<defs>
<linearGradient id="paint0_linear_15_624" x1="47.4348" y1="5.87156" x2="54.3509" y2="6.23755" gradientUnits="userSpaceOnUse">
<stop stop-color="#CBA2FF"/>
<stop offset="1" stop-color="#FFCEF1"/>
</linearGradient>
<linearGradient id="paint1_linear_15_624" x1="47.4348" y1="5.87156" x2="54.3509" y2="6.23755" gradientUnits="userSpaceOnUse">
<stop stop-color="#CBA2FF"/>
<stop offset="1" stop-color="#FFCEF1"/>
</linearGradient>
<linearGradient id="paint2_linear_15_624" x1="47.4348" y1="5.87156" x2="54.3509" y2="6.23755" gradientUnits="userSpaceOnUse">
<stop stop-color="#CBA2FF"/>
<stop offset="1" stop-color="#FFCEF1"/>
</linearGradient>
</defs>
</svg>
