<svg width="203" height="144" viewBox="0 0 203 144" fill="none" xmlns="http://www.w3.org/2000/svg">
<g clip-path="url(#clip0_15_57)">
<path d="M165.522 117.522L165.141 117.437C165.22 117.036 165.294 116.627 165.36 116.223L165.744 116.293C165.677 116.703 165.602 117.116 165.522 117.522Z" fill="#292A2E"/>
<path d="M135.089 144L135.086 143.586C135.859 143.579 136.643 143.541 137.414 143.472L137.446 143.885C136.665 143.955 135.872 143.993 135.089 144ZM132.73 143.926C131.949 143.87 131.159 143.781 130.382 143.664L130.437 143.254C131.205 143.37 131.985 143.457 132.757 143.512L132.73 143.926ZM139.788 143.581L139.726 143.172C140.49 143.041 141.258 142.878 142.011 142.686L142.102 143.089C141.339 143.283 140.561 143.449 139.788 143.581ZM128.06 143.218C127.293 143.039 126.524 142.828 125.775 142.59L125.887 142.193C126.627 142.428 127.386 142.637 128.144 142.813L128.06 143.218ZM144.374 142.413L144.255 142.019C144.99 141.768 145.727 141.484 146.445 141.174L146.592 141.558C145.865 141.871 145.119 142.159 144.374 142.413ZM123.54 141.782C122.808 141.483 122.077 141.152 121.369 140.796L121.535 140.421C122.235 140.774 122.956 141.1 123.679 141.395L123.54 141.782ZM148.744 140.526L148.571 140.155C149.263 139.789 149.952 139.391 150.617 138.97L150.816 139.327C150.142 139.752 149.445 140.155 148.744 140.526H148.744ZM119.274 139.639C118.594 139.227 117.918 138.782 117.267 138.316L117.485 137.972C118.128 138.432 118.794 138.872 119.466 139.278L119.274 139.639ZM152.8 137.966L152.577 137.626C153.211 137.155 153.837 136.652 154.436 136.131L154.682 136.452C154.075 136.979 153.442 137.488 152.8 137.966H152.8ZM115.361 136.836C114.747 136.32 114.142 135.772 113.565 135.208L113.829 134.902C114.399 135.46 114.996 136.001 115.602 136.511L115.361 136.836ZM156.452 134.792L156.184 134.492C156.745 133.925 157.292 133.328 157.812 132.718L158.101 132.996C157.575 133.614 157.02 134.218 156.452 134.792ZM111.888 133.441C111.352 132.832 110.832 132.194 110.341 131.546L110.644 131.286C111.129 131.927 111.644 132.557 112.172 133.158L111.888 133.441ZM159.618 131.074L159.311 130.819C159.786 130.17 160.243 129.493 160.671 128.806L160.995 129.035C160.563 129.73 160.099 130.415 159.618 131.074L159.618 131.074ZM108.931 129.533C108.487 128.847 108.062 128.134 107.667 127.414L108.003 127.205C108.393 127.916 108.813 128.62 109.252 129.298L108.931 129.533ZM162.224 126.892L161.883 126.69C162.261 125.972 162.617 125.229 162.942 124.482L163.296 124.656C162.967 125.412 162.606 126.164 162.224 126.892ZM106.554 125.201C106.211 124.451 105.89 123.679 105.601 122.905L105.964 122.752C106.249 123.516 106.566 124.279 106.905 125.019L106.554 125.201ZM164.206 122.341L163.841 122.196C164.111 121.427 164.358 120.636 164.574 119.844L164.949 119.96C164.73 120.759 164.479 121.561 164.206 122.34V122.341Z" fill="#292A2E"/>
<path d="M104.808 120.522C104.691 120.126 104.581 119.722 104.479 119.32L104.855 119.212C104.956 119.607 105.066 120.007 105.18 120.398L104.808 120.522Z" fill="#292A2E"/>
<path d="M15.1995 84.248C14.8224 84.1293 14.4447 83.9971 14.0773 83.8553L14.2104 83.4657C14.5704 83.6048 14.9405 83.7351 15.3102 83.8505L15.1995 84.248Z" fill="#292A2E"/>
<path d="M11.908 82.8539C11.2051 82.4729 10.5249 82.0462 9.87152 81.576L10.09 81.2328C10.7301 81.6934 11.3965 82.1114 12.0851 82.4846L11.908 82.8539ZM7.99919 80.0406C7.40576 79.488 6.84484 78.8972 6.3196 78.2714L6.61038 77.9954C7.12494 78.6085 7.67447 79.1873 8.25586 79.7287L7.99919 80.0406ZM4.85693 76.2968C4.40796 75.6074 3.99896 74.8895 3.63223 74.1472L3.97719 73.9544C4.3366 74.6818 4.73739 75.3853 5.17734 76.0608L4.85693 76.2968ZM2.66322 71.8549C2.38454 71.0705 2.1514 70.2686 1.96512 69.4538L2.34399 69.356C2.52641 70.1543 2.7548 70.9399 3.02787 71.7084L2.66322 71.8549ZM1.5496 66.9804C1.46562 66.2073 1.42326 65.4296 1.42273 64.6513V64.4704L1.81251 64.4739V64.6513C1.81279 65.4137 1.85411 66.1754 1.93627 66.9328L1.5496 66.9804ZM1.97837 62.0177L1.59209 61.963C1.6966 61.1318 1.84877 60.3083 2.04775 59.4969L2.42487 59.6005C2.2298 60.3958 2.08049 61.2031 1.97778 62.0177H1.97837ZM3.14305 57.2599L2.78035 57.1074C3.07033 56.3274 3.40507 55.5671 3.78268 54.8307L4.12492 55.0292C3.75491 55.7507 3.427 56.4956 3.14305 57.2599ZM5.35761 52.9448L5.04111 52.7028C5.50176 52.0219 6.00151 51.3719 6.53749 50.7566L6.8232 51.0384C6.29824 51.6412 5.80878 52.2779 5.35761 52.9448ZM8.4987 49.3389L8.24748 49.0218C8.8506 48.4815 9.48414 47.9809 10.1446 47.5226L10.3576 47.8698C9.71043 48.3186 9.08965 48.8091 8.4987 49.3385V49.3389ZM12.371 46.6531L12.1995 46.28C12.908 45.9111 13.6369 45.5886 14.3823 45.3141L14.5098 45.7058C13.7794 45.9748 13.0652 46.291 12.371 46.6526V46.6531Z" fill="#292A2E"/>
<path d="M16.7477 45.0432L16.6664 44.6379C17.0498 44.551 17.4409 44.4758 17.829 44.4141L17.8874 44.8242C17.5064 44.8845 17.1233 44.9581 16.7477 45.0432Z" fill="#292A2E"/>
<path d="M34.7795 90.6078C34.7824 88.3876 34.2632 86.2019 33.2689 84.2496C32.2747 82.2972 30.8372 80.6403 29.0871 79.4295C27.337 78.2187 25.3299 77.4925 23.2485 77.3169C21.1671 77.1414 19.0775 77.5222 17.1698 78.4245C15.2621 79.3269 13.5969 80.7222 12.3257 82.4835C11.0546 84.2448 10.2178 86.3161 9.89157 88.509C9.56534 90.702 9.76002 92.9468 10.4579 95.0393C11.1557 97.1318 12.3346 99.0055 13.8872 100.49C15.2811 101.802 16.399 103.412 17.168 105.214C17.9371 107.017 18.3399 108.972 18.3503 110.951V110.965L26.1234 110.975V110.961C26.1363 108.983 26.5417 107.031 27.313 105.232C28.0843 103.433 29.2041 101.827 30.5993 100.52C31.914 99.2743 32.9662 97.7475 33.6866 96.0392C34.4071 94.3309 34.7795 92.4799 34.7795 90.6078Z" fill="#946BC4"/>
<path opacity="0.8" d="M34.7795 90.6078C34.7824 88.3876 34.2632 86.2019 33.2689 84.2496C32.2747 82.2972 30.8372 80.6403 29.0871 79.4295C27.337 78.2187 25.3299 77.4925 23.2485 77.3169C21.1671 77.1414 19.0775 77.5222 17.1698 78.4245C15.2621 79.3269 13.5969 80.7222 12.3257 82.4835C11.0546 84.2448 10.2178 86.3161 9.89157 88.509C9.56534 90.702 9.76002 92.9468 10.4579 95.0393C11.1557 97.1318 12.3346 99.0055 13.8872 100.49C15.2811 101.802 16.399 103.412 17.168 105.214C17.9371 107.017 18.3399 108.972 18.3503 110.951V110.965L26.1234 110.975V110.961C26.1363 108.983 26.5417 107.031 27.313 105.232C28.0843 103.433 29.2041 101.827 30.5993 100.52C31.914 99.2743 32.9662 97.7475 33.6866 96.0392C34.4071 94.3309 34.7795 92.4799 34.7795 90.6078Z" fill="white"/>
<path d="M20.6985 111.004L17.652 92.4868C17.6255 92.3242 17.6558 92.1569 17.7371 92.0164C17.8185 91.8759 17.9453 91.7718 18.0938 91.7237C18.3921 91.6121 18.7093 91.5688 19.0245 91.5966C19.3396 91.6244 19.6457 91.7228 19.9227 91.8852C20.0209 91.9488 20.1134 92.0218 20.1992 92.1032C20.487 91.8298 20.8286 91.6282 21.199 91.513C22.3314 91.141 23.0336 91.6153 23.423 92.0789C23.5062 92.1786 23.5823 92.2849 23.6504 92.3968C24.1819 91.7751 24.7915 91.4525 25.3501 91.5196C25.4865 91.5244 25.6206 91.5585 25.7443 91.6198C25.868 91.6811 25.9788 91.7684 26.07 91.8765C26.1649 92.0033 26.2099 92.1644 26.1955 92.3258L23.7083 111.001L23.3222 110.943L25.8096 92.2675C25.8112 92.2445 25.8151 91.9927 25.3062 91.9316C24.8429 91.8752 24.3163 92.1894 23.8496 92.7833C24.2004 93.5947 24.2368 94.5621 24.002 95.132C23.9586 95.2728 23.8765 95.3966 23.7663 95.4874C23.6561 95.5782 23.5229 95.6318 23.3838 95.6414C23.2541 95.652 23.1243 95.623 23.0097 95.5577C22.8951 95.4924 22.8004 95.3936 22.7369 95.2729C22.4426 94.6957 22.81 93.6421 23.2758 92.9075C23.3126 92.8495 23.35 92.793 23.3881 92.7382C23.3157 92.6012 23.2299 92.4728 23.1322 92.355C22.6765 91.8124 22.0647 91.6622 21.3142 91.909C20.9994 92.0043 20.7088 92.1735 20.4637 92.4041C20.7978 92.9029 21.0162 93.4787 21.101 94.0844C21.2489 94.9268 21.0096 95.2816 20.8537 95.418C20.7754 95.4878 20.6808 95.5338 20.5799 95.5508C20.479 95.5678 20.3756 95.5553 20.2809 95.5145C19.8326 95.3253 19.4926 94.5117 19.5224 93.7012C19.5329 93.2355 19.6781 92.7845 19.9381 92.4095C19.8706 92.3456 19.7979 92.2883 19.7208 92.2383C19.4903 92.107 19.2366 92.0286 18.9759 92.0081C18.7152 91.9876 18.4533 92.0255 18.2072 92.1194C18.1498 92.1381 18.1007 92.1785 18.0693 92.233C18.0378 92.2875 18.0262 92.3523 18.0365 92.4153L21.0831 110.932L20.6985 111.004ZM23.5763 93.1744C23.1234 93.9043 22.9055 94.7328 23.0797 95.0746C23.1087 95.1294 23.1528 95.1733 23.2061 95.2004C23.2594 95.2275 23.3193 95.2365 23.3775 95.2261C23.4843 95.2242 23.5744 95.1361 23.6449 94.9647C23.8186 94.5422 23.7964 93.8191 23.5763 93.1744ZM20.2029 92.7266C20.0217 93.0221 19.9206 93.365 19.9106 93.7176C19.8837 94.4468 20.1912 95.0315 20.4236 95.1297C20.4535 95.1427 20.4863 95.1467 20.5183 95.1411C20.5502 95.1356 20.5801 95.1207 20.6046 95.0982C20.6607 95.0489 20.835 94.8358 20.7165 94.1607C20.6442 93.6489 20.469 93.1597 20.2029 92.7264V92.7266Z" fill="white"/>
<path d="M18.3503 110.965L26.1236 110.975L26.123 111.458C26.1219 112.554 25.7112 113.604 24.9815 114.379C24.2518 115.153 23.2628 115.587 22.232 115.586C21.7216 115.585 21.2163 115.477 20.745 115.269C20.2737 115.061 19.8455 114.756 19.485 114.372C19.1245 113.988 18.8387 113.532 18.6439 113.03C18.4491 112.528 18.3492 111.991 18.3498 111.448L18.3503 110.965Z" fill="#946BC4"/>
<path opacity="0.5" d="M18.3503 110.965L26.1236 110.975L26.123 111.458C26.1219 112.554 25.7112 113.604 24.9815 114.379C24.2518 115.153 23.2628 115.587 22.232 115.586C21.7216 115.585 21.2163 115.477 20.745 115.269C20.2737 115.061 19.8455 114.756 19.485 114.372C19.1245 113.988 18.8387 113.532 18.6439 113.03C18.4491 112.528 18.3492 111.991 18.3498 111.448L18.3503 110.965Z" fill="white"/>
<path d="M21.8085 12.4836L21.46 12.2981C21.6354 11.9251 21.8251 11.5521 22.0219 11.1925L22.3589 11.401C22.1661 11.7531 21.9808 12.1174 21.8085 12.4836Z" fill="#292A2E"/>
<path d="M55.7417 18.0364C55.6243 17.2615 55.4627 16.495 55.2577 15.741L55.6321 15.6258C55.8415 16.396 56.0066 17.179 56.1266 17.9705L55.7417 18.0364ZM54.5138 13.5252C54.2238 12.8036 53.8927 12.1013 53.5224 11.4224L53.8594 11.2152C54.238 11.9087 54.5764 12.6261 54.8728 13.3634L54.5138 13.5252ZM52.2967 9.46337C51.8507 8.83849 51.3691 8.24329 50.8545 7.68111L51.1338 7.39098C51.6598 7.96551 52.1521 8.57387 52.608 9.21261L52.2967 9.46337ZM23.5865 9.44264L23.2762 9.19188C23.7328 8.5536 24.2257 7.94573 24.7524 7.37171L25.0313 7.66184C24.516 8.22355 24.0337 8.81848 23.5873 9.44326L23.5865 9.44264ZM49.2149 6.10051C48.6384 5.61024 48.0341 5.1581 47.4055 4.74662L47.61 4.39431C48.2521 4.81477 48.8695 5.27667 49.4585 5.77742L49.2149 6.10051ZM26.6717 6.0831L26.4284 5.75919C27.0178 5.25899 27.6354 4.79777 28.278 4.37815L28.482 4.73045C27.8533 5.14171 27.249 5.59365 26.6724 6.08372L26.6717 6.0831ZM45.4548 3.63769C44.7843 3.30987 44.0955 3.02577 43.3925 2.78697L43.5108 2.39218C44.2291 2.63605 44.9327 2.92624 45.6178 3.26113L45.4548 3.63769ZM30.4354 3.6267L30.2737 3.24974C30.9596 2.91695 31.664 2.62884 32.3828 2.387L32.4997 2.78221C31.7962 3.01897 31.1068 3.30099 30.4354 3.6267ZM41.2487 2.2123C40.5233 2.06781 39.7902 1.97092 39.0536 1.92217L39.0778 1.50769C39.8303 1.55725 40.5793 1.65608 41.3204 1.80363L41.2487 2.2123ZM34.6463 2.21106L34.575 1.80301C35.3162 1.65642 36.0651 1.55808 36.8176 1.50852L36.8416 1.923C36.105 1.97126 35.3719 2.06725 34.6463 2.21044V2.21106Z" fill="#292A2E"/>
<path d="M56.3532 21.6274L55.9634 21.6158C55.9741 21.2084 55.9726 20.7945 55.9586 20.3859L56.3483 20.3707C56.363 20.7883 56.3641 21.2113 56.3532 21.6274Z" fill="#292A2E"/>
<path d="M15.9919 45.872C24.824 45.872 31.9838 38.2586 31.9838 28.867C31.9838 19.4754 24.824 11.8621 15.9919 11.8621C7.15982 11.8621 0 19.4754 0 28.867C0 38.2586 7.15982 45.872 15.9919 45.872Z" fill="#946BC4"/>
<path opacity="0.8" d="M15.9919 45.872C24.824 45.872 31.9838 38.2586 31.9838 28.867C31.9838 19.4754 24.824 11.8621 15.9919 11.8621C7.15982 11.8621 0 19.4754 0 28.867C0 38.2586 7.15982 45.872 15.9919 45.872Z" fill="white"/>
<path d="M19.4402 29.0963C18.905 30.3302 18.0185 31.3539 16.9061 32.0227C15.7937 32.6915 14.5117 32.9714 13.2415 32.8229C11.9712 32.6744 10.7771 32.105 9.82789 31.1952C8.87871 30.2854 8.22256 29.0813 7.95226 27.7533C7.68196 26.4252 7.81119 25.0403 8.32168 23.7946C8.83217 22.5489 9.69807 21.5054 10.7969 20.8118C11.8957 20.1181 13.1718 19.8093 14.4447 19.9292C15.7176 20.049 16.9229 20.5914 17.89 21.4796C18.8889 22.3997 19.5801 23.6396 19.8596 25.013C20.1392 26.3865 19.992 27.8194 19.4402 29.0963ZM9.61055 24.2854C9.10767 25.4432 9.03628 26.7607 9.41078 27.9723C9.78527 29.1838 10.5778 30.1994 11.6286 30.8141C12.6794 31.4289 13.9103 31.5973 15.0732 31.2852C16.2361 30.9731 17.2444 30.2039 17.895 29.1325C18.5456 28.0611 18.7901 26.7673 18.5791 25.5119C18.368 24.2565 17.7173 23.1328 16.758 22.3674C15.7986 21.602 14.6021 21.2517 13.4095 21.3873C12.217 21.5229 11.1171 22.1342 10.3316 23.098C10.0401 23.4559 9.79737 23.8556 9.61055 24.2854Z" fill="white"/>
<path d="M24.1067 37.4078C24.0599 37.5155 23.989 37.6094 23.9002 37.6812C23.8114 37.7531 23.7075 37.8007 23.5974 37.8201C23.4874 37.8394 23.3745 37.8298 23.2687 37.7921C23.1629 37.7544 23.0674 37.6898 22.9905 37.6039L17.2091 31.132C17.1472 31.0628 17.0989 30.9814 17.0666 30.8923C17.0344 30.8033 17.019 30.7083 17.0213 30.6129C17.0236 30.5175 17.0436 30.4236 17.08 30.3364C17.1165 30.2492 17.1687 30.1705 17.2338 30.1047C17.2989 30.039 17.3755 29.9876 17.4592 29.9533C17.543 29.9191 17.6323 29.9027 17.722 29.9051C17.8117 29.9076 17.9001 29.9288 17.9821 29.9676C18.0641 30.0063 18.1381 30.0619 18.1999 30.1311L23.981 36.6029C24.0753 36.7083 24.1376 36.8414 24.16 36.9848C24.1825 37.1283 24.1639 37.2757 24.1067 37.4078Z" fill="white"/>
<path d="M111.209 29.2282L110.838 29.1012C110.958 28.7074 111.084 28.3089 111.215 27.9172L111.582 28.0557C111.452 28.4436 111.327 28.838 111.209 29.2282Z" fill="#292A2E"/>
<path d="M186.547 33.1691C186.385 32.3769 186.199 31.5798 185.994 30.8L186.37 30.6883C186.577 31.4758 186.765 32.2811 186.928 33.0811L186.547 33.1691ZM185.312 28.4692C185.064 27.7024 184.791 26.9344 184.502 26.1846L184.862 26.0271C185.154 26.7843 185.43 27.5606 185.68 28.3343L185.312 28.4692ZM112.411 25.778L112.052 25.6169C112.351 24.863 112.674 24.1085 113.014 23.374L113.364 23.557C113.027 24.2842 112.706 25.0315 112.411 25.778ZM183.566 23.9543C183.235 23.2235 182.881 22.4941 182.511 21.7859L182.852 21.5847C183.225 22.2997 183.584 23.0366 183.918 23.7746L183.566 23.9543ZM114.438 21.3996L114.099 21.1951C114.479 20.483 114.885 19.7741 115.303 19.0879L115.63 19.3146C115.216 19.9929 114.815 20.6948 114.438 21.3996ZM181.339 19.6876C180.93 19.0038 180.498 18.3224 180.053 17.6646L180.369 17.4225C180.819 18.0857 181.256 18.7741 181.668 19.4655L181.339 19.6876ZM116.938 17.3044L116.624 17.0584C117.081 16.399 117.563 15.7456 118.056 15.1162L118.355 15.3814C117.867 16.0046 117.391 16.6514 116.938 17.3044ZM178.658 15.7242C178.178 15.0955 177.673 14.4735 177.157 13.8754L177.445 13.5955C177.965 14.1996 178.475 14.8279 178.96 15.4627L178.658 15.7242ZM119.877 13.5513L119.592 13.2676C120.119 12.6706 120.67 12.0822 121.229 11.5191L121.497 11.82C120.943 12.3777 120.398 12.9601 119.877 13.5513ZM175.558 12.1234C175.01 11.5583 174.44 11.0044 173.862 10.4751L174.117 10.1611C174.699 10.6952 175.275 11.2553 175.828 11.8261L175.558 12.1234ZM123.211 10.1936L122.96 9.87636C123.549 9.34997 124.16 8.83457 124.778 8.34466L125.012 8.67624C124.399 9.16201 123.793 9.67223 123.211 10.1936ZM172.08 8.93612C171.474 8.44414 170.846 7.965 170.214 7.51198L170.432 7.16817C171.07 7.62575 171.705 8.10986 172.316 8.60661L172.08 8.93612ZM126.891 7.27531L126.677 6.92922C127.32 6.47931 127.984 6.04369 128.65 5.6344L128.845 5.99333C128.185 6.39849 127.527 6.82996 126.891 7.27531ZM168.27 6.20762C167.615 5.79604 166.939 5.39939 166.26 5.02885L166.438 4.65996C167.124 5.03444 167.807 5.43524 168.469 5.85075L168.27 6.20762ZM130.866 4.83487L130.691 4.46433C131.379 4.09731 132.086 3.74708 132.793 3.42337L132.947 3.80407C132.248 4.12404 131.548 4.47138 130.866 4.83487ZM164.189 3.97898C163.492 3.65216 162.777 3.34255 162.062 3.05884L162.199 2.67047C162.92 2.95708 163.643 3.2696 164.347 3.59973L164.189 3.97898ZM135.082 2.90424L134.949 2.51463C135.673 2.23527 136.413 1.97581 137.151 1.74163L137.263 2.13891C136.532 2.37039 135.798 2.62778 135.082 2.90424ZM159.89 2.2703C159.16 2.03052 158.415 1.81106 157.677 1.61791L157.77 1.21525C158.516 1.41046 159.267 1.63221 160.005 1.87426L159.89 2.2703ZM139.48 1.51118L139.391 1.10769C140.141 0.921175 140.905 0.755384 141.662 0.614669L141.729 1.02314C140.979 1.16053 140.223 1.32633 139.48 1.51118ZM155.431 1.10354C154.681 0.955991 153.917 0.830404 153.162 0.730515L153.21 0.319354C153.973 0.420279 154.744 0.547317 155.502 0.696114L155.431 1.10354ZM144 0.676426L143.956 0.264643C144.721 0.172422 145.498 0.103412 146.265 0.0594774L146.286 0.473954C145.526 0.516853 144.757 0.585241 144 0.676426ZM150.876 0.500273C150.116 0.447842 149.344 0.418829 148.582 0.414477L148.584 0C149.354 0.00435201 150.134 0.0335726 150.902 0.0866257L150.876 0.500273Z" fill="#292A2E"/>
<path d="M187.132 36.8065C187.084 36.3989 187.029 35.9865 186.97 35.5813L187.355 35.5177C187.415 35.9268 187.47 36.3431 187.519 36.7549L187.132 36.8065Z" fill="#292A2E"/>
<path d="M193.984 50.8698C193.701 50.5911 193.409 50.315 193.116 50.0489L193.369 49.7335C193.667 50.0029 193.963 50.2833 194.25 50.566L193.984 50.8698Z" fill="#292A2E"/>
<path d="M176.297 101.065L176.286 100.651C177.045 100.63 177.811 100.574 178.565 100.485L178.608 100.897C177.844 100.987 177.066 101.044 176.297 101.065ZM173.98 101.027C173.211 100.98 172.436 100.897 171.675 100.782L171.73 100.371C172.48 100.485 173.245 100.567 174.003 100.613L173.98 101.027ZM180.899 100.523L180.823 100.116C181.568 99.9604 182.315 99.7687 183.044 99.5472L183.151 99.9455C182.411 100.171 181.653 100.366 180.898 100.523H180.899ZM185.35 99.1682L185.211 98.7808C185.921 98.494 186.627 98.1713 187.31 97.8222L187.479 98.1952C186.785 98.55 186.069 98.8772 185.349 99.1682H185.35ZM189.523 97.0336L189.325 96.6765C189.979 96.2662 190.624 95.8211 191.241 95.3535L191.467 95.6913C190.84 96.1663 190.186 96.6179 189.523 97.0344L189.523 97.0336ZM193.297 94.1781L193.045 93.8618C193.623 93.3408 194.187 92.7858 194.724 92.2128L195 92.5052C194.455 93.0874 193.882 93.6511 193.296 94.1789L193.297 94.1781ZM196.564 90.688L196.265 90.421C196.755 89.8024 197.225 89.1569 197.662 88.4993L197.98 88.7387C197.536 89.4058 197.059 90.0615 196.563 90.6888L196.564 90.688ZM199.237 86.6702L198.901 86.4603C199.285 85.7656 199.646 85.0447 199.973 84.317L200.324 84.4959C199.992 85.2349 199.626 85.9665 199.236 86.6711L199.237 86.6702ZM201.236 82.2308L200.872 82.0843C201.14 81.3299 201.38 80.554 201.587 79.7783L201.962 79.8915C201.752 80.6792 201.507 81.4654 201.235 82.2322L201.236 82.2308ZM202.499 77.495L202.116 77.416C202.261 76.6252 202.375 75.8172 202.456 75.0145L202.843 75.0589C202.76 75.8737 202.645 76.6934 202.498 77.4958L202.499 77.495ZM202.994 72.6004L202.604 72.5911C202.609 72.3718 202.611 72.1526 202.611 71.9335C202.611 71.3452 202.594 70.7496 202.56 70.1629L202.95 70.1376C202.984 70.7326 203.002 71.3367 203.002 71.9335C203.001 72.1562 202.998 72.3788 202.993 72.6012L202.994 72.6004ZM202.325 67.7473C202.215 66.9486 202.071 66.1458 201.899 65.3612L202.279 65.2667C202.454 66.0629 202.599 66.8771 202.71 67.6872L202.325 67.7473ZM201.285 63.0212C201.051 62.2545 200.783 61.4877 200.489 60.7451L200.848 60.5841C201.147 61.3382 201.419 62.1152 201.656 62.8934L201.285 63.0212ZM199.514 58.5484C199.162 57.8343 198.776 57.1276 198.367 56.448L198.696 56.2248C199.11 56.9141 199.502 57.6312 199.859 58.3559L199.514 58.5484ZM197.057 54.4588C196.596 53.8194 196.103 53.1923 195.592 52.5951L195.88 52.3159C196.399 52.9221 196.899 53.5581 197.366 54.2068L197.057 54.4588Z" fill="#292A2E"/>
<path d="M169.391 100.329C169.01 100.235 168.626 100.131 168.249 100.021L168.353 99.6212C168.725 99.7304 169.103 99.8326 169.478 99.9246L169.391 100.329Z" fill="#292A2E"/>
<path d="M189.134 53.9031C196.684 53.9031 202.805 47.3945 202.805 39.3657C202.805 31.337 196.684 24.8284 189.134 24.8284C181.583 24.8284 175.462 31.337 175.462 39.3657C175.462 47.3945 181.583 53.9031 189.134 53.9031Z" fill="white"/>
<path opacity="0.2" d="M189.134 53.9031C196.684 53.9031 202.805 47.3945 202.805 39.3657C202.805 31.337 196.684 24.8284 189.134 24.8284C181.583 24.8284 175.462 31.337 175.462 39.3657C175.462 47.3945 181.583 53.9031 189.134 53.9031Z" fill="#946BC4"/>
<path d="M189.134 50.4826C194.908 50.4826 199.588 45.5054 199.588 39.3657C199.588 33.226 194.908 28.2488 189.134 28.2488C183.36 28.2488 178.679 33.226 178.679 39.3657C178.679 45.5054 183.36 50.4826 189.134 50.4826Z" fill="white"/>
<path opacity="0.2" d="M189.134 47.062C193.131 47.062 196.372 43.6163 196.372 39.3658C196.372 35.1153 193.131 31.6696 189.134 31.6696C185.136 31.6696 181.896 35.1153 181.896 39.3658C181.896 43.6163 185.136 47.062 189.134 47.062Z" fill="#946BC4"/>
<path d="M189.134 43.6414C191.355 43.6414 193.155 41.7271 193.155 39.3657C193.155 37.0043 191.355 35.09 189.134 35.09C186.913 35.09 185.113 37.0043 185.113 39.3657C185.113 41.7271 186.913 43.6414 189.134 43.6414Z" fill="white"/>
<path opacity="0.2" d="M189.134 40.7174C189.836 40.7174 190.405 40.1122 190.405 39.3658C190.405 38.6193 189.836 38.0142 189.134 38.0142C188.432 38.0142 187.863 38.6193 187.863 39.3658C187.863 40.1122 188.432 40.7174 189.134 40.7174Z" fill="#946BC4"/>
<path d="M194.927 107.752H192.037C191.807 107.752 191.583 107.676 191.396 107.535C191.208 107.394 191.067 107.195 190.991 106.964C190.769 106.289 190.508 105.629 190.207 104.989C190.103 104.768 190.068 104.517 190.106 104.273C190.143 104.029 190.252 103.804 190.418 103.63L192.472 101.445C192.68 101.223 192.798 100.922 192.798 100.608C192.798 100.294 192.68 99.9931 192.472 99.771L188.034 95.0543C187.825 94.8323 187.542 94.7077 187.247 94.7077C186.951 94.7077 186.668 94.8323 186.459 95.0543L184.368 97.2777C184.206 97.4515 183.996 97.5669 183.768 97.6078C183.541 97.6486 183.307 97.6129 183.1 97.5057C182.509 97.1991 181.902 96.9326 181.28 96.7078C181.06 96.6284 180.87 96.4779 180.736 96.2776C180.601 96.0772 180.529 95.837 180.529 95.5908V92.4408C180.529 92.2854 180.5 92.1315 180.445 91.9879C180.389 91.8443 180.307 91.7139 180.203 91.604C180.1 91.4941 179.977 91.4069 179.842 91.3475C179.707 91.288 179.563 91.2574 179.416 91.2574H173.143C172.996 91.2574 172.852 91.2879 172.717 91.3473C172.582 91.4068 172.459 91.4939 172.356 91.6038C172.252 91.7137 172.17 91.8442 172.114 91.9878C172.058 92.1314 172.03 92.2853 172.03 92.4408V95.5908C172.03 95.837 171.958 96.0772 171.823 96.2775C171.689 96.4779 171.499 96.6284 171.279 96.7078C170.657 96.9325 170.049 97.199 169.459 97.5057C169.252 97.6129 169.018 97.6486 168.79 97.6078C168.563 97.5669 168.353 97.4515 168.19 97.2777L166.099 95.0541C165.89 94.8321 165.607 94.7075 165.312 94.7075C165.016 94.7075 164.733 94.8321 164.524 95.0541L160.087 99.7708C159.878 99.9929 159.761 100.294 159.761 100.608C159.761 100.922 159.878 101.223 160.087 101.445L162.141 103.63C162.306 103.804 162.415 104.029 162.453 104.273C162.491 104.517 162.455 104.768 162.351 104.989C162.051 105.629 161.79 106.288 161.57 106.964C161.493 107.194 161.351 107.394 161.163 107.535C160.975 107.676 160.751 107.752 160.521 107.752H157.631C157.485 107.752 157.34 107.782 157.205 107.842C157.07 107.901 156.947 107.988 156.844 108.098C156.741 108.208 156.659 108.338 156.603 108.482C156.547 108.626 156.518 108.779 156.518 108.935V115.608C156.518 115.763 156.547 115.917 156.603 116.061C156.659 116.204 156.741 116.335 156.844 116.445C156.947 116.555 157.07 116.642 157.205 116.701C157.34 116.761 157.485 116.791 157.631 116.791H160.445C160.679 116.791 160.908 116.869 161.097 117.015C161.287 117.161 161.428 117.367 161.502 117.604C161.719 118.297 161.979 118.975 162.279 119.633C162.381 119.854 162.416 120.104 162.378 120.347C162.34 120.59 162.232 120.815 162.069 120.99L160.087 123.098C159.983 123.207 159.901 123.338 159.845 123.481C159.789 123.625 159.761 123.778 159.761 123.934C159.761 124.089 159.789 124.243 159.845 124.386C159.901 124.53 159.983 124.66 160.087 124.77L164.524 129.489C164.733 129.711 165.016 129.835 165.312 129.835C165.607 129.835 165.89 129.711 166.099 129.489L168.042 127.423C168.208 127.247 168.421 127.131 168.652 127.092C168.883 127.053 169.12 127.091 169.329 127.203C169.957 127.537 170.606 127.825 171.272 128.065C171.492 128.144 171.684 128.295 171.82 128.496C171.956 128.697 172.029 128.939 172.03 129.186V132.1C172.03 132.256 172.058 132.41 172.114 132.554C172.17 132.697 172.252 132.828 172.355 132.938C172.459 133.048 172.581 133.136 172.716 133.195C172.852 133.255 172.997 133.285 173.143 133.285H179.416C179.563 133.285 179.708 133.255 179.843 133.195C179.978 133.135 180.101 133.048 180.204 132.938C180.307 132.828 180.389 132.697 180.445 132.553C180.501 132.41 180.529 132.256 180.529 132.1V129.186C180.53 128.939 180.603 128.697 180.739 128.496C180.875 128.295 181.067 128.144 181.287 128.065C181.953 127.825 182.602 127.537 183.23 127.203C183.439 127.091 183.676 127.053 183.907 127.092C184.138 127.131 184.351 127.247 184.517 127.423L186.46 129.489C186.669 129.711 186.952 129.835 187.247 129.835C187.542 129.835 187.826 129.711 188.034 129.489L192.472 124.77C192.576 124.66 192.658 124.53 192.714 124.386C192.77 124.243 192.798 124.089 192.798 123.934C192.798 123.778 192.77 123.625 192.714 123.481C192.658 123.338 192.576 123.207 192.472 123.098L190.49 120.99C190.327 120.815 190.218 120.59 190.181 120.347C190.143 120.104 190.178 119.854 190.28 119.633C190.58 118.975 190.84 118.297 191.057 117.604C191.13 117.367 191.272 117.161 191.462 117.015C191.651 116.869 191.879 116.791 192.114 116.791H194.928C195.074 116.791 195.219 116.761 195.354 116.701C195.489 116.642 195.611 116.555 195.715 116.445C195.818 116.335 195.9 116.204 195.956 116.061C196.012 115.917 196.041 115.763 196.041 115.608V108.935C196.041 108.779 196.012 108.626 195.956 108.482C195.9 108.338 195.818 108.208 195.715 108.098C195.611 107.988 195.488 107.901 195.353 107.842C195.218 107.782 195.074 107.752 194.927 107.752ZM176.28 122.132C174.446 122.132 172.653 121.554 171.127 120.471C169.602 119.387 168.413 117.847 167.711 116.045C167.009 114.243 166.825 112.26 167.183 110.347C167.541 108.434 168.424 106.677 169.721 105.297C171.018 103.918 172.671 102.979 174.47 102.599C176.269 102.218 178.134 102.413 179.829 103.16C181.523 103.907 182.972 105.171 183.99 106.793C185.009 108.414 185.553 110.321 185.553 112.272C185.553 114.887 184.576 117.394 182.837 119.244C181.098 121.093 178.74 122.132 176.28 122.132H176.28Z" fill="#946BC4"/>
<path opacity="0.8" d="M194.927 107.752H192.037C191.807 107.752 191.583 107.676 191.396 107.535C191.208 107.394 191.067 107.195 190.991 106.964C190.769 106.289 190.508 105.629 190.207 104.989C190.103 104.768 190.068 104.517 190.106 104.273C190.143 104.029 190.252 103.804 190.418 103.63L192.472 101.445C192.68 101.223 192.798 100.922 192.798 100.608C192.798 100.294 192.68 99.9931 192.472 99.771L188.034 95.0543C187.825 94.8323 187.542 94.7077 187.247 94.7077C186.951 94.7077 186.668 94.8323 186.459 95.0543L184.368 97.2777C184.206 97.4515 183.996 97.5669 183.768 97.6078C183.541 97.6486 183.307 97.6129 183.1 97.5057C182.509 97.1991 181.902 96.9326 181.28 96.7078C181.06 96.6284 180.87 96.4779 180.736 96.2776C180.601 96.0772 180.529 95.837 180.529 95.5908V92.4408C180.529 92.2854 180.5 92.1315 180.445 91.9879C180.389 91.8443 180.307 91.7139 180.203 91.604C180.1 91.4941 179.977 91.4069 179.842 91.3475C179.707 91.288 179.563 91.2574 179.416 91.2574H173.143C172.996 91.2574 172.852 91.2879 172.717 91.3473C172.582 91.4068 172.459 91.4939 172.356 91.6038C172.252 91.7137 172.17 91.8442 172.114 91.9878C172.058 92.1314 172.03 92.2853 172.03 92.4408V95.5908C172.03 95.837 171.958 96.0772 171.823 96.2775C171.689 96.4779 171.499 96.6284 171.279 96.7078C170.657 96.9325 170.049 97.199 169.459 97.5057C169.252 97.6129 169.018 97.6486 168.79 97.6078C168.563 97.5669 168.353 97.4515 168.19 97.2777L166.099 95.0541C165.89 94.8321 165.607 94.7075 165.312 94.7075C165.016 94.7075 164.733 94.8321 164.524 95.0541L160.087 99.7708C159.878 99.9929 159.761 100.294 159.761 100.608C159.761 100.922 159.878 101.223 160.087 101.445L162.141 103.63C162.306 103.804 162.415 104.029 162.453 104.273C162.491 104.517 162.455 104.768 162.351 104.989C162.051 105.629 161.79 106.288 161.57 106.964C161.493 107.194 161.351 107.394 161.163 107.535C160.975 107.676 160.751 107.752 160.521 107.752H157.631C157.485 107.752 157.34 107.782 157.205 107.842C157.07 107.901 156.947 107.988 156.844 108.098C156.741 108.208 156.659 108.338 156.603 108.482C156.547 108.626 156.518 108.779 156.518 108.935V115.608C156.518 115.763 156.547 115.917 156.603 116.061C156.659 116.204 156.741 116.335 156.844 116.445C156.947 116.555 157.07 116.642 157.205 116.701C157.34 116.761 157.485 116.791 157.631 116.791H160.445C160.679 116.791 160.908 116.869 161.097 117.015C161.287 117.161 161.428 117.367 161.502 117.604C161.719 118.297 161.979 118.975 162.279 119.633C162.381 119.854 162.416 120.104 162.378 120.347C162.34 120.59 162.232 120.815 162.069 120.99L160.087 123.098C159.983 123.207 159.901 123.338 159.845 123.481C159.789 123.625 159.761 123.778 159.761 123.934C159.761 124.089 159.789 124.243 159.845 124.386C159.901 124.53 159.983 124.66 160.087 124.77L164.524 129.489C164.733 129.711 165.016 129.835 165.312 129.835C165.607 129.835 165.89 129.711 166.099 129.489L168.042 127.423C168.208 127.247 168.421 127.131 168.652 127.092C168.883 127.053 169.12 127.091 169.329 127.203C169.957 127.537 170.606 127.825 171.272 128.065C171.492 128.144 171.684 128.295 171.82 128.496C171.956 128.697 172.029 128.939 172.03 129.186V132.1C172.03 132.256 172.058 132.41 172.114 132.554C172.17 132.697 172.252 132.828 172.355 132.938C172.459 133.048 172.581 133.136 172.716 133.195C172.852 133.255 172.997 133.285 173.143 133.285H179.416C179.563 133.285 179.708 133.255 179.843 133.195C179.978 133.135 180.101 133.048 180.204 132.938C180.307 132.828 180.389 132.697 180.445 132.553C180.501 132.41 180.529 132.256 180.529 132.1V129.186C180.53 128.939 180.603 128.697 180.739 128.496C180.875 128.295 181.067 128.144 181.287 128.065C181.953 127.825 182.602 127.537 183.23 127.203C183.439 127.091 183.676 127.053 183.907 127.092C184.138 127.131 184.351 127.247 184.517 127.423L186.46 129.489C186.669 129.711 186.952 129.835 187.247 129.835C187.542 129.835 187.826 129.711 188.034 129.489L192.472 124.77C192.576 124.66 192.658 124.53 192.714 124.386C192.77 124.243 192.798 124.089 192.798 123.934C192.798 123.778 192.77 123.625 192.714 123.481C192.658 123.338 192.576 123.207 192.472 123.098L190.49 120.99C190.327 120.815 190.218 120.59 190.181 120.347C190.143 120.104 190.178 119.854 190.28 119.633C190.58 118.975 190.84 118.297 191.057 117.604C191.13 117.367 191.272 117.161 191.462 117.015C191.651 116.869 191.879 116.791 192.114 116.791H194.928C195.074 116.791 195.219 116.761 195.354 116.701C195.489 116.642 195.611 116.555 195.715 116.445C195.818 116.335 195.9 116.204 195.956 116.061C196.012 115.917 196.041 115.763 196.041 115.608V108.935C196.041 108.779 196.012 108.626 195.956 108.482C195.9 108.338 195.818 108.208 195.715 108.098C195.611 107.988 195.488 107.901 195.353 107.842C195.218 107.782 195.074 107.752 194.927 107.752ZM176.28 122.132C174.446 122.132 172.653 121.554 171.127 120.471C169.602 119.387 168.413 117.847 167.711 116.045C167.009 114.243 166.825 112.26 167.183 110.347C167.541 108.434 168.424 106.677 169.721 105.297C171.018 103.918 172.671 102.979 174.47 102.599C176.269 102.218 178.134 102.413 179.829 103.16C181.523 103.907 182.972 105.171 183.99 106.793C185.009 108.414 185.553 110.321 185.553 112.272C185.553 114.887 184.576 117.394 182.837 119.244C181.098 121.093 178.74 122.132 176.28 122.132H176.28Z" fill="white"/>
<path d="M167.649 12.0693H36.1576C32.9285 12.0693 30.3109 14.8528 30.3109 18.2865V120.657C30.3109 124.091 32.9285 126.874 36.1576 126.874H167.649C170.878 126.874 173.496 124.091 173.496 120.657V18.2865C173.496 14.8528 170.878 12.0693 167.649 12.0693Z" fill="white"/>
<path d="M167.65 127.081H36.1576C34.5559 127.079 33.0202 126.402 31.8876 125.198C30.755 123.993 30.1178 122.36 30.116 120.657V18.2865C30.1178 16.5832 30.755 14.9503 31.8876 13.7459C33.0202 12.5415 34.5559 11.864 36.1576 11.8621H167.65C169.251 11.864 170.787 12.5415 171.92 13.7459C173.052 14.9503 173.689 16.5832 173.691 18.2865V120.657C173.689 122.36 173.052 123.993 171.92 125.198C170.787 126.402 169.251 127.079 167.65 127.081ZM36.1576 12.2765C34.6592 12.2783 33.2225 12.912 32.163 14.0387C31.1034 15.1654 30.5074 16.6931 30.5058 18.2865V120.657C30.5075 122.25 31.1035 123.778 32.163 124.905C33.2226 126.031 34.6592 126.665 36.1576 126.667H167.65C169.148 126.665 170.585 126.031 171.644 124.905C172.704 123.778 173.3 122.25 173.301 120.657V18.2865C173.3 16.6931 172.704 15.1655 171.644 14.0388C170.585 12.9121 169.148 12.2783 167.65 12.2765H36.1576Z" fill="#292A2E"/>
<path d="M163.893 95.6827H39.5166C37.7914 95.6827 36.3929 97.1699 36.3929 99.0044V117.308C36.3929 119.143 37.7914 120.63 39.5166 120.63H163.893C165.618 120.63 167.016 119.143 167.016 117.308V99.0044C167.016 97.1699 165.618 95.6827 163.893 95.6827Z" fill="#946BC4"/>
<path d="M163.893 63.5554H39.5166C37.7914 63.5554 36.3929 65.0426 36.3929 66.877V85.1812C36.3929 87.0156 37.7914 88.5028 39.5166 88.5028H163.893C165.618 88.5028 167.016 87.0156 167.016 85.1812V66.877C167.016 65.0426 165.618 63.5554 163.893 63.5554Z" fill="#946BC4"/>
<g opacity="0.9">
<path d="M163.893 95.6827H39.5166C37.7914 95.6827 36.3929 97.1699 36.3929 99.0044V117.308C36.3929 119.143 37.7914 120.63 39.5166 120.63H163.893C165.618 120.63 167.016 119.143 167.016 117.308V99.0044C167.016 97.1699 165.618 95.6827 163.893 95.6827Z" fill="white"/>
</g>
<g opacity="0.9">
<path d="M163.893 63.5554H39.5166C37.7914 63.5554 36.3929 65.0426 36.3929 66.877V85.1812C36.3929 87.0156 37.7914 88.5028 39.5166 88.5028H163.893C165.618 88.5028 167.016 87.0156 167.016 85.1812V66.877C167.016 65.0426 165.618 63.5554 163.893 63.5554Z" fill="white"/>
</g>
<path d="M163.893 31.4279H39.5166C37.7914 31.4279 36.3929 32.915 36.3929 34.7495V53.0536C36.3929 54.8881 37.7914 56.3752 39.5166 56.3752H163.893C165.618 56.3752 167.016 54.8881 167.016 53.0536V34.7495C167.016 32.915 165.618 31.4279 163.893 31.4279Z" fill="#946BC4"/>
<path opacity="0.2" d="M163.893 31.4279H39.5166C37.7914 31.4279 36.3929 32.915 36.3929 34.7495V53.0536C36.3929 54.8881 37.7914 56.3752 39.5166 56.3752H163.893C165.618 56.3752 167.016 54.8881 167.016 53.0536V34.7495C167.016 32.915 165.618 31.4279 163.893 31.4279Z" fill="white"/>
<path d="M163.893 56.5824H39.5166C38.6367 56.5813 37.7931 56.2091 37.171 55.5474C36.5489 54.8857 36.199 53.9886 36.1982 53.0529V34.7496C36.1991 33.8141 36.549 32.9171 37.1711 32.2555C37.7932 31.5939 38.6368 31.2217 39.5166 31.2206H163.893C164.773 31.2216 165.616 31.5938 166.238 32.2554C166.861 32.917 167.21 33.814 167.211 34.7496V53.0529C167.211 53.9887 166.861 54.8858 166.238 55.5475C165.616 56.2092 164.773 56.5814 163.893 56.5824ZM39.5166 31.6351C38.7401 31.636 37.9957 31.9645 37.4466 32.5484C36.8976 33.1323 36.5888 33.9239 36.588 34.7496V53.0529C36.5888 53.8786 36.8976 54.6703 37.4466 55.2542C37.9957 55.8381 38.7401 56.1665 39.5166 56.1675H163.893C164.669 56.1666 165.414 55.8381 165.963 55.2542C166.512 54.6704 166.821 53.8787 166.822 53.0529V34.7496C166.821 33.9239 166.512 33.1322 165.963 32.5483C165.414 31.9644 164.669 31.636 163.893 31.6351H39.5166Z" fill="#292A2E"/>
<path d="M76.5517 35.7625H42.8452C41.9747 35.7625 41.2691 36.5128 41.2691 37.4384C41.2691 38.364 41.9747 39.1143 42.8452 39.1143H76.5517C77.4221 39.1143 78.1278 38.364 78.1278 37.4384C78.1278 36.5128 77.4221 35.7625 76.5517 35.7625Z" fill="white"/>
<path d="M104.667 52.2681H41.2687C41.217 52.2681 41.1674 52.2463 41.1309 52.2074C41.0943 52.1686 41.0738 52.1158 41.0738 52.0609C41.0738 52.0059 41.0943 51.9532 41.1309 51.9143C41.1674 51.8755 41.217 51.8536 41.2687 51.8536H104.667C104.719 51.8536 104.769 51.8755 104.805 51.9143C104.842 51.9532 104.862 52.0059 104.862 52.0609C104.862 52.1158 104.842 52.1686 104.805 52.2074C104.769 52.2463 104.719 52.2681 104.667 52.2681Z" fill="white"/>
<path d="M161.576 47.8638H41.2687C41.217 47.8638 41.1674 47.842 41.1309 47.8031C41.0943 47.7643 41.0738 47.7115 41.0738 47.6566C41.0738 47.6016 41.0943 47.5489 41.1309 47.51C41.1674 47.4712 41.217 47.4493 41.2687 47.4493H161.576C161.628 47.4493 161.677 47.4712 161.714 47.51C161.75 47.5489 161.771 47.6016 161.771 47.6566C161.771 47.7115 161.75 47.7643 161.714 47.8031C161.677 47.842 161.628 47.8638 161.576 47.8638Z" fill="white"/>
<path d="M161.576 43.4594H41.2687C41.217 43.4594 41.1674 43.4376 41.1309 43.3987C41.0943 43.3598 41.0738 43.3071 41.0738 43.2522C41.0738 43.1972 41.0943 43.1445 41.1309 43.1056C41.1674 43.0668 41.217 43.0449 41.2687 43.0449H161.576C161.628 43.0449 161.677 43.0668 161.714 43.1056C161.75 43.1445 161.771 43.1972 161.771 43.2522C161.771 43.3071 161.75 43.3598 161.714 43.3987C161.677 43.4376 161.628 43.4594 161.576 43.4594Z" fill="white"/>
<path d="M163.893 88.71H39.5166C38.6368 88.7089 37.7932 88.3367 37.1711 87.6751C36.549 87.0135 36.1991 86.1165 36.1982 85.1809V66.877C36.1991 65.9414 36.549 65.0445 37.1711 64.3829C37.7933 63.7213 38.6368 63.3492 39.5166 63.3481H163.893C164.773 63.3491 165.616 63.7212 166.238 64.3828C166.86 65.0444 167.21 65.9414 167.211 66.877V85.1809C167.21 86.1166 166.861 87.0136 166.238 87.6752C165.616 88.3368 164.773 88.7089 163.893 88.71ZM39.5166 63.7626C38.7401 63.7636 37.9957 64.092 37.4466 64.6758C36.8976 65.2597 36.5888 66.0513 36.588 66.877V85.1809C36.5888 86.0066 36.8976 86.7982 37.4466 87.3821C37.9957 87.966 38.7401 88.2945 39.5166 88.2955H163.893C164.669 88.2946 165.414 87.9661 165.963 87.3822C166.512 86.7983 166.821 86.0067 166.822 85.1809V66.877C166.821 66.0513 166.512 65.2596 165.963 64.6758C165.414 64.0919 164.669 63.7635 163.893 63.7626H39.5166Z" fill="#292A2E"/>
<path d="M163.893 120.837H39.5166C38.6368 120.836 37.7933 120.464 37.1712 119.802C36.5491 119.141 36.1992 118.244 36.1982 117.308V99.0043C36.199 98.0686 36.5488 97.1714 37.1709 96.5097C37.7931 95.848 38.6367 95.4757 39.5166 95.4746H163.893C164.773 95.4757 165.616 95.8478 166.238 96.5093C166.86 97.1709 167.21 98.0679 167.211 99.0035V117.308C167.211 118.243 166.861 119.141 166.239 119.802C165.616 120.464 164.773 120.836 163.893 120.837ZM39.5166 95.8891C38.7401 95.8901 37.9957 96.2185 37.4467 96.8024C36.8977 97.3862 36.5888 98.1778 36.588 99.0035V117.308C36.5888 118.133 36.8977 118.925 37.4467 119.509C37.9957 120.093 38.7401 120.421 39.5166 120.422H163.893C164.669 120.421 165.414 120.093 165.963 119.509C166.512 118.925 166.821 118.133 166.822 117.308V99.0043C166.821 98.1784 166.512 97.3866 165.963 96.8026C165.414 96.2185 164.669 95.89 163.893 95.8891H39.5166Z" fill="#292A2E"/>
<path d="M173.496 18.2856V24.5417H30.3116V18.2856C30.3116 16.6367 30.9276 15.0554 32.0241 13.8894C33.1206 12.7235 34.6078 12.0685 36.1584 12.0685H167.649C169.2 12.0685 170.687 12.7235 171.784 13.8894C172.88 15.0554 173.496 16.6367 173.496 18.2856Z" fill="#292A2E"/>
<path d="M162.803 75.3799L161.106 72.4914L158.36 74.2461L163.401 51.917L167.843 53.0508L162.803 75.3799Z" fill="#946BC4"/>
<path d="M162.803 75.5871C162.77 75.5871 162.737 75.5782 162.709 75.5612C162.68 75.5441 162.655 75.5196 162.638 75.4897L161.042 72.7749L158.461 74.4247C158.428 74.4458 158.39 74.456 158.351 74.4542C158.313 74.4524 158.276 74.4385 158.245 74.4144C158.214 74.3902 158.191 74.3569 158.177 74.3186C158.164 74.2802 158.162 74.2386 158.171 74.1989L163.211 51.8695C163.223 51.8164 163.255 51.7704 163.298 51.7417C163.342 51.713 163.395 51.7039 163.445 51.7164L167.889 52.8504C167.913 52.8568 167.937 52.8683 167.958 52.8843C167.978 52.9003 167.996 52.9204 168.009 52.9436C168.023 52.9669 168.032 52.9926 168.036 53.0195C168.04 53.0464 168.039 53.0739 168.033 53.1003L162.992 75.4284C162.983 75.4681 162.964 75.504 162.936 75.5318C162.907 75.5596 162.872 75.5779 162.834 75.5844C162.824 75.5863 162.813 75.5872 162.803 75.5871ZM161.105 72.2842C161.139 72.2841 161.171 72.2931 161.2 72.3101C161.229 72.3272 161.253 72.3517 161.271 72.3816L162.722 74.851L167.608 53.2039L163.544 52.1678L158.658 73.8138L161.005 72.3138C161.036 72.2946 161.07 72.2846 161.105 72.2848V72.2842Z" fill="#292A2E"/>
<path d="M168.763 75.3799L170.46 72.4914L173.206 74.2461L168.166 51.917L163.723 53.0508L168.763 75.3799Z" fill="#946BC4"/>
<path d="M168.763 75.5872C168.753 75.5872 168.742 75.5863 168.732 75.5845C168.694 75.5779 168.659 75.5596 168.631 75.5318C168.603 75.5041 168.583 75.4681 168.574 75.4284L163.534 53.0993C163.528 53.0729 163.527 53.0454 163.531 53.0185C163.535 52.9916 163.544 52.9659 163.558 52.9427C163.571 52.9194 163.589 52.8993 163.609 52.8833C163.63 52.8673 163.654 52.8558 163.678 52.8494L168.122 51.7154C168.172 51.7026 168.225 51.7116 168.269 51.7403C168.313 51.769 168.345 51.8151 168.357 51.8686L173.396 74.1979C173.405 74.2376 173.403 74.2792 173.389 74.3175C173.376 74.3558 173.353 74.3891 173.322 74.4132C173.291 74.4373 173.254 74.4512 173.215 74.4531C173.177 74.4549 173.139 74.4447 173.106 74.4238L170.525 72.7739L168.929 75.4888C168.912 75.5189 168.887 75.5437 168.858 75.561C168.829 75.5782 168.797 75.5872 168.763 75.5872ZM163.958 53.204L168.844 74.8511L170.295 72.3816C170.322 72.3355 170.365 72.3026 170.415 72.2899C170.465 72.2772 170.517 72.2858 170.561 72.3139L172.908 73.8139L168.022 52.1668L163.958 53.204Z" fill="#292A2E"/>
<path d="M177.168 56.2058C177.168 57.437 175.715 58.4092 175.375 59.5202C175.024 60.6718 175.65 62.3641 174.994 63.3226C174.331 64.2906 172.62 64.1766 171.709 64.8811C170.808 65.5786 170.384 67.3486 169.302 67.7225C168.257 68.0833 166.941 66.9277 165.783 66.9277C164.625 66.9277 163.308 68.0833 162.264 67.7225C161.181 67.3495 160.757 65.5786 159.856 64.8811C158.946 64.1764 157.234 64.2904 156.572 63.3224C155.915 62.3639 156.542 60.6716 156.19 59.5202C155.851 58.4092 154.397 57.437 154.397 56.2058C154.397 54.9746 155.851 54.0025 156.19 52.8915C156.541 51.7399 155.915 50.0475 156.572 49.0891C157.234 48.1211 158.946 48.235 159.856 47.5304C160.757 46.8329 161.181 45.0628 162.264 44.689C163.309 44.3284 164.625 45.4839 165.783 45.4839C166.941 45.4839 168.257 44.3284 169.302 44.689C170.385 45.063 170.808 46.8331 171.709 47.5306C172.62 48.2352 174.331 48.1211 174.994 49.0891C175.65 50.0475 175.023 51.7399 175.375 52.8915C175.715 54.0025 177.168 54.9744 177.168 56.2058Z" fill="#0CBC8B"/>
<path d="M168.867 67.9993C168.353 67.9993 167.813 67.7767 167.286 67.56C166.778 67.3511 166.253 67.1349 165.783 67.1349C165.313 67.1349 164.788 67.3511 164.28 67.56C163.581 67.8478 162.858 68.1454 162.204 67.9195C161.518 67.6829 161.09 66.9724 160.677 66.2852C160.379 65.7912 160.098 65.3243 159.741 65.0487C159.379 64.7678 158.845 64.6186 158.33 64.4744C157.594 64.2672 156.832 64.0547 156.414 63.4444C156.001 62.8411 156.044 62.0093 156.086 61.2048C156.115 60.6351 156.146 60.0459 156.005 59.5842C155.872 59.149 155.546 58.7273 155.201 58.2802C154.71 57.6451 154.203 56.9881 154.203 56.2058C154.203 55.4235 154.709 54.7665 155.201 54.1311C155.546 53.6843 155.872 53.2622 156.005 52.8274C156.146 52.3657 156.115 51.7763 156.086 51.2066C156.044 50.4021 156.001 49.5694 156.414 48.9672C156.832 48.3566 157.594 48.1434 158.33 47.9372C158.845 47.7921 159.379 47.6437 159.741 47.3627C160.098 47.0871 160.379 46.6202 160.677 46.1261C161.091 45.4391 161.519 44.7285 162.204 44.4918C162.859 44.2664 163.581 44.5638 164.281 44.8514C164.788 45.0605 165.314 45.2767 165.783 45.2767C166.253 45.2767 166.777 45.0605 167.286 44.8514C167.985 44.5638 168.709 44.2662 169.362 44.4918C170.048 44.7287 170.476 45.4391 170.89 46.1263C171.187 46.6204 171.468 47.0871 171.825 47.3629C172.188 47.6437 172.722 47.7929 173.236 47.9372C173.973 48.1444 174.735 48.3568 175.153 48.9672C175.565 49.5704 175.523 50.4021 175.481 51.2066C175.451 51.7765 175.421 52.3657 175.562 52.8274C175.694 53.2626 176.02 53.6843 176.366 54.1313C176.857 54.7665 177.364 55.4235 177.364 56.2058C177.364 56.9881 176.857 57.6451 176.366 58.2802C176.02 58.7273 175.694 59.1494 175.562 59.5842C175.421 60.0459 175.451 60.6351 175.481 61.205C175.522 62.0095 175.565 62.8411 175.153 63.4444C174.735 64.0547 173.973 64.268 173.236 64.4744C172.721 64.6195 172.188 64.7678 171.825 65.0487C171.469 65.3245 171.188 65.7912 170.889 66.2852C170.476 66.9724 170.048 67.6831 169.362 67.9195C169.202 67.9738 169.035 68.0007 168.867 67.9993ZM165.783 66.7204C166.325 66.7204 166.885 66.9509 167.426 67.1735C168.091 67.4472 168.72 67.7059 169.242 67.5258C169.795 67.3349 170.167 66.7175 170.561 66.062C170.865 65.5574 171.179 65.0356 171.594 64.715C172.016 64.3882 172.585 64.229 173.135 64.075C173.837 63.8786 174.5 63.6929 174.836 63.2019C175.167 62.718 175.13 61.995 175.089 61.2292C175.058 60.6214 175.025 59.9929 175.189 59.4576C175.345 58.9482 175.709 58.4757 176.062 58.0187C176.51 57.4399 176.972 56.8412 176.972 56.2072C176.972 55.5733 176.51 54.9746 176.062 54.3958C175.709 53.9398 175.344 53.4661 175.189 52.9567C175.025 52.4216 175.058 51.7931 175.089 51.1852C175.128 50.4197 175.167 49.6964 174.836 49.2125C174.5 48.7216 173.837 48.5359 173.136 48.3394C172.585 48.1855 172.017 48.0261 171.594 47.6995C171.179 47.3779 170.865 46.856 170.561 46.3512C170.167 45.6967 169.795 45.0785 169.242 44.8877C168.72 44.7072 168.092 44.9658 167.427 45.24C166.885 45.4626 166.326 45.693 165.783 45.693C165.241 45.693 164.681 45.4626 164.14 45.2398C163.475 44.966 162.847 44.7074 162.324 44.8875C161.772 45.0783 161.399 45.6967 161.005 46.3512C160.701 46.8558 160.387 47.3776 159.972 47.6995C159.55 48.0261 158.981 48.1855 158.431 48.3394C157.729 48.5359 157.067 48.7214 156.731 49.2123C156.399 49.6962 156.437 50.4195 156.477 51.185C156.509 51.7931 156.541 52.4214 156.378 52.9567C156.222 53.4661 155.857 53.9388 155.504 54.3958C155.056 54.9746 154.595 55.5731 154.595 56.2072C154.595 56.8414 155.057 57.4399 155.504 58.0187C155.857 58.4746 156.222 58.9482 156.378 59.4576C156.541 59.9929 156.509 60.6214 156.477 61.229C156.438 61.9948 156.399 62.718 156.731 63.2019C157.067 63.6929 157.729 63.8784 158.431 64.075C158.981 64.229 159.55 64.3882 159.972 64.715C160.388 65.0366 160.702 65.5585 161.005 66.062C161.399 66.7167 161.772 67.3349 162.324 67.5258C162.846 67.7059 163.474 67.4476 164.14 67.1735C164.681 66.9509 165.241 66.7204 165.783 66.7204Z" fill="#292A2E"/>
<path d="M165.783 61.5751C168.572 61.5751 170.833 59.1712 170.833 56.2058C170.833 53.2404 168.572 50.8364 165.783 50.8364C162.994 50.8364 160.734 53.2404 160.734 56.2058C160.734 59.1712 162.994 61.5751 165.783 61.5751Z" fill="white"/>
<path d="M165.783 61.7823C164.746 61.7823 163.732 61.4552 162.869 60.8425C162.007 60.2297 161.335 59.3588 160.938 58.3398C160.541 57.3208 160.437 56.1995 160.639 55.1178C160.842 54.036 161.341 53.0424 162.075 52.2625C162.808 51.4826 163.743 50.9515 164.76 50.7363C165.777 50.5211 166.832 50.6316 167.79 51.0536C168.748 51.4757 169.567 52.1905 170.144 53.1075C170.72 54.0246 171.027 55.1028 171.027 56.2057C171.026 57.6842 170.473 59.1017 169.49 60.1472C168.507 61.1926 167.173 61.7807 165.783 61.7823ZM165.783 51.0436C164.823 51.0436 163.884 51.3464 163.086 51.9136C162.288 52.4808 161.665 53.287 161.298 54.2303C160.931 55.1735 160.834 56.2115 161.022 57.2128C161.209 58.2142 161.671 59.134 162.35 59.8559C163.029 60.5778 163.894 61.0695 164.836 61.2686C165.778 61.4678 166.754 61.3656 167.641 60.9749C168.528 60.5842 169.286 59.9225 169.819 59.0736C170.353 58.2247 170.638 57.2267 170.638 56.2057C170.636 54.837 170.125 53.5247 169.214 52.5567C168.304 51.5888 167.07 51.0443 165.783 51.0428V51.0436Z" fill="#292A2E"/>
</g>
<defs>
<clipPath id="clip0_15_57">
<rect width="203" height="144" fill="white"/>
</clipPath>
</defs>
</svg>
