<svg width="263" height="232" viewBox="0 0 263 232" fill="none" xmlns="http://www.w3.org/2000/svg">
<g clip-path="url(#clip0_15_1407)">
<path d="M223.771 140.693C225.073 136.66 224.118 132.66 221.638 131.759C219.159 130.859 216.093 133.398 214.791 137.432C213.489 141.465 214.444 145.465 216.923 146.366C219.403 147.266 222.468 144.727 223.771 140.693Z" fill="#F4F4F4"/>
<path d="M214.941 137.422C216.707 136.577 217.152 133.572 215.935 130.709C214.718 127.846 212.301 126.209 210.535 127.054C208.769 127.898 208.324 130.904 209.54 133.767C210.757 136.63 213.175 138.266 214.941 137.422Z" fill="#F4F4F4"/>
<path d="M211.601 144.074H221.047C221.878 144.074 222.674 144.424 223.262 145.047C223.849 145.671 224.179 146.516 224.179 147.397V151.956C224.179 152.837 223.849 153.683 223.262 154.306C222.674 154.929 221.878 155.279 221.047 155.279H211.601V144.074Z" fill="#F4F4F4"/>
<g opacity="0.05">
<path d="M211.601 144.074H221.047C221.878 144.074 222.674 144.424 223.262 145.047C223.849 145.671 224.179 146.516 224.179 147.397V151.956C224.179 152.837 223.849 153.683 223.262 154.306C222.674 154.929 221.878 155.279 221.047 155.279H211.601V144.074Z" fill="#292A2E"/>
</g>
<g opacity="0.05">
<path d="M222.973 136.339H222.961C222.942 136.337 222.924 136.33 222.908 136.319C222.892 136.307 222.879 136.292 222.87 136.274C222.835 136.184 222.833 136.084 222.864 135.993C222.918 135.751 222.904 135.497 222.825 135.263C222.814 135.232 222.815 135.198 222.828 135.168C222.84 135.138 222.864 135.115 222.893 135.104C222.922 135.092 222.954 135.093 222.982 135.107C223.01 135.12 223.032 135.145 223.043 135.176C223.119 135.399 223.145 135.639 223.119 135.875C223.255 135.744 223.406 135.634 223.569 135.545C223.582 135.538 223.597 135.534 223.612 135.533C223.628 135.531 223.643 135.533 223.658 135.539C223.672 135.544 223.685 135.552 223.697 135.562C223.709 135.573 223.718 135.586 223.725 135.6C223.732 135.615 223.736 135.631 223.737 135.647C223.738 135.663 223.736 135.679 223.732 135.695C223.727 135.71 223.719 135.724 223.709 135.737C223.699 135.749 223.687 135.759 223.673 135.766C223.438 135.896 223.23 136.076 223.063 136.295C223.052 136.308 223.038 136.32 223.023 136.327C223.007 136.335 222.99 136.339 222.973 136.339Z" fill="#292A2E"/>
<path d="M219.44 133.396C219.425 133.396 219.41 133.393 219.396 133.387C219.316 133.341 219.254 133.265 219.224 133.174C219.125 132.951 218.966 132.766 218.767 132.64C218.74 132.624 218.721 132.597 218.713 132.565C218.704 132.533 218.709 132.5 218.724 132.471C218.739 132.443 218.765 132.422 218.795 132.414C218.825 132.405 218.856 132.409 218.883 132.426C219.073 132.544 219.234 132.71 219.351 132.907C219.379 132.713 219.43 132.523 219.504 132.342C219.516 132.312 219.539 132.288 219.568 132.276C219.597 132.265 219.629 132.265 219.657 132.278C219.685 132.291 219.708 132.316 219.719 132.346C219.73 132.377 219.73 132.411 219.717 132.441C219.612 132.704 219.557 132.988 219.557 133.274C219.557 133.306 219.544 133.337 219.523 133.36C219.501 133.383 219.471 133.396 219.44 133.396Z" fill="#292A2E"/>
<path d="M216.462 137.382C216.447 137.382 216.432 137.379 216.418 137.373C216.337 137.329 216.276 137.253 216.246 137.162C216.148 136.939 215.988 136.752 215.788 136.626C215.761 136.61 215.742 136.583 215.734 136.551C215.726 136.52 215.73 136.486 215.745 136.458C215.761 136.429 215.786 136.408 215.816 136.4C215.846 136.391 215.878 136.396 215.904 136.412C216.094 136.531 216.255 136.696 216.373 136.894C216.4 136.699 216.451 136.509 216.525 136.328C216.531 136.314 216.54 136.3 216.551 136.289C216.562 136.278 216.575 136.269 216.589 136.263C216.603 136.257 216.619 136.254 216.634 136.254C216.649 136.255 216.664 136.258 216.678 136.265C216.692 136.271 216.705 136.281 216.716 136.292C216.726 136.304 216.735 136.318 216.74 136.333C216.746 136.348 216.749 136.364 216.748 136.38C216.748 136.397 216.745 136.413 216.738 136.428C216.633 136.691 216.579 136.974 216.578 137.26C216.578 137.293 216.566 137.324 216.544 137.347C216.522 137.37 216.493 137.382 216.462 137.382Z" fill="#292A2E"/>
<path d="M219.624 136.78C219.609 136.78 219.594 136.777 219.58 136.77C219.499 136.725 219.438 136.65 219.408 136.558C219.309 136.336 219.15 136.15 218.95 136.024C218.925 136.007 218.907 135.98 218.899 135.949C218.892 135.918 218.897 135.885 218.912 135.857C218.927 135.83 218.951 135.809 218.98 135.8C219.009 135.791 219.04 135.795 219.067 135.809C219.257 135.928 219.417 136.093 219.535 136.291C219.562 136.096 219.613 135.906 219.687 135.726C219.699 135.696 219.722 135.672 219.751 135.66C219.78 135.648 219.812 135.649 219.84 135.662C219.869 135.675 219.891 135.7 219.902 135.73C219.913 135.761 219.913 135.795 219.9 135.825C219.795 136.088 219.74 136.371 219.74 136.657C219.74 136.69 219.728 136.721 219.706 136.744C219.684 136.767 219.655 136.78 219.624 136.78Z" fill="#292A2E"/>
<path d="M221.635 140.266C221.616 140.265 221.598 140.261 221.582 140.252C221.565 140.243 221.55 140.229 221.539 140.213C221.529 140.196 221.522 140.177 221.519 140.157C221.517 140.06 221.548 139.966 221.608 139.893C221.74 139.689 221.813 139.447 221.818 139.199C221.818 139.183 221.821 139.167 221.827 139.152C221.832 139.137 221.841 139.123 221.852 139.112C221.863 139.1 221.875 139.091 221.89 139.085C221.904 139.079 221.919 139.076 221.934 139.076C221.949 139.076 221.964 139.08 221.979 139.086C221.993 139.092 222.005 139.101 222.016 139.113C222.027 139.124 222.035 139.138 222.041 139.153C222.047 139.168 222.05 139.184 222.05 139.201C222.046 139.44 221.989 139.674 221.884 139.885C222.055 139.817 222.234 139.774 222.416 139.757C222.447 139.754 222.477 139.765 222.501 139.786C222.524 139.807 222.539 139.837 222.542 139.87C222.543 139.886 222.542 139.902 222.537 139.917C222.532 139.933 222.525 139.947 222.515 139.96C222.505 139.972 222.493 139.982 222.479 139.99C222.466 139.997 222.451 140.002 222.436 140.003C222.174 140.03 221.92 140.114 221.69 140.251C221.673 140.261 221.654 140.266 221.635 140.266Z" fill="#292A2E"/>
<path d="M216.729 142.412C216.712 142.412 216.696 142.408 216.681 142.401C216.602 142.353 216.542 142.275 216.515 142.182C216.423 141.957 216.269 141.765 216.074 141.633C216.06 141.624 216.048 141.613 216.038 141.6C216.029 141.587 216.022 141.572 216.018 141.556C216.014 141.54 216.013 141.523 216.015 141.506C216.018 141.49 216.023 141.474 216.032 141.46C216.04 141.446 216.051 141.433 216.063 141.424C216.076 141.414 216.091 141.407 216.106 141.404C216.122 141.4 216.137 141.4 216.153 141.403C216.168 141.406 216.183 141.413 216.196 141.422C216.382 141.547 216.538 141.718 216.65 141.919C216.683 141.726 216.74 141.537 216.818 141.359C216.833 141.331 216.856 141.31 216.885 141.3C216.914 141.29 216.945 141.292 216.972 141.305C216.999 141.319 217.02 141.344 217.031 141.373C217.041 141.403 217.041 141.436 217.029 141.466C216.916 141.725 216.854 142.006 216.845 142.292C216.844 142.324 216.831 142.354 216.81 142.376C216.788 142.399 216.759 142.411 216.729 142.411V142.412Z" fill="#292A2E"/>
<path d="M219.648 143.56C219.644 143.56 219.64 143.56 219.636 143.56C219.617 143.558 219.598 143.551 219.582 143.54C219.567 143.528 219.554 143.513 219.545 143.495C219.51 143.406 219.507 143.306 219.538 143.215C219.592 142.972 219.579 142.718 219.499 142.484C219.488 142.453 219.489 142.419 219.502 142.389C219.515 142.359 219.538 142.336 219.567 142.324C219.596 142.313 219.628 142.314 219.656 142.328C219.685 142.341 219.706 142.366 219.717 142.397C219.794 142.62 219.82 142.86 219.794 143.096C219.929 142.965 220.081 142.854 220.243 142.766C220.257 142.758 220.272 142.753 220.288 142.752C220.303 142.75 220.319 142.751 220.334 142.756C220.349 142.761 220.363 142.769 220.375 142.78C220.387 142.791 220.397 142.804 220.404 142.819C220.411 142.834 220.415 142.85 220.416 142.867C220.417 142.883 220.415 142.9 220.41 142.916C220.405 142.931 220.397 142.946 220.386 142.958C220.375 142.97 220.362 142.98 220.348 142.987C220.113 143.117 219.905 143.297 219.738 143.516C219.727 143.529 219.713 143.541 219.697 143.548C219.682 143.556 219.665 143.56 219.648 143.56Z" fill="#292A2E"/>
</g>
<g opacity="0.05">
<path d="M214.414 131.765H214.403C214.384 131.763 214.365 131.756 214.349 131.745C214.334 131.733 214.321 131.718 214.312 131.7C214.276 131.61 214.274 131.51 214.305 131.419C214.359 131.177 214.346 130.923 214.266 130.689C214.255 130.658 214.256 130.624 214.269 130.594C214.282 130.564 214.305 130.541 214.334 130.53C214.363 130.518 214.395 130.519 214.423 130.533C214.451 130.546 214.473 130.571 214.484 130.602C214.561 130.825 214.587 131.065 214.561 131.301C214.696 131.17 214.847 131.059 215.01 130.971C215.023 130.963 215.039 130.958 215.054 130.957C215.07 130.955 215.086 130.956 215.101 130.961C215.116 130.966 215.13 130.974 215.142 130.985C215.153 130.996 215.163 131.009 215.17 131.024C215.177 131.039 215.182 131.055 215.183 131.072C215.184 131.088 215.181 131.105 215.176 131.121C215.171 131.136 215.163 131.151 215.152 131.163C215.142 131.175 215.129 131.185 215.115 131.192C214.879 131.322 214.671 131.502 214.504 131.721C214.493 131.734 214.479 131.746 214.464 131.753C214.448 131.761 214.431 131.765 214.414 131.765Z" fill="#292A2E"/>
<path d="M211.965 128.998C211.95 128.998 211.935 128.995 211.921 128.989C211.84 128.944 211.778 128.868 211.749 128.776C211.65 128.554 211.491 128.368 211.291 128.242C211.266 128.225 211.248 128.198 211.24 128.167C211.233 128.136 211.238 128.103 211.253 128.076C211.268 128.048 211.292 128.027 211.321 128.019C211.35 128.01 211.381 128.013 211.408 128.028C211.598 128.147 211.758 128.312 211.876 128.51C211.903 128.315 211.954 128.125 212.028 127.944C212.034 127.929 212.043 127.915 212.054 127.904C212.065 127.892 212.078 127.883 212.092 127.877C212.106 127.871 212.122 127.868 212.137 127.868C212.153 127.869 212.168 127.872 212.182 127.879C212.196 127.885 212.209 127.895 212.22 127.907C212.23 127.919 212.239 127.933 212.244 127.948C212.25 127.963 212.252 127.98 212.252 127.996C212.251 128.012 212.248 128.028 212.241 128.043C212.136 128.306 212.082 128.589 212.081 128.875C212.081 128.908 212.069 128.939 212.047 128.962C212.025 128.985 211.996 128.998 211.965 128.998Z" fill="#292A2E"/>
<path d="M211.572 131.942C211.557 131.942 211.542 131.939 211.528 131.932C211.447 131.887 211.385 131.811 211.356 131.719C211.257 131.497 211.098 131.311 210.899 131.186C210.885 131.178 210.874 131.167 210.864 131.154C210.855 131.141 210.848 131.127 210.844 131.111C210.836 131.079 210.84 131.045 210.856 131.017C210.871 130.989 210.896 130.968 210.926 130.959C210.956 130.951 210.988 130.955 211.015 130.971C211.205 131.09 211.365 131.255 211.483 131.453C211.511 131.259 211.562 131.069 211.635 130.888C211.648 130.858 211.671 130.834 211.699 130.822C211.728 130.81 211.76 130.811 211.789 130.824C211.817 130.837 211.839 130.862 211.851 130.892C211.862 130.923 211.861 130.957 211.849 130.987C211.744 131.25 211.689 131.533 211.689 131.819C211.688 131.852 211.676 131.883 211.654 131.906C211.632 131.929 211.603 131.942 211.572 131.942Z" fill="#292A2E"/>
<path d="M213.583 135.427C213.555 135.427 213.527 135.415 213.506 135.395C213.484 135.375 213.471 135.347 213.467 135.317C213.465 135.221 213.497 135.127 213.556 135.054C213.688 134.849 213.761 134.608 213.766 134.36C213.766 134.327 213.779 134.296 213.801 134.273C213.822 134.25 213.852 134.237 213.882 134.237C213.898 134.238 213.913 134.241 213.927 134.247C213.941 134.254 213.954 134.263 213.965 134.274C213.975 134.286 213.984 134.3 213.989 134.315C213.995 134.33 213.998 134.346 213.998 134.362C213.994 134.601 213.937 134.836 213.832 135.047C214.003 134.978 214.182 134.935 214.364 134.918C214.395 134.916 214.425 134.927 214.448 134.948C214.472 134.969 214.487 134.998 214.49 135.031C214.491 135.047 214.489 135.063 214.485 135.079C214.48 135.094 214.473 135.109 214.463 135.121C214.453 135.133 214.441 135.143 214.427 135.151C214.414 135.158 214.399 135.163 214.384 135.164C214.122 135.191 213.868 135.275 213.638 135.412C213.621 135.422 213.603 135.427 213.583 135.427Z" fill="#292A2E"/>
<path d="M211.146 134.659C211.064 134.651 210.986 134.615 210.926 134.555C210.743 134.408 210.523 134.323 210.294 134.312C210.279 134.311 210.263 134.308 210.25 134.301C210.236 134.294 210.223 134.285 210.212 134.273C210.202 134.261 210.194 134.247 210.188 134.232C210.183 134.217 210.18 134.2 210.181 134.184C210.181 134.168 210.185 134.152 210.191 134.137C210.197 134.122 210.206 134.109 210.217 134.097C210.228 134.086 210.242 134.078 210.256 134.072C210.27 134.066 210.286 134.064 210.301 134.065C210.521 134.074 210.735 134.141 210.924 134.258C210.865 134.069 210.829 133.873 210.818 133.675C210.816 133.642 210.826 133.61 210.847 133.586C210.867 133.561 210.896 133.546 210.927 133.544C210.942 133.543 210.958 133.544 210.972 133.549C210.987 133.554 211.001 133.563 211.012 133.573C211.024 133.584 211.033 133.598 211.039 133.613C211.046 133.628 211.049 133.644 211.049 133.66C211.068 133.945 211.14 134.224 211.261 134.479C211.27 134.497 211.274 134.516 211.274 134.536C211.273 134.556 211.268 134.576 211.259 134.593C211.25 134.611 211.237 134.626 211.222 134.637C211.206 134.648 211.188 134.655 211.169 134.657C211.162 134.658 211.154 134.659 211.146 134.659Z" fill="#292A2E"/>
</g>
<path d="M201.529 148.314H179.62V155.076H201.529V148.314Z" fill="#F4F4F4"/>
<path opacity="0.05" d="M198.586 148.314H195.716V155.076H198.586V148.314Z" fill="#292A2E"/>
<path d="M194.356 149.784H182.42V153.791H194.356V149.784Z" fill="white"/>
<path d="M182.502 139.765L162.146 149.197L164.697 155.394L185.054 145.962L182.502 139.765Z" fill="#F4F4F4"/>
<path opacity="0.05" d="M182.502 139.765L162.146 149.197L164.697 155.394L185.054 145.962L182.502 139.765Z" fill="#292A2E"/>
<path d="M167.547 146.695L164.879 147.93L167.431 154.127L170.098 152.891L167.547 146.695Z" fill="white"/>
<path d="M180.455 142.317L169.364 147.456L170.876 151.128L181.967 145.99L180.455 142.317Z" fill="white"/>
<path opacity="0.05" d="M167.613 214.597H162.107V218.497H167.613V214.597Z" fill="#292A2E"/>
<path opacity="0.05" d="M248.449 214.597H242.943V218.497H248.449V214.597Z" fill="#292A2E"/>
<path d="M253.496 155.171H157.06V214.597H253.496V155.171Z" fill="#F4F4F4"/>
<path opacity="0.03" d="M253.496 155.171H157.06V214.597H253.496V155.171Z" fill="#292A2E"/>
<path d="M240.174 155.171H143.738V214.597H240.174V155.171Z" fill="#F4F4F4"/>
<path opacity="0.05" d="M154.291 214.597H148.785V218.497H154.291V214.597Z" fill="#292A2E"/>
<path opacity="0.05" d="M235.127 214.597H229.621V218.497H235.127V214.597Z" fill="#292A2E"/>
<path opacity="0.7" d="M237.475 158.845H146.436V173.917H237.475V158.845Z" fill="white"/>
<path opacity="0.7" d="M237.475 177.606H146.436V192.679H237.475V177.606Z" fill="white"/>
<path opacity="0.7" d="M237.475 196.367H146.436V211.439H237.475V196.367Z" fill="white"/>
<path opacity="0.05" d="M162.538 168.49C163.636 168.49 164.526 167.546 164.526 166.381C164.526 165.216 163.636 164.272 162.538 164.272C161.44 164.272 160.55 165.216 160.55 166.381C160.55 167.546 161.44 168.49 162.538 168.49Z" fill="#292A2E"/>
<path opacity="0.05" d="M221.373 168.49C222.471 168.49 223.361 167.546 223.361 166.381C223.361 165.216 222.471 164.272 221.373 164.272C220.275 164.272 219.385 165.216 219.385 166.381C219.385 167.546 220.275 168.49 221.373 168.49Z" fill="#292A2E"/>
<path opacity="0.05" d="M162.538 187.251C163.636 187.251 164.526 186.307 164.526 185.142C164.526 183.978 163.636 183.034 162.538 183.034C161.44 183.034 160.55 183.978 160.55 185.142C160.55 186.307 161.44 187.251 162.538 187.251Z" fill="#292A2E"/>
<path opacity="0.05" d="M221.373 187.251C222.471 187.251 223.361 186.307 223.361 185.142C223.361 183.978 222.471 183.034 221.373 183.034C220.275 183.034 219.385 183.978 219.385 185.142C219.385 186.307 220.275 187.251 221.373 187.251Z" fill="#292A2E"/>
<path opacity="0.05" d="M162.538 206.012C163.636 206.012 164.526 205.068 164.526 203.904C164.526 202.739 163.636 201.795 162.538 201.795C161.44 201.795 160.55 202.739 160.55 203.904C160.55 205.068 161.44 206.012 162.538 206.012Z" fill="#292A2E"/>
<path opacity="0.05" d="M221.373 206.012C222.471 206.012 223.361 205.068 223.361 203.904C223.361 202.739 222.471 201.795 221.373 201.795C220.275 201.795 219.385 202.739 219.385 203.904C219.385 205.068 220.275 206.012 221.373 206.012Z" fill="#292A2E"/>
<path d="M226.157 13.1586H183.649V71.8517H226.157V13.1586Z" fill="#F4F4F4"/>
<path d="M226.157 71.8517H227.536V13.1586H226.157V71.8517Z" fill="#F4F4F4"/>
<path opacity="0.05" d="M226.157 71.8517H227.536V13.1586H226.157V71.8517Z" fill="#292A2E"/>
<path opacity="0.05" d="M218.414 23.8503H191.392V61.1602H218.414V23.8503Z" fill="#292A2E"/>
<path opacity="0.03" d="M218.414 23.8503H217.005V61.1602H218.414V23.8503Z" fill="#292A2E"/>
<path d="M260.922 86.285H226.157V123.502H260.922V86.285Z" fill="#F4F4F4"/>
<path opacity="0.05" d="M254.589 93.0645H232.49V116.722H254.589V93.0645Z" fill="#292A2E"/>
<path d="M260.922 123.502H262.301V86.285H260.922V123.502Z" fill="#F4F4F4"/>
<path opacity="0.05" d="M260.922 123.502H262.301V86.285H260.922V123.502Z" fill="#292A2E"/>
<path opacity="0.03" d="M254.589 93.0645H253.181V116.722H254.589V93.0645Z" fill="#292A2E"/>
<path d="M92.2414 25.251H3.53369V119.352H92.2414V25.251Z" fill="#F4F4F4"/>
<path d="M93.2585 25.251H92.2417V119.352H93.2585V25.251Z" fill="#F4F4F4"/>
<path opacity="0.05" d="M93.2585 25.251H92.2417V119.352H93.2585V25.251Z" fill="#292A2E"/>
<path opacity="0.05" d="M70.7518 90.094V65.4743H51.7403V79.7777H22.2914V105.104H9.77515V119.352H22.2914H24.7025H87.9743V90.094H70.7518Z" fill="#292A2E"/>
<path opacity="0.34" d="M68.025 68.1474H54.1807V70.8205H68.025V68.1474Z" fill="#FFFFFA"/>
<path opacity="0.34" d="M68.025 73.6868H54.1807V76.3599H68.025V73.6868Z" fill="#FFFFFA"/>
<path opacity="0.34" d="M68.025 79.226H54.1807V81.8991H68.025V79.226Z" fill="#FFFFFA"/>
<path opacity="0.34" d="M85.5196 92.689H82.9678V95.3621H85.5196V92.689Z" fill="#FFFFFA"/>
<path opacity="0.34" d="M85.5196 98.2281H82.9678V100.901H85.5196V98.2281Z" fill="#FFFFFA"/>
<path opacity="0.34" d="M85.5196 103.768H82.9678V106.441H85.5196V103.768Z" fill="#FFFFFA"/>
<path opacity="0.34" d="M80.7989 92.689H78.2471V95.3621H80.7989V92.689Z" fill="#FFFFFA"/>
<path opacity="0.34" d="M80.7989 98.2281H78.2471V100.901H80.7989V98.2281Z" fill="#FFFFFA"/>
<path opacity="0.34" d="M80.7989 103.768H78.2471V106.441H80.7989V103.768Z" fill="#FFFFFA"/>
<path opacity="0.34" d="M76.2059 92.689H73.6541V95.3621H76.2059V92.689Z" fill="#FFFFFA"/>
<path opacity="0.34" d="M76.2059 98.2281H73.6541V100.901H76.2059V98.2281Z" fill="#FFFFFA"/>
<path opacity="0.34" d="M76.2059 103.768H73.6541V106.441H76.2059V103.768Z" fill="#FFFFFA"/>
<path d="M92.2417 71.7735H74.3922V25.251H72.9161V71.7735H24.7026V25.251H23.2265V71.7735H3.53369V73.3394H23.2265V119.352H24.7026V73.3394H72.9161V119.352H74.3922V73.3394H92.2417V71.7735Z" fill="white"/>
<path d="M95.7754 119.238H0V122.368H95.7754V119.238Z" fill="#F4F4F4"/>
<path opacity="0.1" d="M95.7754 119.238H0V122.368H95.7754V119.238Z" fill="#292A2E"/>
<path opacity="0.1" d="M97.1582 119.238H95.7754V122.368H97.1582V119.238Z" fill="#292A2E"/>
<path opacity="0.1" d="M97.1582 119.238H95.7754V122.368H97.1582V119.238Z" fill="#292A2E"/>
<path d="M38.4305 137.056L195.502 137.056C199.359 137.056 202.486 133.739 202.486 129.647L202.486 7.65558C202.486 3.56383 199.359 0.246796 195.502 0.246796L38.4305 0.246796C34.5732 0.246796 31.4463 3.56383 31.4463 7.65558L31.4463 129.647C31.4463 133.739 34.5732 137.056 38.4305 137.056Z" fill="white"/>
<path d="M31.2134 129.647V7.65587C31.2155 5.62619 31.9764 3.68027 33.3293 2.24501C34.6822 0.809753 36.5166 0.00237403 38.4299 0L195.502 0C197.416 0.00229746 199.25 0.809643 200.603 2.24491C201.956 3.68017 202.717 5.62614 202.719 7.65587V129.647C202.717 131.677 201.956 133.623 200.603 135.058C199.25 136.493 197.416 137.301 195.502 137.303H38.4299C36.5166 137.3 34.6823 136.493 33.3294 135.058C31.9765 133.623 31.2155 131.677 31.2134 129.647ZM38.4299 0.49388C36.64 0.496101 34.924 1.25139 33.6583 2.59405C32.3926 3.93671 31.6807 5.7571 31.6787 7.65587V129.647C31.6806 131.546 32.3925 133.366 33.6582 134.709C34.9239 136.052 36.64 136.807 38.4299 136.809H195.502C197.292 136.807 199.008 136.052 200.274 134.709C201.54 133.366 202.251 131.546 202.253 129.647V7.65587C202.251 5.75708 201.54 3.93664 200.274 2.59396C199.008 1.25129 197.292 0.496025 195.502 0.49388H38.4299Z" fill="#292A2E"/>
<path d="M31.4478 7.65476V15.1098H202.486V7.65476C202.486 6.68175 202.306 5.71827 201.955 4.81934C201.604 3.92041 201.089 3.10363 200.441 2.41565C199.792 1.72767 199.022 1.18196 198.174 0.809683C197.327 0.437408 196.419 0.245858 195.501 0.245972H38.43C36.578 0.246509 34.8021 1.02731 33.4927 2.41667C32.1833 3.80603 31.4478 5.69018 31.4478 7.65476Z" fill="#292A2E"/>
<path d="M147.153 103.276H186.418L192.347 107.987V83.4025C192.347 82.9268 192.259 82.4557 192.087 82.0162C191.916 81.5767 191.664 81.1774 191.347 80.841C191.03 80.5046 190.654 80.2378 190.239 80.0557C189.825 79.8737 189.381 79.7801 188.932 79.7801H147.153C146.704 79.7799 146.26 79.8735 145.846 80.0554C145.431 80.2374 145.055 80.5042 144.737 80.8406C144.42 81.177 144.168 81.5763 143.997 82.0159C143.825 82.4555 143.737 82.9267 143.737 83.4025V99.6534C143.737 100.129 143.825 100.6 143.997 101.04C144.168 101.479 144.42 101.879 144.737 102.215C145.055 102.552 145.431 102.818 145.846 103C146.26 103.182 146.704 103.276 147.153 103.276Z" fill="#9E68DB"/>
<path opacity="0.11" d="M147.153 103.276H186.418L192.347 107.987V83.4025C192.347 82.9268 192.259 82.4557 192.087 82.0162C191.916 81.5767 191.664 81.1774 191.347 80.841C191.03 80.5046 190.654 80.2378 190.239 80.0557C189.825 79.8737 189.381 79.7801 188.932 79.7801H147.153C146.704 79.7799 146.26 79.8735 145.846 80.0554C145.431 80.2374 145.055 80.5042 144.737 80.8406C144.42 81.177 144.168 81.5763 143.997 82.0159C143.825 82.4555 143.737 82.9267 143.737 83.4025V99.6534C143.737 100.129 143.825 100.6 143.997 101.04C144.168 101.479 144.42 101.879 144.737 102.215C145.055 102.552 145.431 102.818 145.846 103C146.26 103.182 146.704 103.276 147.153 103.276Z" fill="white"/>
<path opacity="0.49" d="M147.153 103.276H186.418L192.347 107.987V83.4025C192.347 82.9268 192.259 82.4557 192.087 82.0162C191.916 81.5767 191.664 81.1774 191.347 80.841C191.03 80.5046 190.654 80.2378 190.239 80.0557C189.825 79.8737 189.381 79.7801 188.932 79.7801H147.153C146.704 79.7799 146.26 79.8735 145.846 80.0554C145.431 80.2374 145.055 80.5042 144.737 80.8406C144.42 81.177 144.168 81.5763 143.997 82.0159C143.825 82.4555 143.737 82.9267 143.737 83.4025V99.6534C143.737 100.129 143.825 100.6 143.997 101.04C144.168 101.479 144.42 101.879 144.737 102.215C145.055 102.552 145.431 102.818 145.846 103C146.26 103.182 146.704 103.276 147.153 103.276Z" fill="white"/>
<path d="M147.923 89.5584H188.162C188.182 89.5594 188.202 89.556 188.221 89.5484C188.239 89.5409 188.256 89.5295 188.271 89.5148C188.285 89.5001 188.297 89.4824 188.305 89.4628C188.313 89.4432 188.317 89.4222 188.317 89.4009C188.317 89.3796 188.313 89.3586 188.305 89.339C188.297 89.3194 188.285 89.3018 188.271 89.287C188.256 89.2723 188.239 89.2609 188.221 89.2534C188.202 89.2459 188.182 89.2425 188.162 89.2434H147.923C147.903 89.2425 147.883 89.2459 147.864 89.2534C147.846 89.2609 147.828 89.2723 147.814 89.287C147.799 89.3018 147.788 89.3194 147.78 89.339C147.772 89.3586 147.768 89.3796 147.768 89.4009C147.768 89.4222 147.772 89.4432 147.78 89.4628C147.788 89.4824 147.799 89.5001 147.814 89.5148C147.828 89.5295 147.846 89.5409 147.864 89.5484C147.883 89.556 147.903 89.5594 147.923 89.5584Z" fill="white"/>
<path d="M147.923 85.0742H188.162C188.182 85.0751 188.202 85.0717 188.221 85.0642C188.239 85.0567 188.256 85.0452 188.271 85.0305C188.285 85.0158 188.297 84.9981 188.305 84.9786C188.313 84.959 188.317 84.9379 188.317 84.9167C188.317 84.8954 188.313 84.8743 188.305 84.8548C188.297 84.8352 188.285 84.8175 188.271 84.8028C188.256 84.7881 188.239 84.7766 188.221 84.7691C188.202 84.7616 188.182 84.7582 188.162 84.7591H147.923C147.903 84.7582 147.883 84.7616 147.864 84.7691C147.846 84.7766 147.828 84.7881 147.814 84.8028C147.799 84.8175 147.788 84.8352 147.78 84.8548C147.772 84.8743 147.768 84.8954 147.768 84.9167C147.768 84.9379 147.772 84.959 147.78 84.9786C147.788 84.9981 147.799 85.0158 147.814 85.0305C147.828 85.0452 147.846 85.0567 147.864 85.0642C147.883 85.0717 147.903 85.0751 147.923 85.0742Z" fill="white"/>
<path d="M147.923 94.2861H188.162C188.182 94.287 188.202 94.2836 188.221 94.2761C188.239 94.2686 188.256 94.2571 188.271 94.2424C188.285 94.2277 188.297 94.21 188.305 94.1904C188.313 94.1708 188.317 94.1498 188.317 94.1285C188.317 94.1072 188.313 94.0862 188.305 94.0666C188.297 94.047 188.285 94.0294 188.271 94.0146C188.256 93.9999 188.239 93.9885 188.221 93.981C188.202 93.9735 188.182 93.9701 188.162 93.971H147.923C147.903 93.9701 147.883 93.9735 147.864 93.981C147.846 93.9885 147.828 93.9999 147.814 94.0146C147.799 94.0294 147.788 94.047 147.78 94.0666C147.772 94.0862 147.768 94.1072 147.768 94.1285C147.768 94.1498 147.772 94.1708 147.78 94.1904C147.788 94.21 147.799 94.2277 147.814 94.2424C147.828 94.2571 147.846 94.2686 147.864 94.2761C147.883 94.2836 147.903 94.287 147.923 94.2861Z" fill="white"/>
<path d="M147.923 99.0137H171.821C171.859 99.0119 171.895 98.9945 171.922 98.9652C171.949 98.9358 171.963 98.8968 171.963 98.8561C171.963 98.8155 171.949 98.7764 171.922 98.747C171.895 98.7177 171.859 98.7003 171.821 98.6986H147.923C147.903 98.6977 147.883 98.7011 147.864 98.7086C147.846 98.7161 147.828 98.7275 147.814 98.7422C147.799 98.757 147.788 98.7746 147.78 98.7942C147.772 98.8138 147.768 98.8348 147.768 98.8561C147.768 98.8774 147.772 98.8984 147.78 98.918C147.788 98.9376 147.799 98.9553 147.814 98.97C147.828 98.9847 147.846 98.9962 147.864 99.0037C147.883 99.0112 147.903 99.0146 147.923 99.0137Z" fill="white"/>
<path d="M144.762 67.8897H186.819L192.346 72.2813V53.7034C192.346 52.8078 192.011 51.9489 191.414 51.3157C190.817 50.6824 190.007 50.3267 189.163 50.3267H144.76C143.916 50.3267 143.106 50.6824 142.509 51.3157C141.912 51.9489 141.577 52.8078 141.577 53.7034V64.5129C141.577 64.9565 141.659 65.3957 141.819 65.8055C141.979 66.2153 142.214 66.5877 142.51 66.9012C142.806 67.2148 143.157 67.4635 143.543 67.6331C143.929 67.8027 144.344 67.8899 144.762 67.8897Z" fill="#9E68DB"/>
<path opacity="0.11" d="M144.762 67.8897H186.819L192.346 72.2813V53.7034C192.346 52.8078 192.011 51.9489 191.414 51.3157C190.817 50.6824 190.007 50.3267 189.163 50.3267H144.76C143.916 50.3267 143.106 50.6824 142.509 51.3157C141.912 51.9489 141.577 52.8078 141.577 53.7034V64.5129C141.577 64.9565 141.659 65.3957 141.819 65.8055C141.979 66.2153 142.214 66.5877 142.51 66.9012C142.806 67.2148 143.157 67.4635 143.543 67.6331C143.929 67.8027 144.344 67.8899 144.762 67.8897Z" fill="white"/>
<path opacity="0.49" d="M144.762 67.8897H186.819L192.346 72.2813V53.7034C192.346 52.8078 192.011 51.9489 191.414 51.3157C190.817 50.6824 190.007 50.3267 189.163 50.3267H144.76C143.916 50.3267 143.106 50.6824 142.509 51.3157C141.912 51.9489 141.577 52.8078 141.577 53.7034V64.5129C141.577 64.9565 141.659 65.3957 141.819 65.8055C141.979 66.2153 142.214 66.5877 142.51 66.9012C142.806 67.2148 143.157 67.4635 143.543 67.6331C143.929 67.8027 144.344 67.8899 144.762 67.8897Z" fill="white"/>
<path d="M145.48 55.1023H188.446C188.481 55.1006 188.515 55.0844 188.54 55.057C188.564 55.0297 188.578 54.9933 188.578 54.9554C188.578 54.9176 188.564 54.8812 188.54 54.8538C188.515 54.8265 188.481 54.8103 188.446 54.8086H145.48C145.444 54.8103 145.411 54.8265 145.386 54.8538C145.361 54.8812 145.347 54.9176 145.347 54.9554C145.347 54.9933 145.361 55.0297 145.386 55.057C145.411 55.0844 145.444 55.1006 145.48 55.1023Z" fill="white"/>
<path d="M145.48 59.5093H188.446C188.481 59.5076 188.515 59.4914 188.54 59.4641C188.564 59.4367 188.578 59.4003 188.578 59.3625C188.578 59.3246 188.564 59.2882 188.54 59.2609C188.515 59.2335 188.481 59.2173 188.446 59.2156H145.48C145.444 59.2173 145.411 59.2335 145.386 59.2609C145.361 59.2882 145.347 59.3246 145.347 59.3625C145.347 59.4003 145.361 59.4367 145.386 59.4641C145.411 59.4914 145.444 59.5076 145.48 59.5093Z" fill="white"/>
<path d="M145.48 63.9163H173.213C173.231 63.9172 173.25 63.914 173.267 63.9071C173.285 63.9001 173.301 63.8894 173.315 63.8757C173.328 63.862 173.339 63.8455 173.346 63.8272C173.353 63.809 173.357 63.7893 173.357 63.7695C173.357 63.7496 173.353 63.73 173.346 63.7117C173.339 63.6935 173.328 63.677 173.315 63.6633C173.301 63.6495 173.285 63.6389 173.267 63.6319C173.25 63.6249 173.231 63.6218 173.213 63.6226H145.48C145.444 63.6243 145.411 63.6405 145.386 63.6679C145.361 63.6952 145.347 63.7316 145.347 63.7695C145.347 63.8073 145.361 63.8437 145.386 63.8711C145.411 63.8984 145.444 63.9146 145.48 63.9163Z" fill="white"/>
<path d="M240.864 219.22C240.864 219.22 239.633 225.99 233.656 226.369C227.679 226.747 228.975 231.797 228.975 231.797H251.815V219.692L240.864 219.22Z" fill="#9E68DB"/>
<path d="M253.364 95.6976C253.364 95.6976 253.292 93.6619 253.307 98.2796C253.364 115.503 252.823 223.541 252.823 223.541L237.815 223.408L228.724 94.9977L253.364 95.6976Z" fill="#262626"/>
<path d="M215.236 219.22C215.236 219.22 214.005 225.99 208.028 226.369C202.052 226.747 203.348 231.797 203.348 231.797H226.188V219.692L215.236 219.22Z" fill="#9E68DB"/>
<path d="M212.332 97.0349C212.332 97.0349 210.458 155.9 210.653 158.777L212.415 223.094L227.176 223.384L229.556 156.45C229.556 156.45 231.116 137.986 235.321 120.842C237.473 112.042 238.768 103.032 239.185 93.9524L212.332 97.0349Z" fill="#262626"/>
<path d="M231.806 138.77L230.575 118.804C230.575 118.804 229.311 127.105 229.311 134.259C229.311 137.756 229.99 151.602 229.99 151.602L231.806 138.77Z" fill="#0A0A0A"/>
<path d="M253.527 95.6959L253.576 95.6988C253.576 95.6988 253.541 94.6948 253.527 95.6959Z" fill="#333333"/>
<path d="M253.465 95.6959L253.514 95.6988C253.514 95.6988 253.478 94.6948 253.465 95.6959Z" fill="#333333"/>
<path d="M171.225 47.9171C171.315 47.7271 171.459 47.5716 171.636 47.4721C171.814 47.3725 172.016 47.3338 172.215 47.3613C172.213 47.3426 172.217 47.3238 172.225 47.3075C172.235 47.2948 172.247 47.2849 172.261 47.2789C172.275 47.2728 172.29 47.2708 172.305 47.273L171.634 46.7627C171.433 46.6169 171.289 46.3988 171.227 46.1488C171.166 45.8988 171.193 45.6338 171.302 45.4028C171.416 45.1783 171.605 45.0069 171.832 44.9218C172.059 44.8367 172.307 44.8441 172.529 44.9425C172.527 44.9324 172.534 44.9228 172.535 44.9136L172.259 44.7038C172.071 44.5656 171.933 44.3626 171.869 44.1289C171.805 43.8953 171.82 43.6455 171.91 43.4218C171.969 43.2828 172.056 43.1594 172.166 43.0606C172.275 42.9618 172.404 42.89 172.543 42.8504C172.682 42.8108 172.827 42.8044 172.969 42.8316C173.11 42.8588 173.244 42.919 173.361 43.0078L173.997 43.4915C173.999 43.4875 173.997 43.4829 174 43.4791C174.002 43.4753 174.01 43.4742 174.013 43.4701C173.867 43.2957 173.781 43.0738 173.77 42.8408C173.758 42.6079 173.821 42.3776 173.949 42.1878C174.249 41.6751 174.943 41.7799 175.354 42.0926L179.1 44.8372L178.43 43.6417C178.296 43.4115 178.249 43.1358 178.298 42.8701C178.347 42.6044 178.49 42.3685 178.697 42.2098C178.807 42.132 178.93 42.0787 179.06 42.0532C179.189 42.0277 179.322 42.0304 179.451 42.0613C179.58 42.0921 179.701 42.1505 179.808 42.2327C179.914 42.315 180.004 42.4194 180.072 42.5397L183.726 49.0677C184.155 49.8336 184.286 50.7466 184.09 51.6128C183.894 52.479 183.388 53.2302 182.679 53.7068C181.856 54.2594 180.896 54.5388 179.923 54.5092C178.95 54.4795 178.007 54.1422 177.215 53.5404L171.559 49.2396C171.371 49.0913 171.236 48.88 171.175 48.64C171.114 48.3999 171.132 48.1452 171.225 47.9171Z" fill="#E98862"/>
<g opacity="0.25">
<path d="M177.704 46.2037C177.69 46.2237 177.67 46.2372 177.647 46.2414C177.624 46.2455 177.6 46.24 177.581 46.226L174.022 43.611C174.012 43.6042 174.003 43.5952 173.996 43.5846C173.989 43.574 173.984 43.5621 173.982 43.5495C173.98 43.5369 173.98 43.524 173.982 43.5114C173.985 43.4988 173.989 43.4869 173.996 43.4764C174.003 43.4658 174.012 43.4569 174.022 43.4501C174.032 43.4432 174.044 43.4387 174.056 43.4367C174.068 43.4347 174.08 43.4352 174.092 43.4383C174.103 43.4415 174.114 43.4471 174.124 43.4548L177.683 46.0697C177.702 46.0841 177.715 46.1061 177.72 46.1309C177.724 46.1557 177.719 46.1812 177.705 46.202L177.704 46.2037Z" fill="#0C0C0C"/>
</g>
<g opacity="0.25">
<path d="M176.66 47.9003C176.647 47.9204 176.626 47.934 176.603 47.9381C176.58 47.9423 176.556 47.9367 176.537 47.9226L172.566 45.0045C172.547 44.9901 172.533 44.9681 172.529 44.9433C172.525 44.9185 172.53 44.893 172.543 44.8722C172.558 44.8523 172.578 44.8387 172.601 44.8342C172.624 44.8298 172.648 44.8348 172.668 44.8482L176.639 47.7678C176.658 47.7822 176.672 47.8042 176.676 47.829C176.68 47.8537 176.675 47.8793 176.661 47.9L176.66 47.9003Z" fill="#0C0C0C"/>
</g>
<g opacity="0.25">
<path d="M175.539 49.745C175.525 49.7652 175.505 49.7788 175.482 49.7829C175.459 49.7871 175.435 49.7815 175.416 49.7673L172.248 47.4397C172.238 47.4326 172.23 47.4235 172.223 47.413C172.217 47.4025 172.213 47.3908 172.21 47.3785C172.208 47.3663 172.209 47.3537 172.211 47.3415C172.213 47.3293 172.218 47.3177 172.225 47.3075C172.232 47.2972 172.24 47.2884 172.25 47.2817C172.26 47.2749 172.271 47.2703 172.283 47.2681C172.294 47.2658 172.306 47.266 172.318 47.2687C172.329 47.2713 172.34 47.2763 172.35 47.2834L175.518 49.6111C175.537 49.6255 175.551 49.6474 175.555 49.6722C175.559 49.697 175.554 49.7226 175.54 49.7433L175.539 49.745Z" fill="#0C0C0C"/>
</g>
<path d="M185.883 47.5806L196.618 66.975L209.717 48.7497L220.595 59.1531L202.018 84.6746L201.896 84.8563C201.152 85.9367 200.162 86.7985 199.017 87.3604C197.873 87.9224 196.613 88.1661 195.355 88.0684C194.097 87.9708 192.884 87.5351 191.829 86.8024C190.774 86.0697 189.912 85.0641 189.325 83.8803L174.06 54.5559L185.883 47.5806Z" fill="#9E68DB"/>
<path d="M197.67 69.3069C197.692 69.3071 197.713 69.3016 197.733 69.291C197.765 69.2736 197.789 69.2433 197.8 69.2069C197.811 69.1704 197.808 69.1308 197.792 69.0966L196.74 66.909C196.732 66.8915 196.721 66.8759 196.707 66.863C196.693 66.8501 196.678 66.8403 196.66 66.834C196.643 66.8278 196.625 66.8253 196.606 66.8267C196.588 66.8281 196.571 66.8334 196.554 66.8422C196.538 66.851 196.524 66.8632 196.512 66.878C196.5 66.8929 196.491 66.91 196.486 66.9285C196.481 66.947 196.479 66.9665 196.481 66.9858C196.483 67.005 196.488 67.0237 196.497 67.0406L197.549 69.2282C197.561 69.2519 197.578 69.2718 197.599 69.2857C197.621 69.2996 197.645 69.3069 197.67 69.3069Z" fill="#0C0C0C"/>
<path d="M245.062 22.5324C245.062 22.5324 245.565 29.3507 247.039 31.8088C251.283 38.8846 252.578 46.8876 248.451 51.1274C244.325 55.3672 217.713 55.7523 215.593 46.1426C213.807 38.0522 217.44 37.1353 218.253 30.4322C218.621 27.3995 219.655 21.0375 219.655 21.0375" fill="#0A0A0A"/>
<path d="M222.369 44.6066C222.415 44.6002 222.925 53.5731 232.752 52.7908C239.555 52.2503 241.98 44.5939 242.136 44.5939C241.403 44.4284 240.168 44.1888 239.842 44.0036C238.771 43.3929 237.445 42.7578 237.1 40.5508C236.901 39.2778 237.238 32.7723 237.134 31.4854L226.692 33.9579C226.838 36.6756 227.859 42.9762 224.28 44.0913C223.683 44.2759 223.041 44.4454 222.369 44.6066Z" fill="#E98862"/>
<path opacity="0.52" d="M226.544 41.5163C226.708 40.9571 226.813 40.3806 226.859 39.7971C226.973 38.4655 226.951 37.1246 226.79 35.7983C228.913 35.4946 230.912 34.5654 232.562 33.1163C232.756 33.8758 233.822 37.1958 233.527 37.9171C232.969 39.2818 230.346 41.5163 226.544 41.5163Z" fill="#0C0C0C"/>
<path d="M227.929 38.6922C232.05 39.0642 237.357 37.2522 238.397 31.4228L239.336 26.1632C240.376 20.3341 238.332 15.0293 233.159 13.9906C227.985 12.9519 223.275 16.901 222.235 22.73L221.819 25.0588C221.42 27.2953 220.575 38.0285 227.929 38.6922Z" fill="#E98862"/>
<path d="M223.294 25.3126C223.652 25.3126 223.942 25.0045 223.942 24.6245C223.942 24.2446 223.652 23.9365 223.294 23.9365C222.936 23.9365 222.645 24.2446 222.645 24.6245C222.645 25.0045 222.936 25.3126 223.294 25.3126Z" fill="#0C0C0C"/>
<path d="M229.938 26.254C230.296 26.254 230.587 25.946 230.587 25.566C230.587 25.186 230.296 24.878 229.938 24.878C229.58 24.878 229.29 25.186 229.29 25.566C229.29 25.946 229.58 26.254 229.938 26.254Z" fill="#0C0C0C"/>
<path opacity="0.52" d="M226.292 30.6107L226.282 30.609C226.072 30.5652 225.865 30.5093 225.661 30.4415C225.357 30.3376 224.959 30.1657 225.01 29.8744C225.07 29.5422 226.567 26.1308 226.737 25.7428C226.745 25.726 226.755 25.711 226.768 25.6984C226.781 25.6859 226.796 25.6763 226.812 25.6699C226.829 25.6636 226.846 25.6608 226.863 25.6616C226.881 25.6624 226.898 25.6668 226.914 25.6747C226.93 25.6825 226.944 25.6935 226.956 25.7072C226.967 25.7208 226.977 25.7368 226.983 25.7542C226.988 25.7716 226.991 25.7901 226.99 25.8086C226.99 25.8271 226.985 25.8452 226.978 25.862C226.34 27.3147 225.312 29.7031 225.272 29.9267C225.306 30.0303 225.811 30.2274 226.331 30.3318C226.365 30.3381 226.396 30.3584 226.416 30.3882C226.436 30.418 226.445 30.4551 226.44 30.4914C226.434 30.5278 226.416 30.5606 226.389 30.5828C226.361 30.6051 226.326 30.6153 226.292 30.6107Z" fill="#0C0C0C"/>
<path opacity="0.52" d="M227.058 33.1278C226.214 33.0115 225.408 32.6866 224.704 32.1791C224.689 32.169 224.677 32.156 224.667 32.1407C224.657 32.1254 224.65 32.1082 224.646 32.0901C224.643 32.072 224.643 32.0533 224.646 32.0352C224.649 32.017 224.656 31.9996 224.665 31.9841C224.675 31.9686 224.687 31.9553 224.701 31.9448C224.716 31.9344 224.732 31.927 224.749 31.9232C224.766 31.9194 224.784 31.9192 224.801 31.9226C224.818 31.926 224.834 31.9329 224.849 31.943C226.372 32.9956 227.885 33.1657 229.225 32.4349C229.253 32.4193 229.28 32.4052 229.309 32.3927C229.342 32.38 229.379 32.3817 229.411 32.3976C229.442 32.4135 229.467 32.4422 229.479 32.4774C229.491 32.5126 229.489 32.5514 229.474 32.5852C229.459 32.6191 229.432 32.6453 229.399 32.658C229.389 32.6626 229.372 32.6724 229.347 32.6869C228.642 33.0723 227.845 33.2259 227.058 33.1278Z" fill="#0C0C0C"/>
<path d="M243.475 27.9963L238.838 27.0942C235.325 25.5865 234.263 19.1377 234.263 19.1377C234.263 19.1377 229.996 23.5488 219.657 21.0401C219.657 21.0401 221.73 5.74395 237.005 10.1903C241.931 11.6245 245.466 16.8897 245.024 23.9267C244.715 28.8577 243.475 27.9963 243.475 27.9963Z" fill="#0A0A0A"/>
<path d="M237.759 33.1342C239.332 33.4499 240.924 31.9214 241.223 30.2537C241.522 28.586 240.41 27.4099 238.838 27.0942L237.829 28.049L236.409 32.8625L237.759 33.1342Z" fill="#E98862"/>
<path d="M225.79 22.9546C225.331 22.6406 224.801 22.4631 224.256 22.4407C223.987 22.4281 223.718 22.4583 223.458 22.5304C223.201 22.6005 222.952 22.7048 222.719 22.8409C222.688 22.8588 222.664 22.889 222.653 22.9251C222.642 22.9612 222.644 23.0004 222.66 23.0346C222.676 23.0688 222.703 23.0953 222.737 23.1086C222.77 23.1219 222.807 23.1209 222.84 23.1059L222.85 23.1012C223.065 22.989 223.293 22.9058 223.528 22.8536C223.76 22.8009 223.999 22.7857 224.235 22.8087C224.704 22.8504 225.155 23.023 225.54 23.309L225.553 23.3185C225.575 23.3356 225.6 23.3479 225.627 23.3547C225.654 23.3615 225.681 23.3627 225.708 23.3581C225.735 23.3536 225.761 23.3434 225.785 23.3283C225.808 23.3131 225.828 23.2932 225.845 23.2696C225.861 23.2461 225.872 23.2195 225.879 23.1912C225.885 23.1629 225.886 23.1336 225.882 23.1049C225.878 23.0761 225.868 23.0486 225.854 23.0238C225.839 22.999 225.821 22.9774 225.798 22.9603L225.79 22.9546Z" fill="#0C0C0C"/>
<path d="M229.926 23.9877C230.383 23.8689 230.862 23.8805 231.314 24.0213C231.542 24.0908 231.759 24.1963 231.958 24.3343C232.159 24.4734 232.343 24.6386 232.506 24.8262L232.513 24.8343C232.539 24.8613 232.573 24.8768 232.609 24.8775C232.645 24.8782 232.68 24.864 232.706 24.838C232.732 24.8119 232.748 24.776 232.75 24.7379C232.752 24.6997 232.74 24.6623 232.716 24.6335C232.545 24.4173 232.349 24.2248 232.133 24.0606C231.915 23.8939 231.674 23.7628 231.42 23.6718C230.903 23.4831 230.349 23.4455 229.814 23.563C229.788 23.5691 229.762 23.5807 229.74 23.5972C229.717 23.6137 229.698 23.6347 229.683 23.6591C229.668 23.6835 229.658 23.7107 229.653 23.7393C229.648 23.7679 229.649 23.7972 229.654 23.8255C229.66 23.8539 229.671 23.8808 229.687 23.9047C229.702 23.9286 229.722 23.949 229.745 23.9648C229.768 23.9805 229.794 23.9913 229.821 23.9965C229.847 24.0018 229.875 24.0013 229.902 23.9952L229.91 23.9932L229.926 23.9877Z" fill="#0C0C0C"/>
<path opacity="0.52" d="M226.879 34.4501C226.726 34.4317 226.575 34.3994 226.427 34.3537C226.41 34.3488 226.394 34.3404 226.38 34.3289C226.366 34.3175 226.355 34.3032 226.346 34.2869C226.337 34.2706 226.332 34.2527 226.33 34.2341C226.328 34.2156 226.329 34.1968 226.334 34.1788C226.339 34.1608 226.347 34.1441 226.358 34.1295C226.369 34.115 226.383 34.1029 226.398 34.0939C226.414 34.085 226.431 34.0794 226.448 34.0775C226.466 34.0757 226.483 34.0775 226.5 34.0829C227.39 34.3543 227.895 33.9947 227.917 33.9793C227.946 33.9578 227.981 33.9494 228.016 33.9559C228.051 33.9625 228.082 33.9834 228.102 34.0141C228.122 34.0447 228.13 34.0827 228.124 34.1196C228.118 34.1565 228.098 34.1893 228.069 34.2108C227.711 34.4341 227.29 34.5186 226.879 34.4501Z" fill="#0C0C0C"/>
<path d="M238.827 27.032L238.873 26.8958C232.996 24.6581 234.433 18.5409 234.448 18.4792L234.317 18.4425C234.301 18.5053 232.831 24.749 238.827 27.032Z" fill="#0C0C0C"/>
<path opacity="0.1" d="M231.787 30.2231C231.84 29.6952 231.333 29.2044 230.655 29.127C229.977 29.0496 229.383 29.4148 229.33 29.9427C229.276 30.4706 229.783 30.9614 230.461 31.0388C231.14 31.1163 231.733 30.7511 231.787 30.2231Z" fill="#0C0C0C"/>
<path opacity="0.1" d="M223.281 29.0194C223.226 29.5466 222.632 29.9114 221.954 29.8347C221.837 29.8214 221.721 29.7951 221.609 29.7563C221.571 29.1291 221.562 28.5252 221.573 27.9663C221.761 27.9139 221.956 27.8994 222.149 27.9234C222.827 28.0001 223.334 28.4905 223.281 29.0194Z" fill="#0C0C0C"/>
<path d="M210.159 64.3609C210.469 68.2182 211.974 92.2839 212.272 97.0349H253.285C253.517 92.7497 254.557 74.0117 255.436 65.632C256.275 57.6355 257.92 53.6318 256.714 51.268C254.744 47.4044 249.357 45.1717 245.685 44.6431C243.443 44.321 240.07 44.0901 240.07 44.0901C240.07 44.0901 239.785 50.2184 232.975 50.5592C223.706 51.0221 224.325 44.0901 224.279 44.0901C222.777 44.0901 214.199 45.0984 212.1 46.4181C206.381 50.0118 209.502 56.1872 210.159 64.3609Z" fill="#9E68DB"/>
<path d="M209.832 83.2971C209.845 83.0848 209.919 82.882 210.045 82.7167C210.171 82.5513 210.343 82.4316 210.536 82.3741C210.53 82.3631 210.526 82.3507 210.525 82.3379C210.524 82.3251 210.527 82.3122 210.532 82.3005C210.537 82.2888 210.544 82.2786 210.554 82.2707C210.563 82.2628 210.574 82.2575 210.586 82.2552L209.78 82.0654C209.542 82.0146 209.329 81.8741 209.18 81.6699C209.032 81.4656 208.958 81.2114 208.972 80.9538C208.994 80.6999 209.104 80.4638 209.281 80.2912C209.458 80.1186 209.689 80.0218 209.929 80.0196C209.924 80.0109 209.926 79.9996 209.924 79.9906L209.593 79.9125C209.368 79.8641 209.166 79.7347 209.021 79.5464C208.876 79.358 208.797 79.1223 208.797 78.879C208.8 78.7266 208.834 78.5767 208.899 78.4402C208.963 78.3037 209.055 78.184 209.168 78.0897C209.281 77.9955 209.412 77.929 209.552 77.8951C209.692 77.8612 209.838 77.8606 209.978 77.8936L210.742 78.0736C210.742 78.0692 210.739 78.0657 210.739 78.0611C210.74 78.0565 210.746 78.0527 210.748 78.0472C210.549 77.9478 210.388 77.7795 210.291 77.5701C210.194 77.3607 210.167 77.1226 210.215 76.8948C210.301 76.2982 210.978 76.1056 211.472 76.2222L215.933 77.1865L214.874 76.3657C214.665 76.2103 214.519 75.9764 214.467 75.7113C214.414 75.4463 214.458 75.1698 214.59 74.9378C214.662 74.8206 214.755 74.7202 214.865 74.6427C214.975 74.5652 215.099 74.5122 215.228 74.487C215.358 74.4619 215.491 74.465 215.62 74.4962C215.748 74.5275 215.869 74.5862 215.976 74.6688L221.754 79.1499C222.432 79.6756 222.89 80.461 223.03 81.3391C223.171 82.2173 222.984 83.1191 222.508 83.8529C221.955 84.7038 221.176 85.3604 220.27 85.7386C219.364 86.1167 218.372 86.1992 217.421 85.9754L210.627 84.376C210.399 84.3176 210.197 84.1792 210.052 83.9834C209.908 83.7876 209.83 83.5457 209.832 83.2971Z" fill="#E98862"/>
<g opacity="0.25">
<path d="M215.156 79.0243C215.151 79.0485 215.137 79.0696 215.117 79.0831C215.098 79.0965 215.074 79.1013 215.051 79.0964L210.81 78.1737C210.787 78.1686 210.766 78.154 210.753 78.1329C210.74 78.1119 210.736 78.0862 210.74 78.0616C210.745 78.0369 210.759 78.0153 210.779 78.0014C210.799 77.9875 210.823 77.9826 210.846 77.9877L215.087 78.91C215.098 78.9125 215.109 78.9174 215.119 78.9245C215.129 78.9315 215.137 78.9404 215.144 78.9509C215.15 78.9613 215.155 78.973 215.157 78.9852C215.159 78.9975 215.159 79.0101 215.157 79.0223L215.156 79.0243Z" fill="#0C0C0C"/>
</g>
<g opacity="0.25">
<path d="M214.824 81.0198C214.819 81.044 214.805 81.065 214.785 81.0784C214.766 81.0918 214.742 81.0965 214.719 81.0916L209.987 80.0618C209.975 80.0593 209.964 80.0544 209.955 80.0474C209.945 80.0404 209.937 80.0314 209.93 80.021C209.924 80.0106 209.919 79.9989 209.917 79.9867C209.915 79.9744 209.915 79.9618 209.917 79.9496C209.923 79.9254 209.937 79.9043 209.956 79.8906C209.976 79.8769 210 79.8716 210.023 79.8758L214.756 80.9052C214.767 80.9077 214.778 80.9126 214.788 80.9197C214.798 80.9267 214.806 80.9356 214.813 80.9461C214.819 80.9565 214.824 80.9682 214.826 80.9804C214.828 80.9927 214.828 81.0053 214.825 81.0175L214.824 81.0198Z" fill="#0C0C0C"/>
</g>
<g opacity="0.25">
<path d="M214.476 83.1828C214.471 83.2069 214.457 83.228 214.437 83.2414C214.418 83.2548 214.394 83.2595 214.371 83.2545L210.596 82.4334C210.584 82.4309 210.573 82.426 210.564 82.419C210.554 82.412 210.546 82.4031 210.539 82.3927C210.533 82.3822 210.528 82.3706 210.526 82.3583C210.524 82.3461 210.524 82.3335 210.526 82.3213C210.529 82.3091 210.533 82.2975 210.54 82.2871C210.546 82.2768 210.555 82.268 210.565 82.2611C210.574 82.2542 210.585 82.2495 210.597 82.2471C210.609 82.2448 210.62 82.2449 210.632 82.2474L214.407 83.0685C214.43 83.0736 214.451 83.0882 214.464 83.1093C214.477 83.1303 214.482 83.156 214.477 83.1807L214.476 83.1828Z" fill="#0C0C0C"/>
</g>
<path d="M217.842 88.8278L254.702 95.894C255.852 96.0269 257.016 95.8752 258.102 95.4508C259.187 95.0264 260.166 94.341 260.96 93.4482C261.753 92.5554 262.342 91.4796 262.678 90.3051C263.014 89.1307 263.089 87.8896 262.897 86.6793L257.736 54.1422C257.573 53.1135 257.22 52.129 256.699 51.2448C256.177 50.3607 255.496 49.5942 254.695 48.9892C253.894 48.3842 252.988 47.9525 252.03 47.7187C251.071 47.485 250.079 47.4537 249.109 47.6268C248.14 47.7999 247.211 48.1739 246.378 48.7275C245.545 49.2811 244.822 50.0034 244.252 50.8532C243.681 51.7029 243.274 52.6636 243.054 53.6802C242.834 54.6968 242.804 55.7495 242.967 56.7782L246.486 79.1765L219.462 75.5761L217.842 88.8278Z" fill="#9E68DB"/>
<path d="M254.702 96.0387C254.736 96.0386 254.769 96.0251 254.794 96.0007C254.819 95.9763 254.834 95.9428 254.837 95.9068C254.84 95.8709 254.831 95.835 254.81 95.8063C254.789 95.7776 254.759 95.7581 254.726 95.7517L217.993 88.7101L219.58 75.7378L246.469 79.32C246.49 79.3228 246.511 79.3204 246.531 79.3129C246.551 79.3053 246.569 79.2929 246.584 79.2767C246.599 79.2604 246.61 79.2407 246.616 79.2191C246.622 79.1975 246.624 79.1747 246.62 79.1525L244.384 64.8374C244.381 64.8186 244.375 64.8006 244.365 64.7843C244.356 64.7681 244.344 64.754 244.329 64.743C244.314 64.7319 244.298 64.724 244.28 64.7198C244.263 64.7156 244.245 64.7152 244.227 64.7185C244.191 64.7248 244.16 64.7459 244.138 64.7771C244.117 64.8083 244.109 64.8471 244.115 64.8849L246.322 79.0084L219.478 75.4326C219.443 75.4278 219.406 75.4383 219.378 75.4617C219.349 75.4852 219.331 75.5196 219.326 75.5576L217.705 88.8087C217.701 88.8456 217.71 88.8829 217.731 88.913C217.751 88.943 217.782 88.9634 217.817 88.9699L254.677 96.0361C254.685 96.0377 254.693 96.0386 254.702 96.0387Z" fill="#0C0C0C"/>
<path d="M246.459 79.1415L246.416 79.4274L248.786 79.8298L248.829 79.544L246.459 79.1415Z" fill="#0C0C0C"/>
<path d="M210.472 66.8653L210.2 66.8817L210.528 73.0073L210.8 72.9909L210.472 66.8653Z" fill="#0C0C0C"/>
<path d="M176.693 39.1248H120.616L112.149 45.8528V10.743C112.149 9.37095 112.663 8.05506 113.577 7.08485C114.492 6.11464 115.732 5.56958 117.026 5.56958H176.693C177.986 5.56966 179.227 6.11475 180.141 7.08495C181.056 8.05515 181.57 9.371 181.57 10.743V33.9517C181.57 35.3237 181.056 36.6395 180.141 37.6096C179.227 38.5798 177.986 39.1248 176.693 39.1248Z" fill="#9E68DB"/>
<path opacity="0.11" d="M176.693 39.1248H120.616L112.149 45.8528V10.743C112.149 9.37095 112.663 8.05506 113.577 7.08485C114.492 6.11464 115.732 5.56958 117.026 5.56958H176.693C177.986 5.56966 179.227 6.11475 180.141 7.08495C181.056 8.05515 181.57 9.371 181.57 10.743V33.9517C181.57 35.3237 181.056 36.6395 180.141 37.6096C179.227 38.5798 177.986 39.1248 176.693 39.1248Z" fill="white"/>
<path d="M118.126 19.5348H175.594C175.65 19.5348 175.704 19.5111 175.744 19.4689C175.784 19.4266 175.806 19.3694 175.806 19.3097C175.806 19.25 175.784 19.1927 175.744 19.1505C175.704 19.1083 175.65 19.0846 175.594 19.0846H118.126C118.07 19.0846 118.016 19.1083 117.976 19.1505C117.936 19.1927 117.914 19.25 117.914 19.3097C117.914 19.3694 117.936 19.4266 117.976 19.4689C118.016 19.5111 118.07 19.5348 118.126 19.5348Z" fill="white"/>
<path d="M118.126 13.1306H175.594C175.65 13.1306 175.704 13.1069 175.744 13.0647C175.784 13.0225 175.806 12.9652 175.806 12.9055C175.806 12.8458 175.784 12.7886 175.744 12.7463C175.704 12.7041 175.65 12.6804 175.594 12.6804H118.126C118.07 12.6804 118.016 12.7041 117.976 12.7463C117.936 12.7886 117.914 12.8458 117.914 12.9055C117.914 12.9652 117.936 13.0225 117.976 13.0647C118.016 13.1069 118.07 13.1306 118.126 13.1306Z" fill="white"/>
<path d="M118.126 26.2863H175.594C175.65 26.2863 175.704 26.2625 175.744 26.2203C175.784 26.1781 175.806 26.1209 175.806 26.0612C175.806 26.0015 175.784 25.9442 175.744 25.902C175.704 25.8598 175.65 25.8361 175.594 25.8361H118.126C118.07 25.8361 118.016 25.8598 117.976 25.902C117.936 25.9442 117.914 26.0015 117.914 26.0612C117.914 26.1209 117.936 26.1781 117.976 26.2203C118.016 26.2625 118.07 26.2863 118.126 26.2863Z" fill="white"/>
<path d="M118.126 33.038H152.255C152.312 33.038 152.366 33.0142 152.405 32.972C152.445 32.9298 152.468 32.8726 152.468 32.8129C152.468 32.7532 152.445 32.6959 152.405 32.6537C152.366 32.6115 152.312 32.5878 152.255 32.5878H118.126C118.07 32.5878 118.016 32.6115 117.976 32.6537C117.936 32.6959 117.914 32.7532 117.914 32.8129C117.914 32.8726 117.936 32.9298 117.976 32.972C118.016 33.0142 118.07 33.038 118.126 33.038Z" fill="white"/>
<path d="M34.2975 193.965C34.2251 193.965 34.1558 193.934 34.1046 193.88C33.7201 193.472 33.0938 185.993 31.4066 163.725C30.7163 154.614 30.0642 146.007 29.5882 140.777C29.5544 140.404 29.4178 140.36 29.3728 140.346C28.7214 140.137 26.7405 141.795 25.6342 143.246C25.6117 143.275 25.5839 143.3 25.5524 143.318C25.521 143.336 25.4864 143.347 25.4508 143.351C25.4152 143.355 25.3792 143.352 25.3448 143.341C25.3105 143.33 25.2785 143.312 25.2506 143.289C25.2228 143.265 25.1996 143.235 25.1825 143.202C25.1654 143.168 25.1547 143.132 25.1509 143.094C25.1472 143.056 25.1505 143.018 25.1606 142.982C25.1708 142.945 25.1876 142.911 25.2101 142.882C25.9416 141.922 28.3254 139.407 29.5299 139.792C29.7726 139.869 30.074 140.093 30.1299 140.722C30.6061 145.956 31.2583 154.565 31.9491 163.679C32.9744 177.211 34.1357 192.541 34.5176 193.506C34.5469 193.549 34.5644 193.6 34.5681 193.654C34.5719 193.707 34.5618 193.76 34.5389 193.807C34.516 193.855 34.4812 193.894 34.4384 193.922C34.3955 193.95 34.3463 193.965 34.2961 193.965H34.2975Z" fill="#494949"/>
<path d="M28.8879 150.374C33.4138 146.526 34.9139 140.536 32.2384 136.995C29.563 133.455 23.7251 133.704 19.1992 137.553C14.6733 141.401 13.1733 147.391 15.8487 150.932C18.5242 154.472 24.3621 154.223 28.8879 150.374Z" fill="#09916B"/>
<path opacity="0.2" d="M28.8879 150.374C33.4138 146.526 34.9139 140.536 32.2384 136.995C29.563 133.455 23.7251 133.704 19.1992 137.553C14.6733 141.401 13.1733 147.391 15.8487 150.932C18.5242 154.472 24.3621 154.223 28.8879 150.374Z" fill="white"/>
<path d="M17.117 151.831C17.0853 151.831 17.0546 151.82 17.0303 151.798C17.0027 151.774 16.9854 151.739 16.982 151.701C16.9787 151.663 16.9895 151.625 17.0123 151.596L29.9107 135.096C29.9338 135.066 29.967 135.047 30.0031 135.044C30.0391 135.04 30.075 135.052 30.1028 135.077C30.1307 135.101 30.1482 135.136 30.1516 135.175C30.1549 135.213 30.1438 135.251 30.1207 135.28L17.2223 151.781C17.2093 151.797 17.1931 151.81 17.175 151.818C17.1568 151.827 17.137 151.832 17.117 151.831Z" fill="white"/>
<path d="M37.1105 190.426C37.08 190.426 37.0498 190.421 37.021 190.41C36.9527 190.385 36.8966 190.332 36.8651 190.263C36.8336 190.194 36.8293 190.114 36.853 190.042L41.6978 175.261C41.8404 174.827 42.0835 174.437 42.4048 174.128C42.7261 173.82 43.1153 173.601 43.5367 173.493C43.9582 173.386 44.3984 173.392 44.8171 173.511C45.2358 173.63 45.6196 173.859 45.9333 174.177L48.4946 176.772C48.5214 176.798 48.5431 176.83 48.5583 176.865C48.5735 176.9 48.582 176.938 48.5832 176.976C48.5844 177.015 48.5784 177.053 48.5655 177.089C48.5525 177.125 48.5329 177.158 48.5079 177.186C48.4828 177.214 48.4527 177.236 48.4194 177.251C48.3861 177.267 48.3502 177.275 48.3139 177.275C48.2776 177.276 48.2415 177.269 48.2079 177.254C48.1742 177.24 48.1437 177.218 48.118 177.191L45.5563 174.595C45.3087 174.345 45.0058 174.164 44.6753 174.07C44.3448 173.976 43.9973 173.971 43.6647 174.056C43.332 174.141 43.0249 174.314 42.7712 174.557C42.5176 174.801 42.3257 175.108 42.213 175.451L37.368 190.232C37.3493 190.289 37.3146 190.338 37.2684 190.373C37.2223 190.408 37.1671 190.426 37.1105 190.426Z" fill="#494949"/>
<path d="M55.6509 184.955C59.005 182.139 58.8057 175.945 55.2057 171.12C51.6057 166.296 45.9683 164.668 42.6142 167.484C39.2601 170.3 39.4594 176.494 43.0594 181.319C46.6594 186.143 52.2968 187.771 55.6509 184.955Z" fill="#09916B"/>
<path d="M32.0962 193.021C32.0349 193.021 31.9755 192.999 31.9274 192.959C31.8794 192.918 31.8455 192.862 31.8313 192.799L23.7016 156.736C23.6461 156.49 23.5277 156.265 23.3595 156.086C23.1913 155.907 22.9798 155.781 22.7483 155.721C22.5168 155.661 22.2742 155.67 22.0472 155.747C21.8202 155.824 21.6177 155.966 21.4618 156.157L18.9553 159.23C18.932 159.259 18.9034 159.283 18.8713 159.3C18.8392 159.318 18.8042 159.328 18.7682 159.331C18.7323 159.334 18.6962 159.329 18.662 159.317C18.6277 159.305 18.5961 159.286 18.5688 159.261C18.5416 159.236 18.5193 159.206 18.5032 159.171C18.4871 159.137 18.4776 159.1 18.4752 159.062C18.4728 159.024 18.4775 158.985 18.4892 158.949C18.5008 158.913 18.519 158.88 18.5429 158.851L21.0491 155.779C21.2708 155.507 21.5587 155.305 21.8814 155.196C22.204 155.087 22.5489 155.074 22.8779 155.159C23.207 155.244 23.5075 155.424 23.7464 155.679C23.9853 155.934 24.1534 156.253 24.2321 156.603L32.3629 192.665C32.3797 192.74 32.3679 192.819 32.33 192.884C32.2922 192.95 32.2314 192.996 32.1611 193.014C32.1398 193.019 32.118 193.022 32.0962 193.021Z" fill="#494949"/>
<path d="M29.0964 167.241C30.0848 161.178 27.469 155.636 23.2539 154.863C19.0388 154.089 14.8205 158.378 13.8321 164.441C12.8437 170.504 15.4595 176.046 19.6746 176.819C23.8898 177.592 28.108 173.304 29.0964 167.241Z" fill="#09916B"/>
<path d="M34.2978 193.965C34.2866 193.964 34.2754 193.964 34.2643 193.962C34.2287 193.958 34.1943 193.946 34.1631 193.927C34.1319 193.908 34.1045 193.883 34.0825 193.853C34.0604 193.823 34.0441 193.789 34.0346 193.752C34.025 193.716 34.0223 193.677 34.0267 193.64L39.2187 148.922C39.2752 148.435 39.4632 147.976 39.76 147.599C40.0568 147.223 40.4497 146.945 40.8917 146.8C41.3337 146.654 41.8058 146.648 42.2512 146.78C42.6967 146.913 43.0966 147.179 43.4029 147.547L49.3376 154.677C49.3855 154.734 49.4099 154.81 49.4054 154.886C49.4009 154.963 49.3679 155.035 49.3137 155.086C49.2594 155.136 49.1884 155.162 49.1161 155.158C49.0439 155.153 48.9764 155.118 48.9284 155.06L42.9938 147.93C42.7571 147.646 42.448 147.44 42.1038 147.338C41.7595 147.235 41.3946 147.24 41.053 147.353C40.7115 147.465 40.4077 147.679 40.1783 147.97C39.9489 148.261 39.8036 148.616 39.7598 148.993L34.5681 193.71C34.5602 193.78 34.5283 193.844 34.4785 193.891C34.4287 193.938 34.3644 193.964 34.2978 193.965Z" fill="#494949"/>
<path d="M55.4239 158.639C57.4944 154.668 55.0582 149.034 49.9826 146.056C44.9069 143.078 39.1137 143.882 37.0432 147.853C34.9727 151.824 37.4088 157.457 42.4845 160.436C47.5602 163.414 53.3533 162.609 55.4239 158.639Z" fill="#09916B"/>
<path opacity="0.2" d="M55.6509 184.955C59.005 182.139 58.8057 175.945 55.2057 171.12C51.6057 166.296 45.9683 164.668 42.6142 167.484C39.2601 170.3 39.4594 176.494 43.0594 181.319C46.6594 186.143 52.2968 187.771 55.6509 184.955Z" fill="white"/>
<path opacity="0.5" d="M29.0964 167.241C30.0848 161.178 27.469 155.636 23.2539 154.863C19.0388 154.089 14.8205 158.378 13.8321 164.441C12.8437 170.504 15.4595 176.046 19.6746 176.819C23.8898 177.592 28.108 173.304 29.0964 167.241Z" fill="white"/>
<path opacity="0.5" d="M55.4239 158.639C57.4944 154.668 55.0582 149.034 49.9826 146.056C44.9069 143.078 39.1137 143.882 37.0432 147.853C34.9727 151.824 37.4088 157.457 42.4845 160.436C47.5602 163.414 53.3533 162.609 55.4239 158.639Z" fill="white"/>
<path d="M40.9382 231.906H27.6563L25.4556 186.828H43.139L40.9382 231.906Z" fill="#292A2E"/>
<path opacity="0.3" d="M40.9382 231.906H27.6563L25.4556 186.828H43.139L40.9382 231.906Z" fill="white"/>
<path d="M55.6517 185.099C55.6311 185.099 55.6108 185.094 55.5923 185.084C55.5737 185.075 55.5575 185.061 55.5447 185.044L42.5075 167.573C42.485 167.543 42.4748 167.504 42.4789 167.466C42.4831 167.428 42.5014 167.393 42.5297 167.369C42.5581 167.346 42.5942 167.335 42.6301 167.339C42.6661 167.344 42.6989 167.363 42.7213 167.393L55.7586 184.864C55.7808 184.894 55.7909 184.933 55.7867 184.97C55.7826 185.008 55.7644 185.043 55.7362 185.067C55.7122 185.087 55.6825 185.099 55.6517 185.099Z" fill="white"/>
<path d="M54.5569 160.038C54.5279 160.038 54.4998 160.028 54.4767 160.009L37.7939 147.088C37.7653 147.065 37.7463 147.031 37.741 146.993C37.7357 146.956 37.7446 146.917 37.7657 146.887C37.7868 146.856 37.8184 146.835 37.8538 146.829C37.8891 146.823 37.9253 146.832 37.9546 146.854L54.6376 159.776C54.6605 159.794 54.6774 159.82 54.686 159.849C54.6945 159.878 54.6942 159.909 54.6852 159.937C54.6761 159.966 54.6587 159.991 54.6355 160.009C54.6123 160.027 54.5844 160.036 54.5558 160.036L54.5569 160.038Z" fill="white"/>
<path d="M18.9979 176.631C18.986 176.631 18.9742 176.629 18.9627 176.626C18.9278 176.616 18.898 176.592 18.8799 176.558C18.8618 176.525 18.8569 176.486 18.8662 176.449L24.1768 155.341C24.1812 155.323 24.189 155.305 24.1998 155.29C24.2107 155.275 24.2243 155.262 24.2399 155.252C24.2555 155.242 24.2727 155.236 24.2907 155.233C24.3086 155.231 24.3268 155.232 24.3443 155.237C24.3618 155.242 24.3782 155.25 24.3925 155.262C24.4068 155.274 24.4188 155.288 24.4278 155.305C24.4367 155.322 24.4424 155.34 24.4445 155.359C24.4467 155.378 24.4452 155.398 24.4403 155.416L19.1294 176.523C19.1216 176.554 19.1046 176.581 19.0808 176.601C19.057 176.62 19.0279 176.631 18.9979 176.631Z" fill="white"/>
<path opacity="0.2" d="M76.2441 110.376C94.7443 110.376 109.742 94.4673 109.742 74.8424C109.742 55.2176 94.7443 39.3085 76.2441 39.3085C57.7439 39.3085 42.7466 55.2176 42.7466 74.8424C42.7466 94.4673 57.7439 110.376 76.2441 110.376Z" fill="#9E68DB"/>
<path d="M44.11 111.801C42.5098 108.142 41.6801 104.158 41.6785 100.125C41.6769 96.0918 42.5034 92.1068 44.1007 88.4469C45.6979 84.787 48.0275 81.5401 50.9275 78.932C53.8274 76.3238 57.2281 74.4171 60.8931 73.3443L63.1187 81.8794C60.6221 82.6094 58.3054 83.9075 56.3297 85.6836C54.354 87.4596 52.7667 89.6709 51.6783 92.1636C50.5899 94.6564 50.0265 97.3707 50.0273 100.118C50.028 102.865 50.593 105.579 51.6827 108.071L44.11 111.801Z" fill="#9E68DB"/>
<path d="M44.5467 123.502C44.0843 123.502 43.6308 123.367 43.2365 123.111C42.8421 122.854 42.5224 122.487 42.3126 122.05C41.7266 120.829 41.373 119.498 41.272 118.132C41.1711 116.766 41.3247 115.393 41.7241 114.09C42.5308 111.459 44.2898 109.275 46.6141 108.02C47.765 107.398 49.02 107.023 50.3076 106.916C51.5951 106.809 52.8899 106.972 54.1181 107.396C56.5985 108.251 58.6568 110.117 59.8403 112.583C60.1341 113.21 60.1827 113.935 59.9755 114.599C59.7683 115.264 59.3221 115.815 58.7339 116.133C58.1457 116.451 57.463 116.509 56.8343 116.296C56.2056 116.083 55.6816 115.615 55.3763 114.994C54.7957 113.784 53.7858 112.869 52.5688 112.449C51.3518 112.029 50.0274 112.139 48.8869 112.755C47.7464 113.371 46.8832 114.442 46.4873 115.733C46.0915 117.024 46.1952 118.429 46.7758 119.639C46.9701 120.044 47.0632 120.495 47.0464 120.949C47.0295 121.403 46.9032 121.845 46.6795 122.232C46.4558 122.62 46.1421 122.94 45.7686 123.162C45.395 123.384 44.9739 123.501 44.5456 123.502H44.5467Z" fill="#292A2E"/>
<path d="M108.939 86.2063C104.312 86.2099 99.7684 84.9026 95.7776 82.4193L99.9921 74.7738C103.548 76.9727 107.711 77.7991 111.775 77.1128C115.84 76.4265 119.555 74.2698 122.292 71.0085L128.53 76.8946C124.08 82.2179 117.867 85.5169 111.183 86.1053C110.433 86.1728 109.685 86.2065 108.939 86.2063Z" fill="#9E68DB"/>
<path d="M130.511 78.3534C128.646 78.3497 126.822 77.784 125.249 76.7224C123.676 75.6607 122.42 74.1467 121.628 72.3569C120.835 70.5671 120.538 68.5752 120.772 66.6133C121.006 64.6514 121.76 62.8003 122.947 61.2759C123.157 61.0069 123.414 60.7843 123.705 60.6209C123.996 60.4574 124.314 60.3563 124.641 60.3233C124.969 60.2902 125.299 60.326 125.613 60.4284C125.928 60.5308 126.22 60.6979 126.474 60.9202C126.727 61.1424 126.937 61.4155 127.091 61.7238C127.245 62.0321 127.341 62.3695 127.372 62.7169C127.403 63.0643 127.369 63.4148 127.273 63.7483C127.176 64.0819 127.019 64.392 126.809 64.661C125.999 65.708 125.614 67.0528 125.737 68.4008C125.86 69.7488 126.482 70.9901 127.466 71.8528C128.45 72.7154 129.716 73.1291 130.987 73.0032C132.259 72.8773 133.431 72.222 134.248 71.181C134.457 70.912 134.714 70.6894 135.005 70.526C135.296 70.3625 135.614 70.2614 135.941 70.2284C136.269 70.1953 136.599 70.231 136.914 70.3335C137.228 70.4359 137.52 70.603 137.774 70.8253C138.028 71.0475 138.237 71.3206 138.391 71.6289C138.546 71.9372 138.641 72.2746 138.672 72.622C138.703 72.9694 138.669 73.3199 138.573 73.6534C138.476 73.987 138.319 74.2971 138.109 74.5661C137.289 75.6249 136.279 76.5007 135.138 77.1427C133.996 77.7847 132.746 78.1801 131.46 78.3062C131.142 78.3381 130.826 78.3538 130.511 78.3534Z" fill="#292A2E"/>
<path d="M55.2869 73.8092L60.8222 107.015C61.5377 111.307 63.6556 115.195 66.8041 117.996C69.9526 120.798 73.9306 122.333 78.0398 122.333C82.046 122.333 85.9307 120.874 89.0439 118.199C92.1572 115.524 94.3101 111.797 95.1426 107.64L101.918 73.8092H55.2869Z" fill="#9E68DB"/>
<path d="M78.602 81.1216C91.4787 81.1216 101.917 77.8478 101.917 73.8092C101.917 69.7707 91.4787 66.4968 78.602 66.4968C65.7253 66.4968 55.2866 69.7707 55.2866 73.8092C55.2866 77.8478 65.7253 81.1216 78.602 81.1216Z" fill="#292A2E"/>
<path d="M101.384 54.1822C101.384 64.9335 91.1831 70.1064 78.6019 70.1064C66.0207 70.1064 55.8203 64.9335 55.8203 54.1822C55.8203 43.4308 66.021 31.1723 78.6019 31.1723C91.1829 31.1723 101.384 43.4308 101.384 54.1822Z" fill="#9E68DB"/>
<path d="M91.0528 41.1353H78.0941C74.0323 41.1353 70.7395 44.6282 70.7395 48.9369V48.9372C70.7395 53.246 74.0323 56.7389 78.0941 56.7389H91.0528C95.1146 56.7389 98.4074 53.246 98.4074 48.9372V48.9369C98.4074 44.6282 95.1146 41.1353 91.0528 41.1353Z" fill="white"/>
<path d="M84.1871 51.7732C83.9657 51.7732 83.7534 51.6799 83.5968 51.5139C83.4402 51.3478 83.3523 51.1225 83.3523 50.8876C83.356 50.4892 83.2851 50.0939 83.144 49.7246C83.0028 49.3554 82.794 49.0195 82.5297 48.7364C82.2654 48.4532 81.9508 48.2285 81.6041 48.0751C81.2574 47.9217 80.8855 47.8427 80.5099 47.8427C80.1342 47.8427 79.7623 47.9217 79.4156 48.0751C79.0689 48.2285 78.7544 48.4532 78.49 48.7364C78.2257 49.0195 78.017 49.3554 77.8758 49.7246C77.7346 50.0939 77.6638 50.4892 77.6674 50.8876C77.6674 51.1225 77.5795 51.3478 77.4229 51.5139C77.2663 51.6799 77.054 51.7732 76.8326 51.7732C76.6111 51.7732 76.3988 51.6799 76.2422 51.5139C76.0857 51.3478 75.9977 51.1225 75.9977 50.8876C75.9931 50.2559 76.1064 49.6295 76.331 49.0445C76.5557 48.4594 76.8873 47.9274 77.3068 47.4789C77.7262 47.0305 78.2252 46.6746 78.775 46.4317C79.3247 46.1888 79.9143 46.0638 80.5099 46.0638C81.1054 46.0638 81.695 46.1888 82.2447 46.4317C82.7945 46.6746 83.2935 47.0305 83.7129 47.4789C84.1324 47.9274 84.464 48.4594 84.6887 49.0445C84.9134 49.6295 85.0266 50.2559 85.022 50.8876C85.0221 51.0039 85.0005 51.1191 84.9585 51.2266C84.9166 51.334 84.8551 51.4317 84.7776 51.5139C84.7 51.5962 84.608 51.6614 84.5067 51.7059C84.4054 51.7504 84.2968 51.7733 84.1871 51.7732Z" fill="#292A2E"/>
<path d="M95.5426 51.7732C95.3212 51.7732 95.1089 51.6799 94.9523 51.5139C94.7957 51.3478 94.7078 51.1225 94.7078 50.8876C94.7114 50.4892 94.6406 50.0939 94.4994 49.7246C94.3582 49.3554 94.1494 49.0195 93.8851 48.7364C93.6208 48.4532 93.3062 48.2285 92.9596 48.0751C92.6129 47.9217 92.241 47.8427 91.8653 47.8427C91.4897 47.8427 91.1178 47.9217 90.7711 48.0751C90.4244 48.2285 90.1098 48.4532 89.8455 48.7364C89.5812 49.0195 89.3724 49.3554 89.2312 49.7246C89.09 50.0939 89.0192 50.4892 89.0229 50.8876C89.0229 51.1225 88.935 51.3478 88.7784 51.5139C88.6218 51.6799 88.4095 51.7732 88.188 51.7732C87.9666 51.7732 87.7543 51.6799 87.5977 51.5139C87.4411 51.3478 87.3532 51.1225 87.3532 50.8876C87.3485 50.2559 87.4618 49.6295 87.6865 49.0445C87.9112 48.4594 88.2428 47.9274 88.6623 47.4789C89.0817 47.0305 89.5807 46.6746 90.1305 46.4317C90.6802 46.1888 91.2698 46.0638 91.8653 46.0638C92.4608 46.0638 93.0505 46.1888 93.6002 46.4317C94.15 46.6746 94.6489 47.0305 95.0684 47.4789C95.4878 47.9274 95.8195 48.4594 96.0442 49.0445C96.2688 49.6295 96.3821 50.2559 96.3775 50.8876C96.3775 51.0039 96.356 51.1191 96.314 51.2266C96.2721 51.334 96.2106 51.4317 96.133 51.5139C96.0555 51.5962 95.9635 51.6614 95.8622 51.7059C95.7609 51.7504 95.6523 51.7733 95.5426 51.7732Z" fill="#292A2E"/>
<path d="M78.5967 22.8512L77.585 22.9037L78.084 33.7191L79.0957 33.6666L78.5967 22.8512Z" fill="#9E68DB"/>
<path d="M78.1278 25.6421C79.1503 25.6421 79.9792 24.7628 79.9792 23.6782C79.9792 22.5935 79.1503 21.7142 78.1278 21.7142C77.1053 21.7142 76.2764 22.5935 76.2764 23.6782C76.2764 24.7628 77.1053 25.6421 78.1278 25.6421Z" fill="#292A2E"/>
<path d="M189.284 115.915H124.836C121.842 115.915 119.415 118.49 119.415 121.665C119.415 124.841 121.842 127.416 124.836 127.416H189.284C192.278 127.416 194.705 124.841 194.705 121.665C194.705 118.49 192.278 115.915 189.284 115.915Z" fill="white"/>
<path d="M189.285 127.633H124.836C124.094 127.638 123.358 127.488 122.671 127.191C121.984 126.893 121.359 126.455 120.832 125.9C120.306 125.345 119.888 124.686 119.603 123.959C119.318 123.232 119.171 122.453 119.171 121.665C119.171 120.878 119.318 120.099 119.603 119.372C119.888 118.645 120.306 117.986 120.832 117.431C121.359 116.876 121.984 116.438 122.671 116.14C123.358 115.843 124.094 115.692 124.836 115.698H189.285C190.771 115.709 192.192 116.342 193.238 117.46C194.285 118.578 194.872 120.09 194.872 121.665C194.872 123.241 194.285 124.753 193.238 125.871C192.192 126.988 190.771 127.622 189.285 127.633ZM124.836 116.132C124.148 116.127 123.465 116.266 122.828 116.542C122.191 116.817 121.611 117.224 121.123 117.738C120.634 118.253 120.247 118.865 119.982 119.539C119.718 120.213 119.581 120.935 119.581 121.665C119.581 122.396 119.718 123.118 119.982 123.792C120.247 124.466 120.634 125.078 121.123 125.592C121.611 126.107 122.191 126.514 122.828 126.789C123.465 127.065 124.148 127.204 124.836 127.199H189.285C190.662 127.188 191.98 126.601 192.95 125.564C193.92 124.528 194.464 123.126 194.464 121.665C194.464 120.205 193.92 118.803 192.95 117.767C191.98 116.73 190.662 116.143 189.285 116.132H124.836Z" fill="#292A2E"/>
<path d="M258.348 232H23.6726C23.6475 232 23.6227 231.995 23.5995 231.985C23.5764 231.974 23.5553 231.96 23.5376 231.941C23.5199 231.922 23.5058 231.9 23.4962 231.875C23.4866 231.85 23.4817 231.824 23.4817 231.798C23.4817 231.771 23.4866 231.745 23.4962 231.72C23.5058 231.695 23.5199 231.673 23.5376 231.654C23.5553 231.635 23.5764 231.621 23.5995 231.61C23.6227 231.6 23.6475 231.595 23.6726 231.595H258.348C258.399 231.595 258.447 231.616 258.483 231.654C258.519 231.692 258.539 231.744 258.539 231.798C258.539 231.851 258.519 231.903 258.483 231.941C258.447 231.979 258.399 232 258.348 232Z" fill="#292A2E"/>
</g>
<defs>
<clipPath id="clip0_15_1407">
<rect width="263" height="232" fill="white"/>
</clipPath>
</defs>
</svg>
