<svg width="140" height="67" viewBox="0 0 140 67" fill="none" xmlns="http://www.w3.org/2000/svg">
<path d="M37.693 59.603L55.8019 3.47751C56.1201 2.49119 56.7397 1.6317 57.572 1.02218C58.4044 0.412665 59.4066 0.0843801 60.4353 0.0843506H134.212C134.981 0.0843505 135.739 0.267914 136.424 0.62002C137.109 0.972126 137.702 1.48277 138.154 2.1102C138.606 2.73762 138.904 3.46399 139.024 4.2299C139.144 4.99581 139.083 5.77949 138.845 6.51686L120.736 62.6423C120.418 63.6284 119.799 64.4877 118.966 65.0971C118.134 65.7066 117.132 66.0349 116.104 66.0351H42.3264C41.5574 66.0351 40.7992 65.8516 40.114 65.4995C39.4288 65.1475 38.836 64.6369 38.3841 64.0095C37.9321 63.3821 37.6339 62.6558 37.5138 61.8899C37.3937 61.124 37.4551 60.3403 37.693 59.603Z" fill="#292A2E"/>
<path d="M52.4651 61.4843H3.07983C1.8492 61.4843 0.851562 62.4901 0.851562 63.7309V63.7884C0.851562 65.0292 1.8492 66.0351 3.07983 66.0351H52.4651C53.6958 66.0351 54.6934 65.0292 54.6934 63.7884V63.7309C54.6934 62.4901 53.6958 61.4843 52.4651 61.4843Z" fill="#292A2E"/>
<path d="M88.269 43.5997C92.5425 43.5997 96.0068 40.1067 96.0068 35.7979C96.0068 31.4891 92.5425 27.9961 88.269 27.9961C83.9955 27.9961 80.5311 31.4891 80.5311 35.7979C80.5311 40.1067 83.9955 43.5997 88.269 43.5997Z" fill="white"/>
</svg>
