<svg width="170" height="151" viewBox="0 0 170 151" fill="none" xmlns="http://www.w3.org/2000/svg">
<path d="M78.9073 22.8497C78.9073 22.8497 84.1222 18.2967 84.844 8.58408C85.4026 1.06257 78.9073 6.34972 78.9073 6.34972C78.9073 6.34972 79.2571 0.930081 75.4124 1.725C71.5677 2.51992 69.767 8.31052 69.767 8.31052" fill="#0C0C0C"/>
<path d="M55.3892 3.71002C55.3892 3.71002 36.2665 7.0931 44.9782 32.9381H50.1654" fill="#0C0C0C"/>
<path d="M76.9254 59.8072C76.8402 59.796 75.8986 75.5526 57.7438 74.1788C45.1756 73.2294 40.6942 59.7848 40.4062 59.7848C41.7613 59.4944 44.0433 59.0723 44.6451 58.7484C46.6239 57.6762 49.0728 56.5603 49.7106 52.6854C50.0785 50.4521 49.4548 39.0262 49.6465 36.7661L68.9388 41.1079C68.6693 45.8804 66.7827 56.9443 73.3953 58.9025C74.4957 59.2265 75.6809 59.5243 76.9254 59.8072Z" fill="#F2A080"/>
<path opacity="0.52" d="M69.2095 54.3808C68.9074 53.3989 68.7128 52.3866 68.6291 51.362C68.417 49.0237 68.4593 46.6691 68.7553 44.3402C64.8341 43.8064 61.14 42.1745 58.0926 39.63C57.7346 40.9638 55.7644 46.7925 56.3099 48.0603C57.3408 50.4566 62.1863 54.3808 69.2095 54.3808Z" fill="#0C0C0C"/>
<path d="M65.7852 50.5738C58.1454 50.4002 48.7349 46.1767 47.9132 35.792L47.1729 26.4216C46.3512 16.0373 51.0964 7.18344 60.7919 6.40345C70.4897 5.62309 78.4041 13.457 79.2251 23.8428L79.5534 27.9913C79.6414 29.4176 79.633 30.8483 79.5282 32.2734C79.2784 36.0428 78.8842 41.7729 76.6252 45.7833C74.4921 49.5713 70.6659 50.685 65.7852 50.5738Z" fill="#F2A080"/>
<path d="M76.3481 30.2126C77.0098 30.2126 77.5462 29.6718 77.5462 29.0046C77.5462 28.3374 77.0098 27.7965 76.3481 27.7965C75.6863 27.7965 75.1499 28.3374 75.1499 29.0046C75.1499 29.6718 75.6863 30.2126 76.3481 30.2126Z" fill="#0C0C0C"/>
<path d="M65.3459 30.2884C66.0076 30.2884 66.544 29.7475 66.544 29.0803C66.544 28.4131 66.0076 27.8723 65.3459 27.8723C64.6841 27.8723 64.1477 28.4131 64.1477 29.0803C64.1477 29.7475 64.6841 30.2884 65.3459 30.2884Z" fill="#0C0C0C"/>
<path d="M48.7656 38.9071C45.8185 39.1445 43.1764 36.1577 42.9429 33.1863C42.7093 30.2149 44.9672 28.3839 47.9143 28.1481L49.5903 30.0167L51.2996 38.7045L48.7656 38.9071Z" fill="#F2A080"/>
<path d="M51.3835 33.9301C51.3835 33.9301 51.402 19.1561 55.7645 17.9492C58.6701 17.1453 66.0937 20.8755 72.6256 19.1561C75.4835 18.4038 78.2796 18.9404 78.6508 20.3004C78.7989 20.8389 80.0796 12.8737 75.1507 7.22562C71.2272 2.72929 59.3267 2.1874 54.0566 4.1064C39.4641 9.4152 47.35 28.8359 47.35 28.8359L48.3494 33.8614L51.3835 33.9301Z" fill="#0C0C0C"/>
<g opacity="0.52">
<path d="M70.4229 37.4942H70.4418C71.3916 37.4195 72.9769 37.1897 72.9218 36.4731C72.8755 35.8793 70.775 29.5969 70.534 28.8826C70.5117 28.8233 70.4674 28.7751 70.4106 28.7481C70.3538 28.7211 70.2888 28.7173 70.2292 28.7376C70.1697 28.7579 70.1203 28.8007 70.0914 28.857C70.0625 28.9132 70.0564 28.9786 70.0743 29.0393C71.0074 31.8215 72.4062 36.1074 72.4376 36.5108C72.3573 36.6873 71.3872 36.9295 70.4019 37.0064C70.3381 37.0095 70.2781 37.0379 70.235 37.0853C70.1918 37.1327 70.169 37.1954 70.1714 37.2597C70.1738 37.324 70.2012 37.3848 70.2477 37.4288C70.2943 37.4729 70.3562 37.4966 70.42 37.4949L70.4229 37.4942Z" fill="#0C0C0C"/>
</g>
<path d="M72.5478 22.7601C73.5161 22.4178 74.5581 22.3449 75.5641 22.5489C76.0589 22.6462 76.5364 22.8178 76.9806 23.058C77.4203 23.2935 77.8288 23.5839 78.1965 23.9223C78.2568 23.9752 78.2944 24.0496 78.3013 24.1299C78.3082 24.2102 78.2839 24.2901 78.2336 24.3527C78.1832 24.4153 78.1107 24.4557 78.0314 24.4654C77.952 24.4751 77.872 24.4534 77.8083 24.4048L77.7886 24.3899C77.4477 24.1091 77.0731 23.8725 76.6738 23.6857C76.2804 23.4996 75.8613 23.3745 75.4308 23.3147C74.5801 23.19 73.7118 23.2941 72.9139 23.6166L72.8835 23.6293C72.8272 23.6561 72.766 23.671 72.7038 23.6734C72.6416 23.6757 72.5795 23.6654 72.5214 23.643C72.4632 23.6205 72.4101 23.5865 72.3653 23.5429C72.3205 23.4993 72.2849 23.4471 72.2606 23.3893C72.2363 23.3315 72.2238 23.2693 72.2239 23.2065C72.224 23.1437 72.2366 23.0816 72.2611 23.0239C72.2856 22.9662 72.3213 22.914 72.3663 22.8705C72.4112 22.8271 72.4644 22.7932 72.5226 22.771L72.5478 22.7601Z" fill="#0C0C0C"/>
<path d="M65.5148 23.7174C64.7168 23.3952 63.8485 23.2913 62.9978 23.4162C62.5673 23.4759 62.1483 23.601 61.7549 23.7872C61.3555 23.9739 60.9809 24.2105 60.64 24.4914L60.6211 24.506C60.5574 24.5542 60.4777 24.5757 60.3986 24.5659C60.3195 24.5562 60.2472 24.5159 60.1969 24.4536C60.1466 24.3913 60.1222 24.3118 60.1287 24.2317C60.1353 24.1517 60.1724 24.0773 60.2321 24.0242C60.5997 23.6855 61.0083 23.3949 61.448 23.1595C61.8924 22.9191 62.37 22.7473 62.865 22.65C63.8708 22.446 64.9126 22.519 65.8809 22.8613C65.9939 22.905 66.0854 22.9917 66.1358 23.1027C66.1862 23.2137 66.1915 23.3401 66.1506 23.455C66.1096 23.5699 66.0257 23.664 65.9168 23.7172C65.8078 23.7705 65.6825 23.7786 65.5677 23.7398L65.5452 23.7312L65.5148 23.7174Z" fill="#0C0C0C"/>
<path d="M71.5862 39.927C68.8229 40.2487 66.0321 39.6328 63.6548 38.1767C63.5723 38.1266 63.4774 38.1012 63.3812 38.1035C63.2849 38.1058 63.1913 38.1357 63.1113 38.1897C63.0313 38.2437 62.9682 38.3196 62.9294 38.4084C62.8906 38.4973 62.8778 38.5954 62.8923 38.6914C63.1569 40.3335 64.1137 43.3299 67.5672 43.5478C69.7977 43.6885 71.3219 41.8919 72.077 40.7115C72.1296 40.6297 72.1579 40.5343 72.1585 40.4368C72.1591 40.3392 72.132 40.2436 72.0803 40.1611C72.0287 40.0786 71.9548 40.0127 71.8672 39.9712C71.7796 39.9297 71.6821 39.9144 71.5862 39.927Z" fill="white"/>
<path d="M70.4264 12.6687C72.5791 12.0613 73.6053 8.97908 72.7186 5.78443C71.8319 2.58978 69.3679 0.492423 67.2153 1.09985C65.0626 1.70729 64.0363 4.78948 64.9231 7.98413C65.8098 11.1788 68.2738 13.2761 70.4264 12.6687Z" fill="#0C0C0C"/>
<path d="M57.3839 70.2497C44.765 69.6499 44.2339 58.8506 44.2339 58.8506C44.2339 58.8506 37.9814 59.2581 33.8251 59.825C27.0203 60.7532 22.5312 63.0797 18.959 66.6819C15.6355 70.0325 13.6123 73.6577 15.7535 96.803C17.3037 113.562 16.2125 150.425 16.2125 150.425H92.3695C92.3695 150.425 96.9367 102.108 97.573 94.5638C98.7882 80.1623 99.7746 67.6164 96.809 64.6263C90.7124 58.4793 78.746 58.8506 73.5055 58.8513C73.4204 58.8513 74.569 71.0662 57.3839 70.2497Z" fill="#926DBB"/>
<path d="M168.53 149.928L113.527 150.201C110.888 150.009 108.358 149.06 106.236 147.467C104.114 145.873 102.488 143.702 101.55 141.207L74.4213 80.5247C73.1152 77.0545 73.2298 73.2033 74.74 69.8183C76.2501 66.4333 79.032 63.7917 82.4738 62.4748C89.642 59.7321 96.7184 61.5761 99.4382 68.8021L124.362 122.928L169.644 123.669C169.644 123.669 168.87 149.952 168.53 149.928Z" fill="#926DBB"/>
<path d="M96.4963 97.9308C96.4994 97.8813 96.5219 97.8351 96.5588 97.8023C96.5957 97.7695 96.644 97.7529 96.693 97.756C96.7421 97.7591 96.788 97.7818 96.8205 97.819C96.853 97.8562 96.8696 97.9049 96.8665 97.9544L95.3182 122.895C95.3154 122.94 95.2966 122.982 95.2653 123.014C95.234 123.046 95.1923 123.065 95.1479 123.069C95.1391 123.07 95.1304 123.07 95.1216 123.069C95.0973 123.067 95.0736 123.061 95.0517 123.05C95.0299 123.04 95.0103 123.025 94.9942 123.006C94.9781 122.988 94.9658 122.966 94.9579 122.943C94.9501 122.92 94.9468 122.895 94.9484 122.871" fill="#0C0C0C"/>
<path d="M105.875 124.677L94.7211 120.735L96.3223 120.623C96.8385 120.576 97.318 120.334 97.6639 119.945C98.0098 119.556 98.1963 119.049 98.1856 118.526C98.1709 118.257 98.1019 117.993 97.9828 117.751C97.8637 117.51 97.697 117.295 97.4929 117.12C97.2887 116.946 97.0514 116.815 96.7954 116.736C96.5394 116.657 96.2701 116.631 96.004 116.66L76.2705 118.775L76.7828 125.169C76.9421 127.155 77.686 129.048 78.9192 130.605C80.1524 132.161 81.8187 133.311 83.7045 133.907L92.2503 136.591C92.6917 136.739 93.1703 136.729 93.6051 136.563C94.0399 136.396 94.4042 136.083 94.6363 135.676C94.8381 135.305 94.9169 134.878 94.8613 134.458C94.8056 134.039 94.6183 133.648 94.3268 133.343C94.3528 133.324 94.3731 133.298 94.3857 133.268C94.3959 133.24 94.3992 133.21 94.3954 133.181C94.3916 133.152 94.3808 133.123 94.3639 133.099L95.9392 133.597C96.4304 133.763 96.966 133.736 97.4376 133.519C97.9093 133.303 98.2818 132.914 98.4799 132.431C98.6419 131.993 98.6457 131.512 98.4905 131.071C98.3354 130.631 98.0312 130.26 97.6315 130.024C97.6498 130.014 97.6661 130 97.6796 129.984L98.3274 130.189C98.7687 130.337 99.2473 130.327 99.6821 130.16C100.117 129.993 100.481 129.68 100.713 129.274C100.958 128.823 101.021 128.294 100.888 127.798C100.754 127.302 100.435 126.877 99.9982 126.613C100.002 126.6 100.004 126.586 100.004 126.573L104.649 128.215C104.88 128.3 105.126 128.338 105.372 128.326C105.617 128.315 105.858 128.254 106.081 128.148C106.303 128.042 106.502 127.892 106.667 127.708C106.832 127.524 106.958 127.308 107.04 127.074C107.121 126.84 107.155 126.592 107.141 126.345C107.127 126.097 107.064 125.855 106.956 125.632C106.848 125.409 106.697 125.21 106.512 125.047C106.327 124.883 106.112 124.758 105.879 124.679L105.875 124.677Z" fill="#F2A080"/>
<path opacity="0.2" d="M99.8197 126.755C99.7982 126.755 99.7767 126.751 99.7565 126.743L95.2633 125.096C95.2394 125.089 95.2173 125.076 95.1983 125.06C95.1793 125.044 95.1638 125.023 95.1527 125.001C95.1416 124.978 95.1352 124.954 95.1338 124.928C95.1324 124.903 95.1361 124.878 95.1447 124.854C95.1532 124.831 95.1664 124.809 95.1835 124.791C95.2006 124.772 95.2212 124.757 95.244 124.747C95.2669 124.737 95.2916 124.732 95.3166 124.732C95.3416 124.731 95.3664 124.736 95.3895 124.746L99.883 126.393C99.9237 126.408 99.9578 126.437 99.9794 126.475C100.001 126.513 100.009 126.557 100.001 126.601C99.9936 126.644 99.9713 126.683 99.9382 126.711C99.905 126.739 99.8631 126.754 99.8197 126.755Z" fill="#0A0A0A"/>
<path opacity="0.2" d="M97.5472 130.048C97.5261 130.048 97.5052 130.044 97.4853 130.037L93.9438 128.768C93.8991 128.75 93.8629 128.716 93.843 128.672C93.8231 128.628 93.8209 128.578 93.8369 128.532C93.853 128.486 93.886 128.449 93.929 128.427C93.972 128.406 94.0217 128.402 94.0675 128.417L97.609 129.684C97.65 129.698 97.6846 129.727 97.7066 129.765C97.7286 129.803 97.7366 129.848 97.7293 129.891C97.7219 129.934 97.6996 129.974 97.6662 130.002C97.6329 130.03 97.5908 130.046 97.5472 130.046V130.048Z" fill="#0A0A0A"/>
<path opacity="0.2" d="M94.2137 133.39C94.1911 133.39 94.1687 133.386 94.1475 133.378L92.4888 132.74C92.4444 132.721 92.4089 132.686 92.3899 132.641C92.3709 132.597 92.3699 132.546 92.387 132.501C92.4042 132.456 92.4381 132.419 92.4817 132.398C92.5253 132.378 92.5752 132.375 92.6206 132.391L94.2796 133.029C94.32 133.045 94.3537 133.074 94.3749 133.112C94.396 133.15 94.4033 133.194 94.3955 133.237C94.3877 133.28 94.3652 133.319 94.332 133.347C94.2988 133.374 94.257 133.39 94.2137 133.39Z" fill="#0A0A0A"/>
<path d="M84.5391 138.596L15.3822 150.154C13.2502 150.388 11.0934 150.121 9.08108 149.373C7.06874 148.626 5.2556 147.418 3.78391 145.845C2.31223 144.272 1.22204 142.377 0.598883 140.308C-0.0242749 138.239 -0.16345 136.053 0.192279 133.92L14.9392 74.3572C15.5499 70.6969 17.5778 67.4311 20.5767 65.2783C23.5756 63.1255 27.2998 62.262 30.9301 62.8778C34.5604 63.4936 37.7994 65.5383 39.9346 68.5619C42.0697 71.5856 42.9261 75.3406 42.3154 79.0009L31.0056 120.514L81.2574 113.593L84.5391 138.596Z" fill="#926DBB"/>
<path d="M21.9903 121.817C21.9438 121.816 21.8992 121.798 21.8653 121.766C21.8314 121.734 21.8107 121.691 21.8073 121.644C21.8039 121.597 21.818 121.551 21.8469 121.514C21.8758 121.477 21.9174 121.453 21.9633 121.446L30.5832 120.144C30.6073 120.141 30.6319 120.141 30.6556 120.147C30.6793 120.153 30.7016 120.164 30.7213 120.178C30.7409 120.193 30.7574 120.211 30.7699 120.232C30.7823 120.253 30.7905 120.277 30.7938 120.301C30.801 120.35 30.7886 120.4 30.7594 120.44C30.7302 120.48 30.6865 120.506 30.638 120.513L22.0181 121.815C22.0089 121.816 21.9996 121.817 21.9903 121.817Z" fill="#0C0C0C"/>
<path d="M17.3072 150.425C17.2581 150.428 17.2098 150.411 17.1728 150.378C17.1359 150.346 17.1134 150.299 17.1102 150.25C17.1071 150.201 17.1236 150.152 17.1561 150.115C17.1886 150.077 17.2344 150.055 17.2835 150.051L84.1514 138.455L80.91 113.823L31.0054 120.514C30.9768 120.518 30.9476 120.515 30.9204 120.505C30.8931 120.495 30.8684 120.48 30.8481 120.459C30.8279 120.438 30.8129 120.412 30.8043 120.384C30.7957 120.356 30.7937 120.327 30.7985 120.298L36.1985 96.8082C36.2023 96.7839 36.2108 96.7606 36.2236 96.7396C36.2364 96.7187 36.2532 96.7005 36.2731 96.6862C36.2929 96.6719 36.3154 96.6618 36.3393 96.6564C36.3631 96.651 36.3877 96.6505 36.4117 96.6548C36.4357 96.6589 36.4587 96.6677 36.4793 96.6807C36.5 96.6938 36.5178 96.7108 36.5319 96.7308C36.546 96.7508 36.5561 96.7734 36.5615 96.7973C36.5669 96.8212 36.5676 96.846 36.5635 96.8702L31.2049 120.112L81.0488 113.428C81.0733 113.424 81.0982 113.426 81.122 113.433C81.1458 113.439 81.1681 113.45 81.1875 113.466C81.2069 113.481 81.2231 113.5 81.2351 113.522C81.247 113.544 81.2546 113.568 81.2572 113.593L84.5389 138.597C84.5442 138.646 84.5304 138.694 84.5005 138.733C84.4706 138.771 84.427 138.796 84.379 138.802L17.3312 150.423C17.3232 150.424 17.3152 150.425 17.3072 150.425Z" fill="#0C0C0C"/>
</svg>
