<svg width="345" height="235" viewBox="0 0 345 235" fill="none" xmlns="http://www.w3.org/2000/svg">
<path opacity="0.2" d="M90.7683 33.8938L90.5171 33.8263L10.7908 211.755L291.843 234.882L292.159 234.908L302.457 90.4706L302.478 90.1866L90.7683 33.8938ZM171.506 148.318L11.897 210.853L90.7531 34.867L171.506 148.318ZM171.974 148.854L290.695 234.109L12.7497 211.239L171.974 148.854ZM172.121 148.065L91.4877 34.7799L301.138 90.5246L172.121 148.065ZM291.593 233.94L172.681 148.547L301.786 90.968L291.593 233.94Z" fill="#367CFF"/>
<path d="M294.037 44.081C293.783 50.9308 291.977 57.6132 288.774 63.5571C285.57 69.501 281.064 74.5297 275.641 78.2135C270.217 81.8973 264.038 84.1267 257.631 84.7111C251.223 85.2955 244.778 84.2175 238.847 81.5694C236.065 80.3265 233.426 78.7464 230.984 76.8602C226.314 73.2669 222.428 68.6409 219.591 63.2988V63.2941C216.565 57.5803 214.824 51.1965 214.504 44.6443C214.183 38.0921 215.293 31.5499 217.744 25.5318C220.196 19.5137 223.924 14.1836 228.634 9.9603C233.344 5.73697 238.909 2.73545 244.891 1.19156C250.873 -0.352322 257.11 -0.396517 263.11 1.06245C269.111 2.52143 274.713 5.44382 279.476 9.60003C284.238 13.7562 288.032 19.033 290.558 25.0159C293.085 30.9987 294.276 37.5245 294.037 44.0807L294.037 44.081Z" fill="white"/>
<path opacity="0.09" d="M294.037 44.081C293.783 50.9308 291.977 57.6132 288.774 63.5571C285.57 69.501 281.064 74.5297 275.641 78.2135C270.217 81.8973 264.038 84.1267 257.631 84.7111C251.223 85.2955 244.778 84.2175 238.847 81.5694C236.065 80.3265 233.426 78.7464 230.984 76.8602C226.314 73.2669 222.428 68.6409 219.591 63.2988V63.2941C216.565 57.5803 214.824 51.1965 214.504 44.6443C214.183 38.0921 215.293 31.5499 217.744 25.5318C220.196 19.5137 223.924 14.1836 228.634 9.9603C233.344 5.73697 238.909 2.73545 244.891 1.19156C250.873 -0.352322 257.11 -0.396517 263.11 1.06245C269.111 2.52143 274.713 5.44382 279.476 9.60003C284.238 13.7562 288.032 19.033 290.558 25.0159C293.085 30.9987 294.276 37.5245 294.037 44.0807L294.037 44.081Z" fill="#586A6A"/>
<path d="M263.672 10.1187C263.672 10.1187 273.189 10.2429 269.908 24.2241L269.015 24.2707L267.2 24.3649" fill="#0C0C0C"/>
<path d="M253.044 38.8929C253.089 38.8885 253.264 47.6091 262.773 47.2428C269.356 46.9902 271.967 39.6631 272.118 39.6692C271.416 39.4798 270.232 39.1965 269.925 39.0053C268.913 38.3709 267.656 37.7019 267.401 35.5483C267.254 34.307 267.809 28.0115 267.754 26.7598L257.591 28.7402C257.636 31.3814 258.399 37.5311 254.906 38.4695C254.325 38.6248 253.7 38.7636 253.044 38.8929Z" fill="#E98862"/>
<path opacity="0.52" d="M257.183 36.0632C257.361 35.5276 257.483 34.9727 257.547 34.4087C257.705 33.1221 257.73 31.821 257.622 30.5285C259.681 30.3186 261.643 29.4974 263.285 28.1581C263.446 28.901 264.358 32.1635 264.046 32.8517C263.46 34.1531 260.851 36.2152 257.183 36.0632Z" fill="#0C0C0C"/>
<path d="M259.49 34.5224C263.474 34.2185 268.28 31.633 268.447 25.8781L268.597 20.6865C268.764 14.9326 266.063 10.1745 260.983 10.007C255.9 9.83817 251.966 14.3785 251.799 20.1323L251.733 22.4309C251.723 23.2208 251.763 24.0105 251.854 24.7945C252.079 26.8678 252.43 30.0203 253.71 32.1729C254.919 34.205 256.945 34.7159 259.49 34.5224Z" fill="#E98862"/>
<path d="M268.08 27.6219C269.625 27.6725 270.928 25.9525 270.976 24.3063C271.023 22.6602 269.797 21.7107 268.253 21.6597L267.425 22.7365L266.752 27.578L268.08 27.6219Z" fill="#E98862"/>
<path d="M252.061 26.5321C252.34 26.8848 252.697 27.1574 253.1 27.3253C253.503 27.4931 253.939 27.5508 254.369 27.4931C255.287 27.3699 255.896 27.7717 256.663 27.691C257.307 27.6235 257.418 27.3064 258.517 27.2372C262.758 26.9694 265.94 26.6844 266.146 21.0119L268.845 18.4568C268.845 18.4568 270.051 34.1759 262.075 36.2654C257.174 37.5486 252.577 37.0796 251.986 32.1729C251.506 28.186 252.061 26.5321 252.061 26.5321Z" fill="#0C0C0C"/>
<path d="M254.07 23.2493C254.416 23.2493 254.696 22.9504 254.696 22.5818C254.696 22.2131 254.416 21.9142 254.07 21.9142C253.724 21.9142 253.444 22.2131 253.444 22.5818C253.444 22.9504 253.724 23.2493 254.07 23.2493Z" fill="#0C0C0C"/>
<path d="M259.664 23.1251C260.01 23.1251 260.29 22.8262 260.29 22.4575C260.29 22.0888 260.01 21.7899 259.664 21.7899C259.318 21.7899 259.038 22.0888 259.038 22.4575C259.038 22.8262 259.318 23.1251 259.664 23.1251Z" fill="#0C0C0C"/>
<path d="M266.589 24.9454C266.589 24.9454 266.207 16.792 263.899 16.244C262.362 15.879 258.581 18.1393 255.127 17.3674C253.616 17.0298 252.17 17.4012 252.011 18.1623C251.947 18.4635 250.752 15.7922 253.183 12.5418C255.118 9.95391 261.411 9.22589 264.21 10.141C271.962 12.6755 268.567 22.0246 268.567 22.0246L268.171 24.8252L266.589 24.9454Z" fill="#0C0C0C"/>
<path d="M270.112 18.371C272.394 18.371 274.244 16.3993 274.244 13.9671C274.244 11.5349 272.394 9.56323 270.112 9.56323C267.831 9.56323 265.981 11.5349 265.981 13.9671C265.981 16.3993 267.831 18.371 270.112 18.371Z" fill="#0C0C0C"/>
<g opacity="0.52">
<path d="M256.74 27.429H256.73C256.232 27.4138 255.4 27.3294 255.409 26.9326C255.418 26.6038 256.357 23.0792 256.464 22.678C256.473 22.6435 256.495 22.6144 256.524 22.5969C256.553 22.5795 256.588 22.5752 256.62 22.585C256.653 22.5948 256.68 22.6179 256.697 22.6492C256.713 22.6805 256.717 22.7175 256.708 22.752C256.291 24.313 255.669 26.7165 255.662 26.9391C255.709 27.0343 256.222 27.1417 256.737 27.1575C256.771 27.1571 256.803 27.171 256.827 27.196C256.851 27.2211 256.865 27.2553 256.865 27.2911C256.865 27.3269 256.852 27.3614 256.829 27.387C256.805 27.4126 256.773 27.4273 256.74 27.4277V27.429Z" fill="#0C0C0C"/>
</g>
<path d="M255.224 20.3136C254.71 20.1513 254.164 20.1396 253.645 20.2798C253.389 20.3468 253.144 20.4545 252.918 20.5993C252.694 20.7411 252.488 20.9126 252.305 21.1095C252.273 21.1398 252.254 21.1824 252.252 21.2278C252.249 21.2733 252.264 21.3179 252.293 21.3518C252.321 21.3856 252.361 21.4061 252.404 21.4086C252.446 21.4111 252.488 21.3954 252.52 21.3651L252.53 21.3563C252.701 21.1919 252.89 21.0511 253.094 20.9373C253.295 20.8239 253.51 20.7435 253.734 20.6989C254.174 20.607 254.63 20.6409 255.054 20.7971L255.07 20.8035C255.1 20.8159 255.132 20.8218 255.164 20.8209C255.197 20.8199 255.228 20.8122 255.257 20.7981C255.287 20.7839 255.313 20.7638 255.335 20.7387C255.357 20.7136 255.374 20.6841 255.385 20.652C255.396 20.6198 255.401 20.5856 255.4 20.5514C255.398 20.5172 255.39 20.4836 255.377 20.4527C255.363 20.4217 255.343 20.394 255.32 20.3711C255.296 20.3482 255.268 20.3306 255.237 20.3193L255.224 20.3136Z" fill="#0C0C0C"/>
<path d="M258.914 20.7978C259.322 20.598 259.773 20.5171 260.22 20.5631C260.446 20.5842 260.668 20.642 260.878 20.7343C261.092 20.8265 261.293 20.9468 261.478 21.0926L261.488 21.1C261.523 21.124 261.564 21.1329 261.605 21.1251C261.645 21.1172 261.681 21.0931 261.706 21.0578C261.73 21.0224 261.741 20.9785 261.736 20.9349C261.731 20.8914 261.71 20.8516 261.678 20.8238C261.478 20.6468 261.257 20.4975 261.022 20.3794C260.784 20.2589 260.53 20.177 260.269 20.1366C259.739 20.0515 259.197 20.1199 258.7 20.3349C258.642 20.3617 258.596 20.412 258.572 20.4749C258.548 20.5377 258.548 20.608 258.572 20.6706C258.597 20.7332 258.643 20.7831 258.702 20.8094C258.761 20.8357 258.827 20.8364 258.886 20.8113L258.897 20.8059L258.914 20.7978Z" fill="#0C0C0C"/>
<path d="M284.285 60.6681C283.931 63.519 283.585 67.435 283.276 71.4839C282.07 72.8526 280.78 74.1347 279.415 75.3219C278.547 76.0733 277.652 76.7876 276.728 77.4647C271.735 81.0982 266.032 83.4741 260.051 84.4128C254.069 85.3514 247.966 84.8283 242.202 82.883C242.124 79.122 242.017 74.0489 241.91 69.4012C241.788 64.04 241.665 59.2397 241.599 57.6625C241.326 51.4028 239.769 47.2261 240.946 43.811C241.298 42.8 241.864 41.8892 242.599 41.1491C245.341 38.2887 252.151 38.3539 254.882 38.467C254.93 38.469 254.086 45.189 263.073 45.108C269.678 45.0502 270.174 39.0995 270.174 39.0995C270.174 39.0995 273.429 39.4604 275.591 39.8606C279.126 40.5207 281.425 41.9031 283.214 43.9676C284.883 45.8927 285.867 47.9363 284.285 60.6681Z" fill="#586A6A"/>
<path d="M231.451 39.1295L231.723 31.9591C231.729 31.8014 231.704 31.6441 231.65 31.4971C231.596 31.3502 231.514 31.2169 231.409 31.1057C231.304 30.9945 231.178 30.9078 231.04 30.8513C230.902 30.7947 230.754 30.7695 230.606 30.7773C230.334 30.8007 230.079 30.9312 229.892 31.1433C229.705 31.3554 229.598 31.6341 229.593 31.9253L229.534 33.4631L227.635 28.5389C227.433 27.9875 226.854 27.4485 226.288 27.7312C226.064 27.8247 225.876 27.9965 225.755 28.2185C225.635 28.4405 225.588 28.6996 225.623 28.9535C225.618 28.9542 225.612 28.9555 225.607 28.9572C225.604 28.9594 225.6 28.9619 225.597 28.9647L225.285 28.1144C225.228 27.9569 225.137 27.8151 225.022 27.6995C224.906 27.5838 224.768 27.497 224.616 27.4456C224.465 27.3942 224.305 27.3794 224.148 27.4023C223.991 27.4252 223.84 27.4851 223.708 27.5779C223.502 27.7283 223.35 27.9497 223.279 28.2049C223.207 28.4602 223.22 28.7339 223.315 28.9802L223.448 29.3418C223.44 29.3508 223.433 29.3612 223.429 29.3726C223.286 29.1505 223.074 28.9898 222.83 28.9191C222.586 28.8484 222.327 28.8723 222.098 28.9866C221.851 29.1199 221.661 29.3474 221.564 29.6238C221.468 29.9003 221.473 30.2053 221.578 30.4781L221.908 31.377C221.895 31.3677 221.88 31.362 221.864 31.3601C221.849 31.3582 221.833 31.3603 221.818 31.3662C221.801 31.3743 221.787 31.3874 221.776 31.404C221.598 31.2436 221.374 31.1504 221.141 31.1385C220.908 31.1266 220.677 31.1967 220.485 31.3381C220.286 31.4912 220.141 31.7113 220.074 31.963C220.006 32.2147 220.021 32.4831 220.115 32.7249L222.895 40.3087C223.284 41.3696 223.961 42.2825 224.84 42.9305C225.719 43.5784 226.759 43.9318 227.828 43.9454C228.749 43.957 229.638 43.5852 230.307 42.9091C230.975 42.2329 231.37 41.3056 231.407 40.3242L231.451 39.1295Z" fill="#E98862"/>
<g opacity="0.2">
<path d="M227.48 33.838C227.456 33.8479 227.429 33.8474 227.405 33.8365C227.382 33.8256 227.363 33.8053 227.353 33.7799L225.553 29.0941C225.547 29.0812 225.544 29.0672 225.544 29.0529C225.543 29.0387 225.546 29.0245 225.55 29.0112C225.555 28.9979 225.563 28.9859 225.572 28.9757C225.581 28.9656 225.593 28.9575 225.605 28.9521C225.617 28.9468 225.631 28.9441 225.644 28.9444C225.657 28.9446 225.67 28.9478 225.683 28.9536C225.695 28.9595 225.706 28.9679 225.715 28.9784C225.724 28.9889 225.731 29.0013 225.735 29.0147L227.535 33.7005C227.54 33.7133 227.543 33.7269 227.543 33.7407C227.543 33.7545 227.54 33.7681 227.535 33.7808C227.53 33.7935 227.523 33.8051 227.514 33.8148C227.504 33.8244 227.493 33.8321 227.481 33.8373L227.48 33.838Z" fill="#0C0C0C"/>
</g>
<g opacity="0.2">
<path d="M225.564 34.7415C225.54 34.7515 225.513 34.751 225.489 34.7401C225.466 34.7291 225.447 34.7087 225.437 34.6831L223.428 29.4536C223.419 29.4281 223.419 29.3996 223.429 29.3744C223.439 29.3491 223.458 29.3291 223.482 29.3186C223.506 29.3094 223.533 29.3102 223.556 29.3208C223.579 29.3314 223.598 29.3509 223.609 29.3756L225.618 34.6051C225.628 34.6309 225.628 34.6597 225.617 34.6854C225.607 34.711 225.588 34.7313 225.564 34.7419V34.7415Z" fill="#0C0C0C"/>
</g>
<g opacity="0.2">
<path d="M223.492 35.7326C223.468 35.7425 223.441 35.742 223.418 35.7311C223.394 35.7202 223.375 35.6997 223.366 35.6741L221.763 31.5029C221.753 31.4772 221.753 31.4484 221.763 31.4228C221.774 31.3972 221.793 31.3769 221.817 31.3663C221.841 31.3558 221.868 31.3559 221.892 31.3667C221.916 31.3774 221.935 31.3979 221.945 31.4236L223.548 35.5938C223.558 35.6195 223.558 35.6484 223.548 35.674C223.538 35.6997 223.519 35.72 223.495 35.7305L223.492 35.7326Z" fill="#0C0C0C"/>
</g>
<path d="M253.717 50.3712L237.347 77.201C236.751 78.1763 235.953 78.993 235.015 79.5884C233.62 78.7682 232.274 77.8571 230.984 76.8603C228.235 74.7456 225.75 72.2647 223.591 69.4782L220.152 41.0586L233.913 38.7081L235.482 52.3878L241.77 42.0845L253.717 50.3712Z" fill="#586A6A"/>
<path d="M255.637 28.8928C257.138 28.9991 258.63 28.5689 259.877 27.6701C259.92 27.6391 259.971 27.622 260.023 27.6206C260.075 27.6192 260.126 27.6336 260.171 27.6622C260.216 27.6908 260.252 27.7323 260.275 27.782C260.298 27.8316 260.308 27.8873 260.303 27.9426C260.202 28.888 259.764 30.627 257.903 30.8485C256.702 30.9914 255.831 30.0077 255.392 29.3537C255.362 29.3084 255.344 29.2549 255.341 29.1993C255.339 29.1438 255.351 29.0886 255.377 29.0402C255.402 28.9917 255.44 28.9522 255.486 28.926C255.533 28.8999 255.585 28.8884 255.637 28.8928Z" fill="white"/>
<path d="M288.724 63.6835C286.305 68.1296 283.151 72.0726 279.415 75.3219C278.548 76.0733 277.652 76.7876 276.728 77.4648L270.335 51.5348L284.734 47.4973L288.724 63.6835Z" fill="#586A6A"/>
<path d="M276.868 77.3634C276.823 77.3952 276.773 77.431 276.728 77.4647C276.683 77.4985 276.637 77.5323 276.592 77.5637L271.719 57.81L272.026 57.7246L276.868 77.3634Z" fill="#0C0C0C"/>
<path d="M241.949 70.6226C241.91 70.6208 241.872 70.6033 241.844 70.5735C241.816 70.5437 241.8 70.5037 241.798 70.4615L241.483 63.1003C241.482 63.0555 241.496 63.0118 241.525 62.9787C241.553 62.9456 241.593 62.9259 241.635 62.9239C241.677 62.9219 241.718 62.9377 241.749 62.968C241.78 62.9982 241.798 63.0403 241.8 63.0851L242.114 70.4463C242.116 70.491 242.101 70.5346 242.073 70.5677C242.045 70.6007 242.005 70.6205 241.963 70.6226H241.949Z" fill="#0C0C0C"/>
<path d="M167.861 188.137C190.274 188.137 208.443 168.769 208.443 144.877C208.443 120.985 190.274 101.616 167.861 101.616C145.448 101.616 127.278 120.985 127.278 144.877C127.278 168.769 145.448 188.137 167.861 188.137Z" fill="white"/>
<path opacity="0.09" d="M208.443 144.876C208.443 153.432 206.063 161.796 201.604 168.91C197.145 176.024 190.807 181.568 183.392 184.843C175.976 188.117 167.817 188.974 159.945 187.304C152.073 185.635 144.842 181.515 139.166 175.465C133.491 169.415 129.626 161.707 128.06 153.315C126.494 144.924 127.298 136.226 130.369 128.321C133.441 120.416 138.642 113.66 145.316 108.907C151.989 104.153 159.835 101.616 167.862 101.616C173.196 101.595 178.482 102.7 183.415 104.866C188.347 107.033 192.829 110.218 196.601 114.24C200.374 118.261 203.362 123.038 205.395 128.296C207.427 133.554 208.463 139.189 208.443 144.876Z" fill="#367CFF"/>
<path d="M149.896 119.361C149.896 119.361 149.488 125.891 148.11 128.261C144.142 135.082 142.992 142.755 146.966 146.765C150.939 150.775 176.284 150.83 178.204 141.609C179.819 133.846 176.352 133.011 175.508 126.607C175.126 123.71 174.075 117.634 174.075 117.634" fill="#0A0A0A"/>
<path d="M171.644 140.256C171.6 140.25 171.115 148.837 161.756 148.09C155.278 147.572 152.968 140.245 152.82 140.245C153.518 140.087 154.694 139.857 155.005 139.68C156.025 139.096 157.288 138.488 157.616 136.376C157.806 135.16 157.484 128.932 157.585 127.7L167.529 130.066C167.39 132.666 166.418 138.697 169.826 139.764C170.392 139.939 171.003 140.102 171.644 140.256Z" fill="#E98862"/>
<path opacity="0.5" d="M167.666 137.299C167.51 136.764 167.41 136.212 167.367 135.653C167.258 134.379 167.279 133.096 167.432 131.827C165.411 131.536 163.507 130.647 161.936 129.26C161.751 129.987 160.735 133.164 161.017 133.855C161.55 135.16 164.046 137.299 167.666 137.299Z" fill="#0C0C0C"/>
<path d="M166.381 134.623C162.46 135.029 157.387 133.356 156.336 127.79L155.388 122.768C154.337 117.202 156.227 112.102 161.143 111.047C166.06 109.992 170.586 113.715 171.637 119.282L172.057 121.505C172.46 123.641 173.376 133.902 166.381 134.623Z" fill="#E98862"/>
<path opacity="0.1" d="M163.888 127.331C164.533 127.249 165.01 126.774 164.954 126.269C164.897 125.764 164.329 125.422 163.683 125.504C163.038 125.586 162.561 126.062 162.618 126.566C162.674 127.071 163.243 127.413 163.888 127.331Z" fill="#0C0C0C"/>
<path opacity="0.1" d="M170.706 125.313C170.764 125.816 171.332 126.157 171.977 126.077C172.089 126.063 172.199 126.037 172.305 125.998C172.335 125.398 172.337 124.82 172.321 124.285C172.141 124.237 171.955 124.226 171.772 124.251C171.127 124.332 170.65 124.807 170.706 125.313Z" fill="#0C0C0C"/>
<path opacity="0.5" d="M167.854 126.87H167.864C168.063 126.825 168.26 126.769 168.453 126.701C168.742 126.6 169.118 126.429 169.067 126.151C169.007 125.834 167.546 122.587 167.38 122.218C167.364 122.187 167.338 122.164 167.307 122.154C167.276 122.143 167.243 122.146 167.214 122.161C167.184 122.176 167.162 122.202 167.15 122.234C167.139 122.267 167.139 122.302 167.151 122.334C167.775 123.719 168.778 125.991 168.819 126.204C168.787 126.304 168.308 126.498 167.814 126.605C167.782 126.612 167.755 126.632 167.737 126.661C167.719 126.689 167.712 126.724 167.717 126.758C167.722 126.792 167.739 126.822 167.765 126.843C167.79 126.864 167.822 126.874 167.854 126.871V126.87Z" fill="#0C0C0C"/>
<path d="M151.465 124.571L155.872 123.653C159.201 122.167 160.146 115.984 160.146 115.984C160.146 115.984 164.255 120.155 174.074 117.633C174.074 117.633 171.941 103.02 157.442 107.455C152.766 108.885 149.455 113.966 149.947 120.694C150.292 125.41 151.465 124.571 151.465 124.571Z" fill="#0A0A0A"/>
<path d="M156.961 129.42C155.467 129.741 153.934 128.297 153.635 126.704C153.336 125.111 154.379 123.973 155.874 123.653L156.845 124.555L158.247 129.145L156.961 129.42Z" fill="#E98862"/>
<path d="M168.44 119.628C168.814 119.346 169.251 119.175 169.707 119.132C169.936 119.109 170.167 119.122 170.392 119.172C170.619 119.221 170.84 119.301 171.049 119.408L171.055 119.411C171.078 119.421 171.104 119.421 171.127 119.412C171.15 119.402 171.169 119.383 171.179 119.36C171.19 119.336 171.191 119.308 171.184 119.283C171.176 119.258 171.159 119.237 171.138 119.225C170.916 119.1 170.682 119.006 170.438 118.944C170.194 118.881 169.941 118.857 169.69 118.873C169.181 118.904 168.689 119.078 168.264 119.38C168.248 119.391 168.234 119.406 168.223 119.423C168.212 119.44 168.204 119.459 168.2 119.48C168.196 119.5 168.196 119.521 168.2 119.541C168.204 119.562 168.211 119.581 168.222 119.598C168.233 119.615 168.247 119.63 168.264 119.641C168.28 119.652 168.299 119.66 168.318 119.664C168.337 119.667 168.357 119.666 168.376 119.662C168.395 119.657 168.412 119.648 168.428 119.636L168.431 119.634L168.44 119.628Z" fill="#0C0C0C"/>
<path d="M164.413 120.221C163.913 120.115 163.395 120.154 162.913 120.334C162.675 120.422 162.451 120.547 162.248 120.706C162.046 120.862 161.863 121.045 161.703 121.25C161.687 121.27 161.679 121.297 161.68 121.323C161.682 121.35 161.693 121.375 161.712 121.393C161.73 121.411 161.755 121.421 161.78 121.42C161.805 121.419 161.829 121.408 161.846 121.389L161.851 121.383C162.005 121.198 162.18 121.035 162.372 120.897C162.562 120.759 162.771 120.652 162.991 120.58C163.428 120.434 163.893 120.414 164.34 120.521L164.351 120.524C164.37 120.529 164.389 120.531 164.408 120.528C164.427 120.525 164.446 120.518 164.462 120.507C164.479 120.497 164.494 120.483 164.505 120.466C164.517 120.45 164.525 120.431 164.529 120.411C164.534 120.391 164.535 120.37 164.532 120.349C164.529 120.329 164.522 120.31 164.511 120.292C164.501 120.275 164.488 120.259 164.472 120.248C164.456 120.236 164.438 120.227 164.419 120.223L164.413 120.221Z" fill="#0C0C0C"/>
<path d="M155.876 123.576C158.839 122.4 159.822 120.219 160.125 118.596C160.321 117.514 160.302 116.4 160.071 115.325L159.979 115.352C160.207 116.413 160.225 117.512 160.031 118.58C159.732 120.177 158.764 122.323 155.843 123.481L155.876 123.576Z" fill="#0C0C0C"/>
<path d="M193.334 138.546L195.108 132.13C195.147 131.989 195.213 131.858 195.302 131.746C195.391 131.634 195.5 131.542 195.624 131.478C195.748 131.413 195.883 131.377 196.021 131.371C196.159 131.366 196.296 131.39 196.424 131.444C196.658 131.552 196.846 131.748 196.952 131.995C197.058 132.241 197.074 132.521 196.997 132.78L196.617 134.156L199.675 130.415C200.008 129.993 200.67 129.702 201.09 130.131C201.262 130.286 201.379 130.497 201.424 130.731C201.468 130.966 201.436 131.209 201.334 131.422C201.339 131.425 201.343 131.428 201.347 131.431C201.35 131.434 201.352 131.437 201.354 131.441L201.868 130.789C201.963 130.669 202.082 130.572 202.217 130.507C202.351 130.442 202.498 130.41 202.646 130.413C202.793 130.415 202.939 130.453 203.071 130.524C203.203 130.594 203.319 130.695 203.41 130.819C203.55 131.017 203.622 131.261 203.613 131.509C203.604 131.757 203.516 131.995 203.363 132.181L203.145 132.459C203.149 132.469 203.152 132.481 203.153 132.492C203.341 132.342 203.574 132.268 203.809 132.283C204.044 132.298 204.266 132.403 204.436 132.577C204.617 132.773 204.721 133.034 204.729 133.309C204.736 133.584 204.646 133.851 204.477 134.059L203.934 134.747C203.948 134.743 203.962 134.742 203.977 134.746C203.991 134.749 204.004 134.756 204.016 134.766C204.028 134.778 204.038 134.795 204.042 134.813C204.245 134.728 204.468 134.718 204.678 134.782C204.887 134.846 205.071 134.982 205.2 135.169C205.333 135.367 205.399 135.608 205.387 135.851C205.376 136.095 205.288 136.327 205.137 136.51L200.555 142.318C199.914 143.131 199.06 143.72 198.103 144.012C197.145 144.303 196.128 144.283 195.181 143.955C194.365 143.671 193.685 143.06 193.284 142.25C192.884 141.44 192.796 140.496 193.039 139.618L193.334 138.546Z" fill="#E98862"/>
<g opacity="0.2">
<path d="M198.324 135.143C198.342 135.158 198.366 135.166 198.389 135.164C198.413 135.162 198.435 135.15 198.451 135.131L201.354 131.57C201.37 131.55 201.378 131.525 201.376 131.499C201.375 131.473 201.363 131.449 201.345 131.432C201.327 131.415 201.303 131.407 201.278 131.409C201.254 131.41 201.232 131.422 201.216 131.442L198.312 135.003C198.304 135.013 198.298 135.024 198.295 135.036C198.291 135.048 198.289 135.061 198.29 135.074C198.291 135.087 198.294 135.099 198.3 135.111C198.305 135.122 198.312 135.132 198.321 135.141L198.324 135.143Z" fill="#0C0C0C"/>
</g>
<g opacity="0.2">
<path d="M199.762 136.551C199.78 136.567 199.803 136.574 199.827 136.572C199.851 136.57 199.873 136.558 199.888 136.539L203.128 132.565C203.136 132.555 203.142 132.544 203.146 132.532C203.15 132.52 203.152 132.507 203.151 132.494C203.15 132.481 203.147 132.469 203.141 132.457C203.136 132.446 203.128 132.436 203.119 132.427C203.101 132.411 203.077 132.403 203.053 132.405C203.029 132.407 203.006 132.418 202.99 132.437L199.752 136.411C199.744 136.421 199.738 136.432 199.734 136.445C199.731 136.457 199.729 136.47 199.73 136.482C199.731 136.495 199.734 136.508 199.739 136.519C199.745 136.531 199.752 136.541 199.761 136.549L199.762 136.551Z" fill="#0C0C0C"/>
</g>
<g opacity="0.2">
<path d="M201.31 138.086C201.328 138.102 201.352 138.109 201.375 138.107C201.399 138.105 201.421 138.093 201.436 138.074L204.021 134.904C204.036 134.885 204.042 134.86 204.04 134.835C204.038 134.81 204.027 134.787 204.009 134.77C203.991 134.754 203.968 134.745 203.945 134.747C203.921 134.748 203.899 134.758 203.883 134.776L201.298 137.947C201.29 137.956 201.284 137.967 201.28 137.98C201.276 137.992 201.275 138.005 201.276 138.017C201.277 138.03 201.28 138.043 201.285 138.054C201.291 138.066 201.298 138.076 201.307 138.084L201.31 138.086Z" fill="#0C0C0C"/>
</g>
<path d="M204.129 141.346L197.271 174.512C197.256 174.586 197.24 174.664 197.221 174.738C195.681 176.456 194.012 178.038 192.232 179.469C191.874 179.753 191.516 180.033 191.148 180.303C190.921 180.33 190.693 180.343 190.464 180.343C189.242 180.343 188.041 180 186.983 179.349C185.924 178.697 185.045 177.761 184.433 176.632L171.363 152.525L183.432 145.093L187.521 152.637L190.518 138.147L204.129 141.346Z" fill="#B7B7B7"/>
<path d="M183.023 156.467C182.982 156.993 182.899 157.932 182.785 159.168C182.215 165.486 180.881 179.567 180.264 186.074C172.46 188.733 164.086 188.824 156.234 186.334H156.231C150.432 184.483 145.095 181.271 140.614 176.933C140.64 171.115 140.56 164.571 140.193 160.364C139.094 147.792 140.133 145.824 141.84 144.004C141.98 143.855 142.125 143.71 142.271 143.568C144.035 141.859 146.25 140.745 149.477 140.279C151.612 139.972 154.824 139.749 154.824 139.749C154.824 139.749 155.097 145.617 161.581 145.941C170.409 146.384 169.82 139.749 169.864 139.749C172.085 139.749 177.026 139.897 180.143 141.589C180.147 141.589 180.147 141.589 180.15 141.593C180.777 141.918 181.348 142.356 181.838 142.886C185.408 146.918 183.647 148.642 183.023 156.467Z" fill="#B7B7B7"/>
<path d="M169.169 127.967C167.895 128.657 166.442 128.876 165.039 128.588C164.99 128.578 164.94 128.583 164.894 128.602C164.848 128.622 164.808 128.655 164.779 128.698C164.75 128.74 164.733 128.791 164.73 128.844C164.727 128.896 164.739 128.949 164.762 128.995C165.182 129.781 166.173 131.124 167.876 130.577C168.975 130.223 169.39 129.018 169.544 128.272C169.555 128.22 169.552 128.166 169.535 128.117C169.517 128.067 169.487 128.024 169.448 127.992C169.409 127.96 169.361 127.94 169.312 127.936C169.263 127.932 169.213 127.942 169.169 127.967Z" fill="white"/>
<path d="M169.249 121.927C169.589 121.927 169.865 121.634 169.865 121.271C169.865 120.909 169.589 120.615 169.249 120.615C168.909 120.615 168.634 120.909 168.634 121.271C168.634 121.634 168.909 121.927 169.249 121.927Z" fill="#0C0C0C"/>
<path d="M163.333 123.031C163.673 123.031 163.948 122.738 163.948 122.375C163.948 122.013 163.673 121.719 163.333 121.719C162.993 121.719 162.718 122.013 162.718 122.375C162.718 122.738 162.993 123.031 163.333 123.031Z" fill="#0C0C0C"/>
<path d="M181.662 170.63C181.658 170.631 181.654 170.631 181.65 170.63C181.625 170.627 181.602 170.613 181.587 170.591C181.572 170.57 181.565 170.543 181.569 170.516L182.657 158.83C182.658 158.817 182.662 158.804 182.669 158.792C182.675 158.78 182.683 158.77 182.693 158.762C182.703 158.754 182.715 158.748 182.727 158.745C182.739 158.742 182.752 158.741 182.764 158.743C182.789 158.747 182.812 158.761 182.827 158.783C182.842 158.804 182.849 158.831 182.845 158.858L181.757 170.544C181.754 170.568 181.742 170.59 181.725 170.606C181.707 170.622 181.685 170.631 181.662 170.63Z" fill="#0C0C0C"/>
<path d="M175.075 170.067L181.022 167.236C181.153 167.174 181.294 167.142 181.437 167.141C181.58 167.141 181.722 167.172 181.853 167.233C181.984 167.293 182.101 167.383 182.198 167.495C182.295 167.606 182.37 167.739 182.416 167.883C182.494 168.152 182.476 168.442 182.365 168.698C182.254 168.953 182.057 169.155 181.814 169.266L180.539 169.873L185.371 169.926C185.91 169.922 186.571 170.284 186.535 170.927C186.537 171.175 186.459 171.416 186.315 171.612C186.172 171.807 185.97 171.945 185.743 172.002C185.745 172.008 185.745 172.013 185.746 172.019C185.745 172.023 185.744 172.027 185.743 172.031L186.572 172.025C186.725 172.024 186.877 172.059 187.016 172.128C187.155 172.198 187.277 172.299 187.375 172.425C187.472 172.551 187.542 172.699 187.579 172.858C187.617 173.016 187.62 173.182 187.59 173.342C187.537 173.593 187.404 173.818 187.215 173.977C187.025 174.137 186.79 174.223 186.548 174.22L186.196 174.222C186.191 174.233 186.185 174.243 186.177 174.252C186.415 174.309 186.627 174.455 186.774 174.663C186.921 174.871 186.994 175.129 186.98 175.389C186.956 175.673 186.832 175.937 186.634 176.129C186.436 176.32 186.177 176.425 185.909 176.422L185.033 176.428C185.046 176.438 185.056 176.45 185.063 176.464C185.07 176.478 185.074 176.494 185.074 176.511C185.073 176.53 185.067 176.548 185.057 176.564C185.257 176.678 185.416 176.859 185.509 177.078C185.603 177.298 185.626 177.544 185.576 177.78C185.518 178.025 185.385 178.243 185.197 178.397C185.009 178.552 184.777 178.634 184.54 178.631L177.15 178.687C176.116 178.695 175.104 178.374 174.242 177.764C173.381 177.155 172.71 176.285 172.315 175.266C171.975 174.388 171.969 173.403 172.3 172.52C172.63 171.637 173.27 170.926 174.084 170.539L175.075 170.067Z" fill="#E98862"/>
<g opacity="0.2">
<path d="M180.961 171.975C180.961 172.001 180.971 172.027 180.989 172.046C181.006 172.065 181.031 172.076 181.056 172.076L185.651 172.12C185.677 172.12 185.701 172.11 185.719 172.091C185.737 172.072 185.747 172.047 185.747 172.02C185.747 171.993 185.738 171.967 185.72 171.948C185.702 171.929 185.678 171.918 185.653 171.918L181.057 171.873C181.032 171.873 181.007 171.884 180.99 171.903C180.972 171.922 180.962 171.948 180.962 171.975H180.961Z" fill="#0C0C0C"/>
</g>
<g opacity="0.2">
<path d="M180.886 174.136C180.886 174.163 180.896 174.188 180.914 174.207C180.931 174.226 180.956 174.237 180.981 174.237L186.109 174.286C186.134 174.286 186.159 174.276 186.176 174.257C186.194 174.238 186.204 174.212 186.204 174.185C186.204 174.158 186.193 174.133 186.176 174.114C186.158 174.095 186.134 174.084 186.109 174.084L180.98 174.034C180.955 174.034 180.931 174.045 180.913 174.064C180.895 174.083 180.886 174.109 180.886 174.136Z" fill="#0C0C0C"/>
</g>
<g opacity="0.2">
<path d="M180.793 176.473C180.793 176.5 180.803 176.526 180.821 176.545C180.839 176.564 180.863 176.575 180.888 176.575L184.979 176.614C185.004 176.614 185.028 176.604 185.046 176.585C185.064 176.566 185.074 176.54 185.074 176.513C185.074 176.486 185.064 176.46 185.046 176.441C185.028 176.422 185.004 176.412 184.979 176.412L180.888 176.372C180.863 176.372 180.839 176.383 180.821 176.402C180.803 176.421 180.793 176.447 180.793 176.474V176.473Z" fill="#0C0C0C"/>
</g>
<path d="M176.78 181.357L156.234 186.334H156.231C150.432 184.483 145.096 181.271 140.615 176.933C140.133 176.467 139.662 175.99 139.202 175.501C138.399 174.647 137.632 173.759 136.899 172.837L139.775 148.174C140.089 146.186 141.131 144.412 142.671 143.243C144.212 142.073 146.125 141.604 147.99 141.939C149.855 142.273 151.519 143.384 152.616 145.026C153.713 146.669 154.153 148.708 153.839 150.696L152.021 173.854L174.93 168.326L176.78 181.357Z" fill="#B7B7B7"/>
<path d="M147.387 174.763C147.374 174.764 147.362 174.762 147.35 174.758C147.338 174.754 147.327 174.748 147.317 174.739C147.308 174.73 147.3 174.72 147.294 174.708C147.289 174.696 147.285 174.683 147.284 174.669C147.284 174.656 147.285 174.643 147.289 174.63C147.293 174.617 147.299 174.606 147.307 174.596C147.315 174.585 147.325 174.577 147.337 174.571C147.348 174.565 147.36 174.562 147.372 174.561L151.965 173.514C151.978 173.512 151.99 173.512 152.003 173.516C152.015 173.519 152.026 173.524 152.036 173.532C152.046 173.54 152.055 173.55 152.061 173.562C152.068 173.573 152.072 173.586 152.074 173.599C152.076 173.612 152.075 173.625 152.072 173.638C152.069 173.651 152.064 173.663 152.056 173.674C152.049 173.685 152.039 173.694 152.029 173.701C152.018 173.708 152.006 173.712 151.994 173.714L147.399 174.761C147.395 174.762 147.391 174.763 147.387 174.763Z" fill="#0C0C0C"/>
<path d="M176.778 181.357C176.784 181.382 176.779 181.409 176.766 181.432C176.753 181.455 176.733 181.471 176.709 181.478L156.749 186.492C156.623 186.455 156.499 186.418 156.376 186.377L176.569 181.309L174.77 168.478L151.998 173.715C151.983 173.717 151.968 173.716 151.954 173.712C151.94 173.707 151.926 173.699 151.916 173.688C151.906 173.676 151.899 173.662 151.895 173.647C151.89 173.632 151.889 173.616 151.89 173.6L153.167 160.367C153.169 160.354 153.174 160.341 153.18 160.33C153.187 160.319 153.196 160.309 153.206 160.302C153.217 160.294 153.228 160.289 153.24 160.286C153.253 160.283 153.265 160.283 153.278 160.286C153.302 160.29 153.325 160.304 153.339 160.326C153.354 160.347 153.361 160.374 153.357 160.401L152.099 173.499L174.811 168.252C174.824 168.248 174.837 168.247 174.849 168.25C174.862 168.252 174.874 168.257 174.884 168.265C174.895 168.271 174.905 168.28 174.912 168.29C174.92 168.301 174.925 168.313 174.929 168.326L176.778 181.357Z" fill="#0C0C0C"/>
<path d="M37.2117 235C57.7631 235 74.4233 217.24 74.4233 195.333C74.4233 173.425 57.7631 155.665 37.2117 155.665C16.6602 155.665 0 173.425 0 195.333C0 217.24 16.6602 235 37.2117 235Z" fill="white"/>
<path opacity="0.09" d="M37.2117 235C57.7631 235 74.4233 217.24 74.4233 195.333C74.4233 173.425 57.7631 155.665 37.2117 155.665C16.6602 155.665 0 173.425 0 195.333C0 217.24 16.6602 235 37.2117 235Z" fill="#BF4B9E"/>
<path d="M26.9633 172.833C26.9633 172.833 27.3666 184.781 34.847 185.33L36.114 169.575L26.9633 172.833Z" fill="#0A0A0A"/>
<path d="M28.4037 187.77C30.8512 187.77 32.8353 185.655 32.8353 183.046C32.8353 180.437 30.8512 178.322 28.4037 178.322C25.9562 178.322 23.9722 180.437 23.9722 183.046C23.9722 185.655 25.9562 187.77 28.4037 187.77Z" fill="#0A0A0A"/>
<path d="M45.7428 190.874C45.7032 190.869 45.2655 198.616 36.823 197.94C30.9784 197.475 28.8947 190.864 28.761 190.864C29.4289 190.746 30.0878 190.576 30.7323 190.355C31.6525 189.828 32.7912 189.279 33.0877 187.374C33.2588 186.276 32.969 180.658 33.058 179.547L42.0294 181.682C41.9027 184.028 41.0265 189.468 44.1017 190.431C44.6129 190.59 45.1641 190.736 45.7428 190.874Z" fill="#E98862"/>
<path opacity="0.5" d="M42.1553 188.207C42.0147 187.724 41.9242 187.225 41.8854 186.721C41.7869 185.572 41.8066 184.414 41.944 183.269C40.1206 183.007 38.4028 182.205 36.9857 180.953C36.8191 181.609 35.903 184.475 36.1567 185.098C36.6363 186.279 38.8895 188.207 42.1553 188.207Z" fill="#0C0C0C"/>
<path d="M40.7492 186.12C37.1961 186.168 32.7541 184.257 32.2036 179.169L31.7069 174.577C31.156 169.489 33.2166 165.054 37.7108 164.503C42.2048 163.95 46.0101 167.662 46.5609 172.75L46.7808 174.782C46.992 176.736 47.089 186.034 40.7492 186.12Z" fill="#E98862"/>
<path d="M45.4935 174.646C45.8013 174.646 46.0507 174.38 46.0507 174.052C46.0507 173.724 45.8013 173.458 45.4935 173.458C45.1858 173.458 44.9363 173.724 44.9363 174.052C44.9363 174.38 45.1858 174.646 45.4935 174.646Z" fill="#0C0C0C"/>
<path d="M39.7983 175.34C40.1061 175.34 40.3555 175.074 40.3555 174.746C40.3555 174.418 40.1061 174.152 39.7983 174.152C39.4906 174.152 39.2411 174.418 39.2411 174.746C39.2411 175.074 39.4906 175.34 39.7983 175.34Z" fill="#0C0C0C"/>
<path opacity="0.5" d="M42.6245 179.269H42.6333C42.8154 179.245 42.9961 179.21 43.1747 179.165C43.4414 179.096 43.793 178.974 43.7654 178.72C43.7338 178.43 42.6507 175.393 42.5272 175.048C42.5219 175.033 42.5138 175.02 42.5035 175.008C42.4932 174.997 42.4809 174.987 42.4672 174.981C42.4535 174.974 42.4388 174.971 42.4238 174.97C42.4088 174.97 42.3939 174.972 42.3799 174.978C42.3659 174.984 42.3531 174.992 42.3422 175.003C42.3313 175.014 42.3226 175.027 42.3165 175.042C42.3103 175.057 42.307 175.072 42.3066 175.088C42.3061 175.104 42.3087 175.12 42.314 175.135C42.7762 176.428 43.5177 178.553 43.5386 178.748C43.2535 178.919 42.934 179.015 42.607 179.027C42.5769 179.03 42.5489 179.045 42.5292 179.069C42.5095 179.094 42.4997 179.125 42.502 179.158C42.5043 179.19 42.5185 179.22 42.5415 179.241C42.5645 179.262 42.5943 179.272 42.6245 179.27V179.269Z" fill="#0C0C0C"/>
<path opacity="0.5" d="M41.8209 181.386C42.5508 181.341 43.2607 181.115 43.8934 180.724C43.9184 180.708 43.9364 180.682 43.9438 180.652C43.9512 180.621 43.9474 180.589 43.9332 180.562C43.919 180.535 43.8955 180.514 43.8675 180.505C43.8395 180.495 43.8092 180.498 43.7829 180.511C42.4164 181.317 41.1094 181.364 40.0039 180.646C39.9816 180.631 39.9585 180.617 39.9348 180.605C39.9074 180.593 39.877 180.594 39.8498 180.605C39.8226 180.617 39.8008 180.64 39.7889 180.669C39.7769 180.697 39.7758 180.73 39.7857 180.759C39.7956 180.789 39.8158 180.813 39.842 180.827C39.8506 180.832 39.8651 180.841 39.8851 180.854C40.4663 181.233 41.1404 181.418 41.8209 181.386Z" fill="#0C0C0C"/>
<path d="M28.0537 175.882L32.0807 175.412C35.1784 174.345 36.4654 168.861 36.4654 168.861C36.4654 168.861 39.2412 172.226 47.4669 170.689C47.4669 170.689 47.1483 159.385 34.638 160.976C30.2821 161.531 26.9976 166.188 26.9637 172.276C26.9402 176.542 28.0537 175.882 28.0537 175.882Z" fill="#0A0A0A"/>
<path d="M32.6509 180.685C31.285 180.853 30.0094 179.431 29.8519 177.975C29.6945 176.519 30.7145 175.58 32.0804 175.413L32.8897 176.301L33.8251 180.54L32.6509 180.685Z" fill="#E98862"/>
<path d="M43.5221 172.57C43.9249 172.332 44.3802 172.214 44.8405 172.228C45.0677 172.234 45.2929 172.276 45.5085 172.352C45.7227 172.427 45.9272 172.531 46.117 172.661C46.136 172.673 46.1496 172.694 46.155 172.717C46.1604 172.74 46.1571 172.765 46.1459 172.786C46.1347 172.807 46.1163 172.822 46.0947 172.829C46.0731 172.835 46.0499 172.833 46.0299 172.822L46.0242 172.819C45.8443 172.705 45.6517 172.615 45.4509 172.553C45.252 172.49 45.0452 172.459 44.8376 172.461C44.4246 172.464 44.0194 172.582 43.6634 172.805L43.6548 172.811C43.6401 172.822 43.6236 172.829 43.6063 172.832C43.5889 172.835 43.5712 172.835 43.554 172.831C43.5368 172.827 43.5206 172.819 43.5063 172.808C43.492 172.797 43.4799 172.783 43.4708 172.767C43.4616 172.751 43.4556 172.733 43.453 172.715C43.4505 172.696 43.4515 172.677 43.4559 172.659C43.4604 172.641 43.4683 172.624 43.479 172.609C43.4898 172.594 43.5033 172.582 43.5186 172.572L43.5221 172.57Z" fill="#0C0C0C"/>
<path d="M39.9135 173.278C39.5197 173.145 39.0998 173.126 38.6968 173.222C38.4938 173.269 38.2987 173.349 38.118 173.459C37.9355 173.567 37.7665 173.7 37.615 173.854L37.6103 173.859C37.593 173.872 37.5717 173.879 37.5504 173.877C37.529 173.875 37.5091 173.864 37.4945 173.848C37.4798 173.831 37.4714 173.809 37.4709 173.786C37.4703 173.763 37.4776 173.741 37.4915 173.724C37.6494 173.552 37.8269 173.403 38.0198 173.278C38.214 173.152 38.4248 173.058 38.6451 172.998C39.0908 172.875 39.5594 172.882 40.0018 173.018C40.0189 173.022 40.035 173.03 40.049 173.042C40.063 173.053 40.0747 173.068 40.0834 173.084C40.0922 173.1 40.0977 173.118 40.0997 173.137C40.1017 173.156 40.1001 173.175 40.095 173.193C40.09 173.211 40.0816 173.228 40.0704 173.242C40.0591 173.257 40.0452 173.269 40.0295 173.277C40.0138 173.286 39.9967 173.291 39.9791 173.292C39.9615 173.294 39.9438 173.291 39.9271 173.285H39.9236L39.9135 173.278Z" fill="#0C0C0C"/>
<path opacity="0.52" d="M41.8967 182.536C42.0288 182.531 42.1602 182.513 42.2895 182.483C42.3182 182.476 42.3431 182.457 42.3588 182.43C42.3745 182.403 42.3799 182.371 42.3738 182.34C42.3677 182.309 42.3505 182.282 42.326 182.264C42.3015 182.246 42.2714 182.24 42.2423 182.245C42.0404 182.308 41.8282 182.324 41.62 182.293C41.4117 182.261 41.2122 182.183 41.0347 182.062C41.0113 182.042 40.9812 182.032 40.9511 182.036C40.921 182.039 40.8933 182.055 40.8741 182.08C40.855 182.105 40.8459 182.137 40.849 182.169C40.852 182.201 40.8669 182.23 40.8903 182.251C41.1847 182.467 41.5403 182.568 41.8967 182.536Z" fill="#0C0C0C"/>
<path opacity="0.1" d="M39.0256 179.363C39.6115 179.341 40.0742 178.952 40.0592 178.494C40.0441 178.035 39.557 177.682 38.9711 177.704C38.3852 177.726 37.9225 178.115 37.9375 178.573C37.9526 179.031 38.4397 179.385 39.0256 179.363Z" fill="#0C0C0C"/>
<path opacity="0.1" d="M45.2965 178.098C45.313 178.556 45.7998 178.908 46.3858 178.888C46.4871 178.884 46.5878 178.869 46.6861 178.843C46.7555 178.305 46.798 177.786 46.8211 177.304C46.6633 177.247 46.4969 177.221 46.3304 177.229C45.7457 177.25 45.2832 177.638 45.2965 178.098Z" fill="#0C0C0C"/>
<path d="M58.3521 199.034C58.3268 201.739 57.4557 204.963 57.1452 208.86C57.0629 209.9 54.9687 212.909 54.6646 216.255C54.2814 220.516 55.1338 227.162 55.2478 230.035C49.3617 233.507 42.7034 235.215 35.9799 234.977C29.2565 234.739 22.719 232.565 17.0618 228.685C16.9097 221.303 16.7292 212.189 16.4979 210.005C15.7472 202.792 15.9499 198.23 17.0333 196.096C18.804 192.611 21.9558 191.548 25.2533 191.068C27.2679 190.778 30.2931 190.572 30.2931 190.572C30.2931 190.572 30.5496 196.1 36.6632 196.407C44.9846 196.826 44.4303 190.572 44.4715 190.572C47.4902 190.572 53.211 191.342 55.403 192.936C57.7281 194.621 58.3806 196.62 58.3521 199.034Z" fill="#874BCA"/>
<path d="M29.6037 203.241L18.3142 229.504C13.9796 226.776 10.2081 223.14 7.22742 218.817L16.6448 196.909L29.6037 203.241Z" fill="#874BCA"/>
<path d="M67.4725 218.419C65.2609 221.709 62.5915 224.619 59.5566 227.05C58.5576 227.854 57.5204 228.603 56.4491 229.292L44.8618 202.137L57.8365 195.843L67.4725 218.419Z" fill="#874BCA"/>
<path d="M99.7679 82.5999C121.165 82.5999 138.511 64.1093 138.511 41.2999C138.511 18.4906 121.165 0 99.7679 0C78.3706 0 61.0247 18.4906 61.0247 41.2999C61.0247 64.1093 78.3706 82.5999 99.7679 82.5999Z" fill="white"/>
<path opacity="0.09" d="M99.7679 82.5999C121.165 82.5999 138.511 64.1093 138.511 41.2999C138.511 18.4906 121.165 0 99.7679 0C78.3706 0 61.0247 18.4906 61.0247 41.2999C61.0247 64.1093 78.3706 82.5999 99.7679 82.5999Z" fill="#367CFF"/>
<path d="M107.259 16.5688C107.259 16.5688 109.713 13.7344 109.523 8.33571C109.376 4.15571 106.299 7.47601 106.299 7.47601C106.299 7.47601 106.165 4.46738 104.208 5.14609C102.251 5.82481 101.649 9.12856 101.649 9.12856" fill="#0C0C0C"/>
<path d="M93.8865 7.49292C93.8865 7.49292 84.1159 10.5539 90.1617 24.2518L91.054 24.1444L92.8653 23.9269" fill="#0C0C0C"/>
<path d="M107.732 38.4605C107.688 38.4544 107.194 47.1926 97.6707 46.4295C91.0782 45.903 88.7275 38.447 88.5764 38.447C89.2872 38.2859 90.1656 38.0418 90.5147 37.9577C91.2756 37.7695 91.9647 37.3387 92.4903 36.7228C93.0159 36.1069 93.3531 35.335 93.4571 34.5097C93.65 33.2712 93.3228 26.9345 93.4235 25.6814L103.543 28.089C103.402 30.736 102.412 36.8717 105.881 37.9577C106.458 38.1377 107.08 38.3031 107.732 38.4605Z" fill="#E98862"/>
<path opacity="0.52" d="M103.686 35.4505C103.528 34.9059 103.426 34.3445 103.382 33.7763C103.271 32.4797 103.293 31.1739 103.448 29.8823C101.391 29.5864 99.4536 28.6814 97.8552 27.2701C97.6671 28.01 96.6338 31.2425 96.9198 31.9455C97.4609 33.2746 100.002 35.4505 103.686 35.4505Z" fill="#0C0C0C"/>
<path d="M102.033 32.6685C98.0422 33.0511 92.89 31.3124 91.857 25.6409L90.9248 20.5235C89.8918 14.8507 91.8488 9.67593 96.8581 8.63929C101.867 7.60231 106.449 11.4251 107.482 17.0965L107.894 19.362C108.023 20.1424 108.102 20.9314 108.131 21.7233C108.22 23.8168 108.348 26.9987 107.404 29.3509C106.513 31.5721 104.584 32.4244 102.033 32.6685Z" fill="#E98862"/>
<path opacity="0.5" d="M102.637 27.0615C103.368 27.0468 104.086 26.8493 104.732 26.4848C104.746 26.478 104.759 26.4682 104.769 26.4561C104.78 26.444 104.788 26.4298 104.793 26.4143C104.798 26.3988 104.8 26.3823 104.799 26.3659C104.798 26.3495 104.794 26.3335 104.787 26.3188C104.78 26.3041 104.77 26.2911 104.759 26.2805C104.747 26.2699 104.733 26.262 104.718 26.2572C104.704 26.2523 104.688 26.2508 104.673 26.2525C104.657 26.2543 104.643 26.2593 104.629 26.2673C103.235 27.0173 101.927 27.0102 100.848 26.2491C100.826 26.233 100.804 26.2181 100.781 26.2045C100.767 26.1974 100.753 26.1933 100.738 26.1923C100.723 26.1912 100.708 26.1934 100.693 26.1985C100.679 26.2037 100.666 26.2118 100.655 26.2223C100.644 26.2329 100.634 26.2457 100.628 26.26C100.621 26.2744 100.617 26.29 100.616 26.3059C100.615 26.3219 100.617 26.3379 100.622 26.353C100.627 26.3681 100.635 26.3821 100.645 26.3941C100.654 26.4061 100.667 26.4159 100.68 26.423C100.689 26.428 100.702 26.4382 100.722 26.452C101.289 26.8539 101.956 27.0661 102.637 27.0615Z" fill="#0C0C0C"/>
<path opacity="0.52" d="M102.672 28.2153C102.804 28.2149 102.936 28.2025 103.067 28.1782C103.081 28.1755 103.095 28.1698 103.108 28.1613C103.121 28.1528 103.132 28.1417 103.14 28.1287C103.149 28.1156 103.155 28.1009 103.159 28.0853C103.162 28.0698 103.162 28.0536 103.16 28.0379C103.157 28.0222 103.152 28.0071 103.144 27.9936C103.136 27.9801 103.126 27.9684 103.113 27.9591C103.101 27.9499 103.087 27.9433 103.073 27.9398C103.058 27.9362 103.043 27.9358 103.028 27.9385C102.824 27.9929 102.612 28.0005 102.405 27.9605C102.198 27.9206 102.001 27.8341 101.828 27.7068C101.805 27.6863 101.776 27.6761 101.746 27.6784C101.716 27.6808 101.689 27.6954 101.669 27.7193C101.649 27.7431 101.639 27.7743 101.64 27.806C101.642 27.8378 101.655 27.8676 101.677 27.8892C101.963 28.1173 102.315 28.2326 102.672 28.2153Z" fill="#0C0C0C"/>
<path d="M106.284 20.7909C106.631 20.7909 106.913 20.491 106.913 20.121C106.913 19.751 106.631 19.451 106.284 19.451C105.937 19.451 105.656 19.751 105.656 20.121C105.656 20.491 105.937 20.7909 106.284 20.7909Z" fill="#0C0C0C"/>
<path d="M100.173 21.5524C100.52 21.5524 100.801 21.2525 100.801 20.8825C100.801 20.5125 100.52 20.2125 100.173 20.2125C99.8258 20.2125 99.5444 20.5125 99.5444 20.8825C99.5444 21.2525 99.8258 21.5524 100.173 21.5524Z" fill="#0C0C0C"/>
<path d="M92.4828 27.3043C90.9604 27.6194 89.4102 26.1387 89.1143 24.5158C88.8184 22.893 89.8901 21.7429 91.4121 21.4279L92.3941 22.3527L93.791 27.0335L92.4828 27.3043Z" fill="#E98862"/>
<path d="M93.5588 24.3976C93.5588 24.3976 92.7083 16.2548 94.912 15.3167C96.3796 14.6917 100.466 16.2828 103.771 14.9267C105.217 14.3331 106.706 14.454 106.978 15.1803C107.086 15.4676 107.291 10.9972 104.392 8.19358C102.085 5.96159 95.8512 6.40833 93.2158 7.7948C85.9184 11.6338 91.1596 21.8418 91.1596 21.8418L91.9737 24.5486L93.5588 24.3976Z" fill="#0C0C0C"/>
<g opacity="0.52">
<path d="M103.575 25.045H103.585C104.076 24.9437 104.889 24.7185 104.82 24.3271C104.762 24.0026 103.3 20.6719 103.134 20.2933C103.127 20.2772 103.117 20.2627 103.105 20.2507C103.092 20.2387 103.078 20.2295 103.062 20.2234C103.046 20.2174 103.03 20.2147 103.013 20.2155C102.996 20.2163 102.98 20.2206 102.965 20.2282C102.95 20.2357 102.936 20.2464 102.925 20.2595C102.914 20.2727 102.905 20.2881 102.899 20.3048C102.894 20.3216 102.891 20.3393 102.892 20.3571C102.893 20.3749 102.897 20.3924 102.904 20.4085C103.552 21.8834 104.531 24.1566 104.571 24.3778C104.539 24.4791 104.047 24.6746 103.539 24.7783C103.506 24.7836 103.475 24.8029 103.455 24.832C103.435 24.8611 103.426 24.8976 103.431 24.9334C103.436 24.9692 103.454 25.0015 103.482 25.023C103.509 25.0446 103.543 25.0537 103.577 25.0484L103.575 25.045Z" fill="#0C0C0C"/>
</g>
<path d="M103.923 16.8835C104.414 16.6324 104.96 16.5274 105.502 16.5796C105.768 16.6034 106.03 16.6697 106.277 16.7761C106.522 16.8797 106.753 17.0159 106.966 17.1813C107.006 17.2104 107.033 17.2547 107.042 17.3048C107.052 17.355 107.043 17.4071 107.017 17.4502C106.991 17.4933 106.95 17.524 106.904 17.5359C106.857 17.5478 106.808 17.5399 106.766 17.5139L106.752 17.5085C106.559 17.3772 106.352 17.2723 106.135 17.1961C105.921 17.1201 105.697 17.079 105.472 17.0742C105.028 17.061 104.589 17.1732 104.198 17.3994L104.182 17.4092C104.15 17.4285 104.115 17.441 104.079 17.4459C104.043 17.4508 104.006 17.4481 103.971 17.4378C103.935 17.4275 103.902 17.41 103.873 17.3861C103.844 17.3622 103.82 17.3325 103.802 17.2986C103.784 17.2648 103.772 17.2274 103.768 17.1888C103.763 17.1501 103.766 17.1108 103.775 17.0732C103.785 17.0356 103.801 17.0004 103.824 16.9695C103.846 16.9387 103.874 16.9129 103.906 16.8936L103.923 16.8835Z" fill="#0C0C0C"/>
<path d="M100.32 17.9215C99.8921 17.7939 99.4403 17.7889 99.0101 17.907C98.7914 17.965 98.5823 18.058 98.3898 18.1829C98.1934 18.3086 98.0125 18.46 97.8513 18.6337L97.8412 18.6445C97.8065 18.6803 97.76 18.7003 97.7117 18.7001C97.6634 18.6999 97.617 18.6796 97.5825 18.6436C97.548 18.6075 97.5281 18.5585 97.527 18.507C97.5259 18.4555 97.5438 18.4056 97.5767 18.3679C97.7492 18.1558 97.9462 17.9678 98.163 17.8084C98.3824 17.6458 98.6234 17.5192 98.878 17.4326C99.1324 17.3432 99.3972 17.2913 99.6648 17.2786C99.9389 17.2625 100.214 17.288 100.481 17.3542C100.553 17.3721 100.615 17.4198 100.654 17.4866C100.693 17.5535 100.706 17.6342 100.689 17.7108C100.672 17.7875 100.627 17.8539 100.565 17.8954C100.502 17.937 100.426 17.9502 100.354 17.9323L100.338 17.9276L100.32 17.9215Z" fill="#0C0C0C"/>
<path d="M102.246 11.4886C103.333 11.0192 103.688 9.25644 103.04 7.55142C102.391 5.8464 100.985 4.84476 99.8985 5.3142C98.8119 5.78363 98.4564 7.54638 99.1047 9.2514C99.7529 10.9564 101.159 11.9581 102.246 11.4886Z" fill="#0C0C0C"/>
<path d="M120.895 47.4902C120.933 50.2894 119.907 53.4365 119.565 57.6979C119.495 58.5623 119.33 60.4668 119.112 62.9486C118.754 67.0581 118.247 72.741 117.803 77.8635C111.461 81.4119 104.322 83.0195 97.1752 82.5081C90.0287 81.9967 83.1546 79.3864 77.3144 74.9663C77.175 74.8549 77.0356 74.7468 76.8963 74.6421C76.5256 68.8511 76.0885 62.7731 75.6894 58.9338C74.9387 51.765 73.9155 48.1959 74.4888 45.7849C74.5348 45.5796 74.5962 45.3786 74.6726 45.1839C76.3229 40.9157 81.578 39.0113 85.1385 38.498C87.3115 38.184 90.5805 37.9578 90.5805 37.9578C90.5805 37.9578 90.8561 43.9277 97.4543 44.2587C106.438 44.7111 105.839 37.9578 105.883 37.9578C107.337 37.9578 115.26 39.0856 117.239 40.4633C117.571 40.693 117.889 40.9456 118.19 41.2196C119.05 41.9844 119.739 42.9442 120.207 44.029C120.675 45.1138 120.91 46.2963 120.895 47.4902Z" fill="#383838"/>
<path d="M87.8181 51.8191L77.3142 74.9663C77.1748 74.8548 77.0354 74.7468 76.8961 74.6421C72.8242 71.4593 69.3709 67.4639 66.7279 62.8777L74.4887 45.7849L74.7959 45.1062L87.8181 51.8191Z" fill="#383838"/>
<path d="M86.8041 54.4832L77.2505 74.9156C77.1871 74.8649 77.127 74.8177 77.0636 74.7738L86.6046 54.3786C86.6183 54.3502 86.6418 54.3286 86.6703 54.3185C86.6987 54.3084 86.7297 54.3106 86.7566 54.3245C86.7826 54.3389 86.8023 54.3636 86.8112 54.3934C86.8201 54.4232 86.8176 54.4555 86.8041 54.4832Z" fill="white"/>
<path d="M135.244 57.9275C133.34 62.5278 130.666 66.7202 127.354 70.2997L119.111 62.9486L108.642 53.6087L118.19 41.2196L118.218 41.1825L135.244 57.9275Z" fill="#383838"/>
<path d="M119.238 63.0388C119.265 63.0373 119.291 63.0256 119.31 63.0056C119.329 62.9857 119.341 62.959 119.344 62.9304L119.888 56.1331C119.89 56.1017 119.881 56.0705 119.862 56.0464C119.843 56.0223 119.816 56.0072 119.786 56.0045C119.757 56.0022 119.728 56.0122 119.705 56.0324C119.683 56.0526 119.669 56.0813 119.666 56.1125L119.122 62.9101C119.12 62.9415 119.129 62.9726 119.148 62.9966C119.167 63.0207 119.194 63.0357 119.223 63.0384L119.238 63.0388Z" fill="white"/>
<path d="M307.155 222.968C327.563 222.968 344.108 205.332 344.108 183.576C344.108 161.821 327.563 144.185 307.155 144.185C286.746 144.185 270.202 161.821 270.202 183.576C270.202 205.332 286.746 222.968 307.155 222.968Z" fill="white"/>
<path opacity="0.09" d="M270.202 183.575C270.201 191.366 272.369 198.982 276.429 205.46C280.489 211.938 286.26 216.986 293.013 219.968C299.765 222.949 307.195 223.729 314.363 222.21C321.531 220.69 328.115 216.938 333.283 211.429C338.451 205.92 341.97 198.902 343.396 191.26C344.822 183.619 344.09 175.699 341.293 168.501C338.496 161.304 333.76 155.152 327.683 150.823C321.607 146.495 314.462 144.185 307.154 144.185C302.296 144.166 297.483 145.172 292.992 147.144C288.5 149.117 284.42 152.018 280.985 155.68C277.55 159.341 274.829 163.691 272.978 168.479C271.127 173.266 270.184 178.397 270.202 183.575Z" fill="#367CFF"/>
<path d="M323.922 161.839C323.332 169.133 323.879 171.606 326.72 175.785C329.117 179.308 315.482 176.313 309.45 175.168L314.773 158.582C314.773 158.582 324.13 159.278 323.922 161.839Z" fill="#0A0A0A"/>
<path d="M303.109 158.804C301.33 165.875 301.529 168.062 298.046 171.775C295.16 174.853 306.41 175.478 312.447 176.596L312.753 159.071C312.753 159.071 303.735 156.321 303.109 158.804Z" fill="#0A0A0A"/>
<path d="M303.709 179.369C303.749 179.363 304.191 187.183 312.713 186.501C318.612 186.03 320.715 179.358 320.85 179.358C320.176 179.238 319.511 179.066 318.861 178.843C317.932 178.311 316.782 177.757 316.483 175.835C316.31 174.726 316.603 169.056 316.513 167.933L307.458 170.088C307.584 172.456 308.471 177.947 305.367 178.918C304.85 179.08 304.293 179.228 303.709 179.369Z" fill="#E98862"/>
<path opacity="0.5" d="M307.331 176.676C307.472 176.189 307.564 175.686 307.603 175.178C307.703 174.017 307.683 172.849 307.544 171.693C309.385 171.429 311.119 170.619 312.549 169.356C312.717 170.018 313.642 172.91 313.386 173.539C312.902 174.729 310.627 176.676 307.331 176.676Z" fill="#0C0C0C"/>
<path d="M308.501 174.24C312.071 174.608 316.691 173.086 317.647 168.018L318.511 163.445C319.468 158.377 317.746 153.732 313.27 152.772C308.794 151.812 304.672 155.203 303.715 160.27L303.333 162.296C302.966 164.24 302.131 173.584 308.501 174.24Z" fill="#E98862"/>
<path d="M322.832 164.888L318.805 164.418C310.925 162.873 308.996 156.095 308.996 156.095C308.996 156.095 305.69 160.799 302.884 159.719C302.884 159.719 303.788 148.377 316.247 150.37C321.143 151.153 323.922 155.479 323.922 161.281C323.922 165.547 322.832 164.888 322.832 164.888Z" fill="#0A0A0A"/>
<path opacity="0.1" d="M311.926 166.9C311.978 166.441 311.543 166.008 310.956 165.933C310.368 165.859 309.85 166.17 309.799 166.63C309.748 167.089 310.182 167.522 310.77 167.597C311.357 167.672 311.875 167.36 311.926 166.9Z" fill="#0C0C0C"/>
<path opacity="0.1" d="M304.565 165.762C304.512 166.221 303.995 166.532 303.407 166.458C303.305 166.445 303.205 166.421 303.108 166.386C303.081 165.839 303.079 165.313 303.094 164.826C303.257 164.783 303.427 164.772 303.594 164.795C304.18 164.869 304.614 165.302 304.565 165.762Z" fill="#0C0C0C"/>
<path opacity="0.5" d="M307.159 167.18H307.15C306.969 167.14 306.79 167.089 306.614 167.027C306.351 166.934 306.007 166.78 306.055 166.526C306.109 166.238 307.44 163.281 307.591 162.945C307.597 162.93 307.607 162.917 307.618 162.905C307.629 162.894 307.642 162.885 307.657 162.88C307.671 162.874 307.687 162.872 307.702 162.872C307.717 162.873 307.733 162.877 307.746 162.884C307.76 162.891 307.773 162.901 307.783 162.914C307.793 162.926 307.801 162.94 307.806 162.956C307.811 162.972 307.813 162.988 307.811 163.004C307.81 163.021 307.806 163.037 307.799 163.051C307.231 164.31 306.317 166.381 306.281 166.575C306.554 166.773 306.868 166.898 307.196 166.939C307.225 166.946 307.25 166.964 307.267 166.99C307.284 167.016 307.29 167.048 307.286 167.079C307.281 167.11 307.265 167.138 307.242 167.157C307.218 167.177 307.189 167.185 307.159 167.182V167.18Z" fill="#0C0C0C"/>
<path d="M317.079 169.502C318.439 169.794 319.835 168.479 320.109 167.029C320.383 165.579 319.431 164.542 318.07 164.251L317.186 165.072L315.909 169.251L317.079 169.502Z" fill="#E98862"/>
<path d="M306.626 160.586C306.458 160.459 306.275 160.357 306.082 160.282C305.886 160.204 305.681 160.154 305.472 160.136C305.264 160.114 305.053 160.127 304.848 160.172C304.641 160.217 304.441 160.29 304.251 160.388L304.245 160.391C304.224 160.399 304.202 160.398 304.182 160.389C304.161 160.38 304.145 160.364 304.136 160.343C304.126 160.322 304.125 160.298 304.131 160.275C304.137 160.253 304.151 160.234 304.17 160.222C304.371 160.109 304.585 160.023 304.806 159.966C305.029 159.909 305.259 159.887 305.488 159.902C305.952 159.93 306.401 160.089 306.787 160.365C306.815 160.386 306.834 160.418 306.84 160.455C306.846 160.491 306.838 160.528 306.819 160.558C306.8 160.589 306.77 160.61 306.736 160.617C306.702 160.625 306.667 160.618 306.638 160.598L306.635 160.596L306.626 160.586Z" fill="#0C0C0C"/>
<path d="M310.293 161.126C310.748 161.029 311.22 161.065 311.658 161.229C311.875 161.308 312.08 161.422 312.265 161.567C312.45 161.709 312.616 161.875 312.762 162.062C312.777 162.08 312.786 162.105 312.785 162.13C312.783 162.154 312.773 162.178 312.756 162.195C312.739 162.211 312.716 162.22 312.693 162.219C312.669 162.218 312.647 162.207 312.631 162.189L312.627 162.184C312.486 162.015 312.327 161.866 312.152 161.74C311.978 161.615 311.788 161.517 311.588 161.452C311.19 161.319 310.767 161.3 310.36 161.398L310.35 161.401C310.316 161.41 310.28 161.404 310.25 161.385C310.22 161.365 310.198 161.334 310.19 161.298C310.181 161.261 310.187 161.223 310.205 161.191C310.223 161.159 310.253 161.136 310.287 161.127L310.293 161.126Z" fill="#0C0C0C"/>
<path d="M289.985 218.463C288.532 217.788 287.445 217.065 284.965 215.073C283.175 213.641 281.511 212.037 279.995 210.282L292.732 184.446L293.286 183.324L304.774 189.762L294.809 209.978L294.763 210.067L294.849 210.427" fill="#AD9DF2"/>
<path d="M332.344 197.679C332.01 201.511 331.938 207.469 331.961 212.767C327.158 217.411 321.293 220.625 314.956 222.086C308.618 223.547 302.031 223.203 295.858 221.09C295.102 213.101 293.979 201.36 293.345 194.131C292.704 186.643 290.816 184.17 295.967 180.584C298.805 179.044 303.305 178.908 305.327 178.908C304.641 186.006 318.673 186.88 319.022 178.908C329.517 179.954 334.376 180.214 332.344 197.679Z" fill="#AD9DF2"/>
<path d="M305.962 168.179C307.122 168.808 308.445 169.006 309.723 168.744C309.768 168.735 309.813 168.74 309.855 168.757C309.897 168.775 309.933 168.805 309.96 168.844C309.986 168.883 310.002 168.929 310.004 168.977C310.007 169.025 309.997 169.073 309.975 169.115C309.595 169.831 308.69 171.054 307.14 170.556C306.139 170.234 305.761 169.137 305.62 168.457C305.61 168.41 305.613 168.361 305.628 168.315C305.644 168.27 305.671 168.23 305.707 168.201C305.743 168.172 305.786 168.154 305.832 168.15C305.877 168.146 305.922 168.156 305.962 168.179Z" fill="white"/>
<path d="M305.89 162.68C306.2 162.68 306.45 162.412 306.45 162.082C306.45 161.752 306.2 161.485 305.89 161.485C305.581 161.485 305.33 161.752 305.33 162.082C305.33 162.412 305.581 162.68 305.89 162.68Z" fill="#0C0C0C"/>
<path d="M311.276 163.685C311.586 163.685 311.836 163.417 311.836 163.087C311.836 162.757 311.586 162.49 311.276 162.49C310.967 162.49 310.716 162.757 310.716 163.087C310.716 163.417 310.967 163.685 311.276 163.685Z" fill="#0C0C0C"/>
<path d="M294.586 207.027H294.597C294.62 207.023 294.64 207.01 294.654 206.991C294.668 206.971 294.674 206.947 294.671 206.922L293.68 196.281C293.679 196.269 293.675 196.258 293.669 196.247C293.664 196.236 293.656 196.227 293.647 196.22C293.638 196.212 293.627 196.207 293.616 196.204C293.605 196.201 293.594 196.201 293.582 196.203C293.571 196.204 293.56 196.208 293.55 196.214C293.541 196.221 293.532 196.229 293.525 196.238C293.518 196.248 293.513 196.259 293.51 196.271C293.508 196.282 293.507 196.295 293.509 196.307L294.499 206.948C294.502 206.97 294.513 206.99 294.529 207.005C294.545 207.019 294.565 207.027 294.586 207.027Z" fill="#0C0C0C"/>
<path d="M293.291 198.923H283.177V212.145H293.291V198.923Z" fill="white"/>
<path d="M289.149 205.534C289.15 204.661 289.393 203.807 289.848 203.081C290.303 202.355 290.95 201.79 291.707 201.456C292.464 201.122 293.297 201.034 294.1 201.205C294.904 201.375 295.642 201.796 296.221 202.413C296.8 203.031 297.194 203.818 297.354 204.674C297.514 205.531 297.431 206.419 297.118 207.225C296.804 208.032 296.273 208.722 295.592 209.207C294.911 209.692 294.11 209.951 293.291 209.95C292.193 209.949 291.14 209.483 290.363 208.655C289.587 207.827 289.15 206.705 289.149 205.534ZM290.846 205.534C290.846 206.05 290.989 206.554 291.258 206.982C291.526 207.411 291.908 207.745 292.355 207.942C292.802 208.14 293.294 208.191 293.768 208.091C294.243 207.99 294.678 207.742 295.02 207.377C295.362 207.013 295.595 206.548 295.689 206.043C295.784 205.537 295.735 205.013 295.55 204.537C295.365 204.06 295.052 203.653 294.65 203.367C294.248 203.08 293.775 202.927 293.291 202.927C292.643 202.928 292.021 203.203 291.563 203.692C291.104 204.18 290.846 204.843 290.846 205.534Z" fill="white"/>
<path d="M293.21 207.171C293.244 206.947 293.351 206.743 293.512 206.595C293.673 206.447 293.877 206.364 294.09 206.36C294.084 206.351 294.08 206.341 294.078 206.33L293.776 206.261C293.566 206.216 293.377 206.096 293.241 205.92C293.105 205.744 293.029 205.524 293.028 205.295C293.03 205.152 293.062 205.012 293.121 204.883C293.18 204.755 293.265 204.642 293.37 204.553C293.475 204.464 293.598 204.401 293.729 204.368C293.859 204.336 293.995 204.334 294.126 204.365L294.837 204.528C294.837 204.525 294.837 204.523 294.837 204.52C294.838 204.513 294.841 204.508 294.843 204.502C294.658 204.409 294.508 204.252 294.417 204.057C294.326 203.861 294.3 203.639 294.343 203.426C294.421 202.866 295.052 202.681 295.513 202.788L297.354 203.139L296.733 202.7C296.537 202.555 296.4 202.337 296.349 202.088C296.298 201.84 296.338 201.58 296.46 201.362C296.527 201.252 296.614 201.157 296.716 201.084C296.818 201.01 296.933 200.96 297.054 200.935C297.175 200.911 297.299 200.913 297.419 200.942C297.539 200.97 297.653 201.025 297.753 201.102L305.171 210.151L303.524 209.355C303.013 210.156 302.288 210.777 301.444 211.136C300.6 211.496 299.674 211.579 298.786 211.375L294.763 210.44C294.553 210.396 294.363 210.275 294.227 210.1C294.091 209.924 294.015 209.703 294.014 209.475C294.017 209.269 294.082 209.069 294.198 208.906C294.315 208.742 294.478 208.622 294.663 208.563C294.657 208.549 294.655 208.533 294.657 208.517C294.659 208.502 294.665 208.489 294.674 208.477C294.682 208.465 294.693 208.456 294.706 208.45L293.963 208.279C293.73 208.23 293.522 208.089 293.382 207.883C293.242 207.677 293.181 207.423 293.21 207.171Z" fill="#E98862"/>
<path opacity="0.2" d="M296.181 204.847C296.2 204.842 296.217 204.831 296.23 204.814C296.242 204.798 296.248 204.777 296.248 204.756C296.248 204.735 296.24 204.715 296.227 204.699C296.215 204.683 296.197 204.672 296.177 204.668L294.935 204.444C294.924 204.442 294.912 204.442 294.901 204.444C294.889 204.446 294.879 204.451 294.869 204.458C294.86 204.465 294.852 204.474 294.846 204.484C294.839 204.494 294.835 204.506 294.833 204.518C294.831 204.53 294.832 204.542 294.834 204.554C294.837 204.566 294.842 204.577 294.849 204.587C294.856 204.597 294.864 204.605 294.874 204.611C294.884 204.618 294.895 204.622 294.906 204.623L296.149 204.847C296.159 204.849 296.17 204.849 296.181 204.847Z" fill="#0C0C0C"/>
<path opacity="0.2" d="M295.881 206.72C295.9 206.716 295.918 206.705 295.93 206.688C295.942 206.672 295.949 206.651 295.949 206.63C295.948 206.609 295.941 206.589 295.928 206.573C295.916 206.557 295.898 206.546 295.878 206.542L294.176 206.22C294.165 206.218 294.153 206.217 294.142 206.219C294.13 206.222 294.12 206.226 294.11 206.233C294.1 206.24 294.092 206.249 294.086 206.259C294.079 206.269 294.075 206.281 294.073 206.293C294.071 206.305 294.071 206.318 294.074 206.33C294.077 206.342 294.081 206.353 294.088 206.363C294.095 206.373 294.104 206.381 294.114 206.387C294.124 206.393 294.135 206.397 294.146 206.399L295.849 206.721C295.859 206.723 295.87 206.723 295.881 206.72Z" fill="#0C0C0C"/>
<path opacity="0.2" d="M295.567 208.752C295.587 208.747 295.604 208.736 295.617 208.719C295.629 208.702 295.635 208.682 295.635 208.66C295.634 208.639 295.627 208.619 295.614 208.603C295.6 208.587 295.582 208.576 295.563 208.573L294.755 208.442C294.733 208.439 294.712 208.446 294.695 208.46C294.678 208.475 294.666 208.495 294.663 208.518C294.66 208.541 294.665 208.565 294.677 208.584C294.689 208.603 294.708 208.616 294.73 208.621L295.537 208.753C295.547 208.755 295.557 208.754 295.567 208.752Z" fill="#0C0C0C"/>
<path d="M337.498 206.052C332.946 213.029 326.406 218.255 318.847 220.955L318.845 220.952C317.166 220.602 301.15 213.861 299.032 213.418L301.35 201.89C307.302 203.153 318.158 208.02 324.143 209.287L319.92 188.876C319.767 187.975 319.784 187.05 319.969 186.155C320.154 185.26 320.503 184.413 320.997 183.664C321.492 182.914 322.121 182.277 322.848 181.788C323.575 181.299 324.386 180.97 325.233 180.818C326.081 180.666 326.948 180.695 327.785 180.903C328.622 181.111 329.412 181.494 330.109 182.03C330.806 182.566 331.397 183.244 331.846 184.025C332.295 184.806 332.595 185.675 332.727 186.58L337.498 206.052Z" fill="#AD9DF2"/>
<path d="M328.68 210.79C328.702 210.79 328.722 210.781 328.738 210.765C328.754 210.749 328.763 210.727 328.765 210.704C328.766 210.681 328.76 210.659 328.747 210.641C328.733 210.622 328.714 210.61 328.693 210.606L324.192 208.979C324.181 208.977 324.17 208.977 324.159 208.98C324.147 208.983 324.137 208.988 324.128 208.995C324.119 209.003 324.111 209.012 324.105 209.022C324.099 209.033 324.095 209.044 324.094 209.056C324.091 209.081 324.096 209.105 324.11 209.125C324.124 209.144 324.144 209.157 324.167 209.161L328.667 210.789C328.672 210.79 328.676 210.79 328.68 210.79Z" fill="#0C0C0C"/>
<path d="M324.262 209.057C324.264 209.086 324.256 209.114 324.238 209.137C324.229 209.147 324.217 209.154 324.204 209.159C324.191 209.163 324.177 209.164 324.163 209.161L301.494 202.029L299.222 213.375L318.743 220.988C318.683 221.01 318.619 221.031 318.559 221.053C318.515 221.068 318.472 221.084 318.426 221.096L299.095 213.53C299.073 213.524 299.054 213.509 299.043 213.488C299.031 213.467 299.027 213.443 299.032 213.419L301.35 201.891C301.352 201.88 301.357 201.869 301.364 201.859C301.371 201.85 301.38 201.842 301.39 201.836C301.399 201.829 301.41 201.824 301.422 201.822C301.433 201.82 301.445 201.821 301.456 201.824L324.071 208.966L321.511 197.713C321.508 197.689 321.514 197.665 321.527 197.645C321.541 197.626 321.561 197.613 321.583 197.609C321.595 197.606 321.606 197.606 321.617 197.609C321.628 197.611 321.639 197.616 321.648 197.623C321.658 197.63 321.666 197.639 321.672 197.649C321.678 197.659 321.682 197.67 321.684 197.682L324.262 209.057Z" fill="#0C0C0C"/>
<path d="M3.69605 232.825C3.67495 232.825 3.65407 232.821 3.63459 232.812C3.61541 232.803 3.59801 232.791 3.58338 232.775C3.56874 232.759 3.55717 232.741 3.54932 232.72C3.54146 232.699 3.53748 232.678 3.5376 232.655C3.53772 232.633 3.54194 232.611 3.55002 232.591L9.75671 216.864C9.77305 216.823 9.80411 216.791 9.84305 216.774C9.88199 216.757 9.92562 216.757 9.96435 216.775C10.0031 216.792 10.0337 216.825 10.0496 216.867C10.0654 216.908 10.0651 216.955 10.0488 216.996L3.84207 232.721C3.83003 232.752 3.80974 232.778 3.78376 232.797C3.75778 232.815 3.72726 232.825 3.69605 232.825Z" fill="#0C0C0C"/>
<path d="M40.2182 233.004H40.2112C40.1904 233.005 40.1696 233.001 40.1501 232.994C40.1305 232.986 40.1126 232.975 40.0972 232.96C40.0819 232.945 40.0694 232.927 40.0606 232.907C40.0518 232.886 40.0468 232.865 40.0458 232.843L39.354 216.758C39.3535 216.714 39.3688 216.671 39.3967 216.638C39.4247 216.605 39.4634 216.585 39.5048 216.581C39.5256 216.58 39.5464 216.584 39.566 216.591C39.5856 216.599 39.6036 216.61 39.619 216.625C39.6344 216.64 39.6468 216.658 39.6557 216.679C39.6645 216.699 39.6695 216.72 39.6705 216.743L40.3623 232.827C40.3643 232.871 40.3505 232.913 40.3236 232.946C40.2967 232.979 40.2589 233 40.2182 233.004Z" fill="#0C0C0C"/>
</svg>
